<svg xmlns="http://www.w3.org/2000/svg" width="188.085" height="123.555" viewBox="0 0 188.085 123.555">
  <g id="Driving_Time" data-name="Driving Time" transform="translate(0.021 0.01)">
    <path id="Path_854" data-name="Path 854" d="M872.775,115.725a15.8,15.8,0,0,0-.609-31.6H871.9a15.827,15.827,0,0,0-15.2.337,15.809,15.809,0,0,0-20.5,23.239,15.808,15.808,0,0,0,19.123,22.845c3.109,3.909,6.666,8.748,5.961,10.476-.882,2.162-.357,24.1-.108,32.906a4.031,4.031,0,0,0,.04.454c-5.828.319-10.045,1.243-10.045,2.334,0,1.349,6.492,2.452,14.5,2.452s14.5-1.1,14.5-2.452c0-.506-.932-.988-2.529-1.383a7.13,7.13,0,0,0,1.18-.884,2.182,2.182,0,0,0,.718-1.083.961.961,0,0,0-.506-1.1c-.46-.177-.953.143-1.325.465a1.777,1.777,0,0,1-1.29.622,1.964,1.964,0,0,0,.607-1.838.77.77,0,0,0-.169-.373c-.256-.273-.72-.157-1.025.059a3.823,3.823,0,0,0-1.251,3.2,6.133,6.133,0,0,1-.019-1.317,1.36,1.36,0,0,0-.494-1.167,1.5,1.5,0,0,0-.755-.169,1.567,1.567,0,0,0-1.224.349,1.216,1.216,0,0,0,.049,1.5,4.693,4.693,0,0,0,1.266,1.012l.069.046c-1.469-.159-3.116-.275-4.89-.337a3.52,3.52,0,0,0,.032-.423c.155-8.527.58-29.16,1.138-31.611.7-3.1,0-21.97,0-21.97s-.074-2.1.027-4.752A16.121,16.121,0,0,0,872.775,115.725ZM859.6,128.156a15.5,15.5,0,0,0,1.251-1.1l.452,2.986Z" transform="translate(-699.906 -82.36)" fill="#fff" opacity="0.1"/>
    <path id="Path_855" data-name="Path 855" d="M853.541,398.812a5.8,5.8,0,0,0-.223-11.586h-.1a7.918,7.918,0,0,0-13.1,8.645,5.8,5.8,0,0,0,7.013,8.379c1.142,1.433,2.445,3.2,2.192,3.841-.324.794-.132,8.841-.04,12.068a1.323,1.323,0,0,0,.015.169c-2.138.116-3.684.455-3.684.855,0,.506,2.381.9,5.318.9s5.318-.4,5.318-.9c0-.187-.337-.363-.924-.506a2.783,2.783,0,0,0,.433-.324.8.8,0,0,0,.263-.4.351.351,0,0,0-.184-.4.52.52,0,0,0-.486.169c-.137.116-.293.255-.474.229a.715.715,0,0,0,.223-.674.287.287,0,0,0-.061-.137c-.094-.1-.265-.057-.376.022a1.406,1.406,0,0,0-.459,1.18,2.111,2.111,0,0,1,0-.484.506.506,0,0,0-.182-.428.553.553,0,0,0-.277-.064.567.567,0,0,0-.449.128.447.447,0,0,0,.017.551,1.757,1.757,0,0,0,.465.371l.025.017c-.54-.057-1.143-.1-1.791-.123,0-.051.01-.1.012-.155.056-3.126.212-10.694.416-11.593.26-1.137,0-8.057,0-8.057s-.027-.769.01-1.744A5.75,5.75,0,0,0,853.541,398.812Zm-4.833,4.561a5.821,5.821,0,0,0,.459-.4l.169,1.094Z" transform="translate(-704.753 -335.52)" fill="#fff" opacity="0.1"/>
    <ellipse id="Ellipse_167" data-name="Ellipse 167" cx="26.472" cy="3.278" rx="26.472" ry="3.278" transform="translate(72.59 116.989)" fill="#f36" opacity="0.1"/>
    <g id="Group_247" data-name="Group 247" transform="translate(-0.022 33.653)" opacity="0.5">
      <path id="Path_856" data-name="Path 856" d="M273.715,329.09c-2.023,2.843-3.58,11.117-4.013,13.611l-3.622-.074c.187-2.141,4.4-10.856,5.573-13.247C272.305,329.277,273,329.178,273.715,329.09Z" transform="translate(-228.127 -321.397)" fill="#f36"/>
      <rect id="Rectangle_215" data-name="Rectangle 215" width="1.605" height="2.261" transform="translate(89.19 5.878) rotate(-1.08)" fill="#dce0ed"/>
      <path id="Path_857" data-name="Path 857" d="M571.545,318.13l.013.735a1.193,1.193,0,0,1-.347.054l-1.256.013-.015-.772Z" transform="translate(-480.75 -312.285)" opacity="0.1"/>
      <path id="Path_858" data-name="Path 858" d="M565.28,284.1l1.518-.029a1.816,1.816,0,0,1,1.7,1.1,5.143,5.143,0,0,1-.081,4.563,1.251,1.251,0,0,1-1.086.653l-1.934.02Z" transform="translate(-476.875 -283.966)" fill="#dce0ed"/>
      <ellipse id="Ellipse_168" data-name="Ellipse 168" cx="1.622" cy="3.157" rx="1.622" ry="3.157" transform="translate(86.854 0.065) rotate(-1.146)" fill="#f0f0f4"/>
      <rect id="Rectangle_216" data-name="Rectangle 216" width="1.605" height="1.98" transform="translate(75.016 6.09) rotate(-1.146)" fill="#dce0ed"/>
      <path id="Path_859" data-name="Path 859" d="M487.034,319.88l.012.629a1.141,1.141,0,0,1-.347.054l-1.256.013-.012-.666Z" transform="translate(-410.49 -313.74)" opacity="0.1"/>
      <path id="Path_860" data-name="Path 860" d="M480.76,285.857l1.518-.029a1.819,1.819,0,0,1,1.7,1.1,5.142,5.142,0,0,1-.081,4.565,1.253,1.253,0,0,1-1.086.653l-1.934.02Z" transform="translate(-406.607 -285.43)" fill="#dce0ed"/>
      <ellipse id="Ellipse_169" data-name="Ellipse 169" cx="1.622" cy="3.157" rx="1.622" ry="3.157" transform="translate(72.532 0.46) rotate(-1.08)" fill="#f0f0f4"/>
      <path id="Path_861" data-name="Path 861" d="M481.477,292.79s-.6.106-.27.89a5.472,5.472,0,0,1,.381,1.19s.605.3.561-.728A1.539,1.539,0,0,0,481.477,292.79Z" transform="translate(-406.897 -291.218)" fill="#dce0ed"/>
      <ellipse id="Ellipse_170" data-name="Ellipse 170" cx="9.468" cy="10.377" rx="9.468" ry="10.377" transform="translate(4.967 37.613) rotate(-1.08)" fill="#636780"/>
      <path id="Path_862" data-name="Path 862" d="M104.9,508.9c-4.947.427-8.785,5.01-8.681,10.522a10.378,10.378,0,0,0,6.315,9.6c4.947-.427,8.787-5.01,8.682-10.522A10.39,10.39,0,0,0,104.9,508.9Z" transform="translate(-86.907 -470.887)" opacity="0.1"/>
      <ellipse id="Ellipse_171" data-name="Ellipse 171" cx="7.684" cy="10.019" rx="7.684" ry="10.019" transform="translate(80.414 13.865) rotate(-1.08)" fill="#636780"/>
      <path id="Path_863" data-name="Path 863" d="M524.488,367.53c-3.163,1.281-5.416,5.167-5.33,9.718.091,4.863,2.824,8.864,6.365,9.709,3.163-1.282,5.418-5.167,5.332-9.716C530.764,372.378,528.031,368.375,524.488,367.53Z" transform="translate(-438.529 -353.355)" opacity="0.1"/>
      <path id="Path_864" data-name="Path 864" d="M371.647,387.584l.073-3.641s-.742-1.555-1.457-1.686-2.361-.187-2.361-.187-1.18,5.247-.3,6.8S371.647,387.584,371.647,387.584Z" transform="translate(-312.259 -365.443)" fill="#f36"/>
      <path id="Path_865" data-name="Path 865" d="M371.647,387.584l.073-3.641s-.742-1.555-1.457-1.686-2.361-.187-2.361-.187-1.18,5.247-.3,6.8S371.647,387.584,371.647,387.584Z" transform="translate(-312.259 -365.443)" opacity="0.1"/>
      <path id="Path_866" data-name="Path 866" d="M314.924,386.563s-.536-5.033,2.233-5.177c.357-.019.713-.034,1.067-.074,1.917-.223,7.148-.727,6.542.482,0,0-1.163,4.409-.288,5.5Z" transform="translate(-268.7 -364.567)" fill="#f36"/>
      <path id="Path_867" data-name="Path 867" d="M545.364,407.809l3.71.037s.506-6.858.717-7.4.261-3.108-.44-3.469a17.9,17.9,0,0,0-3.035-.772l-1.637,3.936-.067,3.533Z" transform="translate(-459.691 -377.199)" fill="#f36"/>
      <path id="Path_868" data-name="Path 868" d="M545.364,407.809l3.71.037s.506-6.858.717-7.4.261-3.108-.44-3.469a17.9,17.9,0,0,0-3.035-.772l-1.637,3.936-.067,3.533Z" transform="translate(-459.691 -377.199)" opacity="0.1"/>
      <path id="Path_869" data-name="Path 869" d="M463.626,392.559l-.03-.76a.44.44,0,0,1,.45-.459c1.843.044,8.552.238,9.738.814,0,0-1.1,9.569.356,11.815l-.337,7.657-16.442-.919Z" transform="translate(-387.153 -373.149)" fill="#f36"/>
      <path id="Path_870" data-name="Path 870" d="M485.56,326.4c.455-.054,1-.113,1.6-.169l.017.912-1.6.03Z" transform="translate(-410.598 -319.019)" opacity="0.1"/>
      <path id="Path_871" data-name="Path 871" d="M571.727,328.148v.115l-1.6.03-.013-.693A6.787,6.787,0,0,1,571.727,328.148Z" transform="translate(-480.891 -320.158)" opacity="0.1"/>
      <path id="Path_872" data-name="Path 872" d="M547.2,312.024l-2.423.083-5.182-9.009-.865-1.506.568-3.861.511.922Z" transform="translate(-447.885 -281.437)" fill="#dce0ed"/>
      <path id="Path_873" data-name="Path 873" d="M430.9,291.924l-.97,1.516-3.06-3.978-1.4-1.823.8-1.12.642.749Z" transform="translate(-353.723 -272.117)" fill="#dce0ed"/>
      <path id="Path_874" data-name="Path 874" d="M467.892,369.62c0,.078.012.157.019.236l-.059,1.958-1.4-1.823.8-1.121Z" transform="translate(-394.71 -354.469)" opacity="0.1"/>
      <path id="Path_875" data-name="Path 875" d="M539.809,298.652l-.214,4.445-.865-1.506.568-3.861Z" transform="translate(-447.885 -281.437)" opacity="0.1"/>
      <path id="Path_876" data-name="Path 876" d="M457.513,335.8s-1.366-8.92,2.966-10.34a1,1,0,0,1,.169-.039c1-.14,10.331-1.395,15.21-.2,0,0,3.325.437,3.324,2.219l-1.049,21.811-2.389.046.506-14.419s1.022-6.3-.875-6.687-10.5-.943-13.518-.03c0,0-2.219-.457-1.76,4.991l-.088,2.926Z" transform="translate(-387.11 -317.751)" fill="#dce0ed"/>
      <path id="Path_877" data-name="Path 877" d="M472.769,391.742a1.381,1.381,0,0,0-.585-1.219c-.674-.5-2.757-1.553-2.757-1.553l-.674.067-1.912,5.011.337,10.559,3.694,4.4Z" transform="translate(-395.034 -371.18)" fill="#f36"/>
      <path id="Path_878" data-name="Path 878" d="M472.769,391.742a1.381,1.381,0,0,0-.585-1.219c-.674-.5-2.757-1.553-2.757-1.553l-.674.067-1.912,5.011.337,10.559,3.694,4.4Z" transform="translate(-395.034 -371.18)" opacity="0.1"/>
      <path id="Path_879" data-name="Path 879" d="M417.014,397.931l-.13-10.841s-.4-4.2,2.111-4.318c0,0,5.929-.069,8.52.718a.575.575,0,0,1,.337.825c-.5.9-1.315,3.281-1.619,9.35l.123,6.5Z" transform="translate(-353.482 -366.026)" fill="#f36"/>
      <path id="Path_880" data-name="Path 880" d="M372.285,394.648l-10.79-.047h-.012l-5.3-.024.482-7.1,2.942.052,9.4,1.909,2.946,4.438Z" transform="translate(-296.117 -356.053)" fill="#f36"/>
      <path id="Path_881" data-name="Path 881" d="M372.285,394.648l-10.79-.047h-.012l-5.3-.024.482-7.1,2.942.052,9.4,1.909,2.946,4.438Z" transform="translate(-296.117 -356.053)" opacity="0.1"/>
      <path id="Path_882" data-name="Path 882" d="M397.168,404.317l-10.79-.047-.268-4.747,7.777-.413,2.946,4.438Z" transform="translate(-321 -365.722)" fill="#f36"/>
      <path id="Path_883" data-name="Path 883" d="M402.5,476.961l-5.3-.024.481-7.1s1.708,2.615,4.566,2.374Z" transform="translate(-337.137 -438.413)" fill="#fff" opacity="0.1"/>
      <path id="Path_884" data-name="Path 884" d="M632.371,533.622c-.169,2.035-1.626,1.742-1.626,1.742l-.27-.019-2.676-.194.047-3.157a11.632,11.632,0,0,1,2.713.111C631.567,532.295,632.449,532.716,632.371,533.622Z" transform="translate(-528.853 -490.06)" fill="#dce0ed"/>
      <path id="Path_885" data-name="Path 885" d="M643.318,534.344c-.169,2.035-1.626,1.742-1.626,1.742l-.27-.019a2.735,2.735,0,0,1-.455-1.518,2.565,2.565,0,0,1,.54-1.72C642.513,533.017,643.4,533.439,643.318,534.344Z" transform="translate(-539.8 -490.782)" opacity="0.1"/>
      <path id="Path_886" data-name="Path 886" d="M385.621,388.487c-2.442.046-4.371,2.757-4.308,6.055s2.093,5.935,4.534,5.888,4.371-2.757,4.308-6.055S388.063,388.442,385.621,388.487Zm-.422,10.707c-1.855.035-3.406-1.875-3.452-4.268s1.427-4.361,3.288-4.4,3.406,1.877,3.452,4.269-1.428,4.359-3.288,4.4Z" transform="translate(-323.928 -370.778)" fill="#636780"/>
      <path id="Path_887" data-name="Path 887" d="M366.977,344.869l2.106,1.993.715-1.831-3.028-1.691Z" transform="translate(-304.921 -319.356)" fill="#636780"/>
      <path id="Path_888" data-name="Path 888" d="M325.208,232.79l1.806.185.681.781-.926,4.575-2.013,7.382-1.315,5.067-.936,3.079-.556,4.062-.58,2.8-1.863,1.936-3.946-4.484-.663-1.507-1.577-3.072,3.888-1.909,4.3-.462,1.927-5.227,1.531-6.043Z" transform="translate(-260.484 -227.447)" fill="#f36"/>
      <path id="Path_889" data-name="Path 889" d="M160.51,352.85l-1.98,19.794,29.6-1.806-3.607-9.633-5.774-3.6,13.053-.032-.032-5.421-5.3-1.04-10.64-.656-7.993-.206-7.583,2.639" transform="translate(-131.795 -325.101)" fill="#f36"/>
      <path id="Path_890" data-name="Path 890" d="M160.51,352.85l-1.98,19.794,29.6-1.806-3.607-9.633-5.774-3.6,13.053-.032-.032-5.421-5.3-1.04-10.64-.656-7.993-.206-7.583,2.639" transform="translate(-131.795 -325.101)" opacity="0.1"/>
      <path id="Path_891" data-name="Path 891" d="M392.829,518.6c.093,4.909-1.453,9.407-5.988,9-5.71-.013-6.231-3.861-6.323-8.768s2.593-8.613,5.994-8.677S392.738,513.69,392.829,518.6Z" transform="translate(-323.267 -471.93)" fill="#636780"/>
      <path id="Path_892" data-name="Path 892" d="M408.154,521.054c-.071-3.8-1.781-6.816-4.126-7.954-2.974.624-5.2,4.1-5.119,8.578.076,4.022.442,7.332,3.71,8.4C406.805,530.153,408.243,525.8,408.154,521.054Z" transform="translate(-338.556 -474.379)" opacity="0.1"/>
      <path id="Path_893" data-name="Path 893" d="M437.753,389.481l-1.7,2.025,3.123-.6,2.3-2.2,2.01-4.216,2.909-1.86,7.232.845,6.682.126,2.423-2.236-2.757-.322-2.786-.01-7-.027-8.326-.064-1.622,4.59L439,388.7Z" transform="translate(-362.519 -350.624)" fill="#f36"/>
      <path id="Path_894" data-name="Path 894" d="M169.428,357.252a43.83,43.83,0,0,1-4.8,1.012l-12.861,2.6-22.17.739-2.644-2.155-1.362.27-.056.01-18.2,3.587-.3-.037-4.991-.615L76,359.444l.211-3.779.126-2.231.27-4.63.236-1.217,2.312-.255,1.079-.12,16.84-1.867,2.2-.245,1.234-.137,12.021-1.867,17.584.1-.03-5.421,6.548-21.523c1.538.219,1.518,1.255,1.518,1.255l-5.532,20.255.169,12.373c12.331,1.012,12.679-1.686,14.643-.811l2.211-7.568,20.68-.283C171.146,342.454,169.428,357.252,169.428,357.252Z" transform="translate(-70.098 -310.722)" fill="#f36"/>
      <path id="Path_895" data-name="Path 895" d="M283.54,416.19l6.826,13.96,2.224.669.492-2.29-2.609-7.762-2.617-4.48Z" transform="translate(-235.726 -379.922)" fill="#f36"/>
      <path id="Path_896" data-name="Path 896" d="M283.54,416.19l6.826,13.96,2.224.669.492-2.29-2.609-7.762-2.617-4.48Z" transform="translate(-235.726 -379.922)" opacity="0.15"/>
      <ellipse id="Ellipse_172" data-name="Ellipse 172" cx="11.883" cy="13.48" rx="11.883" ry="13.48" transform="translate(31.7 38.605) rotate(-1.08)" fill="#636780"/>
      <path id="Path_897" data-name="Path 897" d="M270.994,515.59c-6.209.551-11.023,6.5-10.888,13.658.108,5.772,3.4,10.635,7.935,12.469,6.209-.55,11.023-6.5,10.888-13.658C278.82,522.289,275.528,517.425,270.994,515.59Z" transform="translate(-223.158 -476.449)" opacity="0.1"/>
      <path id="Path_898" data-name="Path 898" d="M60.013,454.81l-.536,2.784-1.639,8.527-7.757-.6a1.6,1.6,0,0,1,.712-1.975s.307-4.834,1.708-6.382a1.452,1.452,0,0,1,.553-.4Z" transform="translate(-48.467 -425.918)" fill="#f36"/>
      <path id="Path_899" data-name="Path 899" d="M59.477,469.192l-1.639,8.527-7.757-.6a1.6,1.6,0,0,1,.712-1.975s.307-4.834,1.708-6.382Z" transform="translate(-48.467 -437.515)" fill="#fff" opacity="0.1"/>
      <path id="Path_900" data-name="Path 900" d="M113.617,425.616c1.029,1.656-1.1,17.14-1.1,17.14L93.46,439.978l.422-13.525c.33-2.432,1.75-2.742,1.75-2.742,6.639-3.516,22.032-4.521,22.032-4.521a112.731,112.731,0,0,1,26.935,4.165C128.575,421.2,113.617,425.616,113.617,425.616Z" transform="translate(-84.614 -396.304)" fill="#f36"/>
      <path id="Path_901" data-name="Path 901" d="M112.464,463.291,93.41,460.512l.422-13.525c.339-2.44,1.759-2.75,1.759-2.75s13.844-1.582,17.977,1.907C114.6,447.8,112.464,463.291,112.464,463.291Z" transform="translate(-84.572 -416.83)" opacity="0.1"/>
      <path id="Path_902" data-name="Path 902" d="M115.8,472.236l-15.94-2.378.349-11.539c.288-2.076,1.477-2.34,1.477-2.34s11.574-1.349,15.031,1.632C117.579,459.026,115.8,472.236,115.8,472.236Z" transform="translate(-89.935 -426.637)" fill="#f36"/>
      <ellipse id="Ellipse_173" data-name="Ellipse 173" cx="2.175" cy="3.958" rx="2.175" ry="3.958" transform="translate(22.128 32.224) rotate(-1.08)" opacity="0.1"/>
      <ellipse id="Ellipse_174" data-name="Ellipse 174" cx="2.175" cy="3.958" rx="2.175" ry="3.958" transform="translate(22.126 32.118) rotate(-1.08)" fill="#dce0ed"/>
      <path id="Path_903" data-name="Path 903" d="M184.227,479.79s-.889.159-.4,1.327a8.14,8.14,0,0,1,.568,1.772s.9.447.843-1.086A2.266,2.266,0,0,0,184.227,479.79Z" transform="translate(-159.62 -446.686)" fill="#f0f0f4"/>
      <ellipse id="Ellipse_175" data-name="Ellipse 175" cx="2.032" cy="3.698" rx="2.032" ry="3.698" transform="translate(10.588 31.132) rotate(-1.08)" opacity="0.1"/>
      <ellipse id="Ellipse_176" data-name="Ellipse 176" cx="2.032" cy="3.698" rx="2.032" ry="3.698" transform="translate(10.586 31.026) rotate(-1.08)" fill="#dce0ed"/>
      <path id="Path_904" data-name="Path 904" d="M114.917,471.79s-.889.16-.4,1.327a8.108,8.108,0,0,1,.568,1.772s.9.447.843-1.086A2.266,2.266,0,0,0,114.917,471.79Z" transform="translate(-101.997 -440.035)" fill="#f0f0f4"/>
      <path id="Path_905" data-name="Path 905" d="M135.59,470.683c-.115,1.465-.624,12.318-.624,12.318l-1.212-.18-.674-.1-.9-.133-.108-.015-3.541-.523.479-11.51a1.443,1.443,0,0,1,1.032-1.322,1.5,1.5,0,0,1,.4-.059h.108c.243.017.506.039.782.062l.351.035c.337.034.691.076,1.035.126.169.027.349.054.519.084.288.052.568.11.826.177.169.044.337.094.494.148C135.2,470.015,135.62,470.313,135.59,470.683Z" transform="translate(-113.77 -437.848)" opacity="0.1"/>
      <path id="Path_906" data-name="Path 906" d="M135.711,469.16l-.449,12.935-.393-.027.442-12.849A1.5,1.5,0,0,1,135.711,469.16Z" transform="translate(-119.041 -437.848)" fill="#f36"/>
      <path id="Path_907" data-name="Path 907" d="M142.257,469.585l-.4,13.06-.605.012.656-13.107Z" transform="translate(-124.346 -438.172)" fill="#f36"/>
      <path id="Path_908" data-name="Path 908" d="M150.7,470.551l-.774,13.112h-.391v-.017l.646-13.186C150.351,470.5,150.525,470.522,150.7,470.551Z" transform="translate(-131.229 -438.929)" fill="#f36"/>
      <path id="Path_909" data-name="Path 909" d="M156.987,472.208l-.8,13.023v.025l-.674-.059v-.064l.983-13.073C156.668,472.1,156.835,472.154,156.987,472.208Z" transform="translate(-136.201 -440.259)" fill="#f36"/>
      <path id="Path_910" data-name="Path 910" d="M77.695,498.464s-1.438-6.745,1.551-7.144,12.84.133,12.6,2.919-.482,7.018-.482,7.018l-2.04-.417s1.4-6.392-.981-6.588-8.225-.755-8.225-.755-1.583-.236-.568,5.335Z" transform="translate(-71.219 -456.173)" opacity="0.1"/>
      <path id="Path_911" data-name="Path 911" d="M77.748,500.152s-1.445-7.168,1.543-7.573,12.842.132,12.6,2.919-.484,7.018-.484,7.018l-2.04-.417s1.4-6.392-.98-6.588-8.227-.755-8.227-.755-1.575.191-.56,5.762Z" transform="translate(-71.26 -457.219)" fill="#dce0ed"/>
      <path id="Path_912" data-name="Path 912" d="M232.369,492.864l-2.639.013a50.854,50.854,0,0,0-5.359-13.658c-1.081-.55-12.773-.258-12.773-.258-1.209.238-1.457,4.094-1.457,4.094s1.052.872.064,1.46a9.933,9.933,0,0,1-3.6.285,28.093,28.093,0,0,1-5.824-.713c-2.295-.674-.506-2.023-.506-2.023a7.056,7.056,0,0,0,.482-2.791,9.51,9.51,0,0,1,1.229-3.909c.094-.169.155-.255.155-.255a1.26,1.26,0,0,1,.413-.27c3-1.319,17.835-.4,17.835-.4l5.524,1.644c.153.057.395.44.695,1.054C228.419,480.822,232.369,492.864,232.369,492.864Z" transform="translate(-172.866 -441.98)" fill="#f36"/>
      <path id="Path_913" data-name="Path 913" d="M232.369,492.864l-2.639.013a50.854,50.854,0,0,0-5.359-13.658c-1.081-.55-12.773-.258-12.773-.258-1.209.238-1.457,4.094-1.457,4.094s1.052.872.064,1.46a9.933,9.933,0,0,1-3.6.285,28.093,28.093,0,0,1-5.824-.713c-2.295-.674-.506-2.023-.506-2.023a7.056,7.056,0,0,0,.482-2.791,9.51,9.51,0,0,1,1.229-3.909c.094-.169.155-.255.155-.255a1.26,1.26,0,0,1,.413-.27c3-1.319,17.835-.4,17.835-.4l5.524,1.644c.153.057.395.44.695,1.054C228.419,480.822,232.369,492.864,232.369,492.864Z" transform="translate(-172.866 -441.98)" opacity="0.1"/>
      <path id="Path_914" data-name="Path 914" d="M238.359,477.151c-5.106-1.873-19.054-.565-19.054-.565-1.507-1.241-4.3-1.271-5.564-1.212.094-.169.155-.255.155-.255a1.26,1.26,0,0,1,.413-.27c3-1.319,17.835-.4,17.835-.4l5.524,1.644C237.817,476.14,238.065,476.529,238.359,477.151Z" transform="translate(-184.612 -441.988)" fill="#f36"/>
      <path id="Path_915" data-name="Path 915" d="M208.39,480.589c-.3,1.111-1.536,5.565-1.536,5.565a18.982,18.982,0,0,0-.248,2.146,28.1,28.1,0,0,1-5.824-.713c-2.295-.674-.506-2.023-.506-2.023a7.056,7.056,0,0,0,.482-2.791,9.48,9.48,0,0,1,1.384-4.163,1.259,1.259,0,0,1,.413-.27C204.549,478.763,208.614,479.748,208.39,480.589Z" transform="translate(-172.866 -445.48)" fill="#f36"/>
      <path id="Path_916" data-name="Path 916" d="M208.39,480.589c-.3,1.111-1.536,5.565-1.536,5.565a18.982,18.982,0,0,0-.248,2.146,28.1,28.1,0,0,1-5.824-.713c-2.295-.674-.506-2.023-.506-2.023a7.056,7.056,0,0,0,.482-2.791,9.48,9.48,0,0,1,1.384-4.163,1.259,1.259,0,0,1,.413-.27C204.549,478.763,208.614,479.748,208.39,480.589Z" transform="translate(-172.866 -445.48)" fill="#fff" opacity="0.1"/>
      <path id="Path_917" data-name="Path 917" d="M240.36,313.049c-1.413.239-1.973,3.194-1.973,3.194l-3.607,12.933,27.3,3.952,6.548-21.523C262.188,308.839,240.36,313.049,240.36,313.049Zm22.158,13.329s-.137,1.234-1.18,1.361l-17.661-.357-3.622-.074-1.216-.024h-.086s-1.332.266-1.14-.862c0,0,1.268-10.723,3.848-11.574,0,0,.268-.062.739-.158.739-.155,1.973-.4,3.428-.627.651-.1,1.349-.2,2.062-.29a31.2,31.2,0,0,1,5.809-.248s12.974-1.448,12.092,1.457C265.594,314.98,263.063,325.487,262.518,326.379Z" transform="translate(-202.104 -306.078)" fill="#f36"/>
      <path id="Path_918" data-name="Path 918" d="M252.732,347.134h-.086s-1.332.266-1.14-.862c0,0,1.268-10.723,3.848-11.574,0,0,.268-.062.739-.159C255.186,336.393,252.282,342.742,252.732,347.134Z" transform="translate(-215.995 -325.928)" fill="#f36"/>
      <path id="Path_919" data-name="Path 919" d="M252.732,347.134h-.086s-1.332.266-1.14-.862c0,0,1.268-10.723,3.848-11.574,0,0,.268-.062.739-.159C255.186,336.393,252.282,342.742,252.732,347.134Z" transform="translate(-215.995 -325.928)" opacity="0.1"/>
      <path id="Path_920" data-name="Path 920" d="M110.763,541.6a1.723,1.723,0,0,1-1.6.934l-.545-.014-5.145-.125-1.855-.044-1.713-.111L77.25,539l.126-2.231,2.607.324,1.077.133,16,1.981,2.106.261,1.02.126,4.315-.113,4.671-.121a1.744,1.744,0,0,1,.691.12,1.686,1.686,0,0,1,.921.843A1.418,1.418,0,0,1,110.763,541.6Z" transform="translate(-71.137 -494.058)" opacity="0.1"/>
      <path id="Path_921" data-name="Path 921" d="M81.283,529.691a1.723,1.723,0,0,1-1.6.934l-7.542-.184-1.715-.11-24.172-3.453-1.9-.271-1.035-.148a1.875,1.875,0,0,1-1.472-2.433c.125-.929,3.6-1.855,4.743-1.836.767.008.9,1.189.9,1.963,0,.378-.029.659-.029.659l1.13.14L70.7,527.687l8.984-.236a1.728,1.728,0,0,1,1.612.963A1.408,1.408,0,0,1,81.283,529.691Z" transform="translate(-41.647 -481.935)" fill="#dce0ed"/>
      <path id="Path_922" data-name="Path 922" d="M60.76,530a4.136,4.136,0,0,0,2.485,1.308A2.682,2.682,0,0,0,60.76,530Z" transform="translate(-57.428 -488.429)" opacity="0.1"/>
      <path id="Path_923" data-name="Path 923" d="M44.144,549.66s-3.173-.01-3.145,1.7,2.034,1.958,2.034,1.958l28.446,4.92,8.062-.01s2.774-2.3-.169-3.243l-8.126.368-27.114-4.445S44.827,549.933,44.144,549.66Z" transform="translate(-40.999 -504.774)" opacity="0.1"/>
      <path id="Path_924" data-name="Path 924" d="M79.547,559.5l-8.06.01-25.293-4.374-1.855-.32-1.3-.226s-2-.248-2.039-1.961c-.024-1.228,1.607-1.568,2.529-1.663.363-.037.615-.035.615-.035.674.271-.013,1.248-.013,1.248l.988.169,26.136,4.283,8.124-.368C82.321,557.2,79.547,559.5,79.547,559.5Z" transform="translate(-40.998 -505.83)" fill="#dce0ed"/>
      <path id="Path_925" data-name="Path 925" d="M64.9,537.051l1.663-.781.855-.051.069,7.2-2.649-.484-1.123-.685-.592-2.985a8.162,8.162,0,0,1,.3-1.361C63.52,537.8,64.9,537.051,64.9,537.051Z" transform="translate(-59.39 -493.6)" fill="#dce0ed"/>
      <path id="Path_926" data-name="Path 926" d="M64.9,537.051l1.663-.781.855-.051.069,7.2-2.649-.484-1.123-.685-.592-2.985a8.162,8.162,0,0,1,.3-1.361C63.52,537.8,64.9,537.051,64.9,537.051Z" transform="translate(-59.39 -493.6)" opacity="0.1"/>
      <path id="Path_927" data-name="Path 927" d="M57.968,555.144l.032.035-1.855-.322-.022-.034a4.508,4.508,0,0,1-.809-3.848c.363-.037.615-.035.615-.035.674.271-.013,1.248-.013,1.248l.988.169A4.489,4.489,0,0,0,57.968,555.144Z" transform="translate(-52.774 -505.838)" opacity="0.1"/>
      <path id="Path_928" data-name="Path 928" d="M62.179,533.862c-.312.126-.6.256-.863.391a5.728,5.728,0,0,0-2.335,1.927l-1.9-.271a5.74,5.74,0,0,1,2.735-2.529l.4.083Z" transform="translate(-54.368 -491.239)" opacity="0.1"/>
      <path id="Path_929" data-name="Path 929" d="M59.465,533.31s-5.167,2.165-2.081,6.886l1.855.322s-3.748-4.138,2.59-6.718Z" transform="translate(-53.804 -491.181)" fill="#dce0ed"/>
      <path id="Path_930" data-name="Path 930" d="M88.726,462.776l1.926-.106-.175,7.741-3.113-.511-1.332-.617-.634-1.521-.457-1.526,1.008-1.41,1.162-.806Z" transform="translate(-70.614 -418.565)" fill="#dce0ed"/>
      <path id="Path_931" data-name="Path 931" d="M88.726,462.776l1.926-.106-.175,7.741-3.113-.511-1.332-.617-.634-1.521-.457-1.526,1.008-1.41,1.162-.806Z" transform="translate(-70.614 -418.565)" opacity="0.1"/>
      <ellipse id="Ellipse_177" data-name="Ellipse 177" cx="0.927" cy="1.568" rx="0.927" ry="1.568" transform="translate(17.014 46.66) rotate(-1.08)" fill="#dce0ed"/>
      <path id="Path_932" data-name="Path 932" d="M82.2,587.723a2.066,2.066,0,0,0-1.349-1.632,1.536,1.536,0,0,0-2.023,1.669s.052,1.364.97,1.774l.083,1.518s.106,1.415-.7,1.3-.72-1.371-.72-1.371-.454-1.329-1.482-.614a1.048,1.048,0,0,0,.315,1.118,1.021,1.021,0,0,1,.3.992,1.45,1.45,0,0,0,.364,1.155,1.349,1.349,0,0,0,1.295.437,1.991,1.991,0,0,0,1.1-.661,2.91,2.91,0,0,0,.735-1.963v-1.958A1.523,1.523,0,0,0,82.2,587.723Zm-1.619,1.408a1.135,1.135,0,1,1,.8-.347A1.136,1.136,0,0,1,80.578,589.131Z" transform="translate(-70.871 -535.011)" fill="#dce0ed"/>
      <path id="Path_933" data-name="Path 933" d="M93.928,576.349a.506.506,0,0,0-.236.7,3.571,3.571,0,0,1,.459,1.029c-.037.228.469.03.535-.024s.988-.018,1.03-.649a1.086,1.086,0,0,0-.506-.953l.187-1.381L94.115,575l.037,1.256Z" transform="translate(-84.755 -525.841)" fill="#636780"/>
      <path id="Path_934" data-name="Path 934" d="M93.928,576.349a.506.506,0,0,0-.236.7,3.571,3.571,0,0,1,.459,1.029c-.037.228.469.03.535-.024s.988-.018,1.03-.649a1.086,1.086,0,0,0-.506-.953l.187-1.381L94.115,575l.037,1.256Z" transform="translate(-84.755 -525.841)" opacity="0.1"/>
      <path id="Path_935" data-name="Path 935" d="M97.45,582.79s.455,1.464.27,1.518S97.45,582.79,97.45,582.79Z" transform="translate(-87.931 -532.318)" opacity="0.1"/>
      <path id="Path_936" data-name="Path 936" d="M100.27,580.68s.455,1.462.268,1.518S100.27,580.68,100.27,580.68Z" transform="translate(-90.276 -530.563)" opacity="0.1"/>
      <path id="Path_937" data-name="Path 937" d="M83.319,548.484l-.631,4.435s-.885-.1-1.373-.2a1.027,1.027,0,0,1-.31-.089c-.024-.025-.076-.022-.147,0h0c-.236.052-.656.258-.742.094a.117.117,0,0,0-.024-.035h0c-.086-.089-.246-.02-.4,0a.338.338,0,0,1-.25-.029c-.133-.084-.4.061-.615.113-.137.032-.256.029-.312-.094a.29.29,0,0,0-.216-.148h0c-.206-.047-.494,0-.659-.039-.066-.012-.111-.035-.126-.081-.035-.094-.219-.137-.417-.169-.239-.042-.5-.071-.518-.169,0-.032-.03-.046-.066-.047a2.22,2.22,0,0,0-.388.1h0c-.106.029-.2.032-.223-.046s-.152-.073-.292-.035c-.113.03-.236.078-.337.1s-.148.025-.169-.015c-.039-.142-.5.187-.607-.1a3.811,3.811,0,0,1,.233-4.64s.506.025.9.089a1.35,1.35,0,0,1,.378.1h0a2.227,2.227,0,0,0,.688.066.887.887,0,0,1,.384.084.25.25,0,0,1,.11.111c.062.135.2.16.349.148.2-.015.425-.1.506-.057h0c.15.061.708-.012.806.079h0c.042.059.26,0,.484-.042h0a.547.547,0,0,1,.445.062.506.506,0,0,0,.349.1,1.971,1.971,0,0,1,.454,0,.186.186,0,0,1,.091.056c.093.11.31.091.506.1a.506.506,0,0,1,.285.066.253.253,0,0,0,.1.04,3.034,3.034,0,0,0,.86-.059Z" transform="translate(-68.282 -502.895)" fill="#636780"/>
      <path id="Path_938" data-name="Path 938" d="M79.217,552.511c-.113.03-.236.078-.337.1a3.521,3.521,0,0,1,.369-4.662,1.35,1.35,0,0,1,.378.1A4.326,4.326,0,0,0,79.217,552.511Z" transform="translate(-71.896 -503.352)" opacity="0.1"/>
      <path id="Path_939" data-name="Path 939" d="M85.121,553.281a2.232,2.232,0,0,0-.388.1h0a3.522,3.522,0,0,1,.6-4.475.887.887,0,0,1,.384.084A4.18,4.18,0,0,0,85.121,553.281Z" transform="translate(-76.895 -504.15)" opacity="0.1"/>
      <path id="Path_940" data-name="Path 940" d="M91.205,555.15c-.066-.012-.111-.035-.126-.081-.035-.094-.219-.137-.416-.169a3.46,3.46,0,0,1,.465-4.234c.2-.015.425-.1.506-.057h0A4.328,4.328,0,0,0,91.205,555.15Z" transform="translate(-81.854 -505.554)" opacity="0.1"/>
      <path id="Path_941" data-name="Path 941" d="M98.084,555.641c-.137.032-.256.029-.312-.094a.29.29,0,0,0-.216-.148h0a3.52,3.52,0,0,1,.585-4.505h0c.042.059.26,0,.484-.042A4.322,4.322,0,0,0,98.084,555.641Z" transform="translate(-87.544 -505.763)" opacity="0.1"/>
      <path id="Path_942" data-name="Path 942" d="M105.916,556.275c-.086-.089-.246-.02-.4,0a3.511,3.511,0,0,1,.476-4.539,1.964,1.964,0,0,1,.454,0A4.315,4.315,0,0,0,105.916,556.275Z" transform="translate(-94.113 -506.489)" opacity="0.1"/>
      <path id="Path_943" data-name="Path 943" d="M113.109,557.287a1.031,1.031,0,0,1-.31-.089c-.024-.025-.076-.022-.147,0h0a3.471,3.471,0,0,1,.354-4.313.506.506,0,0,1,.285.066.252.252,0,0,0,.1.04A4.362,4.362,0,0,0,113.109,557.287Z" transform="translate(-100.076 -507.454)" opacity="0.1"/>
      <ellipse id="Ellipse_178" data-name="Ellipse 178" cx="5.812" cy="8.557" rx="5.812" ry="8.557" transform="translate(41.795 43.943) rotate(-1.146)" fill="#636780"/>
      <ellipse id="Ellipse_179" data-name="Ellipse 179" cx="4.226" cy="6.935" rx="4.226" ry="6.935" transform="translate(43.103 45.704) rotate(-1.08)" opacity="0.1"/>
      <ellipse id="Ellipse_180" data-name="Ellipse 180" cx="4.226" cy="6.935" rx="4.226" ry="6.935" transform="translate(43.099 45.49) rotate(-1.08)" fill="#f0f0f4"/>
      <ellipse id="Ellipse_181" data-name="Ellipse 181" cx="0.499" cy="0.857" rx="0.499" ry="0.857" transform="translate(47.618 46.83) rotate(-1.08)" fill="#636780"/>
      <ellipse id="Ellipse_182" data-name="Ellipse 182" cx="0.499" cy="0.857" rx="0.499" ry="0.857" transform="translate(49.757 54.279) rotate(-1.08)" fill="#636780"/>
      <ellipse id="Ellipse_183" data-name="Ellipse 183" cx="0.499" cy="0.857" rx="0.499" ry="0.857" transform="translate(44.305 50.816) rotate(-1.08)" fill="#636780"/>
      <ellipse id="Ellipse_184" data-name="Ellipse 184" cx="0.499" cy="0.857" rx="0.499" ry="0.857" transform="translate(45.862 55.778) rotate(-1.08)" fill="#636780"/>
      <path id="Path_944" data-name="Path 944" d="M574.09,495.74s4.384,11.045,4.18,11.744c0,0,1.786,1.037,2.207.76s-.044-5.188-.044-5.188l-.884-4.317-.958-2.549Z" transform="translate(-484.2 -459.946)" fill="#f36"/>
      <path id="Path_945" data-name="Path 945" d="M574.09,495.74s4.384,11.045,4.18,11.744c0,0,1.786,1.037,2.207.76s-.044-5.188-.044-5.188l-.884-4.317-.958-2.549Z" transform="translate(-484.2 -459.946)" opacity="0.15"/>
      <ellipse id="Ellipse_185" data-name="Ellipse 185" cx="0.499" cy="0.857" rx="0.499" ry="0.857" transform="translate(50.382 49.631) rotate(-1.08)" fill="#636780"/>
      <ellipse id="Ellipse_186" data-name="Ellipse 186" cx="1.462" cy="2.032" rx="1.462" ry="2.032" transform="translate(46.726 50.593) rotate(-1.08)" fill="#636780"/>
      <path id="Path_946" data-name="Path 946" d="M523.705,528.729c.121,6.44-1.907,12.341-7.856,11.8-7.49-.019-8.173-5.059-8.294-11.5s3.4-11.3,7.863-11.384S523.582,522.292,523.705,528.729Z" transform="translate(-428.881 -478.156)" fill="#636780"/>
      <path id="Path_947" data-name="Path 947" d="M543.812,532c-.093-4.984-2.337-8.937-5.414-10.434-3.9.818-6.824,5.377-6.713,11.252.1,5.276.577,9.611,4.868,11.024C542.042,543.939,543.93,538.223,543.812,532Z" transform="translate(-448.943 -481.421)" opacity="0.1"/>
      <path id="Path_948" data-name="Path 948" d="M423.6,495.378s-1.052.929-1.652.3c0,0-1.663-11.523-3.482-11.542l-6.258.064a2.338,2.338,0,0,0-1.037,1.732l-3.829,11.593-22.17.745-1.76-3.517,18.344-.292h0c.093-.357,2.949-11.36,4.984-12.76h0a.923.923,0,0,1,.223-.113s7.628-1.162,10.156-.506c0,0,2.63.538,3.288,1.329h0c.088.089,1.1,1.18,1.469,4.406Z" transform="translate(-325.672 -447.592)" opacity="0.1"/>
      <path id="Path_949" data-name="Path 949" d="M423.629,496.576s-1.052.929-1.654.3c0,0-1.661-11.523-3.48-11.544l-6.257.066a2.337,2.337,0,0,0-1.039,1.732l-3.828,11.593-22.17.739-1.76-3.516,18.344-.292v-.01c.093-.356,2.951-11.358,4.984-12.758h0a.974.974,0,0,1,.224-.115s7.628-1.16,10.154-.506c0,0,2.632.54,3.288,1.329h0c.088.089,1.1,1.18,1.469,4.406Z" transform="translate(-325.697 -448.576)" fill="#f36"/>
      <path id="Path_950" data-name="Path 950" d="M423.629,496.576s-1.052.929-1.654.3c0,0-1.661-11.523-3.48-11.544l-6.257.066a2.337,2.337,0,0,0-1.039,1.732l-3.828,11.593-22.17.739-1.76-3.516,18.344-.292v-.01c.093-.356,2.951-11.358,4.984-12.758h0a.974.974,0,0,1,.224-.115s7.628-1.16,10.154-.506c0,0,2.632.54,3.288,1.329h0c.088.089,1.1,1.18,1.469,4.406Z" transform="translate(-325.697 -448.576)" opacity="0.1"/>
      <path id="Path_951" data-name="Path 951" d="M500.253,488.216c-.516,1.027-4.88,13.628-4.88,13.628l-3.143-2.192v-.01c.093-.356,2.953-11.37,4.988-12.761C498.563,487.089,500.6,487.519,500.253,488.216Z" transform="translate(-416.143 -452.58)" fill="#f36"/>
      <path id="Path_952" data-name="Path 952" d="M427.361,460.892,425,469.174l-13.11-.126.132,1.228s10.3,1.3,14.643-.811l2.211-7.568,20.68-.283-3.956-.853Z" transform="translate(-349.35 -430.864)" fill="#f36"/>
      <path id="Path_953" data-name="Path 953" d="M427.361,460.892,425,469.174l-13.11-.126.132,1.228s10.3,1.3,14.643-.811l2.211-7.568,20.68-.283-3.956-.853Z" transform="translate(-349.35 -430.864)" fill="#fff" opacity="0.1"/>
      <path id="Path_954" data-name="Path 954" d="M122.747,545.106s-6.957,3.662-1.686,6.88l1.4.3s-5.168-3.576,3.286-7.23Z" transform="translate(-105.92 -500.941)" opacity="0.1"/>
      <path id="Path_955" data-name="Path 955" d="M124.017,545.061s-6.957,3.662-1.686,6.88l1.4.3s-5.172-3.576,3.283-7.235Z" transform="translate(-106.976 -500.9)" fill="#dce0ed"/>
      <ellipse id="Ellipse_187" data-name="Ellipse 187" cx="3.905" cy="6.686" rx="3.905" ry="6.686" transform="translate(85.834 44.968) rotate(-1.08)" fill="#636780"/>
      <ellipse id="Ellipse_188" data-name="Ellipse 188" cx="2.838" cy="5.418" rx="2.838" ry="5.418" transform="translate(86.921 46.272) rotate(-1.146)" opacity="0.1"/>
      <ellipse id="Ellipse_189" data-name="Ellipse 189" cx="2.838" cy="5.418" rx="2.838" ry="5.418" transform="translate(86.792 46.149) rotate(-1.08)" fill="#f0f0f4"/>
      <ellipse id="Ellipse_190" data-name="Ellipse 190" cx="0.336" cy="0.669" rx="0.336" ry="0.669" transform="translate(89.829 47.207) rotate(-1.08)" fill="#636780"/>
      <ellipse id="Ellipse_191" data-name="Ellipse 191" cx="0.336" cy="0.669" rx="0.336" ry="0.669" transform="translate(91.28 53.029) rotate(-1.08)" fill="#636780"/>
      <ellipse id="Ellipse_192" data-name="Ellipse 192" cx="0.336" cy="0.669" rx="0.336" ry="0.669" transform="translate(87.611 50.312) rotate(-1.08)" fill="#636780"/>
      <ellipse id="Ellipse_193" data-name="Ellipse 193" cx="0.336" cy="0.669" rx="0.336" ry="0.669" transform="translate(88.667 54.193) rotate(-1.08)" fill="#636780"/>
      <ellipse id="Ellipse_194" data-name="Ellipse 194" cx="0.336" cy="0.669" rx="0.336" ry="0.669" transform="translate(91.691 49.4) rotate(-1.08)" fill="#636780"/>
      <ellipse id="Ellipse_195" data-name="Ellipse 195" cx="0.981" cy="1.588" rx="0.981" ry="1.588" transform="translate(89.238 50.142) rotate(-1.08)" fill="#636780"/>
      <path id="Path_956" data-name="Path 956" d="M234.44,419.35a132.457,132.457,0,0,1,27.362,4.138Z" transform="translate(-201.822 -396.437)" opacity="0.1"/>
      <path id="Path_957" data-name="Path 957" d="M566.045,289.75s-.642.115-.292.959a5.819,5.819,0,0,1,.411,1.281s.651.324.605-.784A1.654,1.654,0,0,0,566.045,289.75Z" transform="translate(-477.182 -288.69)" fill="#dce0ed"/>
    </g>
    <path id="Path_958" data-name="Path 958" d="M563.387,720.447a.98.98,0,0,1-.73-.442c-.73-1.1-2.668-4.256-1.307-4.691a5.381,5.381,0,0,1,.659-.169,6.708,6.708,0,0,1,6.5,2.541,6.124,6.124,0,0,1,.533.813.843.843,0,0,1-.506,1.206A15.682,15.682,0,0,1,563.387,720.447Z" transform="translate(-473.446 -608.798)" fill="#f36"/>
    <path id="Path_959" data-name="Path 959" d="M526.77,657.082l7.423-1.342h11.115l-1.588,2.448H528.283Z" transform="translate(-438.188 -545.607)" fill="#33323d"/>
    <path id="Path_960" data-name="Path 960" d="M594.273,277.993c.833-.423,1.919,0,2.91.1,1.285.125,2.558-.337,3.851-.3a4.831,4.831,0,0,1,3.16,1.305,3.861,3.861,0,0,1,1.164,2.649,3.083,3.083,0,0,1-.406,1.7,4.525,4.525,0,0,1-3.482,1.84,6.517,6.517,0,0,1-4.067-1.067,21.268,21.268,0,0,1-2.437-2.27c-.577-.541-2.094-1.224-2.106-1.927A3.7,3.7,0,0,1,594.273,277.993Z" transform="translate(-500.053 -244.965)" fill="#4c4981"/>
    <path id="Path_961" data-name="Path 961" d="M594.273,277.993c.833-.423,1.919,0,2.91.1,1.285.125,2.558-.337,3.851-.3a4.831,4.831,0,0,1,3.16,1.305,3.861,3.861,0,0,1,1.164,2.649,3.083,3.083,0,0,1-.406,1.7,4.525,4.525,0,0,1-3.482,1.84,6.517,6.517,0,0,1-4.067-1.067,21.268,21.268,0,0,1-2.437-2.27c-.577-.541-2.094-1.224-2.106-1.927A3.7,3.7,0,0,1,594.273,277.993Z" transform="translate(-500.053 -244.965)" opacity="0.1"/>
    <path id="Path_962" data-name="Path 962" d="M618.995,701.789l-.115,2.361a31.7,31.7,0,0,1,3.351-.064,2.441,2.441,0,0,0-.074-1.088,8.208,8.208,0,0,1-.137-2.111c.013-.194-2.074-.393-2.285-.4-.256-.01-.523-.046-.646.223A3.215,3.215,0,0,0,618.995,701.789Z" transform="translate(-521.685 -596.688)" fill="#4c4981"/>
    <path id="Path_963" data-name="Path 963" d="M602.693,706.3l-.113,2.361a31.68,31.68,0,0,1,3.349-.064,2.439,2.439,0,0,0-.074-1.088,8.288,8.288,0,0,1-.135-2.111c.012-.2-2.074-.393-2.285-.4-.258-.01-.523-.046-.646.223A3.172,3.172,0,0,0,602.693,706.3Z" transform="translate(-508.127 -600.437)" fill="#4c4981"/>
    <path id="Path_964" data-name="Path 964" d="M616.244,707.621a1.25,1.25,0,0,0-.428.266l-.843.7c-.283.238-.656.489-.995.337a2.3,2.3,0,0,1-.395-.31.388.388,0,0,0-.462-.052.475.475,0,0,0-.13.292,22.515,22.515,0,0,0-.366,4.539,2.685,2.685,0,0,0,.821.182.142.142,0,0,0,.091-.017c.049-.04.022-.118.015-.18-.024-.218.28-.346.477-.251a.942.942,0,0,1,.388.506.506.506,0,0,0,.145.217.486.486,0,0,0,.2.073,7.226,7.226,0,0,0,1.16.106q2.7.093,5.4,0a1.791,1.791,0,0,0,.553-.078,1.052,1.052,0,0,0,.644-.816,1.453,1.453,0,0,0-.256-1.034,1.775,1.775,0,0,0-.592-.543,3.464,3.464,0,0,0-.558-.236l-.843-.3a3.283,3.283,0,0,1-2.356-1.848C617.593,708.634,617.1,707.371,616.244,707.621Z" transform="translate(-516.487 -602.6)" fill="#4c4981"/>
    <path id="Path_965" data-name="Path 965" d="M616.244,707.621a1.25,1.25,0,0,0-.428.266l-.843.7c-.283.238-.656.489-.995.337a2.3,2.3,0,0,1-.395-.31.388.388,0,0,0-.462-.052.475.475,0,0,0-.13.292,22.515,22.515,0,0,0-.366,4.539,2.685,2.685,0,0,0,.821.182.142.142,0,0,0,.091-.017c.049-.04.022-.118.015-.18-.024-.218.28-.346.477-.251a.942.942,0,0,1,.388.506.506.506,0,0,0,.145.217.486.486,0,0,0,.2.073,7.226,7.226,0,0,0,1.16.106q2.7.093,5.4,0a1.791,1.791,0,0,0,.553-.078,1.052,1.052,0,0,0,.644-.816,1.453,1.453,0,0,0-.256-1.034,1.775,1.775,0,0,0-.592-.543,3.464,3.464,0,0,0-.558-.236l-.843-.3a3.283,3.283,0,0,1-2.356-1.848C617.593,708.634,617.1,707.371,616.244,707.621Z" transform="translate(-516.487 -602.6)" opacity="0.1"/>
    <path id="Path_966" data-name="Path 966" d="M628.839,479.757q0,.722-.03,1.445a72.769,72.769,0,0,1-.793,8.814c-.1.656-.211,1.31-.371,1.953a20.633,20.633,0,0,0-.674,2.759c-.14,1.349.221,2.74-.084,4.062-.157.674-.484,1.3-.674,1.971a10.562,10.562,0,0,0-.266,1.212q-.255,1.416-.506,2.828c-.018.1-.035.192-.052.288a11.611,11.611,0,0,1-1.106,3.187,10.076,10.076,0,0,0-.674,1.953q-.45,1.674-.9,3.352a10.22,10.22,0,0,0-.506,4.619,10.721,10.721,0,0,1-1.828-.273,10.313,10.313,0,0,1-2.214-.813,74.616,74.616,0,0,1,.073-7.816,39.883,39.883,0,0,1,.427-4.934c.3-1.776.715-3.47,1.076-5.236a36.549,36.549,0,0,0,1.034-8c-.064-3.492.027-7.048,1.55-10.19a2.328,2.328,0,0,1,.7-.954,2.424,2.424,0,0,1,1.012-.337,19.119,19.119,0,0,1,3.671-.263A2.566,2.566,0,0,1,628.839,479.757Z" transform="translate(-521.031 -412.868)" fill="#33323d"/>
    <path id="Path_967" data-name="Path 967" d="M628.823,479.773c0,.481-3.649.113-3.666.594-4.482-.519-2.383.523-2.58.663-.425.3,1.615-.3,1.19,0-.369.261-.943,1.276-1.324,1.518-.889.582,2.074,2.372,1.415,3.2a3.859,3.859,0,0,0-.659,2.732c.079.954.358,1.883.506,2.833a10.6,10.6,0,0,1-.558,5.342,30.618,30.618,0,0,1-1.415,2.944c-.536,1.071-1.528,2.135-1.41,3.329.271,2.688-.2,5.4-.324,8.094a9.471,9.471,0,0,0,.239,3.077c.108.379.258.747.337,1.133a5.4,5.4,0,0,1-.223,2.711,10.311,10.311,0,0,1-2.214-.813,74.632,74.632,0,0,1,.073-7.816,39.894,39.894,0,0,1,.427-4.934c.3-1.776.715-3.47,1.076-5.236a36.552,36.552,0,0,0,1.034-8c-.064-3.492.027-7.048,1.55-10.19A2.329,2.329,0,0,1,623,480a2.425,2.425,0,0,1,1.012-.337,19.12,19.12,0,0,1,3.671-.263,2.566,2.566,0,0,1,1.138.373Z" transform="translate(-521.014 -412.885)" opacity="0.1"/>
    <path id="Path_968" data-name="Path 968" d="M602.7,452.162c0,.857.479,2.752-.177,3.3-.437.369-.976.594-1.445.922-.425.3-.787.674-1.211.983-.369.261-.781.457-1.16.7-.89.582-1.28,1.639-1.941,2.469a3.865,3.865,0,0,0-.658,2.732c.079.954.357,1.883.506,2.833a10.623,10.623,0,0,1-.558,5.342,31.035,31.035,0,0,1-1.415,2.944c-.536,1.071-1.529,2.135-1.41,3.329.271,2.688-.2,5.4-.324,8.094a9.471,9.471,0,0,0,.239,3.077c.108.379.256.747.337,1.133a6.036,6.036,0,0,1-.374,3.189,14.638,14.638,0,0,0-3.6-.327,16.416,16.416,0,0,1-3.16.258,63.34,63.34,0,0,1,.39-8.514c.051-.578.1-1.157.157-1.737.2-2.217.4-4.436.523-6.662a7.533,7.533,0,0,1-.01-1.7q.494-1.7.988-3.388a11.162,11.162,0,0,0,.395-1.722,11.376,11.376,0,0,0-.337-3.61q-.506-2.442-1.012-4.89c-.111-.541-.224-1.084-.378-1.619a10.436,10.436,0,0,1-.285-1.076,13.837,13.837,0,0,1-.094-1.541c-.051-.889-.258-1.759-.324-2.646a5.4,5.4,0,0,1,.041-1.278,3.229,3.229,0,0,1,.477-1.288,39.424,39.424,0,0,1,7.682-2.192,10.789,10.789,0,0,1,1.855-.216,12.4,12.4,0,0,1,2.114.234,10.54,10.54,0,0,1,2.867.776,4.237,4.237,0,0,1,1.164.809c.452.454.169-.594.314.03C602.922,451.136,602.7,451.947,602.7,452.162Z" transform="translate(-494.622 -387.673)" fill="#33323d"/>
    <path id="Path_969" data-name="Path 969" d="M599.942,712.123a1.267,1.267,0,0,0-.428.268l-.843.7c-.285.238-.658.489-.995.337a2.231,2.231,0,0,1-.395-.31.386.386,0,0,0-.462-.052.476.476,0,0,0-.13.292,22.26,22.26,0,0,0-.366,4.539,2.689,2.689,0,0,0,.819.182.14.14,0,0,0,.091-.017c.051-.04.024-.118.017-.18-.024-.218.28-.347.476-.251a.943.943,0,0,1,.388.506.527.527,0,0,0,.145.218.487.487,0,0,0,.2.073,7.226,7.226,0,0,0,1.162.106c1.8.062,3.6.064,5.4,0a1.809,1.809,0,0,0,.555-.078,1.052,1.052,0,0,0,.642-.818,1.443,1.443,0,0,0-.256-1.032,1.784,1.784,0,0,0-.59-.543,3.548,3.548,0,0,0-.56-.236l-.843-.3a4.42,4.42,0,0,1-1.712-.919,4.369,4.369,0,0,1-.646-.931C601.289,713.138,600.792,711.875,599.942,712.123Z" transform="translate(-502.927 -606.344)" fill="#4c4981"/>
    <path id="Path_970" data-name="Path 970" d="M614.181,259.628a1.686,1.686,0,0,1-.352.722,3.055,3.055,0,0,1-1.357,1.241,2.734,2.734,0,0,1-1.012.091,13.3,13.3,0,0,1-7.979-3.177,4.391,4.391,0,0,0,1.759-3.227,10.6,10.6,0,0,0-.169-2.924c-.049-.285-.1-.568-.15-.843-.094-.516-.337-.916.251-1.059a5.448,5.448,0,0,1,1.545,0,5.253,5.253,0,0,1,2.91.909,1.965,1.965,0,0,1,.562.612c.359.674.067,1.469-.017,2.243a3.086,3.086,0,0,0-.012.528,3.259,3.259,0,0,0,1.305,2.147c.663.548,1.428.97,2.074,1.534A1.448,1.448,0,0,1,614.181,259.628Z" transform="translate(-508.885 -222.175)" fill="#fbbebe"/>
    <path id="Path_971" data-name="Path 971" d="M616.618,254.188a4.89,4.89,0,0,1-1.118.128,4.986,4.986,0,0,1-3.983-1.983c-.049-.285-.1-.568-.15-.843-.094-.516-.337-.916.251-1.059a5.448,5.448,0,0,1,1.545,0,5.252,5.252,0,0,1,2.91.909,1.965,1.965,0,0,1,.562.612C616.994,252.618,616.7,253.412,616.618,254.188Z" transform="translate(-515.33 -222.152)" opacity="0.1"/>
    <circle id="Ellipse_196" data-name="Ellipse 196" cx="4.996" cy="4.996" r="4.996" transform="translate(95.171 21.956)" fill="#fbbebe"/>
    <path id="Path_972" data-name="Path 972" d="M603.431,451.323c-.03.067-.268,1.216-.305,1.282a17.808,17.808,0,0,0-4.384-.337,6.887,6.887,0,0,0-1.276.106c-.354.071-.7.187-1.057.243-1.926.3-3.748-1.209-5.693-1.061a7.048,7.048,0,0,0-1.878.506c-.674.256-1.349.452-2.007.674a3.231,3.231,0,0,1,.477-1.288,39.429,39.429,0,0,1,7.682-2.192,10.789,10.789,0,0,1,1.855-.216,12.41,12.41,0,0,1,2.115.234,10.542,10.542,0,0,1,2.867.776,4.24,4.24,0,0,1,1.164.809C603.431,451.323,603.294,450.7,603.431,451.323Z" transform="translate(-495.043 -387.439)" opacity="0.1"/>
    <path id="Path_973" data-name="Path 973" d="M559.947,282.965a2.913,2.913,0,0,0-.791-1.29q-.965-1.079-1.993-2.1a2.853,2.853,0,0,0-.776-.605,1.012,1.012,0,0,0-.949.008,3.633,3.633,0,0,0-.6.691c-.449.491-1.229.607-1.607,1.155a3.06,3.06,0,0,1-.288.437,1.281,1.281,0,0,1-.565.278l-2.381.713a1.1,1.1,0,0,0-.723.45,1.455,1.455,0,0,0-.106.433,4.775,4.775,0,0,1-1.973,2.529,2.127,2.127,0,0,0-.707.872,2.071,2.071,0,0,0,.017,1.1,7.008,7.008,0,0,0,1.012,2.632,16.757,16.757,0,0,1,1.121,1.541,5.279,5.279,0,0,1,.465,1.7c.169,1.108.256,2.224.351,3.34a15.182,15.182,0,0,0,.25,3.035c.347,1.155,1.587,1.813,2.136,2.887a5.4,5.4,0,0,1,.423,1.42l.528,2.674a5.9,5.9,0,0,1,.157,1.236c-.014.983-.518,1.941-.359,2.91.892-.337,1.752-.568,2.642-.9a6.843,6.843,0,0,1,1.882-.514c1.943-.145,3.765,1.359,5.691,1.062.357-.054.7-.169,1.057-.241a7.03,7.03,0,0,1,1.276-.11,24.18,24.18,0,0,1,5.059.457,3,3,0,0,0,.31-1.91,15.466,15.466,0,0,0-.459-1.917,14.189,14.189,0,0,1-.374-5.128,11.274,11.274,0,0,0,.116-1.3c0-1.629-.988-3.155-.9-4.782.089-1.6,1.917-2.5,2.673-3.912a1.7,1.7,0,0,0,.251-.941,3.579,3.579,0,0,0-.386-.958,14.19,14.19,0,0,1-.4-2.5c-.069-.288-.169-.567-.239-.857-.169-.8-.015-1.649-.219-2.442a4.614,4.614,0,0,0-.917-1.649,7.073,7.073,0,0,0-2.4-2.1,3.46,3.46,0,0,0-3.094-.056,1.18,1.18,0,0,0-.381.3,1.5,1.5,0,0,0-.209.492,15.282,15.282,0,0,1-1.384,3.226,1.5,1.5,0,0,1-1.224-.366C560.62,283.684,560.036,283.4,559.947,282.965Z" transform="translate(-461.442 -245.884)" fill="#4c4981"/>
    <path id="Path_974" data-name="Path 974" d="M599.278,208.07a1.618,1.618,0,0,0,.121-.708,1.117,1.117,0,0,1,.189-.685c.2-.238.546-.3.734-.543.214-.275.142-.664.206-1.012a1.27,1.27,0,0,1,1.18-1.012,5.689,5.689,0,0,1,1.222.268,4.429,4.429,0,0,0,1.622-.084,1.726,1.726,0,0,0,1.093-.474,1.65,1.65,0,0,0,.29-.715,1.685,1.685,0,0,0-.051-1.207c-.207-.356-.646-.529-.877-.875-.2-.3-.218-.7-.422-1a1.583,1.583,0,0,0-1.539-.481,5.067,5.067,0,0,1-1.686.13c-.61-.132-1.214-.612-1.789-.371-.423.179-.6.666-.86,1.045a2.273,2.273,0,0,1-.889.762c-.55.265-1.194.3-1.722.609a1.929,1.929,0,0,0-.914,1.322.555.555,0,0,0,.01.3,1.4,1.4,0,0,0,.133.212,1.144,1.144,0,0,1-.135,1.162,3.2,3.2,0,0,0-.563,1.088,1.791,1.791,0,0,0,.3,1.172,8.429,8.429,0,0,1,.622,1.064c.18.44.214.927.395,1.366a2.212,2.212,0,0,0,1.651,1.312.506.506,0,0,0,.4-.061.516.516,0,0,0,.15-.287,3.252,3.252,0,0,0,.1-.568,3.257,3.257,0,0,1,.169-1.163C598.628,208.2,599.052,208.5,599.278,208.07Z" transform="translate(-501.514 -179.611)" fill="#33323d"/>
    <path id="Path_975" data-name="Path 975" d="M614.957,203.762c-.209-.357-.646-.529-.877-.875-.2-.3-.218-.7-.422-1a1.092,1.092,0,0,0-.631-.427h0c.2.3.219.7.422,1,.229.346.666.516.875.875a1.678,1.678,0,0,1,.051,1.207,1.658,1.658,0,0,1-.288.715,1.763,1.763,0,0,1-1.094.474,4.466,4.466,0,0,1-1.622.084,5.548,5.548,0,0,0-1.222-.268,1.266,1.266,0,0,0-1.17,1c-.064.337,0,.732-.206,1.012-.189.241-.54.305-.734.541a1.127,1.127,0,0,0-.191.686,1.606,1.606,0,0,1-.12.707c-.228.428-.653.132-.867.568a3.258,3.258,0,0,0-.169,1.163,3.271,3.271,0,0,1-.1.57.525.525,0,0,1-.148.287.506.506,0,0,1-.4.061,2.133,2.133,0,0,1-.506-.155,2.192,2.192,0,0,0,1.138.578.506.506,0,0,0,.4-.061.516.516,0,0,0,.15-.287,3.253,3.253,0,0,0,.1-.568,3.257,3.257,0,0,1,.169-1.163c.216-.437.641-.142.867-.568a1.619,1.619,0,0,0,.121-.708,1.116,1.116,0,0,1,.189-.685c.2-.238.546-.3.734-.543.214-.275.142-.664.206-1.012a1.266,1.266,0,0,1,1.18-1,5.587,5.587,0,0,1,1.223.266,4.428,4.428,0,0,0,1.622-.084,1.726,1.726,0,0,0,1.093-.474,1.651,1.651,0,0,0,.29-.715A1.742,1.742,0,0,0,614.957,203.762Z" transform="translate(-510.597 -181.462)" opacity="0.1"/>
    <path id="Path_976" data-name="Path 976" d="M571.223,753.871a2.686,2.686,0,1,1-5.313,0v-.024a2.892,2.892,0,0,1,2.656-3.057,2.56,2.56,0,0,1,2.177,1.319A3.385,3.385,0,0,1,571.223,753.871Z" transform="translate(-477.629 -638.517)" fill="#33323d"/>
    <path id="Path_977" data-name="Path 977" d="M685.7,747.13c0,3.276-1.695,5.934-3.784,5.934s-3.78-2.657-3.78-5.934a7.578,7.578,0,0,1,1.386-4.591,3.08,3.08,0,0,1,2.394-1.349,2.543,2.543,0,0,1,.374.027,3.225,3.225,0,0,1,1.995,1.281,3.639,3.639,0,0,1,.219.3A7.844,7.844,0,0,1,685.7,747.13Z" transform="translate(-570.982 -630.536)" fill="#33323d"/>
    <path id="Path_978" data-name="Path 978" d="M620.99,395.454l-3.307.331-.425-3.534-.029-.231-.6-4.981-.027-.231-3.037-25.2-.066-.536-1.811-15.039-.044-.359-.189-1.572-.127-1.044h2.647l.143,1.081.024.172.066.484,2.271,16.973.061.455,3.239,24.2.71,5.3Z" transform="translate(-508.513 -285.651)" fill="#33323d"/>
    <path id="Path_979" data-name="Path 979" d="M688.759,741.24a2.51,2.51,0,0,1,.374.027l-.094.064a2.123,2.123,0,0,0-.843,1.964l.536,5.1a.635.635,0,0,1,0,.079.769.769,0,0,1-1.518.145c-.221-1.169-.639-3.556-.828-5.713-.01-.115-.017-.223-.017-.325A3.073,3.073,0,0,1,688.759,741.24Z" transform="translate(-577.821 -630.577)" opacity="0.1"/>
    <path id="Path_980" data-name="Path 980" d="M705.119,749.3l-.116-.034c-.035-.093-.068-.184-.1-.268A3.649,3.649,0,0,1,705.119,749.3Z" transform="translate(-593.23 -637.029)" opacity="0.1"/>
    <path id="Path_981" data-name="Path 981" d="M687.384,732.866a2.3,2.3,0,0,0-2.425,2.823c.191,2.157.609,4.543.828,5.711a.769.769,0,0,0,.872.617h0a.769.769,0,0,0,.649-.843l-.536-5.1a2.121,2.121,0,0,1,.843-1.966c.636-.447,1.484-.474,2.192,1.487l.486.133S690.914,732.512,687.384,732.866Z" transform="translate(-576.636 -623.592)" fill="#504f60"/>
    <path id="Path_982" data-name="Path 982" d="M658.376,450.08a2.153,2.153,0,0,1-.4.04h-.948a2.177,2.177,0,0,1-2.157-1.936l-1.45-13.2a2.175,2.175,0,0,1,2.624-2.361Z" transform="translate(-550.404 -373.769)" opacity="0.1"/>
    <path id="Path_983" data-name="Path 983" d="M659.331,452.773a2.039,2.039,0,0,1-.465.052h-.948a2.152,2.152,0,0,1-1.561-.674l-.066-.538-1.811-15.038A2.162,2.162,0,0,1,657,435.336l2.27,16.975Z" transform="translate(-551.298 -376.01)" opacity="0.1"/>
    <path id="Path_984" data-name="Path 984" d="M653.414,436.317c.349,3.175,1.086,9.888,1.45,13.2a2.168,2.168,0,0,0,2.157,1.932h.946A2.13,2.13,0,0,0,660.015,450a1.867,1.867,0,0,0,.089-.563c0-1.012-1.086-10.176-1.423-13a2.14,2.14,0,0,0-.8-1.435,7.643,7.643,0,0,0-1.435-.9A2.163,2.163,0,0,0,653.414,436.317Z" transform="translate(-550.402 -374.868)" fill="#f36"/>
    <path id="Path_985" data-name="Path 985" d="M570.743,752.109l-.712-.03a3.306,3.306,0,0,0-1.809.443L566,753.8c-.029.015-.059.032-.086.044a2.893,2.893,0,0,1,2.656-3.057A2.562,2.562,0,0,1,570.743,752.109Z" transform="translate(-477.628 -638.517)" opacity="0.1"/>
    <path id="Path_986" data-name="Path 986" d="M646.621,606.921l-3.232.29-.029-.231-.6-4.981,3.151-.379Z" transform="translate(-534.648 -500.613)" opacity="0.1"/>
    <path id="Path_987" data-name="Path 987" d="M578.241,688.152c.519,7.588-4.794,7.448-4.794,7.448l-11.556-.5a3.34,3.34,0,0,0-1.811.443l-2.226,1.283a1.159,1.159,0,0,1-1.3-.1h0a1.16,1.16,0,0,1-.207-1.6l.941-1.255a1.966,1.966,0,0,1,1.686-.782l12.092.69c4.89.088,6.549-10.851,6.549-10.851h0l3.18-.383.708,5.3-3.259.292Z" transform="translate(-469.509 -581.784)" fill="#504f60"/>
    <path id="Path_988" data-name="Path 988" d="M614.121,344.141l-2.664-.037-.127-1.044h2.647Z" transform="translate(-508.504 -285.424)" opacity="0.1"/>
    <path id="Path_989" data-name="Path 989" d="M589.09,419.608l22.356.56a.7.7,0,0,1,.674.7h0a.7.7,0,0,1-.708.7l-22.354-.312a.7.7,0,0,1-.688-.7v-.25a.7.7,0,0,1,.72-.7Z" transform="translate(-496.334 -362.95)" fill="#33323d"/>
    <path id="Path_990" data-name="Path 990" d="M582.586,405.018a5.875,5.875,0,0,1,2.293.573,2.365,2.365,0,0,1,.9,1.855,6.986,6.986,0,0,1-.337,2.094c-.057.216-.169.477-.395.484s-.337-.223-.518-.337c-.388-.236-.936.113-1.327-.116a2.168,2.168,0,0,1-.307-.278,1.012,1.012,0,0,0-1.135-.135A1.821,1.821,0,0,0,579.915,407a1.71,1.71,0,0,1-.894-.057c-.427-.233-.391-.873-.169-1.3.324-.6.57-1.192,1.305-1.192A12.668,12.668,0,0,1,582.586,405.018Z" transform="translate(-488.261 -350.344)" fill="#fbbebe"/>
    <path id="Path_991" data-name="Path 991" d="M692.04,403.371l-.01,1.639a3.605,3.605,0,0,0,.305,1.8.919.919,0,0,0,.755.526c.121,0,.239-.04.361-.035.352.013.674.384,1,.261.111-.042.2-.137.315-.169.169-.051.363.044.533-.008s.271-.248.337-.42a4.057,4.057,0,0,0,.43-2.583,3.984,3.984,0,0,0-.575-1.071L694.4,401.7a.553.553,0,0,0-.179-.191.484.484,0,0,0-.245-.044,3.467,3.467,0,0,0-1.536.506C691.958,402.217,692.044,402.9,692.04,403.371Z" transform="translate(-582.53 -347.858)" fill="#fbbebe"/>
    <path id="Path_992" data-name="Path 992" d="M678.742,349.047a4.618,4.618,0,0,0,.307,1.047,4.013,4.013,0,0,1,.594,1.13c.073.506-.258,1.089.057,1.489.128.169.337.248.472.41.324.4.015.988.062,1.5.042.467.391.855.487,1.315s-.066,1.03.228,1.418a1.466,1.466,0,0,0-1.5-.472,3.4,3.4,0,0,0-2.238,1.448,4.423,4.423,0,0,0-.209-1.983,4.812,4.812,0,0,1-.487-1.725,7.566,7.566,0,0,0,.121-1.061,2.47,2.47,0,0,0-.9-1.373,2.849,2.849,0,0,1-.986-1.708,2.65,2.65,0,0,1,.661-1.71,3.229,3.229,0,0,1,1.115-1.012c.3-.145,1.189-.752,1.384-.674C678.33,347.245,678.649,348.663,678.742,349.047Z" transform="translate(-568.157 -302.621)" fill="#4c4981"/>
    <path id="Path_993" data-name="Path 993" d="M526.764,328.65a1.922,1.922,0,0,0-1.071.889,7.418,7.418,0,0,0-.562,1.308,17.294,17.294,0,0,1-1.315,2.779,9.3,9.3,0,0,0-1.056,2.066,10.405,10.405,0,0,1-.518,1.959,8.088,8.088,0,0,0-.489.863,2.819,2.819,0,0,0-.071,1.275l.11,1.14a2.929,2.929,0,0,0,.25,1.086,3,3,0,0,0,.966.946l1.715,1.216a4.467,4.467,0,0,0,1.074.619c1.116.393,2.32-.148,3.494-.3a10.562,10.562,0,0,1,2.44.072,3.337,3.337,0,0,1,.275-1.948c.32-.583,1.3-1.349,1.943-1.19-.641-.541-1.7-.239-2.411-.69-.285-.18-.528-.42-.808-.61-.882-.6-2.146-.7-2.715-1.6a.357.357,0,0,1-.068-.169c-.01-.133.1-.239.2-.337a4.084,4.084,0,0,0,1.155-2.62,10.774,10.774,0,0,0-.245-2.909,8.435,8.435,0,0,0-.654-2.253A3.1,3.1,0,0,0,526.764,328.65Z" transform="translate(-440.818 -287.294)" fill="#4c4981"/>
    <ellipse id="Ellipse_197" data-name="Ellipse 197" cx="3.15" cy="0.533" rx="3.15" ry="0.533" transform="translate(5.882 101.016)" fill="#f36" opacity="0.1"/>
    <path id="Path_994" data-name="Path 994" d="M82.14,667.745a6.6,6.6,0,0,0,2.337-.44c.541-.385,2.764-.843,2.9-.228s2.7,3.074.674,3.091a17.376,17.376,0,0,1-5.259-.644C82.248,669.2,82.14,667.745,82.14,667.745Z" transform="translate(-75.224 -568.591)" fill="#a8a8a8"/>
    <path id="Path_995" data-name="Path 995" d="M88.084,674.721a17.262,17.262,0,0,1-5.254-.646c-.411-.251-.575-1.15-.629-1.565H82.14s.115,1.448.654,1.779a17.121,17.121,0,0,0,5.253.644c.585,0,.787-.212.777-.521C88.741,674.6,88.524,674.716,88.084,674.721Z" transform="translate(-75.224 -573.437)" opacity="0.2"/>
    <ellipse id="Ellipse_198" data-name="Ellipse 198" cx="2.423" cy="0.41" rx="2.423" ry="0.41" transform="translate(24.876 95.034)" fill="#f36" opacity="0.1"/>
    <path id="Path_996" data-name="Path 996" d="M193.36,635.448a5.09,5.09,0,0,0,1.8-.337c.417-.3,2.126-.651,2.229-.169s2.077,2.361.518,2.379a13.107,13.107,0,0,1-4.047-.5C193.439,636.572,193.36,635.448,193.36,635.448Z" transform="translate(-167.69 -541.906)" fill="#a8a8a8"/>
    <path id="Path_997" data-name="Path 997" d="M197.908,640.8a13.333,13.333,0,0,1-4.047-.5c-.317-.194-.443-.885-.486-1.206h-.046s.088,1.116.506,1.369a13.345,13.345,0,0,0,4.047.5c.45,0,.605-.169.6-.4C198.416,640.709,198.244,640.8,197.908,640.8Z" transform="translate(-167.665 -545.561)" opacity="0.2"/>
    <ellipse id="Ellipse_199" data-name="Ellipse 199" cx="5.785" cy="0.978" rx="5.785" ry="0.978" transform="translate(10.518 120.267)" fill="#f36" opacity="0.1"/>
    <path id="Path_998" data-name="Path 998" d="M114.76,768.258s3.3-.1,4.295-.809,5.077-1.555,5.323-.418,4.959,5.649,1.233,5.679-8.657-.582-9.648-1.18S114.76,768.258,114.76,768.258Z" transform="translate(-102.344 -651.557)" fill="#a8a8a8"/>
    <path id="Path_999" data-name="Path 999" d="M125.678,781.105c-3.727.03-8.657-.58-9.65-1.18-.755-.46-1.057-2.113-1.157-2.875h-.111s.209,2.661,1.2,3.266,5.924,1.214,9.648,1.18c1.076-.01,1.448-.393,1.427-.959C126.889,780.884,126.479,781.1,125.678,781.105Z" transform="translate(-102.344 -660.349)" opacity="0.2"/>
    <g id="Group_248" data-name="Group 248" transform="translate(125.421 25.47)" opacity="0.1">
      <path id="Path_1000" data-name="Path 1000" d="M807.385,333.3c.371,1.153-.641,5.168-.641,5.168s-3.163-2.671-3.541-3.824a2.194,2.194,0,0,1,4.175-1.349Z" transform="translate(-800.377 -315.363)" fill="#fff"/>
      <path id="Path_1001" data-name="Path 1001" d="M806.73,237.744c-.617,1.042-4.291,2.951-4.291,2.951s-.1-4.14.506-5.182a2.193,2.193,0,0,1,3.777,2.231Z" transform="translate(-799.825 -234.435)" fill="#fff"/>
      <path id="Path_1002" data-name="Path 1002" d="M810.322,552.892a10.648,10.648,0,0,1-2.641,1.816A10.685,10.685,0,0,1,808,551.52a1.349,1.349,0,1,1,2.324,1.373Z" transform="translate(-804.186 -497.501)" fill="#fff"/>
      <path id="Path_1003" data-name="Path 1003" d="M956.382,515.016a10.727,10.727,0,0,1-2.641,1.816,10.7,10.7,0,0,1,.317-3.19,1.35,1.35,0,1,1,2.324,1.374Z" transform="translate(-925.617 -466.011)" fill="#fff"/>
      <path id="Path_1004" data-name="Path 1004" d="M791.267,448.058c-.615,1.044-4.29,2.951-4.29,2.951s-.1-4.138.506-5.182a2.193,2.193,0,1,1,3.775,2.231Z" transform="translate(-786.971 -409.286)" fill="#fff"/>
    </g>
  </g>
</svg>
