<svg xmlns="http://www.w3.org/2000/svg" width="239.571" height="198.336" viewBox="0 0 239.571 198.336">
  <g id="Vehicles_with_highest_penalties" data-name="Vehicles with highest penalties" transform="translate(-2686.819 -3320.241)">
    <g id="undraw_map_1r69" transform="translate(2686.819 3320.241)">
      <ellipse id="Ellipse_244" data-name="Ellipse 244" cx="5.182" cy="12.582" rx="5.182" ry="12.582" transform="translate(212.847 180.543) rotate(-45)" fill="#f36" opacity="0.1"/>
      <ellipse id="Ellipse_245" data-name="Ellipse 245" cx="2.782" cy="3.642" rx="2.782" ry="3.642" transform="translate(223.515 179.311)" fill="#3f3d56"/>
      <ellipse id="Ellipse_246" data-name="Ellipse 246" cx="2.782" cy="3.642" rx="2.782" ry="3.642" transform="translate(223.515 174.86)" fill="#3f3d56"/>
      <ellipse id="Ellipse_247" data-name="Ellipse 247" cx="2.782" cy="3.642" rx="2.782" ry="3.642" transform="translate(223.515 170.409)" fill="#3f3d56"/>
      <ellipse id="Ellipse_248" data-name="Ellipse 248" cx="2.782" cy="3.642" rx="2.782" ry="3.642" transform="translate(223.515 165.957)" fill="#3f3d56"/>
      <ellipse id="Ellipse_249" data-name="Ellipse 249" cx="2.782" cy="3.642" rx="2.782" ry="3.642" transform="translate(223.515 161.506)" fill="#3f3d56"/>
      <ellipse id="Ellipse_250" data-name="Ellipse 250" cx="2.782" cy="3.642" rx="2.782" ry="3.642" transform="translate(223.515 157.055)" fill="#3f3d56"/>
      <ellipse id="Ellipse_251" data-name="Ellipse 251" cx="2.782" cy="3.642" rx="2.782" ry="3.642" transform="translate(223.515 152.603)" fill="#3f3d56"/>
      <path id="Path_1147" data-name="Path 1147" d="M982.88,496.682a13.267,13.267,0,0,0,1.037-1.524l-7.311-1.2,7.907.057a13.362,13.362,0,0,0,.259-10.559l-10.606,5.5,9.776-7.192a13.328,13.328,0,1,0-22.011,14.915,13.264,13.264,0,0,0-1.519,2.429l9.489,4.926-10.111-3.4a13.338,13.338,0,0,0,2.149,12.514,13.325,13.325,0,1,0,20.948,0,13.329,13.329,0,0,0,0-16.478Z" transform="translate(-746.169 -370.898)" fill="#f36"/>
      <path id="Path_1148" data-name="Path 1148" d="M959.1,589.549a13.264,13.264,0,0,0,2.852,8.239,13.326,13.326,0,1,0,20.948,0C984.685,595.522,959.1,588.053,959.1,589.549Z" transform="translate(-746.188 -455.526)" opacity="0.1"/>
      <path id="Path_1149" data-name="Path 1149" d="M269.927,0V186.661l-63.257-8.815-76.9,15.687-.62.127L67.97,176.81V14.518L131.487,0l69.479,14.518,2.642-.557Z" transform="translate(-50.283)" fill="#444053"/>
      <path id="Path_1150" data-name="Path 1150" d="M289.668,39.32V206.333l-56.6-7.886-68.8,14.036-.555.111L108.97,197.518V52.309L165.8,39.32l62.163,12.989,2.364-.5Z" transform="translate(-80.653 -29.126)" fill="#fff"/>
      <path id="Path_1151" data-name="Path 1151" d="M383.257,177.847l-76.9,15.687L308.074,0l69.479,14.518,2.642-.557Z" transform="translate(-226.87)" opacity="0.1"/>
      <g id="Group_253" data-name="Group 253" transform="translate(22.872 35.777)" opacity="0.3">
        <path id="Path_1152" data-name="Path 1152" d="M573.35,138l.031,54.313h22.555v-22.3h38.629L639.1,164.2" transform="translate(-447.514 -138)" fill="none" stroke="#444053" stroke-miterlimit="10" stroke-width="3"/>
        <path id="Path_1153" data-name="Path 1153" d="M88.97,197.833h83.868l5.185-2.333H180.1v52.369h36.3l1.556,4.667v23.592h28v29.166" transform="translate(-88.711 -180.593)" fill="none" stroke="#444053" stroke-miterlimit="10" stroke-width="3"/>
        <line id="Line_3" data-name="Line 3" y1="57.424" transform="translate(102.464 67.276)" fill="none" stroke="#444053" stroke-miterlimit="10" stroke-width="3"/>
        <line id="Line_4" data-name="Line 4" x1="89.123" transform="translate(102.464 109.316)" fill="none" stroke="#444053" stroke-miterlimit="10" stroke-width="3"/>
        <line id="Line_5" data-name="Line 5" y2="124.7" transform="translate(169.265)" fill="none" stroke="#444053" stroke-miterlimit="10" stroke-width="3"/>
        <line id="Line_6" data-name="Line 6" x2="191.587" transform="translate(0 98.293)" fill="none" stroke="#444053" stroke-miterlimit="10" stroke-width="3"/>
        <line id="Line_7" data-name="Line 7" y1="124.7" transform="translate(23.317)" fill="none" stroke="#444053" stroke-miterlimit="10" stroke-width="3"/>
        <line id="Line_8" data-name="Line 8" y2="124.7" transform="translate(67.851)" fill="none" stroke="#444053" stroke-miterlimit="10" stroke-width="3"/>
        <line id="Line_9" data-name="Line 9" x2="148.162" y2="0.519" transform="translate(0.259 31.499)" fill="none" stroke="#444053" stroke-miterlimit="10" stroke-width="3"/>
        <line id="Line_10" data-name="Line 10" y2="124.475" transform="translate(43.381 0.226)" fill="none" stroke="#444053" stroke-miterlimit="10" stroke-width="3"/>
        <path id="Path_1154" data-name="Path 1154" d="M87.97,370.82h67.851l34.613,37.934" transform="translate(-87.97 -310.461)" fill="none" stroke="#444053" stroke-miterlimit="10" stroke-width="3"/>
        <line id="Line_11" data-name="Line 11" y2="67.276" transform="translate(109.962)" fill="none" stroke="#444053" stroke-miterlimit="10" stroke-width="3"/>
        <line id="Line_12" data-name="Line 12" x2="89.123" transform="translate(102.464 79.326)" fill="none" stroke="#444053" stroke-miterlimit="10" stroke-width="3"/>
      </g>
      <ellipse id="Ellipse_252" data-name="Ellipse 252" cx="8.672" cy="3.573" rx="8.672" ry="3.573" transform="translate(123.37 190.289) rotate(-23.3)" fill="#f36" opacity="0.1"/>
      <ellipse id="Ellipse_253" data-name="Ellipse 253" cx="1.918" cy="2.51" rx="1.918" ry="2.51" transform="translate(130.726 186.218)" fill="#3f3d56"/>
      <ellipse id="Ellipse_254" data-name="Ellipse 254" cx="1.918" cy="2.51" rx="1.918" ry="2.51" transform="translate(130.726 183.148)" fill="#3f3d56"/>
      <ellipse id="Ellipse_255" data-name="Ellipse 255" cx="1.918" cy="2.51" rx="1.918" ry="2.51" transform="translate(130.726 180.081)" fill="#3f3d56"/>
      <ellipse id="Ellipse_256" data-name="Ellipse 256" cx="1.918" cy="2.51" rx="1.918" ry="2.51" transform="translate(130.726 177.014)" fill="#3f3d56"/>
      <ellipse id="Ellipse_257" data-name="Ellipse 257" cx="1.918" cy="2.51" rx="1.918" ry="2.51" transform="translate(130.726 173.945)" fill="#3f3d56"/>
      <ellipse id="Ellipse_258" data-name="Ellipse 258" cx="1.918" cy="2.51" rx="1.918" ry="2.51" transform="translate(130.726 170.878)" fill="#3f3d56"/>
      <ellipse id="Ellipse_259" data-name="Ellipse 259" cx="1.918" cy="2.51" rx="1.918" ry="2.51" transform="translate(130.726 167.811)" fill="#3f3d56"/>
      <path id="Path_1159" data-name="Path 1159" d="M616.181,606.649a9.358,9.358,0,0,1-.716-1.037l5.04-.83-5.444.041a9.214,9.214,0,0,1-.176-7.277l7.311,3.78-6.741-4.957a9.185,9.185,0,1,1,15.169,10.279,9.219,9.219,0,0,1,1.037,1.675l-6.536,3.4,6.974-2.333a9.19,9.19,0,0,1-1.48,8.625,9.185,9.185,0,1,1-14.438,0,9.188,9.188,0,0,1,0-11.358Z" transform="translate(-490.715 -457.325)" fill="#f36"/>
      <path id="Path_1160" data-name="Path 1160" d="M632.584,670.62a9.147,9.147,0,0,1-1.965,5.68,9.185,9.185,0,1,1-14.438,0C614.95,674.745,632.584,669.6,632.584,670.62Z" transform="translate(-490.715 -515.626)" opacity="0.1"/>
      <ellipse id="Ellipse_260" data-name="Ellipse 260" cx="5.182" cy="12.582" rx="5.182" ry="12.582" transform="translate(0 174.84) rotate(-45)" fill="#f36" opacity="0.1"/>
      <ellipse id="Ellipse_261" data-name="Ellipse 261" cx="2.782" cy="3.642" rx="2.782" ry="3.642" transform="translate(10.669 173.608)" fill="#3f3d56"/>
      <ellipse id="Ellipse_262" data-name="Ellipse 262" cx="2.782" cy="3.642" rx="2.782" ry="3.642" transform="translate(10.669 169.157)" fill="#3f3d56"/>
      <ellipse id="Ellipse_263" data-name="Ellipse 263" cx="2.782" cy="3.642" rx="2.782" ry="3.642" transform="translate(10.669 164.705)" fill="#3f3d56"/>
      <ellipse id="Ellipse_264" data-name="Ellipse 264" cx="2.782" cy="3.642" rx="2.782" ry="3.642" transform="translate(10.669 160.254)" fill="#3f3d56"/>
      <ellipse id="Ellipse_265" data-name="Ellipse 265" cx="2.782" cy="3.642" rx="2.782" ry="3.642" transform="translate(10.669 155.803)" fill="#3f3d56"/>
      <ellipse id="Ellipse_266" data-name="Ellipse 266" cx="2.782" cy="3.642" rx="2.782" ry="3.642" transform="translate(10.669 151.351)" fill="#3f3d56"/>
      <ellipse id="Ellipse_267" data-name="Ellipse 267" cx="2.782" cy="3.642" rx="2.782" ry="3.642" transform="translate(10.669 146.9)" fill="#3f3d56"/>
      <path id="Path_1161" data-name="Path 1161" d="M161.88,474.682a13.26,13.26,0,0,0,1.037-1.524l-7.311-1.2,7.907.057a13.361,13.361,0,0,0,.259-10.559l-10.606,5.5,9.776-7.192a13.328,13.328,0,1,0-22.01,14.915,13.261,13.261,0,0,0-1.519,2.429l9.489,4.926-10.111-3.4a13.338,13.338,0,0,0,2.149,12.514,13.326,13.326,0,1,0,20.948,0,13.328,13.328,0,0,0,0-16.478Z" transform="translate(-138.015 -354.602)" fill="#f36"/>
      <path id="Path_1162" data-name="Path 1162" d="M138.1,567.549a13.263,13.263,0,0,0,2.852,8.239,13.326,13.326,0,1,0,20.948,0C163.685,573.522,138.1,566.053,138.1,567.549Z" transform="translate(-138.034 -439.23)" opacity="0.1"/>
    </g>
    <g id="exclamation-mark" transform="translate(2865.171 3369.427)">
      <path id="Path_1551" data-name="Path 1551" d="M14.086,0A14.086,14.086,0,1,0,28.172,14.086,14.086,14.086,0,0,0,14.086,0Zm0,25.531A11.445,11.445,0,1,1,25.531,14.086,11.444,11.444,0,0,1,14.086,25.531Zm0-19.353c-1.009,0-1.772.526-1.772,1.377v7.8c0,.851.763,1.376,1.772,1.376.984,0,1.772-.547,1.772-1.376v-7.8C15.859,6.724,15.071,6.178,14.087,6.178Zm0,12.31a1.758,1.758,0,1,0,1.757,1.759A1.761,1.761,0,0,0,14.087,18.488Z" fill="#f36"/>
    </g>
    <g id="exclamation-mark-2" data-name="exclamation-mark" transform="translate(2763.069 3401.622)">
      <path id="Path_1551-2" data-name="Path 1551" d="M14.086,0A14.086,14.086,0,1,0,28.172,14.086,14.086,14.086,0,0,0,14.086,0Zm0,25.531A11.445,11.445,0,1,1,25.531,14.086,11.444,11.444,0,0,1,14.086,25.531Zm0-19.353c-1.009,0-1.772.526-1.772,1.377v7.8c0,.851.763,1.376,1.772,1.376.984,0,1.772-.547,1.772-1.376v-7.8C15.859,6.724,15.071,6.178,14.087,6.178Zm0,12.31a1.758,1.758,0,1,0,1.757,1.759A1.761,1.761,0,0,0,14.087,18.488Z" fill="#f36"/>
    </g>
    <g id="exclamation-mark-3" data-name="exclamation-mark" transform="translate(2865.171 3442.095)">
      <path id="Path_1551-3" data-name="Path 1551" d="M14.086,0A14.086,14.086,0,1,0,28.172,14.086,14.086,14.086,0,0,0,14.086,0Zm0,25.531A11.445,11.445,0,1,1,25.531,14.086,11.444,11.444,0,0,1,14.086,25.531Zm0-19.353c-1.009,0-1.772.526-1.772,1.377v7.8c0,.851.763,1.376,1.772,1.376.984,0,1.772-.547,1.772-1.376v-7.8C15.859,6.724,15.071,6.178,14.087,6.178Zm0,12.31a1.758,1.758,0,1,0,1.757,1.759A1.761,1.761,0,0,0,14.087,18.488Z" fill="#f36"/>
    </g>
    <g id="exclamation-mark-4" data-name="exclamation-mark" transform="translate(2718.917 3355.63)">
      <path id="Path_1551-4" data-name="Path 1551" d="M14.086,0A14.086,14.086,0,1,0,28.172,14.086,14.086,14.086,0,0,0,14.086,0Zm0,25.531A11.445,11.445,0,1,1,25.531,14.086,11.444,11.444,0,0,1,14.086,25.531Zm0-19.353c-1.009,0-1.772.526-1.772,1.377v7.8c0,.851.763,1.376,1.772,1.376.984,0,1.772-.547,1.772-1.376v-7.8C15.859,6.724,15.071,6.178,14.087,6.178Zm0,12.31a1.758,1.758,0,1,0,1.757,1.759A1.761,1.761,0,0,0,14.087,18.488Z" fill="#f36"/>
    </g>
  </g>
</svg>
