<svg xmlns="http://www.w3.org/2000/svg" width="260.448" height="215.62" viewBox="0 0 260.448 215.62">
  <g id="Most_Popular_Stoppages" data-name="Most Popular Stoppages" transform="translate(0.254)">
    <ellipse id="Ellipse_244" data-name="Ellipse 244" cx="5.634" cy="13.678" rx="5.634" ry="13.678" transform="translate(231.141 196.276) rotate(-45)" fill="#f36" opacity="0.1"/>
    <ellipse id="Ellipse_245" data-name="Ellipse 245" cx="3.024" cy="3.96" rx="3.024" ry="3.96" transform="translate(242.739 194.937)" fill="#3f3d56"/>
    <ellipse id="Ellipse_246" data-name="Ellipse 246" cx="3.024" cy="3.96" rx="3.024" ry="3.96" transform="translate(242.739 190.098)" fill="#3f3d56"/>
    <ellipse id="Ellipse_247" data-name="Ellipse 247" cx="3.024" cy="3.96" rx="3.024" ry="3.96" transform="translate(242.739 185.259)" fill="#3f3d56"/>
    <ellipse id="Ellipse_248" data-name="Ellipse 248" cx="3.024" cy="3.96" rx="3.024" ry="3.96" transform="translate(242.739 180.419)" fill="#3f3d56"/>
    <ellipse id="Ellipse_249" data-name="Ellipse 249" cx="3.024" cy="3.96" rx="3.024" ry="3.96" transform="translate(242.739 175.58)" fill="#3f3d56"/>
    <ellipse id="Ellipse_250" data-name="Ellipse 250" cx="3.024" cy="3.96" rx="3.024" ry="3.96" transform="translate(242.739 170.741)" fill="#3f3d56"/>
    <ellipse id="Ellipse_251" data-name="Ellipse 251" cx="3.024" cy="3.96" rx="3.024" ry="3.96" transform="translate(242.739 165.902)" fill="#3f3d56"/>
    <path id="Path_1147" data-name="Path 1147" d="M984.954,498.562a14.421,14.421,0,0,0,1.127-1.657l-7.948-1.3,8.6.062a14.526,14.526,0,0,0,.282-11.479l-11.53,5.984,10.628-7.818a14.49,14.49,0,1,0-23.929,16.214,14.423,14.423,0,0,0-1.651,2.641l10.315,5.355-10.992-3.692a14.5,14.5,0,0,0,2.337,13.6,14.487,14.487,0,1,0,22.773,0,14.49,14.49,0,0,0,0-17.914Z" transform="translate(-727.87 -361.817)" fill="#f36"/>
    <path id="Path_1148" data-name="Path 1148" d="M959.1,589.566a14.419,14.419,0,0,0,3.1,8.957,14.487,14.487,0,1,0,22.773,0C986.914,596.06,959.1,587.94,959.1,589.566Z" transform="translate(-727.888 -443.864)" opacity="0.1"/>
    <path id="Path_1149" data-name="Path 1149" d="M287.526,0V202.928l-68.77-9.583-83.6,17.054-.674.138L67.97,192.217V15.783L137.022,0l75.534,15.783,2.872-.606Z" transform="translate(-48.996)" fill="#444053"/>
    <path id="Path_1150" data-name="Path 1150" d="M305.415,39.32V220.887l-61.529-8.574-74.8,15.259-.6.121L108.97,211.3V53.44l61.786-14.12,67.58,14.12,2.57-.541Z" transform="translate(-78.44 -28.238)" fill="#fff"/>
    <path id="Path_1151" data-name="Path 1151" d="M389.958,193.345,306.36,210.4,308.223,0l75.534,15.783,2.872-.606Z" transform="translate(-220.197)" opacity="0.1"/>
    <g id="Group_253" data-name="Group 253" transform="translate(24.611 38.894)" opacity="0.3">
      <path id="Path_1152" data-name="Path 1152" d="M573.35,138l.034,59.046H597.9V172.808H639.9l4.932-6.325" transform="translate(-436.549 -138)" fill="none" stroke="#444053" stroke-miterlimit="10" stroke-width="3"/>
      <path id="Path_1153" data-name="Path 1153" d="M88.97,198.037h91.176l5.637-2.537h2.255v56.932H227.5l1.691,5.073v25.648h30.439v31.707" transform="translate(-88.688 -179.294)" fill="none" stroke="#444053" stroke-miterlimit="10" stroke-width="3"/>
      <line id="Line_3" data-name="Line 3" y1="62.428" transform="translate(111.393 73.138)" fill="none" stroke="#444053" stroke-miterlimit="10" stroke-width="3"/>
      <line id="Line_4" data-name="Line 4" x1="96.889" transform="translate(111.393 118.842)" fill="none" stroke="#444053" stroke-miterlimit="10" stroke-width="3"/>
      <line id="Line_5" data-name="Line 5" y2="135.567" transform="translate(184.016)" fill="none" stroke="#444053" stroke-miterlimit="10" stroke-width="3"/>
      <line id="Line_6" data-name="Line 6" x2="208.283" transform="translate(0 106.858)" fill="none" stroke="#444053" stroke-miterlimit="10" stroke-width="3"/>
      <line id="Line_7" data-name="Line 7" y1="135.567" transform="translate(25.349)" fill="none" stroke="#444053" stroke-miterlimit="10" stroke-width="3"/>
      <line id="Line_8" data-name="Line 8" y2="135.567" transform="translate(73.764)" fill="none" stroke="#444053" stroke-miterlimit="10" stroke-width="3"/>
      <line id="Line_9" data-name="Line 9" x2="161.074" y2="0.564" transform="translate(0.282 34.244)" fill="none" stroke="#444053" stroke-miterlimit="10" stroke-width="3"/>
      <line id="Line_10" data-name="Line 10" y2="135.322" transform="translate(47.161 0.245)" fill="none" stroke="#444053" stroke-miterlimit="10" stroke-width="3"/>
      <path id="Path_1154" data-name="Path 1154" d="M87.97,370.82h73.764l37.629,41.239" transform="translate(-87.97 -305.201)" fill="none" stroke="#444053" stroke-miterlimit="10" stroke-width="3"/>
      <line id="Line_11" data-name="Line 11" y2="73.138" transform="translate(119.544)" fill="none" stroke="#444053" stroke-miterlimit="10" stroke-width="3"/>
      <line id="Line_12" data-name="Line 12" x2="96.889" transform="translate(111.393 86.239)" fill="none" stroke="#444053" stroke-miterlimit="10" stroke-width="3"/>
    </g>
    <path id="Path_1155" data-name="Path 1155" d="M513.436,410.042H484.97v-12.4l26.916-.141,1.691,4.791Z" transform="translate(-348.467 -285.467)" fill="#f36"/>
    <path id="Path_1156" data-name="Path 1156" d="M634.37,287.15a15.58,15.58,0,0,0-15.58,15.58c0,8.6,15.58,36.561,15.58,36.561s15.58-27.945,15.58-36.561A15.58,15.58,0,0,0,634.37,287.15Zm0,22.226a6.854,6.854,0,1,1,6.854-6.854,6.854,6.854,0,0,1-6.854,6.854Z" transform="translate(-483.493 -226.835)" fill="#f36"/>
    <path id="Path_1157" data-name="Path 1157" d="M634.37,287.15a15.58,15.58,0,0,0-15.58,15.58c0,8.6,15.58,36.561,15.58,36.561s15.58-27.945,15.58-36.561A15.58,15.58,0,0,0,634.37,287.15Zm0,22.226a6.854,6.854,0,1,1,6.854-6.854,6.854,6.854,0,0,1-6.854,6.854Z" transform="translate(-483.493 -226.835)" opacity="0.1"/>
    <path id="Path_1158" data-name="Path 1158" d="M634.37,295.15a15.58,15.58,0,0,0-15.58,15.58c0,8.6,15.58,36.561,15.58,36.561s15.58-27.945,15.58-36.561A15.58,15.58,0,0,0,634.37,295.15Zm0,22.226a6.854,6.854,0,1,1,6.854-6.854,6.854,6.854,0,0,1-6.854,6.854Z" transform="translate(-483.493 -232.581)" fill="#f36"/>
    <ellipse id="Ellipse_252" data-name="Ellipse 252" cx="9.428" cy="3.884" rx="9.428" ry="3.884" transform="translate(133.867 206.872) rotate(-23.3)" fill="#f36" opacity="0.1"/>
    <ellipse id="Ellipse_253" data-name="Ellipse 253" cx="2.086" cy="2.728" rx="2.086" ry="2.728" transform="translate(141.864 202.446)" fill="#3f3d56"/>
    <ellipse id="Ellipse_254" data-name="Ellipse 254" cx="2.086" cy="2.728" rx="2.086" ry="2.728" transform="translate(141.864 199.109)" fill="#3f3d56"/>
    <ellipse id="Ellipse_255" data-name="Ellipse 255" cx="2.086" cy="2.728" rx="2.086" ry="2.728" transform="translate(141.864 195.774)" fill="#3f3d56"/>
    <ellipse id="Ellipse_256" data-name="Ellipse 256" cx="2.086" cy="2.728" rx="2.086" ry="2.728" transform="translate(141.864 192.44)" fill="#3f3d56"/>
    <ellipse id="Ellipse_257" data-name="Ellipse 257" cx="2.086" cy="2.728" rx="2.086" ry="2.728" transform="translate(141.864 189.103)" fill="#3f3d56"/>
    <ellipse id="Ellipse_258" data-name="Ellipse 258" cx="2.086" cy="2.728" rx="2.086" ry="2.728" transform="translate(141.864 185.769)" fill="#3f3d56"/>
    <ellipse id="Ellipse_259" data-name="Ellipse 259" cx="2.086" cy="2.728" rx="2.086" ry="2.728" transform="translate(141.864 182.435)" fill="#3f3d56"/>
    <path id="Path_1159" data-name="Path 1159" d="M616.352,607.944a10.176,10.176,0,0,1-.778-1.128l5.479-.9-5.919.045a10.016,10.016,0,0,1-.192-7.911l7.948,4.109-7.328-5.389a9.986,9.986,0,1,1,16.491,11.175,10.019,10.019,0,0,1,1.127,1.821l-7.105,3.695,7.582-2.537a9.991,9.991,0,0,1-1.609,9.377,9.986,9.986,0,1,1-15.7,0,9.988,9.988,0,0,1,0-12.348Z" transform="translate(-480.207 -445.608)" fill="#f36"/>
    <path id="Path_1160" data-name="Path 1160" d="M634.185,670.631a9.944,9.944,0,0,1-2.136,6.175,9.986,9.986,0,1,1-15.7,0C615.014,675.116,634.185,669.521,634.185,670.631Z" transform="translate(-480.207 -502.131)" opacity="0.1"/>
    <ellipse id="Ellipse_260" data-name="Ellipse 260" cx="5.634" cy="13.678" rx="5.634" ry="13.678" transform="translate(-0.254 190.076) rotate(-45)" fill="#f36" opacity="0.1"/>
    <ellipse id="Ellipse_261" data-name="Ellipse 261" cx="3.024" cy="3.96" rx="3.024" ry="3.96" transform="translate(11.345 188.737)" fill="#3f3d56"/>
    <ellipse id="Ellipse_262" data-name="Ellipse 262" cx="3.024" cy="3.96" rx="3.024" ry="3.96" transform="translate(11.345 183.897)" fill="#3f3d56"/>
    <ellipse id="Ellipse_263" data-name="Ellipse 263" cx="3.024" cy="3.96" rx="3.024" ry="3.96" transform="translate(11.345 179.058)" fill="#3f3d56"/>
    <ellipse id="Ellipse_264" data-name="Ellipse 264" cx="3.024" cy="3.96" rx="3.024" ry="3.96" transform="translate(11.345 174.219)" fill="#3f3d56"/>
    <ellipse id="Ellipse_265" data-name="Ellipse 265" cx="3.024" cy="3.96" rx="3.024" ry="3.96" transform="translate(11.345 169.38)" fill="#3f3d56"/>
    <ellipse id="Ellipse_266" data-name="Ellipse 266" cx="3.024" cy="3.96" rx="3.024" ry="3.96" transform="translate(11.345 164.54)" fill="#3f3d56"/>
    <ellipse id="Ellipse_267" data-name="Ellipse 267" cx="3.024" cy="3.96" rx="3.024" ry="3.96" transform="translate(11.345 159.701)" fill="#3f3d56"/>
    <path id="Path_1161" data-name="Path 1161" d="M163.954,476.562a14.416,14.416,0,0,0,1.127-1.657l-7.948-1.3,8.6.062a14.526,14.526,0,0,0,.282-11.479l-11.53,5.984,10.628-7.818a14.49,14.49,0,1,0-23.929,16.214,14.416,14.416,0,0,0-1.652,2.641l10.315,5.355-10.992-3.692a14.5,14.5,0,0,0,2.337,13.6,14.487,14.487,0,1,0,22.773,0,14.49,14.49,0,0,0,0-17.914Z" transform="translate(-138.264 -346.018)" fill="#f36"/>
    <path id="Path_1162" data-name="Path 1162" d="M138.1,567.566a14.419,14.419,0,0,0,3.1,8.957,14.487,14.487,0,1,0,22.773,0C165.915,574.06,138.1,565.94,138.1,567.566Z" transform="translate(-138.282 -428.065)" opacity="0.1"/>
  </g>
</svg>
