<svg xmlns="http://www.w3.org/2000/svg" width="245.115" height="130.604" viewBox="0 0 245.115 130.604">
  <g id="Stoppage_Time" data-name="Stoppage Time" transform="translate(-3677 -368)">
    <g id="undraw_vehicle_sale_v7fm" transform="translate(3677 368)">
      <ellipse id="Ellipse_200" data-name="Ellipse 200" cx="122.558" cy="38.237" rx="122.558" ry="38.237" transform="translate(0 54.129)" fill="#f36" opacity="0.1"/>
      <g id="Group_250" data-name="Group 250" transform="translate(29.664 0)" opacity="0.8">
        <path id="Path_1005" data-name="Path 1005" d="M447.79,188.61c2.077,2.913,3.672,11.4,4.117,13.957l3.714-.077c-.194-2.2-4.513-11.131-5.721-13.583C449.238,188.8,448.525,188.7,447.79,188.61Z" transform="translate(-388.388 -180.821)" fill="#65617d"/>
        <rect id="Rectangle_217" data-name="Rectangle 217" width="2.317" height="1.646" transform="translate(13.006 8.21) rotate(-88.92)" fill="#dce0ed"/>
        <path id="Path_1006" data-name="Path 1006" d="M237.083,180l-.013.753a1.205,1.205,0,0,0,.356.055l1.287.013.015-.79Z" transform="translate(-224.033 -174.106)" opacity="0.1"/>
        <path id="Path_1007" data-name="Path 1007" d="M234.717,153.257l-1.553-.029a1.868,1.868,0,0,0-1.76,1.131,5.282,5.282,0,0,0,.084,4.68,1.289,1.289,0,0,0,1.116.66l1.98.02Z" transform="translate(-219.215 -153.224)" fill="#dce0ed"/>
        <ellipse id="Ellipse_201" data-name="Ellipse 201" cx="3.237" cy="1.663" rx="3.237" ry="1.663" transform="translate(13.715 6.472) rotate(-88.92)" fill="#f0f0f4"/>
        <rect id="Rectangle_218" data-name="Rectangle 218" width="2.029" height="1.646" transform="translate(27.623 8.224) rotate(-88.92)" fill="#dce0ed"/>
        <path id="Path_1008" data-name="Path 1008" d="M303.5,181.37l-.011.645a1.206,1.206,0,0,0,.356.055l1.287.015.013-.682Z" transform="translate(-275.838 -175.175)" opacity="0.1"/>
        <path id="Path_1009" data-name="Path 1009" d="M301.168,154.638l-1.553-.029a1.863,1.863,0,0,0-1.747,1.131,5.265,5.265,0,0,0,.084,4.678,1.283,1.283,0,0,0,1.113.671l1.98.02Z" transform="translate(-271.054 -154.302)" fill="#dce0ed"/>
        <ellipse id="Ellipse_202" data-name="Ellipse 202" cx="3.237" cy="1.663" rx="3.237" ry="1.663" transform="translate(28.327 6.775) rotate(-88.92)" fill="#f0f0f4"/>
        <path id="Path_1010" data-name="Path 1010" d="M310.243,160.08s.612.11.277.913a5.63,5.63,0,0,0-.392,1.221s-.621.308-.576-.748A1.571,1.571,0,0,1,310.243,160.08Z" transform="translate(-280.565 -158.569)" fill="#dce0ed"/>
        <ellipse id="Ellipse_203" data-name="Ellipse 203" cx="10.641" cy="9.708" rx="10.641" ry="9.708" transform="translate(81.234 59.372) rotate(-88.92)" fill="#636780"/>
        <path id="Path_1011" data-name="Path 1011" d="M553.418,329.9c5.074.44,9.021,5.136,8.9,10.782a10.649,10.649,0,0,1-6.476,9.84c-5.074-.44-9.008-5.136-8.9-10.782A10.653,10.653,0,0,1,553.418,329.9Z" transform="translate(-465.722 -291.023)" opacity="0.1"/>
        <ellipse id="Ellipse_204" data-name="Ellipse 204" cx="10.273" cy="7.879" rx="10.273" ry="7.879" transform="translate(7.547 34.356) rotate(-88.92)" fill="#636780"/>
        <path id="Path_1012" data-name="Path 1012" d="M236.517,218.82c3.243,1.32,5.556,5.3,5.468,9.963-.095,4.986-2.9,9.09-6.528,9.954-3.243-1.32-5.556-5.3-5.466-9.963C230.083,223.788,232.887,219.685,236.517,218.82Z" transform="translate(-218.509 -204.384)" opacity="0.1"/>
        <path id="Path_1013" data-name="Path 1013" d="M383.225,235.869l-.075-3.741s.761-1.6,1.494-1.727,2.42-.191,2.42-.191,1.215,5.38.306,6.973S383.225,235.869,383.225,235.869Z" transform="translate(-337.971 -213.268)" fill="#65617d"/>
        <path id="Path_1014" data-name="Path 1014" d="M383.225,235.869l-.075-3.741s.761-1.6,1.494-1.727,2.42-.191,2.42-.191,1.215,5.38.306,6.973S383.225,235.869,383.225,235.869Z" transform="translate(-337.971 -213.268)" opacity="0.1"/>
        <path id="Path_1015" data-name="Path 1015" d="M408.862,235.105s.55-5.162-2.288-5.309c-.365-.018-.73-.033-1.1-.077-1.965-.22-7.327-.744-6.709.5,0,0,1.195,4.519.3,5.637Z" transform="translate(-350.111 -212.652)" fill="#65617d"/>
        <path id="Path_1016" data-name="Path 1016" d="M244.389,253.213l-3.813.037s-.524-7.041-.733-7.582-.271-3.186.44-3.558a17.946,17.946,0,0,1,3.113-.79l1.679,4.035.068,3.622Z" transform="translate(-226.086 -221.934)" fill="#65617d"/>
        <path id="Path_1017" data-name="Path 1017" d="M244.389,253.213l-3.813.037s-.524-7.041-.733-7.582-.271-3.186.44-3.558a17.946,17.946,0,0,1,3.113-.79l1.679,4.035.068,3.622Z" transform="translate(-226.086 -221.934)" opacity="0.1"/>
        <path id="Path_1018" data-name="Path 1018" d="M265.659,238.772l.033-.781a.455.455,0,0,0-.462-.471c-1.89.044-8.77.244-9.985.836,0,0,1.131,9.811-.365,12.115l.345,7.851,16.857-.944Z" transform="translate(-237.924 -218.97)" fill="#65617d"/>
        <path id="Path_1019" data-name="Path 1019" d="M305.029,186.516c-.466-.055-1.021-.114-1.641-.176l-.018.935,1.646.033Z" transform="translate(-275.745 -179.051)" opacity="0.1"/>
        <path id="Path_1020" data-name="Path 1020" d="M236.94,188v.119l1.646.031.013-.713A7.04,7.04,0,0,0,236.94,188Z" transform="translate(-223.931 -179.909)" opacity="0.1"/>
        <path id="Path_1021" data-name="Path 1021" d="M154.43,90.106l2.486.084,5.314-9.237.887-1.542-.583-3.961-.524.946Z" transform="translate(-150.115 -58.845)" fill="#dce0ed"/>
        <path id="Path_1022" data-name="Path 1022" d="M257.6,72.183l.994,1.553,3.138-4.079,1.435-1.868-.819-1.149-.658.768Z" transform="translate(-230.584 -51.973)" fill="#dce0ed"/>
        <path id="Path_1023" data-name="Path 1023" d="M319.118,220.638c0,.079-.011.161-.018.242l.062,2.007,1.435-1.868-.819-1.149Z" transform="translate(-288.013 -205.203)" opacity="0.1"/>
        <path id="Path_1024" data-name="Path 1024" d="M188.88,76.4l.22,4.557.887-1.542L189.4,75.45Z" transform="translate(-176.985 -58.845)" opacity="0.1"/>
        <path id="Path_1025" data-name="Path 1025" d="M253.4,196.525s1.4-9.145-3.041-10.6a.962.962,0,0,0-.176-.037c-1.025-.145-10.59-1.43-15.594-.22,0,0-3.408.44-3.408,2.275l1.078,22.364,2.449.046-.526-14.784s-1.047-6.456.9-6.856,10.782-.968,13.862-.031c0,0,2.277-.469,1.806,5.116l.088,3Z" transform="translate(-219.439 -178.124)" fill="#dce0ed"/>
        <path id="Path_1026" data-name="Path 1026" d="M297.989,238.5a1.411,1.411,0,0,1,.6-1.25c.7-.508,2.827-1.593,2.827-1.593l.684.068,1.96,5.138-.341,10.828-3.78,4.5Z" transform="translate(-271.545 -217.519)" fill="#65617d"/>
        <path id="Path_1027" data-name="Path 1027" d="M297.989,238.5a1.411,1.411,0,0,1,.6-1.25c.7-.508,2.827-1.593,2.827-1.593l.684.068,1.96,5.138-.341,10.828-3.78,4.5Z" transform="translate(-271.545 -217.519)" opacity="0.1"/>
        <path id="Path_1028" data-name="Path 1028" d="M324.536,246.33l.136-11.116s.411-4.306-2.165-4.429c0,0-6.079-.07-8.735.737a.59.59,0,0,0-.348.847c.508.924,1.349,3.362,1.659,9.585l-.125,6.663Z" transform="translate(-283.531 -213.715)" fill="#65617d"/>
        <path id="Path_1029" data-name="Path 1029" d="M262.3,153.329l11.063-.048h.011l5.439-.024-.5-7.276-3.017.053-9.637,1.956-3.021,4.55Z" transform="translate(-234.25 -113.856)" fill="#65617d"/>
        <path id="Path_1030" data-name="Path 1030" d="M262.3,153.329l11.063-.048h.011l5.439-.024-.5-7.276-3.017.053-9.637,1.956-3.021,4.55Z" transform="translate(-234.25 -113.856)" opacity="0.1"/>
        <path id="Path_1031" data-name="Path 1031" d="M262.3,160.45l11.063-.048.275-4.867-7.974-.425-3.021,4.55Z" transform="translate(-234.25 -120.977)" fill="#65617d"/>
        <path id="Path_1032" data-name="Path 1032" d="M355.63,306.511l5.439-.024-.5-7.276s-1.76,2.682-4.68,2.434Z" transform="translate(-316.506 -267.086)" fill="#fff" opacity="0.1"/>
        <path id="Path_1033" data-name="Path 1033" d="M177.823,349.716c.18,2.088,1.668,1.787,1.668,1.787l.277-.02,2.744-.2-.048-3.239a11.931,11.931,0,0,0-2.783.114C178.65,348.356,177.744,348.79,177.823,349.716Z" transform="translate(-177.818 -305.151)" fill="#dce0ed"/>
        <path id="Path_1034" data-name="Path 1034" d="M177.823,350.259c.18,2.088,1.668,1.787,1.668,1.787l.277-.02a2.819,2.819,0,0,0,.466-1.556,2.64,2.64,0,0,0-.554-1.76C178.65,348.9,177.744,349.333,177.823,350.259Z" transform="translate(-177.818 -305.694)" opacity="0.1"/>
        <path id="Path_1035" data-name="Path 1035" d="M351.615,241.315c-.064,3.382,1.914,6.161,4.416,6.209s4.585-2.656,4.649-6.038-1.914-6.161-4.416-6.209S351.678,237.933,351.615,241.315Zm1.71.44c.046-2.453,1.63-4.414,3.538-4.376s3.417,2.053,3.371,4.506-1.63,4.4-3.538,4.376-3.417-2.057-3.371-4.511Z" transform="translate(-313.373 -217.22)" fill="#636780"/>
        <path id="Path_1036" data-name="Path 1036" d="M317.811,112.859l-2.159,2.044-.733-1.879,3.1-1.734Z" transform="translate(-275.292 -86.799)" fill="#636780"/>
        <path id="Path_1037" data-name="Path 1037" d="M306.59,24.42l-1.85.191-.7.8.948,4.691,2.064,7.569,1.351,5.195.959,3.157.57,4.163.594,2.869,1.91,1.982,4.046-4.6.68-1.547,1.617-3.149-3.989-1.958-4.4-.473-1.976-5.36-1.569-6.2Z" transform="translate(-266.806 -19.043)" fill="#f36"/>
        <path id="Path_1038" data-name="Path 1038" d="M369.679,119.385l2.029,20.3-30.353-1.853,3.7-9.877,5.921-3.692-13.382-.033.031-5.558,5.433-1.067,10.911-.671,8.194-.211,7.776,2.706" transform="translate(-292.974 -91.034)" fill="#65617d"/>
        <path id="Path_1039" data-name="Path 1039" d="M369.679,119.385l2.029,20.3-30.353-1.853,3.7-9.877,5.921-3.692-13.382-.033.031-5.558,5.433-1.067,10.911-.671,8.194-.211,7.776,2.706" transform="translate(-292.974 -91.034)" opacity="0.1"/>
        <path id="Path_1040" data-name="Path 1040" d="M336.056,339.566c-.095,5.032,1.492,9.646,6.141,9.241,5.853-.015,6.381-3.961,6.482-8.995s-2.658-8.83-6.146-8.9S336.153,334.534,336.056,339.566Z" transform="translate(-301.236 -291.816)" fill="#636780"/>
        <path id="Path_1041" data-name="Path 1041" d="M335.9,341.357c.073-3.9,1.826-6.99,4.231-8.157,3.05.64,5.334,4.2,5.248,8.8-.077,4.123-.451,7.518-3.807,8.616C337.28,350.684,335.8,346.217,335.9,341.357Z" transform="translate(-301.11 -293.597)" opacity="0.1"/>
        <path id="Path_1042" data-name="Path 1042" d="M175.869,149.594l1.747,2.077-3.2-.612-2.359-2.251-2.062-4.324-2.981-1.905-7.417.865-6.85.132-2.486-2.293,2.827-.33,2.856-.011,7.173-.026,8.537-.066,1.663,4.7,1.27,3.237Z" transform="translate(-146.862 -109.855)" fill="#f36"/>
        <path id="Path_1043" data-name="Path 1043" d="M193.33,220.559a45.418,45.418,0,0,0,4.918,1.045l13.187,2.662,22.742.759,2.711-2.218,1.4.277.057.011L257,226.773l.306-.037,5.116-.631,26.725-3.3-.22-3.875-.132-2.286-.277-4.748-.233-1.248-2.368-.262-1.1-.123-17.268-1.914-2.28-.238L264,207.969l-12.322-1.914-18.029.1.031-5.558-6.718-22.074c-1.578.22-1.56,1.287-1.56,1.287l5.677,20.767-.165,12.687c-12.645,1.036-13-1.721-15.015-.832l-2.266-7.758-21.2-.29C191.57,205.388,193.33,220.559,193.33,220.559Z" transform="translate(-189.031 -172.952)" fill="#65617d"/>
        <path id="Path_1044" data-name="Path 1044" d="M359.745,168.54l-7,14.313-2.282.686-.5-2.35,2.673-7.959,2.684-4.592Z" transform="translate(-302.622 -131.452)" fill="#65617d"/>
        <path id="Path_1045" data-name="Path 1045" d="M359.745,168.54l-7,14.313-2.282.686-.5-2.35,2.673-7.959,2.684-4.592Z" transform="translate(-302.622 -131.452)" opacity="0.15"/>
        <ellipse id="Ellipse_205" data-name="Ellipse 205" cx="13.823" cy="12.186" rx="13.823" ry="12.186" transform="translate(48.868 66.726) rotate(-88.854)" fill="#636780"/>
        <path id="Path_1046" data-name="Path 1046" d="M408.451,335.16c6.368.563,11.3,6.663,11.164,14.005-.112,5.919-3.488,10.907-8.141,12.788-6.365-.565-11.3-6.665-11.164-14.007C400.427,342.027,403.8,337.041,408.451,335.16Z" transform="translate(-351.352 -295.126)" opacity="0.1"/>
        <path id="Path_1047" data-name="Path 1047" d="M606.44,287.4l.548,2.86L608.669,299l7.95-.618a1.643,1.643,0,0,0-.73-2.024s-.315-4.957-1.76-6.544a1.464,1.464,0,0,0-.568-.411Z" transform="translate(-512.13 -257.875)" fill="#65617d"/>
        <path id="Path_1048" data-name="Path 1048" d="M608.93,298.8l1.681,8.744,7.95-.618a1.643,1.643,0,0,0-.731-2.024s-.314-4.957-1.76-6.544Z" transform="translate(-514.072 -266.423)" fill="#fff" opacity="0.1"/>
        <path id="Path_1049" data-name="Path 1049" d="M412.479,266.021c-1.056,1.7,1.129,17.576,1.129,17.576l19.548-2.86-.44-13.862c-.356-2.493-1.811-2.814-1.811-2.814-6.808-3.6-22.586-4.621-22.586-4.621a115.549,115.549,0,0,0-27.618,4.269C397.132,261.488,412.479,266.021,412.479,266.021Z" transform="translate(-336.06 -236.067)" fill="#65617d"/>
        <path id="Path_1050" data-name="Path 1050" d="M525.224,298.677l19.548-2.86-.44-13.862c-.356-2.493-1.811-2.814-1.811-2.814s-14.2-1.622-18.432,1.956C523.039,282.8,525.224,298.677,525.224,298.677Z" transform="translate(-447.676 -251.146)" opacity="0.1"/>
        <path id="Path_1051" data-name="Path 1051" d="M535.523,305.058l16.348-2.438-.357-11.831c-.3-2.128-1.514-2.4-1.514-2.4s-11.868-1.38-15.413,1.674C533.7,291.513,535.523,305.058,535.523,305.058Z" transform="translate(-455.897 -258.403)" fill="#65617d"/>
        <ellipse id="Ellipse_206" data-name="Ellipse 206" cx="4.057" cy="2.231" rx="4.057" ry="2.231" transform="translate(78.84 40.969) rotate(-88.92)" opacity="0.1"/>
        <ellipse id="Ellipse_207" data-name="Ellipse 207" cx="4.057" cy="2.231" rx="4.057" ry="2.231" transform="translate(78.84 40.859) rotate(-88.92)" fill="#dce0ed"/>
        <path id="Path_1052" data-name="Path 1052" d="M541.916,307s.911.163.414,1.362a8.229,8.229,0,0,0-.583,1.818s-.924.458-.858-1.113A2.35,2.35,0,0,1,541.916,307Z" transform="translate(-460.999 -273.162)" fill="#f0f0f4"/>
        <ellipse id="Ellipse_208" data-name="Ellipse 208" cx="3.793" cy="2.084" rx="3.793" ry="2.084" transform="translate(90.975 39.324) rotate(-88.92)" opacity="0.1"/>
        <ellipse id="Ellipse_209" data-name="Ellipse 209" cx="3.793" cy="2.084" rx="3.793" ry="2.084" transform="translate(90.979 39.214) rotate(-88.92)" fill="#dce0ed"/>
        <path id="Path_1053" data-name="Path 1053" d="M596.353,300.74s.913.163.414,1.36a8.4,8.4,0,0,0-.583,1.817s-.922.458-.856-1.113A2.345,2.345,0,0,1,596.353,300.74Z" transform="translate(-503.46 -268.279)" fill="#f0f0f4"/>
        <path id="Path_1054" data-name="Path 1054" d="M558.555,300.232c.117,1.5.638,12.628.638,12.628l1.245-.183.691-.1.922-.136.112-.018,3.631-.535-.493-11.8a1.483,1.483,0,0,0-1.465-1.417h-.11c-.251.018-.521.037-.8.064l-.361.035c-.348.035-.708.079-1.061.13-.18.026-.359.055-.532.086-.3.055-.583.114-.847.183-.181.046-.352.1-.508.152C558.955,299.548,558.524,299.843,558.555,300.232Z" transform="translate(-474.779 -266.665)" opacity="0.1"/>
        <path id="Path_1055" data-name="Path 1055" d="M582.56,298.67l.458,13.275.4-.029-.453-13.173A1.469,1.469,0,0,0,582.56,298.67Z" transform="translate(-493.504 -266.665)" fill="#65617d"/>
        <path id="Path_1056" data-name="Path 1056" d="M576.77,299.031l.411,13.391.621.011L577.131,299Z" transform="translate(-488.988 -266.922)" fill="#65617d"/>
        <path id="Path_1057" data-name="Path 1057" d="M569.53,299.792l.792,13.446h.4v-.02l-.66-13.519C569.882,299.733,569.7,299.766,569.53,299.792Z" transform="translate(-483.341 -267.468)" fill="#65617d"/>
        <path id="Path_1058" data-name="Path 1058" d="M563.37,301.141l.825,13.354v.024l.7-.059v-.066L563.878,301A3.627,3.627,0,0,0,563.37,301.141Z" transform="translate(-478.536 -268.482)" fill="#65617d"/>
        <path id="Path_1059" data-name="Path 1059" d="M578.613,323.431s1.474-6.911-1.589-7.327-13.169.136-12.92,2.992.5,7.2.5,7.2l2.092-.427s-1.439-6.555,1.006-6.755,8.434-.772,8.434-.772,1.624-.244.583,5.468Z" transform="translate(-479.105 -280.167)" opacity="0.1"/>
        <path id="Path_1060" data-name="Path 1060" d="M578.576,324.871s1.481-7.351-1.582-7.765-13.167.134-12.92,2.992.5,7.2.5,7.2l2.093-.427s-1.439-6.555,1.005-6.755,8.434-.774,8.434-.774,1.615.2.574,5.908Z" transform="translate(-479.082 -280.949)" fill="#dce0ed"/>
        <path id="Path_1061" data-name="Path 1061" d="M383,321.77l2.7.013a52.124,52.124,0,0,1,5.5-14.012c1.1-.566,13.1-.264,13.1-.264,1.241.242,1.494,4.2,1.494,4.2s-1.078.893-.066,1.5a10.132,10.132,0,0,0,3.692.293,29.405,29.405,0,0,0,5.972-.73c2.354-.689.515-2.075.515-2.075s-.321-.44-.5-2.86a9.753,9.753,0,0,0-1.259-4.007c-.1-.169-.161-.262-.161-.262a1.232,1.232,0,0,0-.422-.277c-3.08-1.351-18.287-.4-18.287-.4l-5.683,1.683c-.156.059-.4.451-.713,1.08C387.042,309.422,383,321.77,383,321.77Z" transform="translate(-337.854 -269.696)" fill="#65617d"/>
        <path id="Path_1062" data-name="Path 1062" d="M383,321.77l2.7.013a52.124,52.124,0,0,1,5.5-14.012c1.1-.566,13.1-.264,13.1-.264,1.241.242,1.494,4.2,1.494,4.2s-1.078.893-.066,1.5a10.132,10.132,0,0,0,3.692.293,29.405,29.405,0,0,0,5.972-.73c2.354-.689.515-2.075.515-2.075s-.321-.44-.5-2.86a9.753,9.753,0,0,0-1.259-4.007c-.1-.169-.161-.262-.161-.262a1.232,1.232,0,0,0-.422-.277c-3.08-1.351-18.287-.4-18.287-.4l-5.683,1.683c-.156.059-.4.451-.713,1.08C387.042,309.422,383,321.77,383,321.77Z" transform="translate(-337.854 -269.696)" opacity="0.1"/>
        <path id="Path_1063" data-name="Path 1063" d="M409.78,305.634c5.235-1.921,19.537-.579,19.537-.579,1.54-1.274,4.4-1.3,5.71-1.243-.1-.169-.161-.262-.161-.262a1.233,1.233,0,0,0-.422-.277c-3.08-1.351-18.287-.4-18.287-.4l-5.668,1.685A2.774,2.774,0,0,0,409.78,305.634Z" transform="translate(-358.741 -269.688)" fill="#65617d"/>
        <path id="Path_1064" data-name="Path 1064" d="M494.667,308.165c.308,1.138,1.575,5.7,1.575,5.7a19.358,19.358,0,0,1,.253,2.2,29.4,29.4,0,0,0,5.972-.731c2.354-.689.515-2.075.515-2.075s-.321-.44-.5-2.86a9.715,9.715,0,0,0-1.419-4.269,1.233,1.233,0,0,0-.422-.277C498.605,306.292,494.434,307.3,494.667,308.165Z" transform="translate(-424.943 -272.265)" fill="#65617d"/>
        <path id="Path_1065" data-name="Path 1065" d="M494.667,308.165c.308,1.138,1.575,5.7,1.575,5.7a19.358,19.358,0,0,1,.253,2.2,29.4,29.4,0,0,0,5.972-.731c2.354-.689.515-2.075.515-2.075s-.321-.44-.5-2.86a9.715,9.715,0,0,0-1.419-4.269,1.233,1.233,0,0,0-.422-.277C498.605,306.292,494.434,307.3,494.667,308.165Z" transform="translate(-424.943 -272.265)" fill="#fff" opacity="0.1"/>
        <path id="Path_1066" data-name="Path 1066" d="M350.22,175.094l6.713,22.067,28-4.051-3.7-13.263s-.572-3.028-2.022-3.274C379.216,176.573,356.828,172.256,350.22,175.094Zm3.116,3.459c-.9-2.979,12.4-1.494,12.4-1.494a31.971,31.971,0,0,1,5.956.255c.735.09,1.448.191,2.117.3,1.492.233,2.757.484,3.52.643.482.1.759.163.759.163,2.64.88,3.943,11.869,3.943,11.869.2,1.155-1.168.88-1.168.88h-.1l-1.245.024-3.705.073-18.109.365c-1.067-.13-1.208-1.4-1.208-1.4C355.93,189.326,353.336,178.553,353.336,178.553Z" transform="translate(-312.286 -169.526)" fill="#65617d"/>
        <path id="Path_1067" data-name="Path 1067" d="M476.786,205.811h.088s1.366.273,1.168-.88c0,0-1.3-11-3.943-11.869,0,0-.277-.064-.759-.163C474.28,194.8,477.257,201.307,476.786,205.811Z" transform="translate(-408.316 -184.168)" fill="#65617d"/>
        <path id="Path_1068" data-name="Path 1068" d="M476.786,205.811h.088s1.366.273,1.168-.88c0,0-1.3-11-3.943-11.869,0,0-.277-.064-.759-.163C474.28,194.8,477.257,201.307,476.786,205.811Z" transform="translate(-408.316 -184.168)" opacity="0.1"/>
        <path id="Path_1069" data-name="Path 1069" d="M474.975,356.751a1.76,1.76,0,0,0,1.635.957l.559-.013,5.281-.128,1.9-.046,1.76-.112,23.242-3.322-.132-2.286-2.682.332-1.1.136-16.4,2.031-2.159.268-1.047.13-4.423-.117-4.792-.125a1.794,1.794,0,0,0-.708.123,1.721,1.721,0,0,0-.944.865A1.45,1.45,0,0,0,474.975,356.751Z" transform="translate(-409.464 -308.105)" opacity="0.1"/>
        <path id="Path_1070" data-name="Path 1070" d="M474.963,348.024a1.76,1.76,0,0,0,1.635.957l7.736-.187,1.76-.112,24.787-3.543,1.947-.279,1.063-.152a1.924,1.924,0,0,0,1.509-2.5c-.128-.953-3.694-1.9-4.865-1.883-.786,0-.92,1.219-.92,2.013a6.684,6.684,0,0,0,.029.676l-1.16.143-22.672,2.816-9.206-.249a1.771,1.771,0,0,0-1.652.986A1.454,1.454,0,0,0,474.963,348.024Z" transform="translate(-409.457 -299.158)" fill="#dce0ed"/>
        <path id="Path_1071" data-name="Path 1071" d="M635.678,346.46a4.245,4.245,0,0,1-2.548,1.34A2.761,2.761,0,0,1,635.678,346.46Z" transform="translate(-532.947 -303.939)" opacity="0.1"/>
        <path id="Path_1072" data-name="Path 1072" d="M512.609,361.93s3.254-.011,3.221,1.743-2.086,2.009-2.086,2.009l-29.167,5.043h-8.264s-2.845-2.359.172-3.325l8.333.376,27.805-4.557S511.909,362.209,512.609,361.93Z" transform="translate(-409.687 -316.006)" opacity="0.1"/>
        <path id="Path_1073" data-name="Path 1073" d="M476.292,371.747h8.264l25.929-4.475,1.9-.33,1.333-.22s2.053-.255,2.086-2.009c.024-1.259-1.646-1.608-2.592-1.705a6.066,6.066,0,0,0-.629-.037c-.7.277.013,1.278.013,1.278l-1.012.167-26.793,4.4-8.33-.376C473.449,369.388,476.292,371.747,476.292,371.747Z" transform="translate(-409.67 -316.817)" fill="#dce0ed"/>
        <path id="Path_1074" data-name="Path 1074" d="M625.179,352.214l-1.7-.8-.88-.053-.066,7.386,2.715-.5,1.149-.711.605-3.061a8.284,8.284,0,0,0-.3-1.395C626.59,352.971,625.179,352.214,625.179,352.214Z" transform="translate(-524.679 -307.761)" fill="#dce0ed"/>
        <path id="Path_1075" data-name="Path 1075" d="M625.179,352.214l-1.7-.8-.88-.053-.066,7.386,2.715-.5,1.149-.711.605-3.061a8.284,8.284,0,0,0-.3-1.395C626.59,352.971,625.179,352.214,625.179,352.214Z" transform="translate(-524.679 -307.761)" opacity="0.1"/>
        <path id="Path_1076" data-name="Path 1076" d="M635.883,367.24l-.033.037,1.908-.33.024-.037a4.627,4.627,0,0,0,.827-3.943,6.071,6.071,0,0,0-.629-.037c-.7.277.013,1.278.013,1.278l-1.012.167A4.56,4.56,0,0,1,635.883,367.24Z" transform="translate(-535.068 -316.786)" opacity="0.1"/>
        <path id="Path_1077" data-name="Path 1077" d="M623.84,349.6c.319.13.614.264.88.4a5.809,5.809,0,0,1,2.4,1.98l1.947-.279a5.964,5.964,0,0,0-2.805-2.6l-.407.086Z" transform="translate(-525.701 -305.999)" opacity="0.1"/>
        <path id="Path_1078" data-name="Path 1078" d="M625.3,349.08s5.3,2.22,2.134,7.061l-1.91.33s3.848-4.242-2.64-6.889Z" transform="translate(-524.952 -305.983)" fill="#dce0ed"/>
        <path id="Path_1079" data-name="Path 1079" d="M525.844,205.16l-1.974-.11.178,7.939,3.193-.524,1.364-.634.651-1.56.469-1.562-1.032-1.446-1.193-.827Z" transform="translate(-438.266 -159.929)" fill="#dce0ed"/>
        <path id="Path_1080" data-name="Path 1080" d="M525.844,205.16l-1.974-.11.178,7.939,3.193-.524,1.364-.634.651-1.56.469-1.562-1.032-1.446-1.193-.827Z" transform="translate(-438.266 -159.929)" opacity="0.1"/>
        <ellipse id="Ellipse_210" data-name="Ellipse 210" cx="1.608" cy="0.951" rx="1.608" ry="0.951" transform="translate(86.733 50.918) rotate(-88.92)" fill="#dce0ed"/>
        <path id="Path_1081" data-name="Path 1081" d="M611.007,383.2a.517.517,0,0,1,.246.726,3.7,3.7,0,0,0-.471,1.054c.037.233-.48.031-.548-.024s-1.015-.02-1.056-.66a1.113,1.113,0,0,1,.526-.977l-.193-1.417,1.3-.086-.038,1.289Z" transform="translate(-514.265 -331.519)" fill="#636780"/>
        <path id="Path_1082" data-name="Path 1082" d="M611.007,383.2a.517.517,0,0,1,.246.726,3.7,3.7,0,0,0-.471,1.054c.037.233-.48.031-.548-.024s-1.015-.02-1.056-.66a1.113,1.113,0,0,1,.526-.977l-.193-1.417,1.3-.086-.038,1.289Z" transform="translate(-514.265 -331.519)" opacity="0.1"/>
        <path id="Path_1083" data-name="Path 1083" d="M614.737,388s-.467,1.5-.277,1.558S614.737,388,614.737,388Z" transform="translate(-518.35 -336.339)" opacity="0.1"/>
        <path id="Path_1084" data-name="Path 1084" d="M612.524,386.3s-.469,1.5-.277,1.558S612.524,386.3,612.524,386.3Z" transform="translate(-516.623 -335.013)" opacity="0.1"/>
        <path id="Path_1085" data-name="Path 1085" d="M590.17,361.261l.647,4.548s.906-.108,1.408-.2a1.02,1.02,0,0,0,.317-.092c.024-.024.079-.022.15,0h0c.242.055.671.264.759.1a.108.108,0,0,1,.024-.035h0c.088-.09.253-.02.414,0a.348.348,0,0,0,.255-.029c.136-.088.407.062.631.114.141.033.262.029.319-.1a.3.3,0,0,1,.22-.152h0c.22-.048.5,0,.676-.04.066-.011.115-.035.13-.081.035-.1.22-.143.427-.176.246-.044.508-.073.53-.172,0-.033.031-.046.068-.046a2.041,2.041,0,0,1,.4.106h0c.11.029.2.033.22-.046s.156-.075.3-.035.242.077.341.1.152.026.163-.015c.04-.145.508.194.623-.1a3.908,3.908,0,0,0-.238-4.759s-.526.026-.926.092a1.431,1.431,0,0,0-.389.1h0a2.323,2.323,0,0,1-.706.068.881.881,0,0,0-.394.086.246.246,0,0,0-.112.115c-.064.139-.2.163-.359.152-.207-.015-.44-.1-.521-.059h0c-.156.062-.728-.013-.827.081h0c-.042.059-.266,0-.5-.044h0a.559.559,0,0,0-.456.064.5.5,0,0,1-.359.1,2.091,2.091,0,0,0-.464.011.175.175,0,0,0-.095.057c-.095.112-.317.092-.515.1a.524.524,0,0,0-.293.068.247.247,0,0,1-.106.042,3.129,3.129,0,0,1-.88-.062Z" transform="translate(-499.44 -314.617)" fill="#636780"/>
        <path id="Path_1086" data-name="Path 1086" d="M624.607,365.238c.114.031.242.077.341.1a3.6,3.6,0,0,0-.378-4.779,1.433,1.433,0,0,0-.389.1A4.428,4.428,0,0,1,624.607,365.238Z" transform="translate(-525.966 -314.937)" opacity="0.1"/>
        <path id="Path_1087" data-name="Path 1087" d="M619.765,365.822a2.041,2.041,0,0,1,.4.106h0a3.6,3.6,0,0,0-.61-4.588.879.879,0,0,0-.394.086A4.294,4.294,0,0,1,619.765,365.822Z" transform="translate(-522.051 -315.545)" opacity="0.1"/>
        <path id="Path_1088" data-name="Path 1088" d="M615.092,367.3c.066-.011.114-.035.13-.081.035-.1.22-.143.427-.176a3.561,3.561,0,0,0-.477-4.348c-.207-.015-.44-.1-.522-.059h0A4.439,4.439,0,0,1,615.092,367.3Z" transform="translate(-518.533 -316.546)" opacity="0.1"/>
        <path id="Path_1089" data-name="Path 1089" d="M609.147,367.763c.141.033.262.029.319-.1a.3.3,0,0,1,.22-.152h0a3.616,3.616,0,0,0-.6-4.621h0c-.042.059-.266,0-.495-.044A4.442,4.442,0,0,1,609.147,367.763Z" transform="translate(-513.807 -316.723)" opacity="0.1"/>
        <path id="Path_1090" data-name="Path 1090" d="M603.3,368.227c.088-.09.253-.02.414,0a3.6,3.6,0,0,0-.488-4.656,2.088,2.088,0,0,0-.464.011A4.385,4.385,0,0,1,603.3,368.227Z" transform="translate(-509.259 -317.28)" opacity="0.1"/>
        <path id="Path_1091" data-name="Path 1091" d="M598.465,368.931a1.021,1.021,0,0,0,.317-.092c.024-.024.079-.022.15,0h0a3.559,3.559,0,0,0-.363-4.423.524.524,0,0,0-.293.068.249.249,0,0,1-.106.042A4.474,4.474,0,0,1,598.465,368.931Z" transform="translate(-505.679 -317.944)" opacity="0.1"/>
        <ellipse id="Ellipse_211" data-name="Ellipse 211" cx="8.775" cy="5.961" rx="8.775" ry="5.961" transform="translate(51.156 62.316) rotate(-88.92)" fill="#636780"/>
        <ellipse id="Ellipse_212" data-name="Ellipse 212" cx="7.111" cy="4.332" rx="7.111" ry="4.332" transform="translate(53.015 60.813) rotate(-88.92)" opacity="0.1"/>
        <ellipse id="Ellipse_213" data-name="Ellipse 213" cx="7.111" cy="4.332" rx="7.111" ry="4.332" transform="translate(53.019 60.594) rotate(-88.92)" fill="#f0f0f4"/>
        <ellipse id="Ellipse_214" data-name="Ellipse 214" cx="0.878" cy="0.513" rx="0.878" ry="0.513" transform="translate(56.259 49.65) rotate(-88.92)" fill="#636780"/>
        <ellipse id="Ellipse_215" data-name="Ellipse 215" cx="0.878" cy="0.513" rx="0.878" ry="0.513" transform="translate(54.067 57.288) rotate(-88.92)" fill="#636780"/>
        <ellipse id="Ellipse_216" data-name="Ellipse 216" cx="0.878" cy="0.513" rx="0.878" ry="0.513" transform="translate(59.654 53.736) rotate(-88.92)" fill="#636780"/>
        <ellipse id="Ellipse_217" data-name="Ellipse 217" cx="0.878" cy="0.513" rx="0.878" ry="0.513" transform="translate(58.061 58.825) rotate(-88.92)" fill="#636780"/>
        <path id="Path_1092" data-name="Path 1092" d="M217.487,319.56s-4.493,11.318-4.286,12.042c0,0-1.831,1.061-2.264.779s.046-5.32.046-5.32l.907-4.425.981-2.616Z" transform="translate(-203.508 -282.958)" fill="#65617d"/>
        <path id="Path_1093" data-name="Path 1093" d="M217.487,319.56s-4.493,11.318-4.286,12.042c0,0-1.831,1.061-2.264.779s.046-5.32.046-5.32l.907-4.425.981-2.616Z" transform="translate(-203.508 -282.958)" opacity="0.15"/>
        <ellipse id="Ellipse_218" data-name="Ellipse 218" cx="0.878" cy="0.513" rx="0.878" ry="0.513" transform="translate(53.424 52.52) rotate(-88.92)" fill="#636780"/>
        <ellipse id="Ellipse_219" data-name="Ellipse 219" cx="2.084" cy="1.498" rx="2.084" ry="1.498" transform="translate(55.156 55.88) rotate(-88.92)" fill="#636780"/>
        <path id="Path_1094" data-name="Path 1094" d="M218.341,348.165c-.125,6.6,1.956,12.654,8.055,12.1,7.679-.02,8.381-5.195,8.5-11.8s-3.49-11.585-8.062-11.662S218.467,341.562,218.341,348.165Z" transform="translate(-209.421 -296.41)" fill="#636780"/>
        <path id="Path_1095" data-name="Path 1095" d="M218.122,350.55c.1-5.111,2.4-9.169,5.551-10.7,4,.838,7,5.514,6.885,11.538-.1,5.411-.592,9.862-4.993,11.3C219.939,362.788,218,356.927,218.122,350.55Z" transform="translate(-209.25 -298.784)" opacity="0.1"/>
        <path id="Path_1096" data-name="Path 1096" d="M203.9,322.709s1.078.953,1.694.306c0,0,1.705-11.816,3.569-11.836l6.418.066a2.387,2.387,0,0,1,1.063,1.776L220.57,324.9l22.738.763,1.8-3.6-18.811-.3h0c-.095-.365-3.023-11.646-5.109-13.083h0a.9.9,0,0,0-.22-.117s-7.822-1.19-10.412-.526c0,0-2.7.552-3.373,1.362h0c-.09.09-1.129,1.219-1.507,4.519Z" transform="translate(-198.161 -273.812)" opacity="0.1"/>
        <path id="Path_1097" data-name="Path 1097" d="M203.88,323.709s1.078.953,1.694.306c0,0,1.705-11.816,3.569-11.836l6.418.066a2.386,2.386,0,0,1,1.063,1.776L220.55,325.9l22.742.763,1.8-3.606-18.808-.3h0c-.1-.365-3.025-11.646-5.111-13.083h0a.9.9,0,0,0-.22-.117s-7.822-1.19-10.412-.526c0,0-2.7.552-3.373,1.362h0c-.09.09-1.129,1.217-1.507,4.517Z" transform="translate(-198.146 -274.592)" fill="#65617d"/>
        <path id="Path_1098" data-name="Path 1098" d="M203.88,323.709s1.078.953,1.694.306c0,0,1.705-11.816,3.569-11.836l6.418.066a2.386,2.386,0,0,1,1.063,1.776L220.55,325.9l22.742.763,1.8-3.606-18.808-.3h0c-.1-.365-3.025-11.646-5.111-13.083h0a.9.9,0,0,0-.22-.117s-7.822-1.19-10.412-.526c0,0-2.7.552-3.373,1.362h0c-.09.09-1.129,1.217-1.507,4.517Z" transform="translate(-198.146 -274.592)" opacity="0.1"/>
        <path id="Path_1099" data-name="Path 1099" d="M268.146,314.015c.528,1.052,5,13.972,5,13.972l3.226-2.242h0c-.1-.365-3.03-11.662-5.116-13.085C269.877,312.86,267.787,313.3,268.146,314.015Z" transform="translate(-248.239 -277.577)" fill="#65617d"/>
        <path id="Path_1100" data-name="Path 1100" d="M216.028,292.189l2.42,8.493,13.442-.13-.132,1.259s-10.561,1.338-15.015-.832l-2.266-7.758-21.207-.29,4.06-.88Z" transform="translate(-189.87 -261.501)" fill="#65617d"/>
        <path id="Path_1101" data-name="Path 1101" d="M216.028,292.189l2.42,8.493,13.442-.13-.132,1.259s-10.561,1.338-15.015-.832l-2.266-7.758-21.207-.29,4.06-.88Z" transform="translate(-189.87 -261.501)" fill="#fff" opacity="0.1"/>
        <path id="Path_1102" data-name="Path 1102" d="M570.939,358.357s7.133,3.756,1.732,7.054l-1.43.3s5.3-3.668-3.371-7.415Z" transform="translate(-482.046 -313.174)" opacity="0.1"/>
        <path id="Path_1103" data-name="Path 1103" d="M569.942,358.353s7.133,3.756,1.732,7.054l-1.432.308s5.3-3.668-3.371-7.415Z" transform="translate(-481.266 -313.174)" fill="#dce0ed"/>
        <ellipse id="Ellipse_220" data-name="Ellipse 220" cx="6.856" cy="4.005" rx="6.856" ry="4.005" transform="translate(9.866 59.561) rotate(-88.92)" fill="#636780"/>
        <ellipse id="Ellipse_221" data-name="Ellipse 221" cx="5.556" cy="2.911" rx="5.556" ry="2.911" transform="translate(11.118 58.432) rotate(-88.92)" opacity="0.1"/>
        <ellipse id="Ellipse_222" data-name="Ellipse 222" cx="5.556" cy="2.911" rx="5.556" ry="2.911" transform="translate(11.123 58.212) rotate(-88.92)" fill="#f0f0f4"/>
        <ellipse id="Ellipse_223" data-name="Ellipse 223" cx="0.686" cy="0.343" rx="0.686" ry="0.343" transform="translate(13.325 49.655) rotate(-88.92)" fill="#636780"/>
        <ellipse id="Ellipse_224" data-name="Ellipse 224" cx="0.686" cy="0.343" rx="0.686" ry="0.343" transform="translate(11.835 55.627) rotate(-88.92)" fill="#636780"/>
        <ellipse id="Ellipse_225" data-name="Ellipse 225" cx="0.686" cy="0.343" rx="0.686" ry="0.343" transform="translate(15.598 52.84) rotate(-88.92)" fill="#636780"/>
        <ellipse id="Ellipse_226" data-name="Ellipse 226" cx="0.686" cy="0.343" rx="0.686" ry="0.343" transform="translate(14.515 56.821) rotate(-88.92)" fill="#636780"/>
        <ellipse id="Ellipse_227" data-name="Ellipse 227" cx="0.686" cy="0.343" rx="0.686" ry="0.343" transform="translate(11.414 51.904) rotate(-88.92)" fill="#636780"/>
        <ellipse id="Ellipse_228" data-name="Ellipse 228" cx="1.628" cy="1.008" rx="1.628" ry="1.008" transform="translate(12.568 54.525) rotate(-88.92)" fill="#636780"/>
        <path id="Path_1104" data-name="Path 1104" d="M408.786,259.53a136.746,136.746,0,0,0-28.056,4.242Z" transform="translate(-336.083 -236.137)" opacity="0.1"/>
        <path id="Path_1105" data-name="Path 1105" d="M243.465,157.69s.66.119.3.986a6,6,0,0,0-.422,1.32s-.66.332-.618-.805A1.7,1.7,0,0,1,243.465,157.69Z" transform="translate(-228.441 -156.705)" fill="#dce0ed"/>
        <path id="Path_1108" data-name="Path 1108" d="M354.95,468.56a.33.33,0,1,0-.33-.33A.33.33,0,0,0,354.95,468.56Z" transform="translate(-315.718 -398.659)" fill="#65617d"/>
      </g>
      <ellipse id="Ellipse_229" data-name="Ellipse 229" cx="4.11" cy="0.695" rx="4.11" ry="0.695" transform="translate(141.971 98.681)" fill="#f36" opacity="0.1"/>
      <path id="Path_1109" data-name="Path 1109" d="M694.36,585.71a8.62,8.62,0,0,0,3.052-.574c.706-.5,3.606-1.1,3.78-.3s3.521,4.011.88,4.033-6.15-.411-6.856-.843S694.36,585.71,694.36,585.71Z" transform="translate(-551.04 -489.561)" fill="#a8a8a8"/>
      <path id="Path_1110" data-name="Path 1110" d="M702.116,593.062c-2.64.022-6.161-.411-6.854-.84-.537-.328-.75-1.5-.823-2.042h-.079s.15,1.89.854,2.319,4.209.865,6.856.843c.764,0,1.028-.277,1.012-.68C702.977,592.906,702.684,593.058,702.116,593.062Z" transform="translate(-551.04 -494.033)" opacity="0.2"/>
      <ellipse id="Ellipse_230" data-name="Ellipse 230" cx="3.162" cy="0.535" rx="3.162" ry="0.535" transform="translate(166.755 90.747)" fill="#f36" opacity="0.1"/>
      <path id="Path_1111" data-name="Path 1111" d="M805.58,553.344a6.643,6.643,0,0,0,2.348-.44c.543-.385,2.775-.849,2.911-.22s2.711,3.08.673,3.1a17.1,17.1,0,0,1-5.281-.647C805.683,554.812,805.58,553.344,805.58,553.344Z" transform="translate(-637.788 -464.547)" fill="#a8a8a8"/>
      <path id="Path_1112" data-name="Path 1112" d="M811.524,558.99a17.4,17.4,0,0,1-5.281-.647c-.412-.253-.577-1.155-.632-1.573h-.061s.114,1.456.66,1.786a17.4,17.4,0,0,0,5.281.647c.588,0,.79-.22.779-.524C812.186,558.869,811.962,558.986,811.524,558.99Z" transform="translate(-637.765 -467.975)" opacity="0.2"/>
      <ellipse id="Ellipse_231" data-name="Ellipse 231" cx="7.549" cy="1.276" rx="7.549" ry="1.276" transform="translate(148.02 123.802)" fill="#f36" opacity="0.1"/>
      <path id="Path_1113" data-name="Path 1113" d="M727,686.47s4.306-.134,5.6-1.058,6.625-2.026,6.946-.544,6.471,7.371,1.611,7.408-11.3-.757-12.592-1.54S727,686.47,727,686.47Z" transform="translate(-576.498 -567.321)" fill="#a8a8a8"/>
      <path id="Path_1114" data-name="Path 1114" d="M741.235,700.051c-4.86.04-11.3-.757-12.59-1.54-.988-.6-1.38-2.757-1.512-3.741h-.143s.273,3.472,1.567,4.262,7.73,1.584,12.592,1.54c1.4-.011,1.888-.51,1.862-1.25C742.815,699.763,742.28,700.042,741.235,700.051Z" transform="translate(-576.491 -575.61)" opacity="0.2"/>
      <path id="Path_1115" data-name="Path 1115" d="M972.964,447.765a19.655,19.655,0,0,1-39.229,1.688c-.029-.319-.051-.638-.059-.964v-.015c-.011-.235-.016-.471-.016-.709a19.655,19.655,0,0,1,39.194-2.154A19.326,19.326,0,0,1,972.964,447.765Z" transform="translate(-737.686 -367.611)" fill="#65617d"/>
      <path id="Path_1116" data-name="Path 1116" d="M972.964,447.765a19.655,19.655,0,0,1-39.229,1.688c-.029-.319-.051-.638-.059-.964v-.015c-.011-.235-.016-.471-.016-.709a19.655,19.655,0,0,1,39.194-2.154A19.326,19.326,0,0,1,972.964,447.765Z" transform="translate(-737.686 -367.611)" opacity="0.2"/>
      <circle id="Ellipse_232" data-name="Ellipse 232" cx="10.722" cy="10.722" r="10.722" transform="translate(204.898 69.433)" fill="#dce0ed"/>
      <circle id="Ellipse_233" data-name="Ellipse 233" cx="6.434" cy="6.434" r="6.434" transform="translate(209.186 73.721)" fill="#65617d"/>
      <path id="Path_1117" data-name="Path 1117" d="M496.023,447.766a19.655,19.655,0,0,1-39.238,1.688c-.029-.319-.051-.638-.059-.964v-.015c0-.235-.015-.471-.015-.709a19.655,19.655,0,0,1,39.194-2.154A19.911,19.911,0,0,1,496.023,447.766Z" transform="translate(-365.681 -367.612)" fill="#65617d"/>
      <path id="Path_1118" data-name="Path 1118" d="M496.023,447.766a19.655,19.655,0,0,1-39.238,1.688c-.029-.319-.051-.638-.059-.964v-.015c0-.235-.015-.471-.015-.709a19.655,19.655,0,0,1,39.194-2.154A19.911,19.911,0,0,1,496.023,447.766Z" transform="translate(-365.681 -367.612)" opacity="0.2"/>
      <circle id="Ellipse_234" data-name="Ellipse 234" cx="10.722" cy="10.722" r="10.722" transform="translate(99.963 69.433)" fill="#dce0ed"/>
      <circle id="Ellipse_235" data-name="Ellipse 235" cx="6.434" cy="6.434" r="6.434" transform="translate(104.251 73.721)" fill="#65617d"/>
      <path id="Path_1119" data-name="Path 1119" d="M617.479,358.205l-6.557-.284-5.989-11.12-21.1-1.712-10.264,13.4.57,3.707-1.426,3.421-67.011.57v-1.712h-.57l-.561-2.566H509.7L506,357.921,492.879,346.8s-22.527.57-22.813,0,1.278-6.416,1.278-6.416l9.695-2.86,33.077-2.568c7.261-11.547,13.829-16.967,13.829-16.967h84.976l3.991,20.531v.048Z" transform="translate(-376.071 -281.734)" fill="#444053"/>
      <path id="Path_1120" data-name="Path 1120" d="M923.219,450.638s8.555-15.968,15.114-15.968H954.3s3.994,0,5.7,3.138l6.561,12.83h-5.133s-4.277-11.976-9.125-12.26-13.116,0-13.116,0-2.86,0-4.563,3.421-7.492,10.876-7.492,10.876S920.944,454.631,923.219,450.638Z" transform="translate(-729.152 -372.741)" fill="#33323d"/>
      <path id="Path_1121" data-name="Path 1121" d="M1075.587,342.35H1064.86l-.11,8.555,10.837-2.566Z" transform="translate(-830.471 -267.018)" fill="#33323d"/>
      <path id="Path_1122" data-name="Path 1122" d="M452,445.973a8.1,8.1,0,0,1,4.563-5.987L482.8,438.56s4.277.284,6.559,5.7l7.406,11.116v1.71H488.5s-3.991-15.112-15.4-14.542H459.413s-3.135,0-4.275,5.133Z" transform="translate(-362.007 -375.775)" fill="#33323d"/>
      <path id="Path_1123" data-name="Path 1123" d="M731.93,314.688h87.54a3.138,3.138,0,0,0-3.135-3.138H735.065A3.138,3.138,0,0,0,731.93,314.688Z" transform="translate(-580.344 -276.711)" fill="#33323d"/>
      <path id="Path_1124" data-name="Path 1124" d="M725.509,347.688H701.283a1.637,1.637,0,0,1-1.5-2.3l3.833-8.623a7.527,7.527,0,0,1,6.885-4.471h14.718a2.062,2.062,0,0,1,2.062,2.062v11.565a1.771,1.771,0,0,1-1.776,1.771Z" transform="translate(-555.162 -292.887)" fill="#f36" opacity="0.3"/>
      <rect id="Rectangle_220" data-name="Rectangle 220" width="23.667" height="15.398" rx="5.54" transform="translate(178.391 39.403)" fill="#f36" opacity="0.3"/>
      <path id="Path_1125" data-name="Path 1125" d="M960.772,185.339v.048l-36.785.521-.957-21.1h33.751Z" transform="translate(-719.934 -128.543)" fill="#33323d"/>
      <rect id="Rectangle_221" data-name="Rectangle 221" width="27.09" height="15.398" rx="5.54" transform="translate(207.191 39.403)" fill="#f36" opacity="0.3"/>
      <rect id="Rectangle_222" data-name="Rectangle 222" width="9.125" height="1.712" rx="0.856" transform="translate(164.702 60.218)" fill="#33323d"/>
      <rect id="Rectangle_223" data-name="Rectangle 223" width="9.125" height="1.712" rx="0.856" transform="translate(190.937 60.218)" fill="#33323d"/>
      <path id="Path_1127" data-name="Path 1127" d="M376.476,479.865c-1.362,1.483-2.365,2.066-2.319.5.143-4.731-8.156-26.122-8.156-26.122l2.458-.185A63.867,63.867,0,0,1,376.476,479.865Z" transform="translate(-294.93 -387.864)" fill="none"/>
      <path id="Path_1128" data-name="Path 1128" d="M383.1,576.331a11.827,11.827,0,0,1-23.612,1.017c-.018-.194-.029-.385-.035-.581h0v-.427a11.827,11.827,0,0,1,23.583-1.3A11.46,11.46,0,0,1,383.1,576.331Z" transform="translate(-289.821 -474.008)" fill="#65617d"/>
      <circle id="Ellipse_236" data-name="Ellipse 236" cx="6.451" cy="6.451" r="6.451" transform="translate(74.996 95.872)" fill="#dce0ed"/>
      <circle id="Ellipse_237" data-name="Ellipse 237" cx="3.87" cy="3.87" r="3.87" transform="translate(77.577 98.452)" fill="#65617d"/>
      <path id="Path_1129" data-name="Path 1129" d="M171.033,485.354l-28.483.574v-4.2c.255-3.38,3.721-4.566,6.885-4.937a19.805,19.805,0,0,1,7.358.552,50.611,50.611,0,0,0,11.789,1.941,1.809,1.809,0,0,1,1.749,1.47c.09.482.178,1,.262,1.52.064.4.123.8.178,1.175C170.928,484.521,171.033,485.354,171.033,485.354Z" transform="translate(-120.646 -405.493)" fill="#65617d"/>
      <path id="Path_1130" data-name="Path 1130" d="M157.358,490.953H98.192a2.33,2.33,0,0,1-2.156-1.4,1.623,1.623,0,0,1,.843-2.143,6.709,6.709,0,0,0,2.913-3.564,35.4,35.4,0,0,0,1.49-9.336c.249-4.713,1.956-7.041,3.8-8.172h0a7.517,7.517,0,0,1,4.993-.909l23.983.191a4.6,4.6,0,0,1,1.171.763c2.139,1.991-.979,4.588-.979,4.588a11.252,11.252,0,0,0-1.626,14.24H144.9a11.291,11.291,0,0,0,6.429-1.967,6.434,6.434,0,0,0,2.55-2.926c.189-.513.381-1.025.609-1.52,3.221-6.984-.66-18.344-2.339-22.593-.416-1.056-.7-1.672-.7-1.672l3.868-.293,2.434-.185h.024a63.733,63.733,0,0,1,8.029,25.805q.095,1,.158,1.925a8.605,8.605,0,0,1-8.608,9.162Z" transform="translate(-84.25 -387.864)" fill="#f36"/>
      <path id="Path_1131" data-name="Path 1131" d="M170.771,503.325H142.55V502.15h28.043C170.657,502.557,170.716,502.953,170.771,503.325Z" transform="translate(-120.646 -425.373)" opacity="0.1"/>
      <path id="Path_1132" data-name="Path 1132" d="M167.854,506.347H137.93a.564.564,0,0,1-.22-.046,7.517,7.517,0,0,1,4.993-.909l23.983.191A4.6,4.6,0,0,1,167.854,506.347Z" transform="translate(-116.871 -427.823)" opacity="0.1"/>
      <rect id="Rectangle_225" data-name="Rectangle 225" width="41.819" height="1.173" rx="0.586" transform="translate(10 77.065)" fill="#dce0ed"/>
      <path id="Path_1133" data-name="Path 1133" d="M376.476,479.865c-1.362,1.483-2.365,2.066-2.319.5.143-4.731-8.156-26.122-8.156-26.122l2.458-.185A63.867,63.867,0,0,1,376.476,479.865Z" transform="translate(-294.93 -387.864)" opacity="0.1"/>
      <path id="Path_1134" data-name="Path 1134" d="M383.024,575.053c-1.41.339-3.157.684-5.312,1q-1.2.174-2.574.339c-2.2.26-4.74.489-7.675.66q-1.248.075-2.592.136-2.515.114-5.386.176l-.035-.581h0c2.673-1.08,6.88-3.961,7.558-11.461a11.831,11.831,0,0,1,16.016,9.739Z" transform="translate(-289.821 -474.027)" opacity="0.1"/>
      <path id="Path_1135" data-name="Path 1135" d="M349.32,543.164s13.571-1.481,8.9-22.164c0,0,6.709,6.161,10.881,9.569s11.611,8.141,11.611,8.141S376.272,542.854,349.32,543.164Z" transform="translate(-281.92 -440.075)" fill="#f36"/>
      <path id="Path_1136" data-name="Path 1136" d="M349.32,543.164s13.571-1.481,8.9-22.164c0,0,6.709,6.161,10.881,9.569s11.611,8.141,11.611,8.141S376.272,542.854,349.32,543.164Z" transform="translate(-281.92 -440.075)" fill="#fff" opacity="0.1"/>
      <circle id="Ellipse_238" data-name="Ellipse 238" cx="11.827" cy="11.827" r="11.827" transform="translate(19.301 90.496)" fill="#65617d"/>
      <circle id="Ellipse_239" data-name="Ellipse 239" cx="6.451" cy="6.451" r="6.451" transform="translate(24.677 95.872)" fill="#dce0ed"/>
      <circle id="Ellipse_240" data-name="Ellipse 240" cx="3.87" cy="3.87" r="3.87" transform="translate(27.258 98.452)" fill="#65617d"/>
      <path id="Path_1137" data-name="Path 1137" d="M148.687,553.081a13.551,13.551,0,1,0-27.1,0c0,.323.013.642.033.959h27.031C148.676,553.717,148.687,553.4,148.687,553.081Z" transform="translate(-104.298 -454.31)" opacity="0.1"/>
      <path id="Path_1138" data-name="Path 1138" d="M149.964,553.789a13.05,13.05,0,1,0-26.094,0,8.542,8.542,0,0,0,.033.922h26.028C149.953,554.413,149.964,554.105,149.964,553.789Z" transform="translate(-106.076 -455.261)" fill="#f36"/>
      <path id="Path_1139" data-name="Path 1139" d="M149.948,553.789c0,.22,0,.425-.015.636a1.764,1.764,0,0,1-.015.286H123.883c0-.095-.013-.189-.018-.286,0-.22-.015-.422-.015-.636a13.052,13.052,0,1,1,26.1,0Z" transform="translate(-106.06 -455.261)" fill="#fff" opacity="0.1"/>
      <path id="Path_1140" data-name="Path 1140" d="M149.987,603.92a1.768,1.768,0,0,1-.015.286H123.938c0-.095-.013-.189-.018-.286Z" transform="translate(-106.115 -504.75)" opacity="0.1"/>
      <rect id="Rectangle_226" data-name="Rectangle 226" width="35.051" height="3.058" rx="1.529" transform="translate(12.086 99.744)" opacity="0.1"/>
      <rect id="Rectangle_227" data-name="Rectangle 227" width="35.051" height="3.058" rx="1.529" transform="translate(12.086 99.456)" fill="#dce0ed"/>
      <ellipse id="Ellipse_241" data-name="Ellipse 241" cx="1.716" cy="4.324" rx="1.716" ry="4.324" transform="translate(74.086 72.339) rotate(-24.33)" opacity="0.1"/>
      <ellipse id="Ellipse_242" data-name="Ellipse 242" cx="1.716" cy="4.324" rx="1.716" ry="4.324" transform="translate(74.228 72.196) rotate(-24.33)" fill="#dce0ed"/>
      <path id="Path_1141" data-name="Path 1141" d="M354.732,454.06v2.247h-4.37a7.6,7.6,0,0,1-1.217-.1c-.416-1.056-.7-1.672-.7-1.672l3.862-.293Z" transform="translate(-281.241 -387.864)" opacity="0.1"/>
      <path id="Path_1142" data-name="Path 1142" d="M336.863,415.391h-4.37a6.7,6.7,0,0,1-6.953-6.418v-.594a6.7,6.7,0,0,1,6.953-6.418l4.372.4Z" transform="translate(-263.372 -347.228)" fill="#f36"/>
      <path id="Path_1143" data-name="Path 1143" d="M327.625,418.69s2.616,1.4,1.111,3.763c0,0-1.846,3.03-4.75,2.742l-1.056-6.5A21.924,21.924,0,0,1,327.625,418.69Z" transform="translate(-261.337 -360.165)" fill="#f36"/>
      <path id="Path_1144" data-name="Path 1144" d="M326.651,418.592a2.779,2.779,0,0,1,2.125,1.122,2.3,2.3,0,0,1,0,2.768s-1.846,3.03-4.75,2.742l-1.056-6.5A32.446,32.446,0,0,1,326.651,418.592Z" transform="translate(-261.368 -360.194)" opacity="0.1"/>
      <path id="Path_1145" data-name="Path 1145" d="M333.36,250.51h0a3.521,3.521,0,0,1,3.521,3.521v6.009a3.521,3.521,0,0,1-3.521,3.521h0Z" transform="translate(-260.01 -195.386)" opacity="0.1"/>
      <path id="Path_1146" data-name="Path 1146" d="M334,250.51h0a3.521,3.521,0,0,1,3.521,3.521v6.009A3.521,3.521,0,0,1,334,263.56h0Z" transform="translate(-260.509 -195.386)" fill="#dce0ed"/>
      <ellipse id="Ellipse_243" data-name="Ellipse 243" cx="2.904" cy="3.534" rx="2.904" ry="3.534" transform="translate(58.385 58.374)" fill="#f36"/>
    </g>
  </g>
</svg>
