<svg xmlns="http://www.w3.org/2000/svg" width="195.305" height="195.305" viewBox="0 0 195.305 195.305">
  <g id="Terrain_Profile" data-name="Terrain Profile" transform="translate(-2726.999 -798)">
    <circle id="Ellipse_162" data-name="Ellipse 162" cx="97.653" cy="97.653" r="97.653" transform="translate(2727 798)" fill="#fff"/>
    <path id="Subtraction_3" data-name="Subtraction 3" d="M195.305,97.653H0a99.225,99.225,0,0,1,.5-9.984,97.9,97.9,0,0,1,1.48-9.7c.644-3.146,1.453-6.295,2.406-9.358.942-3.029,2.047-6.048,3.284-8.972A97.938,97.938,0,0,1,59.642,7.674c2.924-1.237,5.943-2.342,8.972-3.284,3.064-.953,6.212-1.763,9.358-2.406A97.891,97.891,0,0,1,87.668.5a99.118,99.118,0,0,1,19.969,0,97.892,97.892,0,0,1,9.7,1.48c3.146.644,6.295,1.453,9.359,2.406,3.029.942,6.048,2.047,8.972,3.284a97.937,97.937,0,0,1,51.968,51.968c1.237,2.924,2.342,5.943,3.284,8.972.953,3.063,1.762,6.212,2.406,9.358a97.9,97.9,0,0,1,1.48,9.7,99.215,99.215,0,0,1,.5,9.984Z" transform="translate(2922.305 993.305) rotate(180)" fill="#fdd900"/>
    <path id="Subtraction_2" data-name="Subtraction 2" d="M97.652,97.536H0a99.2,99.2,0,0,1,.515-9.974A97.892,97.892,0,0,1,2,77.876c.646-3.143,1.458-6.288,2.413-9.348.944-3.026,2.051-6.041,3.289-8.962a97.939,97.939,0,0,1,51.961-51.9c2.922-1.235,5.939-2.338,8.966-3.279,3.062-.952,6.208-1.76,9.352-2.4A97.906,97.906,0,0,1,87.675.5,99.222,99.222,0,0,1,97.652,0V97.536Z" transform="translate(2727 798)" fill="#2d96ff"/>
    <path id="Subtraction_1" data-name="Subtraction 1" d="M97.653,97.653H0V0A99.222,99.222,0,0,1,9.984.5a97.9,97.9,0,0,1,9.7,1.48c3.146.644,6.295,1.453,9.358,2.406,3.03.942,6.048,2.047,8.972,3.284a97.662,97.662,0,0,1,16.588,9A98.355,98.355,0,0,1,69.051,28.6,98.352,98.352,0,0,1,80.975,43.054a97.662,97.662,0,0,1,9,16.588c1.237,2.924,2.341,5.942,3.284,8.972.953,3.064,1.763,6.212,2.406,9.358a97.9,97.9,0,0,1,1.48,9.7,99.225,99.225,0,0,1,.5,9.984Z" transform="translate(2824.652 798)" fill="#6bd074"/>
  </g>
</svg>
