<svg xmlns="http://www.w3.org/2000/svg" xmlns:xlink="http://www.w3.org/1999/xlink" width="187.952" height="168.712" viewBox="0 0 187.952 168.712">
  <defs>
    <linearGradient id="linear-gradient" x1="0.5" y1="1" x2="0.5" gradientUnits="objectBoundingBox">
      <stop offset="0" stop-color="gray" stop-opacity="0.251"/>
      <stop offset="0.54" stop-color="gray" stop-opacity="0.122"/>
      <stop offset="1" stop-color="gray" stop-opacity="0.102"/>
    </linearGradient>
    <linearGradient id="linear-gradient-2" y2="0" xlink:href="#linear-gradient"/>
    <linearGradient id="linear-gradient-3" y2="0" xlink:href="#linear-gradient"/>
    <linearGradient id="linear-gradient-4" y2="0" xlink:href="#linear-gradient"/>
    <linearGradient id="linear-gradient-5" x1="0.956" y1="1.188" x2="0.956" y2="-0.043" xlink:href="#linear-gradient"/>
  </defs>
  <g id="Trips" transform="translate(0)">
    <circle id="Ellipse_148" data-name="Ellipse 148" cx="73.383" cy="73.383" r="73.383" transform="translate(13.429 10.259)" fill="url(#linear-gradient)"/>
    <circle id="Ellipse_149" data-name="Ellipse 149" cx="71.583" cy="71.583" r="71.583" transform="translate(15.229 12.059)" fill="#f36"/>
    <circle id="Ellipse_150" data-name="Ellipse 150" cx="8.892" cy="8.892" r="8.892" transform="translate(54.774 33.376)" opacity="0.05"/>
    <circle id="Ellipse_151" data-name="Ellipse 151" cx="8.892" cy="8.892" r="8.892" transform="translate(81.971 128.599)" opacity="0.05"/>
    <circle id="Ellipse_152" data-name="Ellipse 152" cx="18.181" cy="18.181" r="18.181" transform="translate(81.574 55.284)" opacity="0.05"/>
    <path id="Path_810" data-name="Path 810" d="M324.975,418.812c-9.005,0-18.591-.431-28.39-1.3-21.781-1.923-42.084-5.761-57.166-10.806-15.19-5.085-23.307-10.831-22.835-16.177.238-2.707,2.623-5.124,7.085-7.182l.227.51c-4.267,1.968-6.541,4.228-6.761,6.722s1.666,5.178,5.611,7.894c3.877,2.668,9.543,5.258,16.843,7.708,15.043,5.033,35.3,8.86,57.039,10.778s42.354,1.7,58.041-.621c7.613-1.134,13.646-2.684,17.931-4.632,4.362-1.982,6.686-4.267,6.908-6.79.254-2.873-2.342-6.022-7.5-9.105l.288-.483c5.441,3.249,8.055,6.491,7.777,9.638-.472,5.348-9.463,9.584-25.316,11.926A208.76,208.76,0,0,1,324.975,418.812Z" transform="translate(-209.408 -313.864)" fill="url(#linear-gradient-2)"/>
    <path id="Path_811" data-name="Path 811" d="M373.11,393.954c5.149,3.077,7.915,6.273,7.641,9.37-.95,10.762-38.194,16.267-83.186,12.3s-80.7-15.916-79.747-26.678c.227-2.659,2.687-4.988,6.922-6.951" transform="translate(-210.362 -312.813)" fill="none" stroke="#bdbdbd" stroke-miterlimit="10" stroke-width="3" opacity="0.5"/>
    <path id="Path_812" data-name="Path 812" d="M320.909,353.248c-6.489-2.8-13.111-5.92-19.682-9.282-19.469-9.958-36.847-21.133-48.933-31.471-12.179-10.416-17.539-18.784-15.1-23.565,1.238-2.421,4.355-3.766,9.262-4l.027.56c-4.693.227-7.65,1.465-8.79,3.693s-.4,5.425,2.24,9.423c2.591,3.927,6.872,8.457,12.721,13.458,12.053,10.316,29.392,21.466,48.822,31.4,6.561,3.355,13.17,6.473,19.65,9.266Z" transform="translate(-224.917 -237.758)" fill="url(#linear-gradient-3)"/>
    <path id="Path_813" data-name="Path 813" d="M326.092,353.933c-6.369-2.746-12.966-5.847-19.666-9.273-40.214-20.566-68.824-45.038-63.9-54.656,1.215-2.376,4.364-3.628,9.026-3.854" transform="translate(-229.055 -238.702)" fill="none" stroke="#bdbdbd" stroke-miterlimit="10" stroke-width="3"/>
    <path id="Path_814" data-name="Path 814" d="M753.991,599.35c-5.895,0-14.209-1.927-25.431-5.8l.184-.531c21.416,7.378,32.011,7.677,35.425,1,1.313-2.566.088-6.459-3.539-11.257l.453-.338c3.823,5.051,5.031,9.039,3.591,11.851C762.94,597.657,759.521,599.348,753.991,599.35Z" transform="translate(-605.323 -467.808)" fill="url(#linear-gradient-4)"/>
    <path id="Path_815" data-name="Path 815" d="M761.171,580.69c3.628,4.784,4.988,8.785,3.566,11.563-3.263,6.378-12.832,7.028-35.768-.862" transform="translate(-605.64 -466.463)" fill="none" stroke="#bdbdbd" stroke-miterlimit="10" stroke-width="3"/>
    <g id="Group_241" data-name="Group 241" transform="translate(19.695 150.022)" opacity="0.5">
      <rect id="Rectangle_202" data-name="Rectangle 202" width="0.73" height="4.133" transform="translate(1.703)" fill="#47e6b1"/>
      <rect id="Rectangle_203" data-name="Rectangle 203" width="0.73" height="4.133" transform="translate(4.133 1.703) rotate(90)" fill="#47e6b1"/>
    </g>
    <g id="Group_242" data-name="Group 242" transform="translate(168.014 0.73)" opacity="0.5">
      <rect id="Rectangle_204" data-name="Rectangle 204" width="0.73" height="4.133" transform="translate(1.703)" fill="#47e6b1"/>
      <rect id="Rectangle_205" data-name="Rectangle 205" width="0.73" height="4.133" transform="translate(4.133 1.703) rotate(90)" fill="#47e6b1"/>
    </g>
    <g id="Group_243" data-name="Group 243" transform="translate(183.819 113.549)" opacity="0.5">
      <rect id="Rectangle_206" data-name="Rectangle 206" width="0.73" height="4.133" transform="translate(1.703)" fill="#47e6b1"/>
      <rect id="Rectangle_207" data-name="Rectangle 207" width="0.73" height="4.133" transform="translate(4.133 1.703) rotate(90)" fill="#47e6b1"/>
    </g>
    <g id="Group_244" data-name="Group 244" transform="translate(22.128 10.699)" opacity="0.5">
      <rect id="Rectangle_208" data-name="Rectangle 208" width="0.73" height="4.133" transform="translate(1.7)" fill="#47e6b1"/>
      <rect id="Rectangle_209" data-name="Rectangle 209" width="0.73" height="4.133" transform="translate(4.133 1.703) rotate(90)" fill="#47e6b1"/>
    </g>
    <path id="Path_816" data-name="Path 816" d="M375.069,795.486a.893.893,0,0,1-.5-1.079.43.43,0,0,0,.02-.1h0a.453.453,0,0,0-.8-.3h0a.428.428,0,0,0-.05.088.893.893,0,0,1-1.079.5.425.425,0,0,0-.1-.02h0a.453.453,0,0,0-.3.8h0a.428.428,0,0,0,.088.05.893.893,0,0,1,.5,1.079.43.43,0,0,0-.02.1h0a.454.454,0,0,0,.8.3h0a.43.43,0,0,0,.05-.089.893.893,0,0,1,1.079-.5.428.428,0,0,0,.1.02h0a.453.453,0,0,0,.3-.8h0A.428.428,0,0,0,375.069,795.486Z" transform="translate(-329.675 -631.29)" fill="#4d8af0" opacity="0.5"/>
    <path id="Path_817" data-name="Path 817" d="M571.319,808.4a.893.893,0,0,1-.5-1.079.428.428,0,0,0,.02-.1h0a.453.453,0,0,0-.8-.3h0a.426.426,0,0,0-.05.088.893.893,0,0,1-1.079.5.431.431,0,0,0-.1-.02h0a.453.453,0,0,0-.3.8h0a.433.433,0,0,0,.088.05.893.893,0,0,1,.5,1.079.431.431,0,0,0-.02.1h0a.453.453,0,0,0,.8.3h0a.422.422,0,0,0,.05-.088.893.893,0,0,1,1.079-.5.428.428,0,0,0,.1.02h0a.453.453,0,0,0,.3-.8h0A.425.425,0,0,0,571.319,808.4Z" transform="translate(-481.431 -641.273)" fill="#4d8af0" opacity="0.5"/>
    <path id="Path_818" data-name="Path 818" d="M959.549,290.4a.893.893,0,0,1-.5-1.079.434.434,0,0,0,.021-.1h0a.453.453,0,0,0-.8-.3h0a.426.426,0,0,0-.05.088.893.893,0,0,1-1.079.5.433.433,0,0,0-.1-.02h0a.453.453,0,0,0-.3.8h0a.426.426,0,0,0,.088.05.893.893,0,0,1,.5,1.079.422.422,0,0,0-.02.1h0a.453.453,0,0,0,.8.3h0a.419.419,0,0,0,.05-.088.893.893,0,0,1,1.079-.5.43.43,0,0,0,.1.02h0a.453.453,0,0,0,.3-.8h0A.43.43,0,0,0,959.549,290.4Z" transform="translate(-781.641 -240.715)" fill="#4d8af0" opacity="0.5"/>
    <path id="Path_819" data-name="Path 819" d="M195.109,574.2a.893.893,0,0,1-.5-1.079.428.428,0,0,0,.02-.1h0a.453.453,0,0,0-.8-.3h0a.43.43,0,0,0-.05.088.893.893,0,0,1-1.079.5.435.435,0,0,0-.1-.02h0a.453.453,0,0,0-.3.8h0a.434.434,0,0,0,.088.05.893.893,0,0,1,.5,1.079.428.428,0,0,0-.02.1h0a.453.453,0,0,0,.8.3h0a.428.428,0,0,0,.05-.088.893.893,0,0,1,1.079-.5.431.431,0,0,0,.1.02h0a.453.453,0,0,0,.3-.8h0A.428.428,0,0,0,195.109,574.2Z" transform="translate(-190.516 -460.171)" fill="#4d8af0" opacity="0.5"/>
    <circle id="Ellipse_153" data-name="Ellipse 153" cx="1.458" cy="1.458" r="1.458" transform="translate(0 52.52)" fill="#f55f44" opacity="0.5"/>
    <circle id="Ellipse_154" data-name="Ellipse 154" cx="1.458" cy="1.458" r="1.458" transform="translate(118.9 3.648)" fill="#4d8af0" opacity="0.5"/>
    <circle id="Ellipse_155" data-name="Ellipse 155" cx="1.458" cy="1.458" r="1.458" transform="translate(38.661 0)" fill="#47e6b1" opacity="0.5"/>
    <circle id="Ellipse_156" data-name="Ellipse 156" cx="1.458" cy="1.458" r="1.458" transform="translate(146.619 155.372)" fill="#f55f44" opacity="0.5"/>
    <path id="Path_820" data-name="Path 820" d="M628.515,560.04a1.728,1.728,0,0,0-2.328.737l-.177.34-.4-.211L622,559.034l-.784-.408a.679.679,0,0,0-.356-.075c-3.453-1.134-6.224,1.05-8.01,4.489h0a11.267,11.267,0,0,0-1.245,3.782l-.041-.02a5.7,5.7,0,0,0,.68,3.87l.059-.116a5.568,5.568,0,0,0,1.319,1.487.526.526,0,0,0,.27.345l4.938,2.564-.376.723A1.728,1.728,0,0,0,619.19,578h0l1.172-2.267,6.09,3.163.4-.766.4-.766.6-1.149h.02l-1.383,2.662,2.913,1.533c3.546,1.841,6.255-.524,8.223-4.187v-.02l.12-.227h0v-.02h0l.1-.2h0c1.882-3.73,2.267-7.3-1.3-9.15l-2.9-1.5-1.6,3.088h-.02l.819-1.576.376-.723.419-.809-6.09-3.174.973-1.873Zm-9.3,13.168.018.016h-.02Z" transform="translate(-514.793 -449.11)" fill="url(#linear-gradient-5)"/>
    <rect id="Rectangle_210" data-name="Rectangle 210" width="12.996" height="6.498" transform="matrix(0.461, -0.887, 0.887, 0.461, 106.189, 125.558)" fill="#4f617d"/>
    <path id="Path_821" data-name="Path 821" d="M687.826,599.951v-.02c-1.861,3.582-4.448,5.951-7.86,4.181l-2.746-1.426,6.752-12.975,2.743,1.426C690.127,592.909,689.687,596.369,687.826,599.951Z" transform="translate(-565.623 -473.438)" fill="#ff656a"/>
    <path id="Path_822" data-name="Path 822" d="M724,634.79Z" transform="translate(-601.797 -508.297)" fill="#4a5c81"/>
    <path id="Path_823" data-name="Path 823" d="M711.054,625.535a12.616,12.616,0,0,0,2.12-3.052,13.4,13.4,0,0,0,1.172-3.013l-1.172-.61L710,624.981Z" transform="translate(-590.971 -495.979)" fill="#4a5c81"/>
    <path id="Path_824" data-name="Path 824" d="M0,0H8.534V.238a.979.979,0,0,1-.979.979H.979A.979.979,0,0,1,0,.238V0Z" transform="matrix(0.461, -0.887, 0.887, 0.461, 112.889, 126.755)" fill="#4a5c81"/>
    <path id="Path_825" data-name="Path 825" d="M1.306,0h.317V13.807H0V1.308A1.306,1.306,0,0,1,1.306,0Z" transform="matrix(0.461, -0.887, 0.887, 0.461, 99.327, 122.911)" fill="#ff6469"/>
    <path id="Path_826" data-name="Path 826" d="M0,0H.317A1.306,1.306,0,0,1,1.623,1.306v12.5H0Z" transform="matrix(0.461, -0.887, 0.887, 0.461, 105.339, 111.336)" fill="#ff6469"/>
    <path id="Path_827" data-name="Path 827" d="M628.513,563.759l-6.738,12.975-3.4-1.762c-3.748-1.948-3.727-5.625-1.868-9.207h0c1.861-3.582,4.859-5.713,8.615-3.768Z" transform="translate(-517.726 -451.439)" fill="#ff656a"/>
    <path id="Path_828" data-name="Path 828" d="M615.767,600.381l1.36-2.607-1.993-1.034A5.335,5.335,0,0,0,615.767,600.381Z" transform="translate(-517.556 -478.874)" fill="#fff6d5"/>
    <path id="Path_829" data-name="Path 829" d="M633.453,561.37l-1.36,2.607-1.993-1.034A5.4,5.4,0,0,1,633.453,561.37Z" transform="translate(-529.186 -451.523)" fill="#fff6d5"/>
    <path id="Path_830" data-name="Path 830" d="M1.306,0H2.44V1.623H0V1.31A1.306,1.306,0,0,1,1.306,0Z" transform="matrix(0.461, -0.887, 0.887, 0.461, 103.309, 127.673)" fill="#ff6469"/>
    <path id="Path_831" data-name="Path 831" d="M0,0H2.44V1.623H1.306A1.306,1.306,0,0,1,0,.317V0Z" transform="matrix(-0.461, 0.887, -0.887, -0.461, 113.519, 111.489)" fill="#ff6469"/>
    <path id="Path_832" data-name="Path 832" d="M638.914,574.955l-5.636,10.853-4.893-4.376a2.3,2.3,0,0,1-.508-2.775l2.095-4.031a2.3,2.3,0,0,1,2.573-1.179Z" transform="translate(-527.267 -460.814)" fill="#53678b"/>
    <path id="Path_833" data-name="Path 833" d="M645.2,591.629c-2.39-1.24-3.195-4.423-1.8-7.112s4.464-3.854,6.852-2.619" transform="translate(-538.942 -467.016)" fill="#658bc8"/>
    <path id="Path_834" data-name="Path 834" d="M471.317,502.532,465.7,513.345l-1.081-.562.762-.585L470,503.317l.24-1.347Z" transform="translate(-359.281 -388.163)" fill="#ff656a"/>
    <path id="Path_835" data-name="Path 835" d="M471.317,502.532,465.7,513.345l-1.081-.562.762-.585L470,503.317l.24-1.347Z" transform="translate(-359.281 -388.163)" opacity="0.05"/>
    <rect id="Rectangle_211" data-name="Rectangle 211" width="1.623" height="1.623" transform="matrix(0.461, -0.887, 0.887, 0.461, 108.465, 121.225)" fill="#53678b"/>
    <ellipse id="Ellipse_157" data-name="Ellipse 157" cx="1.623" cy="0.406" rx="1.623" ry="0.406" transform="matrix(0.461, -0.887, 0.887, 0.461, 109.175, 122.505)" fill="#53678b"/>
    <path id="Path_836" data-name="Path 836" d="M688.86,641.884a2.782,2.782,0,0,0,3.961-.884" transform="translate(-574.624 -513.099)" opacity="0.05"/>
    <path id="Path_837" data-name="Path 837" d="M711.16,602a2.782,2.782,0,0,1,1.551,3.745" transform="translate(-591.868 -482.942)" opacity="0.05"/>
    <path id="Path_838" data-name="Path 838" d="M633.855,585a5.842,5.842,0,0,1,2.621-5.044" transform="translate(-532.082 -465.899)" opacity="0.05"/>
    <path id="Path_839" data-name="Path 839" d="M639.855,588.125a5.842,5.842,0,0,1,2.621-5.044" transform="translate(-536.722 -468.311)" opacity="0.05"/>
    <circle id="Ellipse_158" data-name="Ellipse 158" cx="1.217" cy="1.217" r="1.217" transform="matrix(0.461, -0.887, 0.887, 0.461, 104.287, 121.34)" fill="#4a77be"/>
    <circle id="Ellipse_159" data-name="Ellipse 159" cx="0.812" cy="0.812" r="0.812" transform="matrix(0.461, -0.887, 0.887, 0.461, 106.533, 117.017)" fill="#4a77be"/>
    <path id="Path_840" data-name="Path 840" d="M.492,0H.73a.49.49,0,0,1,.49.49V3.154a.5.5,0,0,1-.5.5H0V.481A.49.49,0,0,1,.492,0Z" transform="translate(110.359 120.174) rotate(-101.535)" fill="#cdefff"/>
    <path id="Path_841" data-name="Path 841" d="M0,0H1.218V1.453a.979.979,0,0,1-.979.979H0Z" transform="matrix(-0.199, -0.98, 0.98, -0.199, 111.795, 120.114)" opacity="0.05"/>
    <path id="Path_842" data-name="Path 842" d="M1.009,0H3.138V2.521H1.009A1.009,1.009,0,0,1,0,1.512V1.02A1.009,1.009,0,0,1,1.009,0Z" transform="matrix(0.461, -0.887, 0.887, 0.461, 109.139, 126.103)" fill="#cdefff"/>
    <path id="Path_843" data-name="Path 843" d="M665.245,632.087l-.406.868a1.823,1.823,0,0,1-2.424.453l-1.066-.553.578-1.115Z" transform="translate(-553.351 -505.939)" fill="#cdefff"/>
    <path id="Path_844" data-name="Path 844" d="M.506,0H.75a.506.506,0,0,1,.506.506V2.512H0V.506A.506.506,0,0,1,.506,0Z" transform="matrix(0.461, -0.887, 0.887, 0.461, 105.773, 125.774)" fill="#cdefff"/>
    <path id="Path_845" data-name="Path 845" d="M673.8,622.358a1.875,1.875,0,0,0,1.2.181l.059-.116-2.177-1.134A1.877,1.877,0,0,0,673.8,622.358Z" transform="translate(-562.267 -497.858)" opacity="0.05"/>
    <path id="Path_846" data-name="Path 846" d="M1.011,0H3.138V2.512H1.009A1.009,1.009,0,0,1,0,1.5V1.011A1.009,1.009,0,0,1,1.009,0Z" transform="matrix(-0.461, 0.887, -0.887, -0.461, 115.44, 119.368)" fill="#cdefff"/>
    <path id="Path_847" data-name="Path 847" d="M679.964,610.273a1.874,1.874,0,0,1,.841.88l-.059.116-2.177-1.134A1.877,1.877,0,0,1,679.964,610.273Z" transform="translate(-566.667 -489.174)" opacity="0.05"/>
    <circle id="Ellipse_160" data-name="Ellipse 160" cx="1.884" cy="1.884" r="1.884" transform="matrix(0.461, -0.887, 0.887, 0.461, 109.877, 123.545)" fill="#cdefff"/>
    <circle id="Ellipse_161" data-name="Ellipse 161" cx="1.884" cy="1.884" r="1.884" transform="matrix(0.461, -0.887, 0.887, 0.461, 109.783, 123.573)" fill="#cdefff"/>
    <path id="Path_848" data-name="Path 848" d="M672.276,611.011A1.086,1.086,0,1,0,673.863,610,1.881,1.881,0,0,0,672.276,611.011Z" transform="translate(-561.636 -489.128)" fill="#658bc8"/>
  </g>
</svg>
