<svg xmlns="http://www.w3.org/2000/svg" width="245.445" height="151.603" viewBox="0 0 245.445 151.603">
  <g id="Check_engine_light" data-name="Check engine light" transform="translate(0 -22.243)">
    <circle id="Ellipse_288" data-name="Ellipse 288" cx="7.041" cy="7.041" r="7.041" transform="translate(159.132 30.427)" fill="none" stroke="#3f3d56" stroke-miterlimit="10" stroke-width="1"/>
    <path id="Path_1511" data-name="Path 1511" d="M695.5,184.476l-1.7-1.711a.9.9,0,0,0-1.284-.009l-10.687,10.6-4.519-4.555a.9.9,0,0,0-1.275-.009l-1.72,1.7a.912.912,0,0,0-.009,1.283l6.863,6.917a.912.912,0,0,0,1.283.009l13.04-12.942a.9.9,0,0,0,.009-1.284Z" transform="translate(-514.975 -160.25)" fill="#f36"/>
    <rect id="Rectangle_381" data-name="Rectangle 381" width="127.672" height="14.552" rx="7.276" transform="translate(0 33.948)" fill="#f2f2f2"/>
    <rect id="Rectangle_382" data-name="Rectangle 382" width="127.672" height="14.552" rx="7.276" transform="translate(0.16 59.179)" fill="#f2f2f2"/>
    <rect id="Rectangle_383" data-name="Rectangle 383" width="127.672" height="14.552" rx="7.276" transform="translate(0.319 84.41)" fill="#f2f2f2"/>
    <rect id="Rectangle_384" data-name="Rectangle 384" width="127.672" height="14.552" rx="7.276" transform="translate(0.479 109.641)" fill="#f2f2f2"/>
    <rect id="Rectangle_385" data-name="Rectangle 385" width="127.672" height="14.552" rx="7.276" transform="translate(3.99 30.192)" fill="none" stroke="#3f3d56" stroke-miterlimit="10" stroke-width="1"/>
    <rect id="Rectangle_386" data-name="Rectangle 386" width="127.672" height="14.552" rx="7.276" transform="translate(4.15 55.423)" fill="none" stroke="#3f3d56" stroke-miterlimit="10" stroke-width="1"/>
    <rect id="Rectangle_387" data-name="Rectangle 387" width="127.672" height="14.552" rx="7.276" transform="translate(4.309 80.654)" fill="none" stroke="#3f3d56" stroke-miterlimit="10" stroke-width="1"/>
    <rect id="Rectangle_388" data-name="Rectangle 388" width="127.672" height="14.552" rx="7.276" transform="translate(4.469 105.885)" fill="none" stroke="#3f3d56" stroke-miterlimit="10" stroke-width="1"/>
    <circle id="Ellipse_289" data-name="Ellipse 289" cx="7.041" cy="7.041" r="7.041" transform="translate(159.132 55.776)" fill="none" stroke="#3f3d56" stroke-miterlimit="10" stroke-width="1"/>
    <circle id="Ellipse_290" data-name="Ellipse 290" cx="7.041" cy="7.041" r="7.041" transform="translate(159.132 81.124)" fill="none" stroke="#3f3d56" stroke-miterlimit="10" stroke-width="1"/>
    <circle id="Ellipse_291" data-name="Ellipse 291" cx="7.041" cy="7.041" r="7.041" transform="translate(159.132 106.472)" fill="none" stroke="#3f3d56" stroke-miterlimit="10" stroke-width="1"/>
    <path id="Path_1512" data-name="Path 1512" d="M695.5,275.854l-1.7-1.711a.9.9,0,0,0-1.284-.009l-10.687,10.6-4.519-4.555a.9.9,0,0,0-1.275-.009l-1.72,1.7a.912.912,0,0,0-.009,1.283l6.863,6.917a.912.912,0,0,0,1.283.009l13.04-12.942a.9.9,0,0,0,.009-1.283Z" transform="translate(-514.975 -226.045)" fill="#f36"/>
    <path id="Path_1513" data-name="Path 1513" d="M695.5,458.609l-1.7-1.711a.9.9,0,0,0-1.284-.009l-10.687,10.6-4.519-4.555a.9.9,0,0,0-1.275-.009l-1.72,1.7a.912.912,0,0,0-.009,1.284l6.863,6.917a.912.912,0,0,0,1.283.009l13.04-12.942a.9.9,0,0,0,.009-1.283Z" transform="translate(-514.975 -357.633)" fill="#f36"/>
    <path id="Path_1542" data-name="Path 1542" d="M873.344,703.633c-2.443,1.086-5.679.321-6.1-1.494-.512,2.4,3.313,3.57,6.1,2.33,3.763-1.673,11.5-6.063,11.5-6.063s0-.325-.011-.83C884.607,697.7,877.051,701.986,873.344,703.633Z" transform="translate(-654.048 -531.124)" fill="#fff" opacity="0.3"/>
    <path id="Path_1543" data-name="Path 1543" d="M959.174,697.871c-.241,1.881-2.327,2.276-6.262,2.838-2,.286-2.654-.6-2.774-1.651-.131,1.344.251,2.848,2.774,2.487,4.391-.627,6.481-1.045,6.272-3.554C959.182,697.953,959.178,697.911,959.174,697.871Z" transform="translate(-713.755 -531.337)" fill="#fff" opacity="0.3"/>
    <path id="Path_1549" data-name="Path 1549" d="M886.232,566.349a8.482,8.482,0,0,0,3.465.906C891.041,567.116,886.232,566.349,886.232,566.349Z" transform="translate(-667.756 -436.637)" opacity="0.1"/>
    <path id="Path_1550" data-name="Path 1550" d="M888.892,576.8a7.107,7.107,0,0,0,2.721.558C893.374,577.431,888.892,576.8,888.892,576.8Z" transform="translate(-669.671 -444.165)" opacity="0.1"/>
  </g>
</svg>
