<svg id="Fleet_Health" data-name="Fleet Health" xmlns="http://www.w3.org/2000/svg" width="187.76" height="183.034" viewBox="0 0 187.76 183.034">
  <path id="Path_1476" data-name="Path 1476" d="M873.3,509.542,877.921,508l1.762,2.863-1.105,1.488a4.963,4.963,0,0,1-4.841-.607C871.314,509.982,873.3,509.542,873.3,509.542Z" transform="translate(-718.131 -403.491)" fill="#9f616a"/>
  <path id="Path_1477" data-name="Path 1477" d="M810.488,342.01h0A7.488,7.488,0,0,0,803,349.5v7.708h1.766l.28-.76.214.76H816l.28-.76.214.76h1.483V349.5A7.488,7.488,0,0,0,810.488,342.01Z" transform="translate(-663.912 -274.058)" fill="#2f2e41"/>
  <path id="Path_1478" data-name="Path 1478" d="M872.912,440.862l-1.078-.242-1.427.924,2.77,13.849,4.831,3.681C879.558,456.3,872.912,440.862,872.912,440.862Z" transform="translate(-716.473 -350.951)" fill="#9f616a"/>
  <path id="Path_1479" data-name="Path 1479" d="M816.091,388.428s-1.175,6.381-2.183,6.549,4.2,2.015,4.2,2.015l4.2-.336-.5-1.343a9.548,9.548,0,0,1,0-6.549C823.143,385.573,816.091,388.428,816.091,388.428Z" transform="translate(-672.317 -309.337)" fill="#9f616a"/>
  <path id="Path_1480" data-name="Path 1480" d="M816.091,388.428s-1.175,6.381-2.183,6.549,4.2,2.015,4.2,2.015l4.2-.336-.5-1.343a9.548,9.548,0,0,1,0-6.549C823.143,385.573,816.091,388.428,816.091,388.428Z" transform="translate(-672.317 -309.337)" opacity="0.1"/>
  <path id="Path_1481" data-name="Path 1481" d="M779.209,448.935l.168-14.609-3.483-2.855s-2.226,18.807.293,20.654a5.737,5.737,0,0,0,.779.477l2.338-3.636Z" transform="translate(-642.068 -343.817)" fill="#9f616a"/>
  <path id="Path_1482" data-name="Path 1482" d="M772.16,731.855,770.145,742.1h4.87s2.855-7.388,2.687-8.9S772.16,731.855,772.16,731.855Z" transform="translate(-638.293 -578.041)" fill="#9f616a"/>
  <path id="Path_1483" data-name="Path 1483" d="M873.075,729.695v8.564l3.862.5s2.519-9.739,2.015-10.579S873.075,729.695,873.075,729.695Z" transform="translate(-718.554 -575.041)" fill="#9f616a"/>
  <path id="Path_1484" data-name="Path 1484" d="M780.294,554.548s-6.381,38.453-4.87,39.125,14.1,3.023,14.945,1.847S792.888,571,792.888,571s2.015,24.18,4.03,23.844,12.762.168,13.433-2.687-8.06-37.949-8.06-37.949l-2.183-1.511h-6.549Z" transform="translate(-642.229 -438.347)" fill="#2f2e41"/>
  <path id="Path_1485" data-name="Path 1485" d="M759.947,770l-1.511,8.4-.672,7.556s-2.183,3.862,1.175,3.862,4.366-1.511,4.366-1.511v-5.373a12.014,12.014,0,0,0,0-3.526,1.131,1.131,0,0,1,.5-1.343s-.672-2.855,0-3.526a18.483,18.483,0,0,0,1.847-3.694Z" transform="translate(-628.095 -607.787)" fill="#2f2e41"/>
  <path id="Path_1486" data-name="Path 1486" d="M862.717,770l-.5,6.045a30.031,30.031,0,0,0-.84,4.2c0,1.007-.5,7.052-.5,7.052s-.168,3.023,3.19,2.519,2.519-2.183,2.519-2.183V784.27a29.517,29.517,0,0,0,0-3.862,11.086,11.086,0,0,1,.168-2.351c0-.336.336-3.19.336-3.19l1.008-4.03Z" transform="translate(-709.036 -607.787)" fill="#2f2e41"/>
  <circle id="Ellipse_268" data-name="Ellipse 268" cx="5.038" cy="5.038" r="5.038" transform="translate(141.507 71.282)" fill="#9f616a"/>
  <path id="Path_1487" data-name="Path 1487" d="M784.563,418.619s6.213-1.175,9.068.5,3.19,3.19,4.2,3.19,2.183-.672,2.855,1.343l-2.183,2.855-.84,6.381,3.023,13.937s2.687,1.175,1.679,1.511-14.441,4.87-15.28,2.183-4.03-14.441-3.862-14.945-1.847-9.907-1.847-9.907l-4.366-4.2a3.717,3.717,0,0,1,3.694-.672C782.716,421.641,784.563,418.619,784.563,418.619Z" transform="translate(-643.644 -333.483)" fill="#d0cde1"/>
  <path id="Path_1488" data-name="Path 1488" d="M789.318,416.824s-2.828,1.043-3.835,1.547-4.282.756-4.282,1.259,2.875-.435,2.823,4.358-2.235,36.53-.556,36.866.168-1.679,3.694,0,5.206.168,5.541-.336,1.175-19.143,0-25.356S789.318,416.824,789.318,416.824Z" transform="translate(-646.914 -332.396)" fill="#3f3d56"/>
  <path id="Path_1489" data-name="Path 1489" d="M848.211,418.161a.213.213,0,0,1,.325-.2c1,.632,3.7,2.342,3.974,2.615a11.547,11.547,0,0,0,2.353.958,1.067,1.067,0,0,1,.732.957,4.919,4.919,0,0,1-.062,1.275c-.168.672-.84,3.023-.84,3.023s2.351,16.12,6.549,23.676,3.862,10.579,2.519,10.747-4.03-9.4-7.556-11.25-6.885-13.6-6.717-16.12C849.638,431.589,848.464,420.509,848.211,418.161Z" transform="translate(-699.165 -333.254)" fill="#3f3d56"/>
  <path id="Path_1490" data-name="Path 1490" d="M792.6,514.267c-1.237-.309-6.367-1.367-7.052-1.6l-1.572,3.248a11.459,11.459,0,0,0,5.77.866s4.87,4.45,5.709,2.267S793.942,514.6,792.6,514.267Z" transform="translate(-649.076 -407.134)" fill="#9f616a"/>
  <path id="Path_1491" data-name="Path 1491" d="M804.513,518.448l1.748-3.471a.611.611,0,0,1,.749-.3l.333.118a.611.611,0,0,1,.316.9l-2.081,3.353a.611.611,0,0,1-1.05-.019h0A.611.611,0,0,1,804.513,518.448Z" transform="translate(-665.041 -408.67)" fill="#2f2e41"/>
  <circle id="Ellipse_269" data-name="Ellipse 269" cx="1.343" cy="1.343" r="1.343" transform="translate(139.66 106.881)" fill="#2f2e41"/>
  <circle id="Ellipse_270" data-name="Ellipse 270" cx="0.84" cy="0.84" r="0.84" transform="translate(140.164 107.385)" fill="#d0cde1"/>
  <path id="Path_1492" data-name="Path 1492" d="M831.7,506.633l.168.168-9.823-1.259s-4.953-1.6-6.3,1.6,6.969,1.763,6.969,1.763,10.411,2.855,12.426.672a.967.967,0,0,0,.129-.185Z" transform="translate(-673.742 -401.263)" fill="#9f616a"/>
  <rect id="Rectangle_380" data-name="Rectangle 380" width="9.69" height="5.946" transform="translate(141.731 70.374)" fill="#2f2e41"/>
  <circle id="Ellipse_271" data-name="Ellipse 271" cx="59.023" cy="59.023" r="59.023" transform="translate(1 1)" fill="none" stroke="#3f3d56" stroke-miterlimit="10" stroke-width="2"/>
  <path id="Path_1493" data-name="Path 1493" d="M323.9,150.132a57.565,57.565,0,1,0-9.815,15.463l20.748,2.794.845-6.383Z" transform="translate(-204.293 -61.962)" fill="#f2f2f2"/>
  <path id="Path_1494" data-name="Path 1494" d="M590.012,450.72l-.845,6.383L599.7,458.93Z" transform="translate(-458.632 -350.676)" fill="#f2f2f2" opacity="0.6"/>
  <path id="Path_1495" data-name="Path 1495" d="M213.583,180.289l-26.724-27.316-3.593,7.728L167.04,144.115l-21.2,45.6,32.417,15.071.136-.293,19.682,9.15Z" transform="translate(-112.94 -111.596)" fill="#f36" opacity="0.2"/>
  <path id="Path_1496" data-name="Path 1496" d="M381.239,333.624c0-.027,0-.054,0-.081s0-.031,0-.046h-.011c-.5-3.162-17.891-5.7-38.28-5.7s-37.782,2.54-38.279,5.7h-.011c0,.016,0,.031,0,.046s0,.054,0,.081c0,0,0,.008,0,.012s0,.011,0,.016a38.29,38.29,0,1,0,76.581,0c0-.005,0-.011,0-.016S381.239,333.628,381.239,333.624Z" transform="translate(-275.322 -262.974)" fill="#3f3d56"/>
  <ellipse id="Ellipse_272" data-name="Ellipse 272" cx="38.291" cy="5.841" rx="38.291" ry="5.841" transform="translate(29.335 64.821)" fill="#fff" opacity="0.1"/>
  <circle id="Ellipse_273" data-name="Ellipse 273" cx="6.774" cy="6.774" r="6.774" transform="translate(72.649 56.152)" fill="#f36"/>
  <line id="Line_34" data-name="Line 34" y1="12.288" x2="0.056" transform="translate(79.362 62.89)" fill="#3f3d56" stroke="#3f3d56" stroke-miterlimit="10" stroke-width="2"/>
  <circle id="Ellipse_274" data-name="Ellipse 274" cx="1.738" cy="1.738" r="1.738" transform="translate(77.68 61.152)" fill="#3f3d56"/>
  <path id="Path_1497" data-name="Path 1497" d="M513.083,336.456s-.224-5.34-5.316-4.743" transform="translate(-433.7 -265.993)" fill="#3f3d56"/>
  <circle id="Ellipse_275" data-name="Ellipse 275" cx="6.774" cy="6.774" r="6.774" transform="translate(91.879 37.569)" fill="#f36"/>
  <line id="Line_35" data-name="Line 35" y1="25.017" x2="0.39" transform="translate(98.269 44.336)" fill="#3f3d56" stroke="#3f3d56" stroke-miterlimit="10" stroke-width="2"/>
  <circle id="Ellipse_276" data-name="Ellipse 276" cx="1.738" cy="1.738" r="1.738" transform="translate(96.922 42.599)" fill="#3f3d56"/>
  <path id="Path_1498" data-name="Path 1498" d="M600.3,249.776s-.165-5.343-5.263-4.8" transform="translate(-501.746 -198.364)" fill="#3f3d56"/>
  <path id="Path_1499" data-name="Path 1499" d="M599.393,307.8s1.277-10.249-5.169-10.846" transform="translate(-501.116 -238.927)" fill="none" stroke="#3f3d56" stroke-miterlimit="10" stroke-width="2"/>
  <circle id="Ellipse_277" data-name="Ellipse 277" cx="1.738" cy="1.738" r="1.738" transform="translate(91.37 56.291)" fill="#3f3d56"/>
  <circle id="Ellipse_278" data-name="Ellipse 278" cx="6.774" cy="6.774" r="6.774" transform="translate(31.713 22.198)" fill="#f36"/>
  <line id="Line_36" data-name="Line 36" y1="40.988" transform="translate(38.491 28.997)" fill="#3f3d56" stroke="#3f3d56" stroke-miterlimit="10" stroke-width="2"/>
  <circle id="Ellipse_279" data-name="Ellipse 279" cx="1.738" cy="1.738" r="1.738" transform="translate(36.753 27.24)" fill="#3f3d56"/>
  <circle id="Ellipse_280" data-name="Ellipse 280" cx="1.738" cy="1.738" r="1.738" transform="translate(31.416 56.895)" fill="#3f3d56"/>
  <path id="Path_1500" data-name="Path 1500" d="M327.335,188.465s-.248-5.339-5.337-4.719" transform="translate(-288.843 -150.611)" fill="#3f3d56"/>
  <path id="Path_1501" data-name="Path 1501" d="M327.335,257.193s-.248-5.339-5.337-4.719" transform="translate(-288.843 -204.203)" fill="#3f3d56"/>
  <path id="Path_1502" data-name="Path 1502" d="M327.335,310.572S328.452,300.194,322,299.7" transform="translate(-288.843 -241.064)" fill="none" stroke="#3f3d56" stroke-miterlimit="10" stroke-width="2"/>
  <circle id="Ellipse_281" data-name="Ellipse 281" cx="1.738" cy="1.738" r="1.738" transform="translate(42.197 40.594)" fill="#3f3d56"/>
  <path id="Path_1503" data-name="Path 1503" d="M346.455,236s-1.117-9.825,5.337-10.321" transform="translate(-307.857 -183.35)" fill="none" stroke="#3f3d56" stroke-miterlimit="10" stroke-width="2"/>
  <path id="Path_1504" data-name="Path 1504" d="M536.112,249.933a2.436,2.436,0,1,1,2.436-2.436,2.436,2.436,0,0,1-2.436,2.436Zm0-4.65a2.214,2.214,0,1,0,2.214,2.214,2.214,2.214,0,0,0-2.214-2.214Z" transform="translate(-453.903 -198.461)" fill="#3f3d56"/>
  <circle id="Ellipse_282" data-name="Ellipse 282" cx="1.439" cy="1.439" r="1.439" transform="translate(66.833 31.653)" fill="#3f3d56"/>
  <path id="Path_1505" data-name="Path 1505" d="M229.156,258.58v12.192l-6.583,3.709-13.351-1.02V260.852l6.629-2.272Z" transform="translate(-162.364 -200.852)" fill="#f36"/>
  <path id="Path_1506" data-name="Path 1506" d="M275.933,258.9v12.122l-6.583,3.709h-.139V261.144Z" transform="translate(-209.141 -201.098)" opacity="0.1"/>
  <path id="Path_1507" data-name="Path 1507" d="M229.156,258.58v.109l-6.722,2.209H209.222v-.046l6.629-2.272Z" transform="translate(-162.364 -200.852)" fill="#fff" opacity="0.1"/>
  <ellipse id="Ellipse_283" data-name="Ellipse 283" cx="3.211" cy="0.664" rx="3.211" ry="0.664" transform="translate(53.658 58.004)" opacity="0.1"/>
  <path id="Path_1508" data-name="Path 1508" d="M394.787,235.524l-1.429-1.289c-5.075-4.659-8.425-7.683-8.425-11.45a5.359,5.359,0,0,1,5.42-5.453,5.829,5.829,0,0,1,4.434,2.082,5.829,5.829,0,0,1,4.434-2.082,5.359,5.359,0,0,1,5.42,5.453c0,3.767-3.35,6.791-8.425,11.45Z" transform="translate(-337.918 -176.839)" fill="#ff6584"/>
  <line id="Line_37" data-name="Line 37" x2="87.213" transform="translate(100.547 182.034)" fill="none" stroke="#3f3d56" stroke-miterlimit="10" stroke-width="2"/>
  <line id="Line_38" data-name="Line 38" y1="25.568" transform="translate(179.299 156.902)" fill="#3f3d56" stroke="#3f3d56" stroke-miterlimit="10" stroke-width="2"/>
  <circle id="Ellipse_284" data-name="Ellipse 284" cx="3.616" cy="3.616" r="3.616" transform="translate(175.683 153.286)" fill="#3f3d56"/>
  <path id="Path_1509" data-name="Path 1509" d="M946.263,782.316s-.517-11.109-11.105-9.818" transform="translate(-766.964 -609.656)" fill="#3f3d56"/>
  <circle id="Ellipse_285" data-name="Ellipse 285" cx="4.468" cy="4.468" r="4.468" transform="translate(59.024 134.042)" fill="#3f3d56"/>
  <circle id="Ellipse_286" data-name="Ellipse 286" cx="3.25" cy="3.25" r="3.25" transform="translate(46.228 135.261)" fill="none" stroke="#3f3d56" stroke-miterlimit="10" stroke-width="2"/>
  <circle id="Ellipse_287" data-name="Ellipse 287" cx="3.25" cy="3.25" r="3.25" transform="translate(74.256 135.261)" fill="none" stroke="#3f3d56" stroke-miterlimit="10" stroke-width="2"/>
</svg>
