<svg xmlns="http://www.w3.org/2000/svg" width="30" height="29.992" viewBox="0 0 30 29.992"><defs><style>.a{fill:#0d0d0d;}</style></defs><g transform="translate(0 -0.063)"><g transform="translate(0 0.063)"><path class="a" d="M5.142,5.419a13.8,13.8,0,0,1,19.489-.226l-1.549.018a.606.606,0,0,0,.006,1.212h.006l3.012-.037a.607.607,0,0,0,.6-.612l-.037-3.012a.606.606,0,1,0-1.212.012l.018,1.549A15,15,0,0,0,.882,20.133a.617.617,0,0,0,.569.4.588.588,0,0,0,.2-.037.612.612,0,0,0,.367-.777A13.716,13.716,0,0,1,5.142,5.419Z" transform="translate(0 -0.063)"/><path class="a" d="M55.04,171.616a14.9,14.9,0,0,0,10.473,4.266h.178A15,15,0,0,0,80.2,163.952a15.029,15.029,0,0,0-.563-8.153.608.608,0,1,0-1.145.41,13.786,13.786,0,0,1-22.6,14.531l1.549-.018a.606.606,0,0,0-.006-1.212h-.006l-3.012.037a.608.608,0,0,0-.428.184.623.623,0,0,0-.171.428l.037,3.012a.61.61,0,0,0,.606.6h.006a.607.607,0,0,0,.6-.612Z" transform="translate(-50.516 -145.89)"/><path class="a" d="M114.267,102.257a9.052,9.052,0,0,0-7.829-5.576c-.061-.006-.129-.006-.2-.012h-.024c-.037,0-.073-.006-.11-.006h-.018c-.067,0-.135-.006-.208-.006a9.074,9.074,0,0,0,.012,18.149,1.084,1.084,0,0,0,.141-.006c.024,0,.055.006.08.006a.046.046,0,0,0,.031-.006c.055,0,.1-.006.159-.006h.061a.135.135,0,0,0,.049-.006,9.068,9.068,0,0,0,7.859-12.523c-.006,0-.006,0-.006-.006Zm-11.544-3.715a9.545,9.545,0,0,0-1.567,3.348H99.032A7.825,7.825,0,0,1,102.723,98.541Zm-4.242,4.566h2.412a15.7,15.7,0,0,0-.214,2.632,14.621,14.621,0,0,0,.233,2.632h-2.43A7.775,7.775,0,0,1,98.481,103.107Zm.551,6.47h2.161a9.825,9.825,0,0,0,1.659,3.415A7.821,7.821,0,0,1,99.032,109.577Zm6.47,3.93c-1.267-.373-2.393-1.891-3.036-3.93H105.5v3.93Zm0-5.142h-3.348a13.1,13.1,0,0,1-.263-2.632,14.986,14.986,0,0,1,.233-2.632H105.5Zm0-6.47h-3.091c.618-2.106,1.744-3.593,3.091-3.936Zm7.241-.006H111.06a9.79,9.79,0,0,0-1.322-3.012A7.849,7.849,0,0,1,112.743,101.889Zm-6.029-3.936c1.347.349,2.467,1.836,3.091,3.936h-3.091Zm0,5.154h3.379a14.374,14.374,0,0,1,.233,2.632,13.1,13.1,0,0,1-.263,2.632h-3.348Zm0,10.4v-3.93h3.036C109.107,111.616,107.981,113.134,106.714,113.507Zm2.9-.851a10.139,10.139,0,0,0,1.414-3.079h1.714A7.766,7.766,0,0,1,109.615,112.656Zm3.679-4.291H111.3a14.571,14.571,0,0,0,.233-2.632,15.7,15.7,0,0,0-.214-2.632h1.971A7.775,7.775,0,0,1,113.294,108.365Z" transform="translate(-90.884 -90.744)"/></g></g></svg>