<svg xmlns="http://www.w3.org/2000/svg" width="30" height="30.001" viewBox="0 0 30 30.001"><defs><style>.a{fill:#0d0d0d;}</style></defs><g transform="translate(-0.004)"><g transform="translate(0.004)"><path class="a" d="M29.912,19.211A.5.5,0,0,0,29.5,19H25V4.5a.5.5,0,0,0-.5-.5H23V2.5a.5.5,0,0,0-.5-.5h-12a2,2,0,1,0-4,0H5a.5.5,0,0,0-.5.5V19H.5a.5.5,0,0,0-.438.741l5.5,10A.5.5,0,0,0,6,30H26a.476.476,0,0,0,.469-.336h0l3.5-10A.5.5,0,0,0,29.912,19.211ZM23,23V5h1V24.827L23,23ZM8.5,1a1,1,0,0,1,1,1h-2A1,1,0,0,1,8.5,1Zm-3,2h4V4.5a.5.5,0,0,1-1,0V4h-1v.5a1.5,1.5,0,1,0,3,0V3H22V21.19l-1.062-1.931A.5.5,0,0,0,20.5,19H5.5V3Zm.8,26-4.95-9H20.209l4.95,9Zm19.6-.723L25,26.645V20h3.8Z" transform="translate(-0.004)"/></g><g transform="translate(24.004 2)"><path class="a" d="M385,32h-1v1h1a1,1,0,0,1,1,1v7h1V34A2,2,0,0,0,385,32Z" transform="translate(-384.003 -32)"/></g><g transform="translate(26.06 11.841)"><g transform="translate(0 0)"><rect class="a" width="0.79" height="0.79"/></g></g><g transform="translate(2.373 10.262)"><g transform="translate(0 0)"><rect class="a" width="0.79" height="7.106"/></g></g><g transform="translate(2.373 7.893)"><g transform="translate(0 0)"><rect class="a" width="0.79" height="0.79"/></g></g><g transform="translate(7.9 12.63)"><g transform="translate(0 0)"><rect class="a" width="0.79" height="0.79"/></g></g><g transform="translate(10.269 12.63)"><g transform="translate(0 0)"><rect class="a" width="10.264" height="0.79"/></g></g><g transform="translate(7.9 10.262)"><g transform="translate(0 0)"><rect class="a" width="10.264" height="0.79"/></g></g><g transform="translate(8.69 8.683)"><g transform="translate(0 0)"><rect class="a" width="10.264" height="0.79"/></g></g><g transform="translate(7.9 7.103)"><g transform="translate(0 0)"><rect class="a" width="10.264" height="0.79"/></g></g><g transform="translate(7.111 14.209)"><g transform="translate(0)"><rect class="a" width="13.422" height="1.579"/></g></g><g transform="translate(7.111 16.578)"><g transform="translate(0 0)"><rect class="a" width="11.054" height="0.79"/></g></g><g transform="translate(19.919 4.5)"><rect class="a" width="1.029" height="1"/></g><g transform="translate(19.743 6.314)"><g transform="translate(0 0)"><rect class="a" width="1.579" height="1.579"/></g></g></g></svg>