<svg xmlns="http://www.w3.org/2000/svg" width="30" height="29.483" viewBox="0 0 30 29.483"><g transform="translate(0 -0.5)"><path d="M22.189,2.569A2.591,2.591,0,0,0,19.655.5a.517.517,0,1,0,0,1.034,1.552,1.552,0,0,1,0,3.1.517.517,0,1,0,0,1.034A2.591,2.591,0,0,0,22.189,3.6h6.776V8.259H1.034V3.6H9.828a.517.517,0,1,0,0-1.034H8.888a1.549,1.549,0,1,1,1.457,2.069.517.517,0,1,0,0,1.034,2.586,2.586,0,1,0-2.534-3.1H0V29.983H30V2.569Zm6.776,26.379H1.034V9.293H28.966Z"/><path d="M12.151,26.487a.517.517,0,0,0,.731,0L15.1,24.266V35.949H13.552a.517.517,0,1,0,0,1.034H17.69a.517.517,0,1,0,0-1.034H16.138V23.018a.522.522,0,0,0-.04-.2.517.517,0,0,0-.675-.28.525.525,0,0,0-.169.112l-3.1,3.1A.517.517,0,0,0,12.151,26.487Z" transform="translate(-5.793 -10.621)"/><path d="M34.621,35.948a2.589,2.589,0,0,1-2.586-2.586.517.517,0,1,0-1.034,0,3.621,3.621,0,0,0,7.241,0V26.121a3.629,3.629,0,1,0-1.034,2.529v4.712A2.589,2.589,0,0,1,34.621,35.948Zm0-7.241a2.586,2.586,0,1,1,2.586-2.586A2.589,2.589,0,0,1,34.621,28.707Z" transform="translate(-14.966 -10.621)"/><path d="M25.517,1.534a1.552,1.552,0,0,1,0,3.1.517.517,0,1,0,0,1.034,2.586,2.586,0,0,0,0-5.172.517.517,0,1,0,0,1.034Z" transform="translate(-12.069)"/><path d="M31.517,1.534a1.552,1.552,0,0,1,0,3.1.517.517,0,0,0,0,1.034,2.586,2.586,0,0,0,0-5.172.517.517,0,0,0,0,1.034Z" transform="translate(-14.966)"/></g></svg>