<svg xmlns="http://www.w3.org/2000/svg" width="30" height="29.997" viewBox="0 0 30 29.997"><defs><style>.a{fill:#0d0d0d;}</style></defs><g transform="translate(0 -0.021)"><g transform="translate(0 0.021)"><g transform="translate(0 0)"><path class="a" d="M27.725.021H11.772A2.4,2.4,0,0,0,9.5,2.521v20.5c0,.007,0,.014,0,.021a.5.5,0,0,0,.033.165l0,.011v0l1.183,2.719a.945.945,0,0,0,.858.581H12v2a1.482,1.482,0,0,0,.092.5H6v-9a1.5,1.5,0,0,0-1.5-1.5V9.985a4,4,0,1,0-1,0v8.534a1.5,1.5,0,0,0-1.5,1.5v9H.5a.5.5,0,0,0,0,1h29a.5.5,0,1,0,0-1H27.406a1.481,1.481,0,0,0,.092-.5v-2h.417a.945.945,0,0,0,.858-.581l1.183-2.72v0s0-.007,0-.011a.494.494,0,0,0,.033-.165c0-.007,0-.013,0-.02V2.521A2.4,2.4,0,0,0,27.725.021ZM1,6.021a3,3,0,1,1,3,3A3,3,0,0,1,1,6.021Zm4,23H3v-9a.5.5,0,0,1,.5-.5h1a.5.5,0,0,1,.5.5Zm10-.5a.5.5,0,0,1-.5.5h-1a.5.5,0,0,1-.5-.5v-2h2Zm.908.5a1.481,1.481,0,0,0,.092-.5v-2h7.5v2a1.482,1.482,0,0,0,.092.5Zm10.591-.5a.5.5,0,0,1-.5.5H25a.5.5,0,0,1-.5-.5v-2h2Zm1.367-3H11.633l-.87-2H28.735Zm-10.366-3v-1a.5.5,0,0,1,.5-.5h3.5a.5.5,0,0,1,.5.5v1Zm11.5-20v20H23v-1a1.5,1.5,0,0,0-1.5-1.5H18a1.5,1.5,0,0,0-1.5,1.5v1h-6v-20a1.4,1.4,0,0,1,1.273-1.5H27.725A1.4,1.4,0,0,1,29,2.521Z" transform="translate(0 -0.021)"/><path class="a" d="M211.268,34.155h-13.5a1.5,1.5,0,0,0-1.5,1.5v.5a1.5,1.5,0,0,0,1.5,1.5h13.5a1.5,1.5,0,0,0,1.5-1.5v-.5A1.5,1.5,0,0,0,211.268,34.155Zm.5,2a.5.5,0,0,1-.5.5h-13.5a.5.5,0,0,1-.5-.5v-.5a.5.5,0,0,1,.5-.5h13.5a.5.5,0,0,1,.5.5Z" transform="translate(-184.77 -32.155)"/><path class="a" d="M198.269,298.688a2,2,0,1,0,2,2A2,2,0,0,0,198.269,298.688Zm0,3a1,1,0,1,1,1-1A1,1,0,0,1,198.269,301.688Z" transform="translate(-184.77 -281.189)"/><path class="a" d="M411.6,298.688a2,2,0,1,0,2,2A2,2,0,0,0,411.6,298.688Zm0,3a1,1,0,1,1,1-1A1,1,0,0,1,411.6,301.688Z" transform="translate(-385.604 -281.189)"/><path class="a" d="M211.268,110.955h-13.5a1.5,1.5,0,0,0-1.5,1.5v7a1.5,1.5,0,0,0,1.5,1.5h13.5a1.5,1.5,0,0,0,1.5-1.5v-7A1.5,1.5,0,0,0,211.268,110.955Zm.5,8.5a.5.5,0,0,1-.5.5h-13.5a.5.5,0,0,1-.5-.5v-7a.5.5,0,0,1,.5-.5h13.5a.5.5,0,0,1,.5.5Z" transform="translate(-184.77 -104.456)"/></g></g></g></svg>