<svg xmlns="http://www.w3.org/2000/svg" width="28.207" height="30" viewBox="0 0 28.207 30"><defs><style>.a{fill:#0d0d0d;}</style></defs><g transform="translate(-1.793)"><path class="a" d="M29.714,29.995a1.779,1.779,0,0,0,1.3-.729L35.7,22.793a.5.5,0,0,0-.7-.7l-6.473,4.683A1.782,1.782,0,0,0,29.574,30C29.62,30,29.667,30,29.714,29.995ZM28.8,28.158a.78.78,0,0,1,.319-.571l3.948-2.856-2.855,3.947a.781.781,0,0,1-1.412-.52Z" transform="translate(-13 -11)"/><path class="a" d="M38.913,9.782c-.005-.01-.005-.021-.01-.032s-.015-.016-.022-.025a13.593,13.593,0,0,0-1.783-2.4l1.074-1.074.707.707L41,4.833,38.879,2.712,36.758,4.833l.708.707L36.391,6.614a13.577,13.577,0,0,0-2.4-1.783c-.01-.006-.015-.016-.025-.022S33.94,4.8,33.93,4.8a13.405,13.405,0,0,0-5.136-1.7V2.5h.75a1.25,1.25,0,1,0,0-2.5h-4.5a1.25,1.25,0,0,0,0,2.5h.75v.578a13.752,13.752,0,0,0-1.612.267.5.5,0,1,0,.224.975,12.715,12.715,0,0,1,1.39-.239l.537-.042c.164-.012.315-.022.462-.028V5a.5.5,0,0,0,1,0V4.015a12.4,12.4,0,0,1,5.228,1.423l-.493.853a.5.5,0,1,0,.866.5l.491-.852a12.6,12.6,0,0,1,3.886,3.886l-.851.491a.5.5,0,0,0,.5.866l.854-.493A12.41,12.41,0,0,1,39.7,16h-.988a.5.5,0,0,0,0,1H39.7a12.41,12.41,0,0,1-1.424,5.309l-.854-.493a.5.5,0,0,0-.5.866l.851.492a12.6,12.6,0,0,1-3.886,3.886l-.491-.851a.5.5,0,1,0-.866.5l.493.854a12.4,12.4,0,0,1-5.228,1.423V28a.5.5,0,0,0-1,0v.988a12.618,12.618,0,0,1-2.388-.309.5.5,0,0,0-.223.975A13.511,13.511,0,0,0,27.211,30l.073,0,.009,0,.012,0a13.413,13.413,0,0,0,6.61-1.787.424.424,0,0,0,.047-.019c.01-.006.015-.016.025-.022a13.6,13.6,0,0,0,4.886-4.881.473.473,0,0,0,.03-.039c.006-.01.006-.021.01-.032a13.448,13.448,0,0,0,0-13.436Zm-.034-5.656.707.707-.707.707-.708-.708ZM26.793,3.011V1.5h-1.75a.25.25,0,1,1,0-.5h4.5a.25.25,0,1,1,0,.5h-1.75V3.011C27.619,3,27.453,3,27.293,3h-.082c-.082,0-.164.006-.246.007C26.907,3.009,26.853,3.008,26.793,3.011Z" transform="translate(-11)"/><path class="a" d="M18.793,14h-2.5a.5.5,0,0,0,0,1h2.5a.5.5,0,0,0,0-1Z" transform="translate(-7 -7)"/><path class="a" d="M16.293,21h-5a.5.5,0,1,0,0,1h5a.5.5,0,0,0,0-1Z" transform="translate(-4.5 -10.5)"/><path class="a" d="M13.793,28h-7.5a.5.5,0,1,0,0,1h7.5a.5.5,0,1,0,0-1Z" transform="translate(-2 -14)"/><path class="a" d="M11.793,35h-9.5a.5.5,0,1,0,0,1h9.5a.5.5,0,1,0,0-1Z" transform="translate(0 -17.5)"/><path class="a" d="M14.793,42h-6.5a.5.5,0,1,0,0,1h6.5a.5.5,0,1,0,0-1Z" transform="translate(-3 -21)"/><path class="a" d="M17.793,49h-3.5a.5.5,0,1,0,0,1h3.5a.5.5,0,1,0,0-1Z" transform="translate(-6 -24.5)"/></g></svg>