<svg xmlns="http://www.w3.org/2000/svg" width="11" height="30" viewBox="0 0 11 30"><defs><style>.a{fill:#0d0d0d;}</style></defs><path class="a" d="M11,14.5H9V4.5A1.5,1.5,0,0,0,7.5,3V1a1,1,0,0,0-1-1h-1a1,1,0,0,0-1,1V3A1.5,1.5,0,0,0,3,4.5v10H1a.5.5,0,0,0-.5.5v3a.5.5,0,0,0,.5.5H2V21a.5.5,0,0,0,.5.5H3V26a1.5,1.5,0,0,0,1.5,1.5h1V28a.5.5,0,0,0,1,0v-.5H7v1a.5.5,0,0,1-.5.5H6a.5.5,0,1,0,0,1h.5A1.5,1.5,0,0,0,8,28.5V27.408A1.5,1.5,0,0,0,9,26V21.5h.5A.5.5,0,0,0,10,21V18.5h1a.5.5,0,0,0,.5-.5V15a.5.5,0,0,0-.5-.5ZM5.5,1h1V3h-1ZM4,4.5A.5.5,0,0,1,4.5,4h3a.5.5,0,0,1,.5.5v10H4Zm4,20H4v-1H8Zm-.5,2h-3A.5.5,0,0,1,4,26v-.5H8V26A.5.5,0,0,1,7.5,26.5Zm.5-4H4v-1H8Zm1-2H3v-2H9Zm1.5-3h-9v-2h9Zm0,0" transform="translate(-0.5 0)"/></svg>