<svg xmlns="http://www.w3.org/2000/svg" width="41.86" height="30" viewBox="0 0 41.86 30"><defs><style>.a{fill:#0d0d0d;}</style></defs><g transform="translate(0 -72.533)"><g transform="translate(5.581 94.161)"><g transform="translate(0 0)"><path class="a" d="M72.453,337.067a4.186,4.186,0,1,0,4.186,4.186A4.19,4.19,0,0,0,72.453,337.067Zm0,6.977a2.791,2.791,0,1,1,2.791-2.791A2.793,2.793,0,0,1,72.453,344.044Z" transform="translate(-68.267 -337.067)"/></g></g><g transform="translate(29.302 94.161)"><g transform="translate(0 0)"><path class="a" d="M362.586,337.067a4.186,4.186,0,1,0,4.186,4.186A4.19,4.19,0,0,0,362.586,337.067Zm0,6.977a2.791,2.791,0,1,1,2.791-2.791A2.793,2.793,0,0,1,362.586,344.044Z" transform="translate(-358.4 -337.067)"/></g></g><g transform="translate(26.512 80.207)"><g transform="translate(0 0)"><path class="a" d="M339.5,176.488l-6.279-9.767a.7.7,0,0,0-.587-.32h-7.674a.7.7,0,0,0-.7.7v17.442a.7.7,0,0,0,.7.7h2.791v-1.4h-2.093V167.8h6.6l5.962,9.275v6.772h-3.488v1.4h4.186a.7.7,0,0,0,.7-.7v-7.674A.7.7,0,0,0,339.5,176.488Z" transform="translate(-324.267 -166.4)"/></g></g><g transform="translate(29.302 82.998)"><g transform="translate(0 0)"><path class="a" d="M359.8,206.812v-4.884h5.581v-1.4H359.1a.7.7,0,0,0-.7.7v6.279a.7.7,0,0,0,.7.7h10.465v-1.4H359.8Z" transform="translate(-358.401 -200.533)"/></g></g><g transform="translate(0 75.324)"><g transform="translate(0 0)"><path class="a" d="M27.209,106.667H.7a.7.7,0,0,0-.7.7V129.69a.7.7,0,0,0,.7.7H6.279v-1.4H1.4v-20.93H26.512v20.93H13.256v1.4H27.209a.7.7,0,0,0,.7-.7V107.365A.7.7,0,0,0,27.209,106.667Z" transform="translate(0 -106.667)"/></g></g><g transform="translate(0.698 94.859)"><g transform="translate(0 0)"><rect class="a" width="4.186" height="1.395"/></g></g><g transform="translate(14.651 94.859)"><g transform="translate(0 0)"><rect class="a" width="11.86" height="1.395"/></g></g><g transform="translate(38.372 94.859)"><g transform="translate(0 0)"><rect class="a" width="2.791" height="1.395"/></g></g><g transform="translate(2.791 78.114)"><g transform="translate(0 0)"><rect class="a" width="24.419" height="1.395"/></g></g><g transform="translate(9.07 97.649)"><g transform="translate(0 0)"><rect class="a" width="1.395" height="1.395"/></g></g><g transform="translate(32.791 97.649)"><g transform="translate(0 0)"><rect class="a" width="1.395" height="1.395"/></g></g><g transform="translate(2.791 72.533)"><g transform="translate(0 0)"><rect class="a" width="9.767" height="1.395"/></g></g><g transform="translate(0 72.533)"><g transform="translate(0 0)"><rect class="a" width="1.395" height="1.395"/></g></g></g></svg>