<svg xmlns="http://www.w3.org/2000/svg" width="58.105" height="35.333" viewBox="0 0 58.105 35.333"><defs><style>.a{fill:#0d0d0d;}</style></defs><g transform="translate(0 0)"><g transform="translate(0 0)"><path class="a" d="M52.067,87.265a1.044,1.044,0,0,1-1.119-.946v-.945a5.057,5.057,0,0,0-5.051-5.05H18.214a5.056,5.056,0,0,0-5.05,5.05V91.93a.842.842,0,0,1-1.087.851,10.517,10.517,0,0,0-7.487.888C2.07,95.176.577,98.042.152,102.189a59.3,59.3,0,0,0-.02,8.18c.066,1.581.136,3.217.128,4.725a.56.56,0,1,0,1.12,0c.008-1.531-.062-3.181-.129-4.777a58.618,58.618,0,0,1,.015-8.018c.388-3.772,1.7-6.354,3.894-7.671,2.3-1.378,5.124-1.1,6.922-.7a1.5,1.5,0,0,1,1.082,1.407v1.448a.89.89,0,0,1-1.1.9,7.172,7.172,0,0,0-4.748.748c-1.805,1.078-2.873,3.121-3.176,6.069a41.456,41.456,0,0,0-.016,5.723c.048,1.152.094,2.242.089,3.287,0,.31,1.119.315,1.12.007.006-1.072-.043-2.226-.089-3.342a40.528,40.528,0,0,1,.01-5.562c.265-2.574,1.149-4.33,2.633-5.221a6.216,6.216,0,0,1,4.183-.569,1.427,1.427,0,0,1,1.091,1.367v5.079a5.056,5.056,0,0,0,5.05,5.05H45.9a5.057,5.057,0,0,0,5.051-5.05v-.947a1.044,1.044,0,0,1,1.119-.946h5.2a.841.841,0,0,0,.84-.84V88.1a.842.842,0,0,0-.84-.84h-5.2Zm-2.8.84v17.169a3.375,3.375,0,0,1-3.371,3.37H18.214a3.374,3.374,0,0,1-3.37-3.37v-19.9A3.374,3.374,0,0,1,18.214,82H45.9a3.375,3.375,0,0,1,3.371,3.37V88.1ZM55.3,101.7H52.067c-.618,0-1.12-.232-1.12-.521s.5-.522,1.12-.522h2.589a.56.56,0,0,0,0-1.12H52.067a1.023,1.023,0,1,1,0-2.038h2.589a.56.56,0,1,0,0-1.12H52.067a1.024,1.024,0,1,1,0-2.038h2.589a.56.56,0,1,0,0-1.12H52.067a1.024,1.024,0,1,1,0-2.038h2.589a.56.56,0,0,0,0-1.12H52.067c-.617,0-1.119-.25-1.119-.56s.5-.56,1.119-.56H55.3a1.12,1.12,0,0,1,1.12,1.12v10.518A1.12,1.12,0,0,1,55.3,101.7Z" transform="translate(0.001 -80.323)"/></g></g></svg>