<svg xmlns="http://www.w3.org/2000/svg" width="30" height="30" viewBox="0 0 30 30"><defs><style>.a{fill:#0d0d0d;}</style></defs><g transform="translate(-1 -1)"><path class="a" d="M16,1A15,15,0,1,0,31,16,15.017,15.017,0,0,0,16,1Zm0,29.032A14.032,14.032,0,1,1,30.032,16,14.048,14.048,0,0,1,16,30.032Z"/><path class="a" d="M19.1,7a12.1,12.1,0,1,0,12.1,12.1A12.111,12.111,0,0,0,19.1,7ZM12.27,12.954a9.152,9.152,0,0,0-2.354,5.659H7.98A11.084,11.084,0,0,1,10.9,11.581Zm.686-.682L11.581,10.9A11.087,11.087,0,0,1,18.613,7.98V9.927A9.145,9.145,0,0,0,12.956,12.272ZM19.581,7.98A11.082,11.082,0,0,1,26.612,10.9l-1.375,1.375a9.145,9.145,0,0,0-5.657-2.345Zm7.716,3.6a11.087,11.087,0,0,1,2.917,7.032H28.278a9.153,9.153,0,0,0-2.354-5.659ZM19.1,30.226A11.142,11.142,0,0,1,7.98,19.581h2.407a.484.484,0,0,0,.484-.484,8.226,8.226,0,0,1,16.452,0,.484.484,0,0,0,.484.484h2.407A11.142,11.142,0,0,1,19.1,30.226Z" transform="translate(-3.097 -3.097)"/><path class="a" d="M28.11,27.536a.483.483,0,0,0,.342.142h1.935a.483.483,0,0,0,.342-.142l.968-.968a.483.483,0,0,0,.127-.459l-1.935-7.742a.484.484,0,0,0-.939,0l-1.935,7.742a.484.484,0,0,0,.127.459Zm1.31-7.057,1.4,5.6-.632.632H28.652l-.632-.632Z" transform="translate(-13.419 -8.774)"/><path class="a" d="M31.161,40H21.484a.484.484,0,0,0-.484.484v3.871a.484.484,0,0,0,.484.484h9.677a.484.484,0,0,0,.484-.484V40.484A.484.484,0,0,0,31.161,40Zm-5.323.968h.968v2.9h-.968Zm-.968,2.9H23.9v-2.9h.968Zm2.9-2.9h.968v2.9h-.968Zm-5.806,0h.968v2.9h-.968Zm8.71,2.9H29.71v-2.9h.968Z" transform="translate(-10.323 -20.129)"/></g></svg>