<svg xmlns="http://www.w3.org/2000/svg" width="23.746" height="30" viewBox="0 0 23.746 30"><defs><style>.a{fill:#0d0d0d;}</style></defs><g transform="translate(8.618 2.019)"><path class="a" d="M13.376-.612H11.187a.44.44,0,0,0-.439.439.439.439,0,0,0,.439.439h.272V24.532H-4.947V.267h1.829v1A1.389,1.389,0,0,0-1.731,2.652H.347A2.462,2.462,0,0,0,2.766,4.671h.979A2.462,2.462,0,0,0,6.164,2.652H8.241A1.389,1.389,0,0,0,9.629,1.265v-1.9A1.389,1.389,0,0,0,8.241-2.019H-1.731A1.389,1.389,0,0,0-3.118-.632v.019H-6.865A1.755,1.755,0,0,0-8.618,1.14V18.781a.439.439,0,0,0,.439.439.439.439,0,0,0,.439-.439V1.14A.875.875,0,0,1-6.865.267h1.039v24.7a.439.439,0,0,0,.439.439H11.9a.439.439,0,0,0,.439-.439V.267h1.039a.875.875,0,0,1,.874.874V26.228a.875.875,0,0,1-.874.874H-6.865a.875.875,0,0,1-.874-.874V20.852a.44.44,0,0,0-.439-.439.44.44,0,0,0-.439.439v5.375a1.755,1.755,0,0,0,1.753,1.753H13.376a1.755,1.755,0,0,0,1.752-1.753V1.14A1.755,1.755,0,0,0,13.376-.612ZM-2.239-.632a.509.509,0,0,1,.509-.509H8.241a.509.509,0,0,1,.509.509v1.9a.509.509,0,0,1-.509.509H5.764a.439.439,0,0,0-.439.439,1.581,1.581,0,0,1-1.58,1.579H2.766A1.581,1.581,0,0,1,1.186,2.213a.439.439,0,0,0-.439-.439H-1.731a.509.509,0,0,1-.509-.509Zm0,0"/><path class="a" d="M197.245,257.98h-2.324l-1.485-4.055a.44.44,0,0,0-.838.043l-1.6,6.281-1.54-4.48a.44.44,0,0,0-.8-.072l-1.281,2.284h-1.333a.439.439,0,1,0,0,.879h1.59a.44.44,0,0,0,.383-.225l.927-1.653,1.7,4.945a.44.44,0,0,0,.842-.035l1.608-6.331,1.1,3.009a.439.439,0,0,0,.413.288h2.631a.439.439,0,0,0,0-.879Zm0,0" transform="translate(-188.391 -247.975)"/><path class="a" d="M197.244,639.355h-11.2a.439.439,0,1,0,0,.879h11.2a.439.439,0,1,0,0-.879Zm0,0" transform="translate(-188.391 -622.103)"/><path class="a" d="M197.244,768.207h-11.2a.439.439,0,1,0,0,.879h11.2a.439.439,0,1,0,0-.879Zm0,0" transform="translate(-188.391 -747.084)"/></g></svg>