<svg xmlns="http://www.w3.org/2000/svg" width="30" height="29.997" viewBox="0 0 30 29.997"><defs><style>.a{fill:#0d0d0d;}</style></defs><g transform="translate(0 -0.02)"><g transform="translate(21.001 25.018)"><path class="a" d="M336.54,400.02a.5.5,0,0,0-.5.5v1a.5.5,0,1,0,1,0v-1A.5.5,0,0,0,336.54,400.02Z" transform="translate(-336.04 -400.02)"/></g><g transform="translate(20.001 28.018)"><path class="a" d="M321.54,448.02a.5.5,0,0,0-.5.5v.5h-.5a.5.5,0,1,0,0,1h1a.5.5,0,0,0,.5-.5v-1A.5.5,0,0,0,321.54,448.02Z" transform="translate(-320.04 -448.02)"/></g><g transform="translate(16.224 29.018)"><path class="a" d="M261.989,464.02H260.1a.5.5,0,1,0,0,1h1.889a.5.5,0,1,0,0-1Z" transform="translate(-259.6 -464.02)"/></g><g transform="translate(8.669 29.018)"><path class="a" d="M141.1,464.02h-1.888a.5.5,0,1,0,0,1H141.1a.5.5,0,1,0,0-1Z" transform="translate(-138.712 -464.02)"/></g><g transform="translate(12.446 29.018)"><path class="a" d="M201.548,464.02H199.66a.5.5,0,1,0,0,1h1.888a.5.5,0,1,0,0-1Z" transform="translate(-199.16 -464.02)"/></g><g transform="translate(4.891 29.018)"><path class="a" d="M80.653,464.02H78.764a.5.5,0,1,0,0,1h1.889a.5.5,0,1,0,0-1Z" transform="translate(-78.264 -464.02)"/></g><g transform="translate(2.002 28.018)"><path class="a" d="M33.54,449.02h-.5v-.5a.5.5,0,1,0-1,0v1a.5.5,0,0,0,.5.5h1a.5.5,0,1,0,0-1Z" transform="translate(-32.04 -448.02)"/></g><g transform="translate(2.002 11.292)"><path class="a" d="M32.54,180.388a.5.5,0,0,0-.5.5v2.091a.5.5,0,0,0,1,0v-2.091A.5.5,0,0,0,32.54,180.388Z" transform="translate(-32.04 -180.388)"/></g><g transform="translate(2.002 15.473)"><path class="a" d="M32.54,247.292a.5.5,0,0,0-.5.5v2.091a.5.5,0,1,0,1,0v-2.091A.5.5,0,0,0,32.54,247.292Z" transform="translate(-32.04 -247.292)"/></g><g transform="translate(2.002 23.836)"><path class="a" d="M32.54,381.116a.5.5,0,0,0-.5.5v2.09a.5.5,0,1,0,1,0v-2.09A.5.5,0,0,0,32.54,381.116Z" transform="translate(-32.04 -381.116)"/></g><g transform="translate(2.002 19.654)"><path class="a" d="M32.54,314.2a.5.5,0,0,0-.5.5v2.091a.5.5,0,1,0,1,0V314.7A.5.5,0,0,0,32.54,314.2Z" transform="translate(-32.04 -314.196)"/></g><g transform="translate(2.002 7.11)"><path class="a" d="M32.54,113.476a.5.5,0,0,0-.5.5v2.091a.5.5,0,1,0,1,0v-2.091A.5.5,0,0,0,32.54,113.476Z" transform="translate(-32.04 -113.476)"/></g><g transform="translate(0 0.02)"><g transform="translate(0 0)"><path class="a" d="M4.955,2.022A2.5,2.5,0,1,0,2,4.97v.55a.5.5,0,1,0,1,0V4.97A2.5,2.5,0,0,0,4.955,2.022ZM2.5,4.02A1.5,1.5,0,1,1,4,2.52,1.5,1.5,0,0,1,2.5,4.02Z" transform="translate(0 -0.02)"/></g></g><g transform="translate(13.001 0.02)"><g transform="translate(0 0)"><path class="a" d="M216.539.02a8.5,8.5,0,0,0-8.5,8.5c0,4.534,7.77,14.863,8.1,15.3l.4.529.4-.527c.329-.437,8.1-10.767,8.1-15.3A8.5,8.5,0,0,0,216.539.02Zm0,22.657c-1.605-2.2-7.5-10.511-7.5-14.157a7.5,7.5,0,1,1,15,0C224.039,12.166,218.145,20.481,216.539,22.677Z" transform="translate(-208.04 -0.02)"/></g></g><g transform="translate(18.001 5.02)"><path class="a" d="M291.54,80.02a3.5,3.5,0,1,0,3.5,3.5A3.5,3.5,0,0,0,291.54,80.02Zm0,6a2.5,2.5,0,1,1,2.5-2.5A2.5,2.5,0,0,1,291.54,86.02Z" transform="translate(-288.04 -80.02)"/></g></g></svg>