<svg xmlns="http://www.w3.org/2000/svg" width="20.739" height="30" viewBox="0 0 20.739 30"><defs><style>.a{fill:#0d0d0d;}</style></defs><g transform="translate(-78.291)"><path class="a" d="M81.932,21.256a.444.444,0,0,0,.887,0V8.675a4.346,4.346,0,0,0,4.086-3.588h6.8a.444.444,0,0,0,0-.887H86.967a4.339,4.339,0,1,0-5.035,4.423ZM79.178,4.34a3.453,3.453,0,1,1,3.453,3.453A3.457,3.457,0,0,1,79.178,4.34Z"/><path class="a" d="M155.13,71.008h-1.282a.444.444,0,0,0,0,.887h1.282a.929.929,0,0,1,.928.928V92.429H140.734V89.817a.444.444,0,1,0-.887,0v5.176a1.817,1.817,0,0,0,1.815,1.815H155.13a1.817,1.817,0,0,0,1.815-1.815V72.823A1.817,1.817,0,0,0,155.13,71.008Zm.928,23.985a.929.929,0,0,1-.928.928H141.662a.929.929,0,0,1-.928-.928V93.316h15.324Z" transform="translate(-57.915 -66.808)"/><path class="a" d="M201.638,197a2.321,2.321,0,0,0-2.319,2.319V207.5a1.432,1.432,0,0,1-2.863,0V201.17a2.914,2.914,0,0,0,1.126-2.11,1.57,1.57,0,1,0-3.139,0,2.914,2.914,0,0,0,1.126,2.11V207.5a2.319,2.319,0,0,0,4.637,0v-8.182a1.431,1.431,0,0,1,2.863,0V205.6a1.572,1.572,0,0,0-1.126,1.505,3.068,3.068,0,0,0,1.32,2.26.444.444,0,0,0,.5,0,3.068,3.068,0,0,0,1.32-2.26,1.572,1.572,0,0,0-1.126-1.505v-6.281A2.321,2.321,0,0,0,201.638,197Zm-5.625,1.375a.683.683,0,0,1,.682.682,1.935,1.935,0,0,1-.682,1.317,1.943,1.943,0,0,1-.683-1.317A.683.683,0,0,1,196.013,198.377Zm8.183,8.73a1.936,1.936,0,0,1-.682,1.318,1.935,1.935,0,0,1-.682-1.318.682.682,0,1,1,1.365,0Z" transform="translate(-109.282 -185.35)"/><path class="a" d="M223.072,107.143a.444.444,0,0,0,.444-.444,3.862,3.862,0,0,0-7.723,0,.444.444,0,1,0,.887,0,2.974,2.974,0,0,1,5.949,0A.444.444,0,0,0,223.072,107.143Z" transform="translate(-129.369 -96.756)"/><path class="a" d="M247.119,128.251a2.137,2.137,0,0,0-2.135,2.135.444.444,0,1,0,.887,0,1.248,1.248,0,1,1,2.5,0,.444.444,0,1,0,.887,0A2.137,2.137,0,0,0,247.119,128.251Z" transform="translate(-156.834 -120.666)"/><path class="a" d="M125.745,50.785a.444.444,0,0,0-.627.025l-1.312,1.421-.588-.732a.444.444,0,1,0-.692.555l.91,1.133a.444.444,0,0,0,.331.166h.015a.444.444,0,0,0,.326-.143l1.661-1.8A.444.444,0,0,0,125.745,50.785Z" transform="translate(-41.527 -47.671)"/></g></svg>