<svg id="Average_Fleet_Score" data-name="Average Fleet Score" xmlns="http://www.w3.org/2000/svg" xmlns:xlink="http://www.w3.org/1999/xlink" width="188.991" height="139.163" viewBox="0 0 188.991 139.163">
  <defs>
    <linearGradient id="linear-gradient" x1="0.5" y1="1" x2="0.5" gradientUnits="objectBoundingBox">
      <stop offset="0" stop-color="gray" stop-opacity="0.251"/>
      <stop offset="0.54" stop-color="gray" stop-opacity="0.122"/>
      <stop offset="1" stop-color="gray" stop-opacity="0.102"/>
    </linearGradient>
    <linearGradient id="linear-gradient-2" y1="1" y2="-0.001" xlink:href="#linear-gradient"/>
    <linearGradient id="linear-gradient-3" y1="0.999" xlink:href="#linear-gradient"/>
    <linearGradient id="linear-gradient-4" y1="1" xlink:href="#linear-gradient"/>
    <linearGradient id="linear-gradient-5" y1="1" xlink:href="#linear-gradient"/>
    <linearGradient id="linear-gradient-6" y1="1" xlink:href="#linear-gradient"/>
    <linearGradient id="linear-gradient-8" y1="1" xlink:href="#linear-gradient"/>
    <linearGradient id="linear-gradient-9" y1="1.001" xlink:href="#linear-gradient"/>
    <linearGradient id="linear-gradient-10" y1="1" xlink:href="#linear-gradient"/>
    <linearGradient id="linear-gradient-12" x1="0.499" y1="1" x2="0.499" xlink:href="#linear-gradient"/>
    <linearGradient id="linear-gradient-15" y1="1" xlink:href="#linear-gradient"/>
    <linearGradient id="linear-gradient-16" y1="1" xlink:href="#linear-gradient"/>
    <linearGradient id="linear-gradient-17" y1="1" xlink:href="#linear-gradient"/>
    <linearGradient id="linear-gradient-18" x1="0.499" y1="1" x2="0.499" xlink:href="#linear-gradient"/>
    <linearGradient id="linear-gradient-21" y1="1" xlink:href="#linear-gradient"/>
    <linearGradient id="linear-gradient-22" y1="1" xlink:href="#linear-gradient"/>
    <linearGradient id="linear-gradient-26" y1="1" xlink:href="#linear-gradient"/>
    <linearGradient id="linear-gradient-28" y1="1" xlink:href="#linear-gradient"/>
  </defs>
  <path id="Path_1294" data-name="Path 1294" d="M553.026,80.88c0,25.34-21.168,45.88-43.707,45.88s-45.64-20.54-45.64-45.88S486.781,35,509.32,35,553.026,55.542,553.026,80.88Z" transform="translate(-390.238 -32.405)" fill="url(#linear-gradient)"/>
  <path id="Path_1295" data-name="Path 1295" d="M561.742,91.973c0,24.152-20.177,43.733-41.661,43.733s-43.5-19.579-43.5-43.733S498.6,48.24,520.082,48.24,561.742,67.827,561.742,91.973Z" transform="translate(-401.046 -43.497)" fill="#f36"/>
  <path id="Path_1296" data-name="Path 1296" d="M673.9,673.337a3.086,3.086,0,0,0-6.137,0,2.828,2.828,0,0,0,2.3,2.673v2.162H671.6V676.01A2.832,2.832,0,0,0,673.9,673.337Z" transform="translate(-561.218 -564.897)" fill="url(#linear-gradient-2)"/>
  <path id="Path_1297" data-name="Path 1297" d="M613.413,668.818l-3.108-3.108-.062.062v-.015c-.324-.688-.876-1.113-1.22-.949s-.357.856-.028,1.544a2.633,2.633,0,0,0,.251.42l-.324.324s7.948,7.948,11.052,7.6l.585-2.167S617.9,672.617,613.413,668.818Z" transform="translate(-511.785 -560.033)" fill="url(#linear-gradient-3)"/>
  <circle id="Ellipse_162" data-name="Ellipse 162" cx="2.556" cy="2.556" r="2.556" transform="translate(106.98 105.978)" fill="#f8c198"/>
  <rect id="Rectangle_313" data-name="Rectangle 313" width="1.278" height="2.556" transform="translate(108.897 110.453)" fill="#f8c198"/>
  <rect id="Rectangle_314" data-name="Rectangle 314" width="5.112" height="11.504" rx="2.556" transform="translate(106.98 112.05)" fill="#605b38"/>
  <path id="Path_1298" data-name="Path 1298" d="M624.088,678.7s-2.459.088-6.614-3.429L614.6,672.4l-1.278,1.278s7.351,7.351,10.218,7.031Z" transform="translate(-515.608 -566.422)" fill="#605b38"/>
  <ellipse id="Ellipse_163" data-name="Ellipse 163" cx="0.639" cy="1.278" rx="0.639" ry="1.278" transform="translate(97.224 105.42) rotate(-25.56)" fill="#f8c198"/>
  <circle id="Ellipse_164" data-name="Ellipse 164" cx="3.346" cy="3.346" r="3.346" transform="translate(118.079 105.404)" fill="url(#linear-gradient-4)"/>
  <circle id="Ellipse_165" data-name="Ellipse 165" cx="3.025" cy="3.025" r="3.025" transform="translate(118.4 105.725)" fill="#f8c198"/>
  <rect id="Rectangle_315" data-name="Rectangle 315" width="1.513" height="3.025" transform="translate(120.668 111.019)" fill="#f8c198"/>
  <path id="Path_1299" data-name="Path 1299" d="M688.492,706.012h-3.747a1.28,1.28,0,0,0-1.044.545c-2.846.37-8.7.941-9.3-.545l-.272.2a3,3,0,0,0-.2-.543c-.376-.785-1-1.27-1.392-1.082s-.407.973-.031,1.761a2.8,2.8,0,0,0,.487.717l-.162.125s5.99,2.522,10.638,2.207v9.516a1.283,1.283,0,0,0,1.28,1.28H688.5a1.283,1.283,0,0,0,1.28-1.28V707.29A1.283,1.283,0,0,0,688.492,706.012Z" transform="translate(-564.968 -593.358)" fill="url(#linear-gradient-5)"/>
  <rect id="Rectangle_316" data-name="Rectangle 316" width="6.05" height="13.613" rx="3.025" transform="translate(118.399 112.91)" fill="#53ad9b"/>
  <path id="Path_1300" data-name="Path 1300" d="M689.822,715.441s-9.643,1.58-10.4-.311l-1.513,1.135s7.185,3.025,11.722,1.891S689.822,715.441,689.822,715.441Z" transform="translate(-569.721 -602.221)" fill="#53ad9b"/>
  <ellipse id="Ellipse_166" data-name="Ellipse 166" cx="0.756" cy="1.513" rx="0.756" ry="1.513" transform="translate(107.233 111.869) rotate(-25.56)" fill="#f8c198"/>
  <path id="Path_1301" data-name="Path 1301" d="M741.279,664.2a.383.383,0,0,1,.38.222,2.26,2.26,0,0,1,1.784-1.194,4.954,4.954,0,0,1,2.2.324,6.448,6.448,0,0,1,2.477,1.409,3.33,3.33,0,0,1,1.056,2.574,5.219,5.219,0,0,1-.735,1.966,2.549,2.549,0,0,1-.8,1.015,1.707,1.707,0,0,1-2.271-.837c-.136-.268-.221-.56-.371-.811a4.759,4.759,0,0,0-2.212-1.513C741.37,666.63,741.258,665.638,741.279,664.2Z" transform="translate(-622.811 -558.712)" fill="url(#linear-gradient-6)"/>
  <rect id="Rectangle_317" data-name="Rectangle 317" width="27.314" height="23.598" transform="translate(103.934 115.565)" fill="url(#linear-gradient)"/>
  <rect id="Rectangle_318" data-name="Rectangle 318" width="25.885" height="22.37" transform="translate(104.744 115.565)" fill="#f5f5f5"/>
  <line id="Line_9" data-name="Line 9" y1="20.441" x2="1.08" transform="translate(130.309 95.124)" fill="none" stroke="#ad7676" stroke-miterlimit="10" stroke-width="2"/>
  <line id="Line_10" data-name="Line 10" x1="1.461" y1="20.441" transform="translate(103.921 95.124)" fill="none" stroke="#ad7676" stroke-miterlimit="10" stroke-width="2"/>
  <path id="Path_1302" data-name="Path 1302" d="M741.32,672.95a3.023,3.023,0,0,1,2.795-3.009c-.076,0-.152-.011-.23-.011a3.025,3.025,0,1,0,0,6.05,1.555,1.555,0,0,0,.23-.011,3.023,3.023,0,0,1-2.795-3.018Z" transform="translate(-622.461 -564.353)" fill="#fff" opacity="0.2"/>
  <path id="Path_1303" data-name="Path 1303" d="M670.387,671.035a3.023,3.023,0,0,1,2.8-3.014c-.076,0-.153-.011-.23-.011a3.025,3.025,0,1,0,0,6.05,1.564,1.564,0,0,0,.23-.011A3.023,3.023,0,0,1,670.387,671.035Z" transform="translate(-563.036 -562.744)" fill="#fff" opacity="0.2"/>
  <path id="Path_1304" data-name="Path 1304" d="M672.983,668.283a3.064,3.064,0,0,1,.457.373c.543.676-.487,1.724-.1,2.5.17.344.576.519.757.856.345.641-.234,1.578.268,2.109.135.141.324.224.43.389.2.324-.081.756-.036,1.135.057.487.589.746,1.048.918.391.146.9.263,1.169-.06.128-.162.153-.375.272-.538.224-.307.675-.308,1-.5a1.725,1.725,0,0,0,.636-1.559,3.106,3.106,0,0,1,.263-1.719c.363-.561,1.117-.77,1.481-1.332.55-.853-.057-2.045.336-2.981a6.5,6.5,0,0,0,.467-.939,1.652,1.652,0,0,0-.649-1.513,9.561,9.561,0,0,1-1.311-1.135,7.643,7.643,0,0,0-.712-.983c-.72-.671-1.865-.431-2.827-.649-.891-.193-1.711-.8-2.618-.7a3.5,3.5,0,0,0-1.966,1.275,1.02,1.02,0,0,0-.308.474c-.162.783.6,1.589.933,2.164C672.4,666.642,672.272,667.688,672.983,668.283Z" transform="translate(-563.951 -557.667)" fill="#fccc63"/>
  <g id="Group_293" data-name="Group 293" transform="translate(107.064 104.304)" opacity="0.2">
    <path id="Path_1305" data-name="Path 1305" d="M671.3,663.979a3.5,3.5,0,0,1,1.966-1.275c.905-.1,1.727.508,2.618.7.962.209,2.109-.031,2.827.649a8.121,8.121,0,0,1,.712.983,10.9,10.9,0,0,0,1.31,1.135,2.093,2.093,0,0,1,.641.954.225.225,0,0,1,.016-.054,1.64,1.64,0,0,0-.657-1.513,9.106,9.106,0,0,1-1.31-1.135,7.638,7.638,0,0,0-.712-.983c-.72-.671-1.865-.431-2.827-.649-.89-.193-1.711-.8-2.618-.7a3.5,3.5,0,0,0-1.966,1.275,1.02,1.02,0,0,0-.308.474,1.231,1.231,0,0,0,.021.538A1.192,1.192,0,0,1,671.3,663.979Z" transform="translate(-670.975 -662.079)" fill="#fff"/>
    <path id="Path_1306" data-name="Path 1306" d="M694.105,743.43a1.511,1.511,0,0,0-.055.487.694.694,0,0,0,.044.175A1.009,1.009,0,0,0,694.105,743.43Z" transform="translate(-690.306 -730.235)" fill="#fff"/>
    <path id="Path_1307" data-name="Path 1307" d="M690.371,729.59a2.969,2.969,0,0,0-.019.811,3.033,3.033,0,0,0,.019-.811Z" transform="translate(-687.193 -718.64)" fill="#fff"/>
    <path id="Path_1308" data-name="Path 1308" d="M731.509,706.9a7.543,7.543,0,0,0-.028-1.057A7.506,7.506,0,0,0,731.509,706.9Z" transform="translate(-721.662 -698.742)" fill="#fff"/>
    <path id="Path_1309" data-name="Path 1309" d="M719.48,735.471v-.261C719.482,735.3,719.48,735.385,719.48,735.471Z" transform="translate(-711.613 -723.349)" fill="#fff"/>
    <path id="Path_1310" data-name="Path 1310" d="M685.073,708.42c-.117.511-.414,1.072-.268,1.549C684.919,709.435,685.231,708.872,685.073,708.42Z" transform="translate(-682.529 -700.904)" fill="#fff"/>
  </g>
  <path id="Path_1311" data-name="Path 1311" d="M742.689,665.457a.36.36,0,0,1,.357.209,2.116,2.116,0,0,1,1.687-1.126,4.637,4.637,0,0,1,2.076.307,6.081,6.081,0,0,1,2.334,1.328,3.122,3.122,0,0,1,.994,2.433,4.926,4.926,0,0,1-.693,1.852,2.413,2.413,0,0,1-.753.957,1.615,1.615,0,0,1-2.143-.788c-.128-.251-.208-.527-.35-.77a4.5,4.5,0,0,0-2.084-1.426C742.773,667.754,742.668,666.818,742.689,665.457Z" transform="translate(-623.991 -559.816)" fill="#263238"/>
  <path id="Path_1312" data-name="Path 1312" d="M742.694,665.774a.36.36,0,0,1,.357.209,2.116,2.116,0,0,1,1.687-1.126,4.638,4.638,0,0,1,2.076.307,6.08,6.08,0,0,1,2.334,1.328,3.244,3.244,0,0,1,1,2.053,3.14,3.14,0,0,0-1-2.36,6.15,6.15,0,0,0-2.334-1.328,4.64,4.64,0,0,0-2.076-.307,2.14,2.14,0,0,0-1.687,1.126.36.36,0,0,0-.357-.209v.383A.588.588,0,0,1,742.694,665.774Z" transform="translate(-623.997 -559.825)" fill="#fff" opacity="0.2"/>
  <rect id="Rectangle_319" data-name="Rectangle 319" width="9.667" height="3.375" transform="translate(112.362 93.742)" fill="#f36"/>
  <g id="Group_294" data-name="Group 294" transform="translate(117.5 4.59)" opacity="0.2">
    <path id="Path_1313" data-name="Path 1313" d="M736.856,47.3c-.513,0-1.023.015-1.536.037,20.9.9,40.129,20.112,40.129,43.7s-19.23,42.793-40.129,43.7c.513.023,1.025.037,1.536.037,21.483,0,41.661-19.58,41.661-43.732S758.339,47.3,736.856,47.3Z" transform="translate(-735.32 -47.3)"/>
  </g>
  <g id="Group_295" data-name="Group 295" transform="translate(76.147 4.743)" opacity="0.2">
    <path id="Path_1314" data-name="Path 1314" d="M482.2,91.973c0-23.807,21.393-43.171,42.581-43.72-.307,0-.613-.013-.92-.013-21.483,0-43.5,19.587-43.5,43.732s22.02,43.733,43.5,43.733c.307,0,.613,0,.92-.013C503.6,135.137,482.2,115.781,482.2,91.973Z" transform="translate(-480.36 -48.24)" fill="#fff"/>
  </g>
  <rect id="Rectangle_320" data-name="Rectangle 320" width="27.774" height="9.054" transform="translate(103.769 86.07)" fill="#f36"/>
  <path id="Path_1315" data-name="Path 1315" d="M574.912,53.822s-32.99,37.709,0,81.1l10.895-.037s-30.076-35.845-1.38-83.782l-5.37,1.225Z" transform="translate(-471.145 -45.894)" fill="#fff" opacity="0.2"/>
  <path id="Path_1316" data-name="Path 1316" d="M771.295,51.654s32.99,38.278,0,81.671l-10.895-.037s30.076-36.15,1.38-84.088l5.367,1.072Z" transform="translate(-638.832 -44.302)" fill="#fff" opacity="0.2"/>
  <path id="Path_1317" data-name="Path 1317" d="M305.505,46.61a4.951,4.951,0,0,1-4.782,4.887,5.14,5.14,0,0,1-4.994-4.889,5.139,5.139,0,0,1,4.994-4.889A4.954,4.954,0,0,1,305.505,46.61Z" transform="translate(-249.529 -38.035)" fill="url(#linear-gradient-8)"/>
  <path id="Path_1318" data-name="Path 1318" d="M306.458,47.8a4.721,4.721,0,0,1-4.558,4.66,4.661,4.661,0,1,1,0-9.32A4.721,4.721,0,0,1,306.458,47.8Z" transform="translate(-250.71 -39.225)" fill="#f36"/>
  <rect id="Rectangle_321" data-name="Rectangle 321" width="2.989" height="2.514" transform="translate(49.537 15.725)" fill="url(#linear-gradient-9)"/>
  <rect id="Rectangle_322" data-name="Rectangle 322" width="2.832" height="2.384" transform="translate(49.627 15.725)" fill="#f36"/>
  <line id="Line_11" data-name="Line 11" y1="2.178" x2="0.118" transform="translate(52.423 13.546)" fill="none" stroke="#ad7676" stroke-miterlimit="10" stroke-width="2"/>
  <line id="Line_12" data-name="Line 12" x1="0.161" y1="2.178" transform="translate(49.536 13.546)" fill="none" stroke="#ad7676" stroke-miterlimit="10" stroke-width="2"/>
  <g id="Group_296" data-name="Group 296" transform="translate(50.224 15.692)" opacity="0.2">
    <path id="Path_1319" data-name="Path 1319" d="M320.989,117.22a.161.161,0,0,0,0,.052.073.073,0,0,0,0,.018A.106.106,0,0,0,320.989,117.22Z" transform="translate(-320.913 -116.982)" fill="#fff"/>
    <path id="Path_1320" data-name="Path 1320" d="M320.534,115.75a.3.3,0,0,0,0,.086A.317.317,0,0,0,320.534,115.75Z" transform="translate(-320.531 -115.75)" fill="#fff"/>
    <path id="Path_1321" data-name="Path 1321" d="M323.72,116.378v0Z" transform="translate(-323.203 -116.253)" fill="#fff"/>
  </g>
  <rect id="Rectangle_323" data-name="Rectangle 323" width="1.058" height="0.36" transform="translate(50.459 13.401)" fill="#f36"/>
  <g id="Group_297" data-name="Group 297" transform="translate(51.028 3.893)" opacity="0.2">
    <path id="Path_1322" data-name="Path 1322" d="M325.652,43h-.162a4.665,4.665,0,0,1,0,9.313h.162a4.658,4.658,0,0,0,0-9.313Z" transform="translate(-325.49 -43)"/>
  </g>
  <g id="Group_298" data-name="Group 298" transform="translate(46.496 3.917)" opacity="0.2">
    <path id="Path_1323" data-name="Path 1323" d="M297.753,47.808a4.9,4.9,0,0,1,4.658-4.658h-.1a4.661,4.661,0,1,0,0,9.32h.1A4.9,4.9,0,0,1,297.753,47.808Z" transform="translate(-297.55 -43.15)" fill="#fff"/>
  </g>
  <rect id="Rectangle_324" data-name="Rectangle 324" width="3.04" height="0.965" transform="translate(49.52 12.581)" fill="#f36"/>
  <path id="Path_1324" data-name="Path 1324" d="M307.9,43.789a6.69,6.69,0,0,0,0,8.642h1.192a7.589,7.589,0,0,1-.151-8.921l-.587.131Z" transform="translate(-258.382 -39.535)" fill="#fff" opacity="0.2"/>
  <path id="Path_1325" data-name="Path 1325" d="M329.382,43.528a6.785,6.785,0,0,1,0,8.7H328.19a7.658,7.658,0,0,0,.151-8.961l.587.115Z" transform="translate(-276.724 -39.334)" fill="#fff" opacity="0.2"/>
  <path id="Path_1326" data-name="Path 1326" d="M68.44,480.687a6.929,6.929,0,0,1-6.686,6.836,6.838,6.838,0,1,1,0-13.673A6.933,6.933,0,0,1,68.44,480.687Z" transform="translate(-47.66 -400.076)" fill="url(#linear-gradient-10)"/>
  <path id="Path_1327" data-name="Path 1327" d="M69.733,482.345a6.6,6.6,0,0,1-6.373,6.515,6.517,6.517,0,1,1,0-13.031A6.606,6.606,0,0,1,69.733,482.345Z" transform="translate(-49.277 -401.735)" fill="#4d8af0"/>
  <rect id="Rectangle_325" data-name="Rectangle 325" width="4.178" height="3.516" transform="translate(11.777 90.608)" fill="url(#linear-gradient)"/>
  <rect id="Rectangle_326" data-name="Rectangle 326" width="3.959" height="3.333" transform="translate(11.9 90.608)" fill="#f36"/>
  <line id="Line_13" data-name="Line 13" y1="3.044" x2="0.165" transform="translate(15.812 87.564)" fill="none" stroke="#ad7676" stroke-miterlimit="10" stroke-width="2"/>
  <line id="Line_14" data-name="Line 14" x1="0.224" y1="3.044" transform="translate(11.775 87.564)" fill="none" stroke="#ad7676" stroke-miterlimit="10" stroke-width="2"/>
  <g id="Group_299" data-name="Group 299" transform="translate(12.738 90.563)" opacity="0.2">
    <path id="Path_1328" data-name="Path 1328" d="M89.954,579.42a.219.219,0,0,0-.008.073.1.1,0,0,0,0,.026A.147.147,0,0,0,89.954,579.42Z" transform="translate(-89.859 -579.086)" fill="#fff"/>
    <path id="Path_1329" data-name="Path 1329" d="M89.418,577.36a.429.429,0,0,0,0,.12A.441.441,0,0,0,89.418,577.36Z" transform="translate(-89.414 -577.36)" fill="#fff"/>
    <path id="Path_1330" data-name="Path 1330" d="M93.86,578.239v0Z" transform="translate(-93.139 -578.064)" fill="#fff"/>
  </g>
  <rect id="Rectangle_327" data-name="Rectangle 327" width="1.479" height="0.503" transform="translate(13.066 87.358)" fill="#4d8af0"/>
  <g id="Group_300" data-name="Group 300" transform="translate(13.851 74.074)" opacity="0.2">
    <path id="Path_1331" data-name="Path 1331" d="M96.515,475.7H96.28a6.523,6.523,0,0,1,0,13.024h.235a6.514,6.514,0,0,0,0-13.024Z" transform="translate(-96.28 -475.7)"/>
  </g>
  <g id="Group_301" data-name="Group 301" transform="translate(7.527 74.097)" opacity="0.2">
    <path id="Path_1332" data-name="Path 1332" d="M57.567,482.354a6.853,6.853,0,0,1,6.514-6.514H63.94a6.517,6.517,0,1,0,0,13.031h.141A6.858,6.858,0,0,1,57.567,482.354Z" transform="translate(-57.29 -475.84)" fill="#fff"/>
  </g>
  <rect id="Rectangle_328" data-name="Rectangle 328" width="4.249" height="1.349" transform="translate(11.751 86.215)" fill="#4d8af0"/>
  <path id="Path_1333" data-name="Path 1333" d="M71.742,476.666a9.356,9.356,0,0,0,0,12.083H73.41s-4.6-5.341-.211-12.489l-.822.183Z" transform="translate(-59.991 -402.095)" fill="#fff" opacity="0.2"/>
  <path id="Path_1334" data-name="Path 1334" d="M101.787,476.363a9.483,9.483,0,0,1,0,12.165H100.12s4.6-5.391.211-12.528l.822.162Z" transform="translate(-85.646 -401.877)" fill="#fff" opacity="0.2"/>
  <path id="Path_1335" data-name="Path 1335" d="M369.42,409.8a7.9,7.9,0,0,1-7.631,7.8c-3.935,0-7.969-3.494-7.969-7.8s4.026-7.8,7.961-7.8A7.912,7.912,0,0,1,369.42,409.8Z" transform="translate(-298.197 -339.88)" fill="url(#linear-gradient-12)"/>
  <path id="Path_1336" data-name="Path 1336" d="M370.873,411.687a7.538,7.538,0,0,1-7.273,7.445,7.442,7.442,0,1,1,0-14.881A7.537,7.537,0,0,1,370.873,411.687Z" transform="translate(-300.023 -341.765)" fill="#47e6b1"/>
  <rect id="Rectangle_329" data-name="Rectangle 329" width="4.769" height="4.013" transform="translate(60.94 81.332)" fill="url(#linear-gradient)"/>
  <rect id="Rectangle_330" data-name="Rectangle 330" width="4.52" height="3.803" transform="translate(61.081 81.332)" fill="#f2f2f2"/>
  <line id="Line_15" data-name="Line 15" y1="3.477" x2="0.188" transform="translate(65.544 77.855)" fill="none" stroke="#ad7676" stroke-miterlimit="10" stroke-width="2"/>
  <line id="Line_16" data-name="Line 16" x1="0.255" y1="3.477" transform="translate(60.938 77.855)" fill="none" stroke="#ad7676" stroke-miterlimit="10" stroke-width="2"/>
  <g id="Group_302" data-name="Group 302" transform="translate(62.036 81.279)" opacity="0.2">
    <path id="Path_1337" data-name="Path 1337" d="M394.005,522.47a.249.249,0,0,0-.01.083.117.117,0,0,0,0,.029A.162.162,0,0,0,394.005,522.47Z" transform="translate(-393.891 -522.089)" fill="#fff"/>
    <path id="Path_1338" data-name="Path 1338" d="M393.365,520.12a.487.487,0,0,0,0,.138A.5.5,0,0,0,393.365,520.12Z" transform="translate(-393.36 -520.12)" fill="#fff"/>
    <path id="Path_1339" data-name="Path 1339" d="M398.44,521.124v0Z" transform="translate(-397.616 -520.924)" fill="#fff"/>
  </g>
  <rect id="Rectangle_331" data-name="Rectangle 331" width="1.688" height="0.574" transform="translate(62.411 77.621)" fill="#47e6b1"/>
  <g id="Group_303" data-name="Group 303" transform="translate(63.309 62.459)" opacity="0.2">
    <path id="Path_1340" data-name="Path 1340" d="M401.478,404.09h-.268a7.443,7.443,0,0,1,0,14.86h.268a7.432,7.432,0,0,0,0-14.86Z" transform="translate(-401.21 -404.09)"/>
  </g>
  <g id="Group_304" data-name="Group 304" transform="translate(56.087 62.487)" opacity="0.2">
    <path id="Path_1341" data-name="Path 1341" d="M357,411.7a7.815,7.815,0,0,1,7.435-7.435h-.162a7.441,7.441,0,1,0,0,14.88h.162C360.738,419.038,357,415.745,357,411.7Z" transform="translate(-356.68 -404.26)" fill="#fff"/>
  </g>
  <rect id="Rectangle_332" data-name="Rectangle 332" width="4.85" height="1.539" transform="translate(60.911 76.316)" fill="#47e6b1"/>
  <path id="Path_1342" data-name="Path 1342" d="M373.194,405.211a10.672,10.672,0,0,0,0,13.786h1.9s-5.252-6.1-.242-14.247l-.937.2Z" transform="translate(-312.283 -342.183)" fill="#fff" opacity="0.2"/>
  <path id="Path_1343" data-name="Path 1343" d="M407.483,404.872a10.829,10.829,0,0,1,0,13.889h-1.9s5.252-6.147.242-14.3l.937.183Z" transform="translate(-341.562 -341.941)" fill="#fff" opacity="0.2"/>
  <path id="Path_1344" data-name="Path 1344" d="M257.773,86.449a5.793,5.793,0,0,1-5.515,5.789,5.789,5.789,0,0,1,0-11.577A5.8,5.8,0,0,1,257.773,86.449Z" transform="translate(-208.284 -70.659)" fill="url(#linear-gradient)"/>
  <path id="Path_1345" data-name="Path 1345" d="M258.865,87.865a5.517,5.517,0,0,1-5.257,5.515,5.515,5.515,0,0,1,0-11.029A5.519,5.519,0,0,1,258.865,87.865Z" transform="translate(-209.641 -72.075)" fill="#47e6b1"/>
  <rect id="Rectangle_333" data-name="Rectangle 333" width="3.447" height="2.978" transform="translate(42.064 24.253)" fill="url(#linear-gradient-15)"/>
  <rect id="Rectangle_334" data-name="Rectangle 334" width="3.265" height="2.822" transform="translate(42.166 24.253)" fill="#e6e6e6"/>
  <line id="Line_17" data-name="Line 17" y1="2.579" x2="0.136" transform="translate(45.392 21.674)" fill="none" stroke="#ad7676" stroke-miterlimit="10" stroke-width="2"/>
  <line id="Line_18" data-name="Line 18" x1="0.185" y1="2.579" transform="translate(42.062 21.674)" fill="none" stroke="#ad7676" stroke-miterlimit="10" stroke-width="2"/>
  <g id="Group_305" data-name="Group 305" transform="translate(42.856 24.214)" opacity="0.2">
    <path id="Path_1346" data-name="Path 1346" d="M275.6,170a.192.192,0,0,0,0,.062.088.088,0,0,0,0,.023.128.128,0,0,0,0-.084Z" transform="translate(-275.516 -169.723)" fill="#fff"/>
    <path id="Path_1347" data-name="Path 1347" d="M275.112,168.29a.374.374,0,0,0,0,.1A.382.382,0,0,0,275.112,168.29Z" transform="translate(-275.108 -168.29)" fill="#fff"/>
    <path id="Path_1348" data-name="Path 1348" d="M278.78,169.032v0Z" transform="translate(-278.184 -168.885)" fill="#fff"/>
  </g>
  <rect id="Rectangle_335" data-name="Rectangle 335" width="1.22" height="0.427" transform="translate(43.128 21.501)" fill="#47e6b1"/>
  <g id="Group_306" data-name="Group 306" transform="translate(43.781 10.252)" opacity="0.2">
    <path id="Path_1349" data-name="Path 1349" d="M281,82.21h-.193a5.535,5.535,0,0,1,0,11.029H281a5.521,5.521,0,0,0,0-11.029Z" transform="translate(-280.81 -82.21)"/>
  </g>
  <g id="Group_307" data-name="Group 307" transform="translate(38.55 10.275)" opacity="0.2">
    <path id="Path_1350" data-name="Path 1350" d="M248.794,87.865a5.726,5.726,0,0,1,5.372-5.515h-.117a5.515,5.515,0,0,0,0,11.029h.117A5.731,5.731,0,0,1,248.794,87.865Z" transform="translate(-248.56 -82.35)" fill="#fff"/>
  </g>
  <rect id="Rectangle_336" data-name="Rectangle 336" width="3.503" height="1.142" transform="translate(42.042 20.532)" fill="#47e6b1"/>
  <path id="Path_1351" data-name="Path 1351" d="M260.535,83.034a8.079,8.079,0,0,0,0,10.231h1.374s-3.794-4.524-.174-10.575l-.678.162Z" transform="translate(-218.493 -72.36)" fill="#fff" opacity="0.2"/>
  <path id="Path_1352" data-name="Path 1352" d="M285.314,82.785a8.2,8.2,0,0,1,0,10.3H283.94s3.794-4.561.174-10.609l.678.136Z" transform="translate(-239.651 -72.184)" fill="#fff" opacity="0.2"/>
  <path id="Path_1353" data-name="Path 1353" d="M18.847,50.7a4.09,4.09,0,0,1-3.893,4.084,4.087,4.087,0,0,1,0-8.173A4.083,4.083,0,0,1,18.847,50.7Z" transform="translate(-10.88 -42.132)" fill="url(#linear-gradient-16)"/>
  <path id="Path_1354" data-name="Path 1354" d="M19.594,51.713a3.9,3.9,0,0,1-3.713,3.893,3.893,3.893,0,0,1,0-7.785A3.9,3.9,0,0,1,19.594,51.713Z" transform="translate(-11.818 -43.146)" fill="#f36"/>
  <rect id="Rectangle_337" data-name="Rectangle 337" width="2.435" height="2.102" transform="translate(2.717 14.546)" fill="url(#linear-gradient-17)"/>
  <rect id="Rectangle_338" data-name="Rectangle 338" width="2.306" height="1.993" transform="translate(2.79 14.546)" fill="#f36"/>
  <line id="Line_19" data-name="Line 19" y1="1.823" x2="0.097" transform="translate(5.067 12.723)" fill="none" stroke="#ad7676" stroke-miterlimit="10" stroke-width="2"/>
  <line id="Line_20" data-name="Line 20" x1="0.13" y1="1.823" transform="translate(2.717 12.723)" fill="none" stroke="#ad7676" stroke-miterlimit="10" stroke-width="2"/>
  <g id="Group_308" data-name="Group 308" transform="translate(3.277 14.516)" opacity="0.2">
    <path id="Path_1355" data-name="Path 1355" d="M31.431,109.74a.135.135,0,0,0,0,.044.062.062,0,0,0,0,.016A.091.091,0,0,0,31.431,109.74Z" transform="translate(-31.373 -109.539)" fill="#fff"/>
    <path id="Path_1356" data-name="Path 1356" d="M31.088,108.5a.264.264,0,0,0,0,.071A.271.271,0,0,0,31.088,108.5Z" transform="translate(-31.085 -108.5)" fill="#fff"/>
    <path id="Path_1357" data-name="Path 1357" d="M33.67,109.066v-.016h0Z" transform="translate(-33.251 -108.961)" fill="#fff"/>
  </g>
  <rect id="Rectangle_339" data-name="Rectangle 339" width="0.861" height="0.3" transform="translate(3.468 12.601)" fill="#f36"/>
  <g id="Group_309" data-name="Group 309" transform="translate(3.927 4.655)" opacity="0.2">
    <path id="Path_1358" data-name="Path 1358" d="M35.226,47.7H35.09a3.907,3.907,0,0,1,0,7.785h.136a3.9,3.9,0,0,0,0-7.785Z" transform="translate(-35.09 -47.7)"/>
  </g>
  <g id="Group_310" data-name="Group 310" transform="translate(0.24 4.674)" opacity="0.2">
    <path id="Path_1359" data-name="Path 1359" d="M12.525,51.713a4.04,4.04,0,0,1,3.794-3.893h-.083a3.893,3.893,0,0,0,0,7.785h.083A4.041,4.041,0,0,1,12.525,51.713Z" transform="translate(-12.36 -47.82)" fill="#fff"/>
  </g>
  <rect id="Rectangle_340" data-name="Rectangle 340" width="2.475" height="0.806" transform="translate(2.702 11.916)" fill="#f36"/>
  <path id="Path_1360" data-name="Path 1360" d="M20.789,48.25a5.706,5.706,0,0,0,0,7.227h.973A6.5,6.5,0,0,1,21.637,48l-.487.109Z" transform="translate(-18.087 -43.296)" fill="#fff" opacity="0.2"/>
  <path id="Path_1361" data-name="Path 1361" d="M38.273,48.106a5.785,5.785,0,0,1,0,7.278H37.3a6.54,6.54,0,0,0,.123-7.493l.487.1Z" transform="translate(-33.015 -43.204)" fill="#fff" opacity="0.2"/>
  <path id="Path_1362" data-name="Path 1362" d="M435.889,37.7A4.09,4.09,0,0,1,432,41.783a4.087,4.087,0,0,1,0-8.173A4.083,4.083,0,0,1,435.889,37.7Z" transform="translate(-360.287 -31.24)" fill="url(#linear-gradient-18)"/>
  <path id="Path_1363" data-name="Path 1363" d="M436.594,38.713a3.9,3.9,0,0,1-3.713,3.893,3.893,3.893,0,0,1,0-7.785A3.9,3.9,0,0,1,436.594,38.713Z" transform="translate(-361.183 -32.254)" fill="#f55f44"/>
  <rect id="Rectangle_341" data-name="Rectangle 341" width="2.435" height="2.102" transform="translate(70.352 12.437)" fill="url(#linear-gradient-17)"/>
  <rect id="Rectangle_342" data-name="Rectangle 342" width="2.306" height="1.993" transform="translate(70.425 12.437)" fill="#e6e6e6"/>
  <line id="Line_21" data-name="Line 21" y1="1.823" x2="0.097" transform="translate(72.702 10.614)" fill="none" stroke="#ad7676" stroke-miterlimit="10" stroke-width="2"/>
  <line id="Line_22" data-name="Line 22" x1="0.13" y1="1.823" transform="translate(70.352 10.614)" fill="none" stroke="#ad7676" stroke-miterlimit="10" stroke-width="2"/>
  <g id="Group_311" data-name="Group 311" transform="translate(70.912 12.408)" opacity="0.2">
    <path id="Path_1364" data-name="Path 1364" d="M448.431,96.74a.135.135,0,0,0,0,.044.06.06,0,0,0,0,.016A.091.091,0,0,0,448.431,96.74Z" transform="translate(-448.373 -96.539)" fill="#fff"/>
    <path id="Path_1365" data-name="Path 1365" d="M448.088,95.5a.264.264,0,0,0,0,.071A.271.271,0,0,0,448.088,95.5Z" transform="translate(-448.085 -95.5)" fill="#fff"/>
    <path id="Path_1366" data-name="Path 1366" d="M450.67,96.066V96.05h0Z" transform="translate(-450.251 -95.961)" fill="#fff"/>
  </g>
  <rect id="Rectangle_343" data-name="Rectangle 343" width="0.861" height="0.3" transform="translate(71.103 10.492)" fill="#f55f44"/>
  <g id="Group_312" data-name="Group 312" transform="translate(71.562 2.546)" opacity="0.2">
    <path id="Path_1367" data-name="Path 1367" d="M452.226,34.7h-.136a3.907,3.907,0,0,1,0,7.785h.136a3.9,3.9,0,0,0,0-7.785Z" transform="translate(-452.09 -34.7)"/>
  </g>
  <g id="Group_313" data-name="Group 313" transform="translate(67.875 2.566)" opacity="0.2">
    <path id="Path_1368" data-name="Path 1368" d="M429.525,38.713a4.04,4.04,0,0,1,3.794-3.893h-.083a3.893,3.893,0,0,0,0,7.785h.083A4.041,4.041,0,0,1,429.525,38.713Z" transform="translate(-429.36 -34.82)" fill="#fff"/>
  </g>
  <rect id="Rectangle_344" data-name="Rectangle 344" width="2.475" height="0.806" transform="translate(70.337 9.808)" fill="#f55f44"/>
  <path id="Path_1369" data-name="Path 1369" d="M437.789,35.25a5.706,5.706,0,0,0,0,7.227h.973A6.5,6.5,0,0,1,438.637,35l-.487.109Z" transform="translate(-367.452 -32.405)" fill="#fff" opacity="0.2"/>
  <path id="Path_1370" data-name="Path 1370" d="M455.273,35.106a5.785,5.785,0,0,1,0,7.278H454.3a6.54,6.54,0,0,0,.123-7.493l.487.1Z" transform="translate(-382.38 -32.313)" fill="#fff" opacity="0.2"/>
  <path id="Path_1371" data-name="Path 1371" d="M78.207,218.848a6.071,6.071,0,0,1-5.781,6.068,6.068,6.068,0,0,1,0-12.135A6.071,6.071,0,0,1,78.207,218.848Z" transform="translate(-57.387 -181.35)" fill="url(#linear-gradient)"/>
  <path id="Path_1372" data-name="Path 1372" d="M79.338,220.314a5.787,5.787,0,0,1-5.515,5.784,5.784,5.784,0,0,1,0-11.568A5.8,5.8,0,0,1,79.338,220.314Z" transform="translate(-58.794 -182.816)" fill="#f55f44"/>
  <rect id="Rectangle_345" data-name="Rectangle 345" width="3.612" height="3.121" transform="translate(13.037 46.371)" fill="url(#linear-gradient-21)"/>
  <rect id="Rectangle_346" data-name="Rectangle 346" width="3.424" height="2.958" transform="translate(13.144 46.371)" fill="#e6e6e6"/>
  <line id="Line_23" data-name="Line 23" y1="2.704" x2="0.143" transform="translate(16.524 43.668)" fill="none" stroke="#ad7676" stroke-miterlimit="10" stroke-width="2"/>
  <line id="Line_24" data-name="Line 24" x1="0.193" y1="2.704" transform="translate(13.036 43.668)" fill="none" stroke="#ad7676" stroke-miterlimit="10" stroke-width="2"/>
  <g id="Group_314" data-name="Group 314" transform="translate(13.867 46.329)" opacity="0.2">
    <path id="Path_1373" data-name="Path 1373" d="M96.886,306.47a.2.2,0,0,0,0,.065.092.092,0,0,0,0,.023A.135.135,0,0,0,96.886,306.47Z" transform="translate(-96.802 -306.173)" fill="#fff"/>
    <path id="Path_1374" data-name="Path 1374" d="M96.381,304.64a.392.392,0,0,0,0,.107A.4.4,0,0,0,96.381,304.64Z" transform="translate(-96.377 -304.64)" fill="#fff"/>
    <path id="Path_1375" data-name="Path 1375" d="M100.22,305.424v0Z" transform="translate(-99.597 -305.268)" fill="#fff"/>
  </g>
  <rect id="Rectangle_347" data-name="Rectangle 347" width="1.278" height="0.446" transform="translate(14.151 43.484)" fill="#f55f44"/>
  <g id="Group_315" data-name="Group 315" transform="translate(14.831 31.693)" opacity="0.2">
    <path id="Path_1376" data-name="Path 1376" d="M102.523,214.4h-.2a5.8,5.8,0,0,1,0,11.564h.2a5.789,5.789,0,0,0,0-11.564Z" transform="translate(-102.32 -214.4)"/>
  </g>
  <g id="Group_316" data-name="Group 316" transform="translate(9.362 31.716)" opacity="0.2">
    <path id="Path_1377" data-name="Path 1377" d="M68.843,220.322a6.006,6.006,0,0,1,5.631-5.782h-.122a5.784,5.784,0,0,0,0,11.568h.122A6.011,6.011,0,0,1,68.843,220.322Z" transform="translate(-68.6 -214.54)" fill="#fff"/>
  </g>
  <rect id="Rectangle_348" data-name="Rectangle 348" width="3.674" height="1.197" transform="translate(13.014 42.471)" fill="#f55f44"/>
  <path id="Path_1378" data-name="Path 1378" d="M81.1,215.26a8.47,8.47,0,0,0,0,10.726h1.44s-3.977-4.744-.182-11.086l-.71.162Z" transform="translate(-68.089 -183.126)" fill="#fff" opacity="0.2"/>
  <path id="Path_1379" data-name="Path 1379" d="M107.08,215.01a8.592,8.592,0,0,1,0,10.8h-1.44s3.979-4.781.183-11.122l.71.143Z" transform="translate(-90.27 -182.95)" fill="#fff" opacity="0.2"/>
  <path id="Path_1380" data-name="Path 1380" d="M976.633,24.717a5.72,5.72,0,0,1-5.446,5.717,5.928,5.928,0,0,1-5.687-5.717A5.929,5.929,0,0,1,971.187,19,5.721,5.721,0,0,1,976.633,24.717Z" transform="translate(-810.666 -19)" fill="url(#linear-gradient-22)"/>
  <path id="Path_1381" data-name="Path 1381" d="M977.721,26.1a5.453,5.453,0,0,1-5.19,5.45,5.646,5.646,0,0,1-5.421-5.45,5.646,5.646,0,0,1,5.421-5.45A5.452,5.452,0,0,1,977.721,26.1Z" transform="translate(-812.015 -20.382)" fill="#4d8af0"/>
  <rect id="Rectangle_349" data-name="Rectangle 349" width="3.403" height="2.941" transform="translate(158.634 14.077)" fill="url(#linear-gradient)"/>
  <rect id="Rectangle_350" data-name="Rectangle 350" width="3.226" height="2.788" transform="translate(158.735 14.077)" fill="#e6e6e6"/>
  <line id="Line_25" data-name="Line 25" y1="2.548" x2="0.135" transform="translate(161.92 11.529)" fill="none" stroke="#ad7676" stroke-miterlimit="10" stroke-width="2"/>
  <line id="Line_26" data-name="Line 26" x1="0.182" y1="2.548" transform="translate(158.633 11.529)" fill="none" stroke="#ad7676" stroke-miterlimit="10" stroke-width="2"/>
  <g id="Group_317" data-name="Group 317" transform="translate(159.416 14.038)" opacity="0.2">
    <path id="Path_1382" data-name="Path 1382" d="M994.237,107.27a.187.187,0,0,0,0,.062.081.081,0,0,0,0,.021A.127.127,0,0,0,994.237,107.27Z" transform="translate(-994.156 -106.991)" fill="#fff"/>
    <path id="Path_1383" data-name="Path 1383" d="M993.752,105.55a.375.375,0,0,0,0,.1A.38.38,0,0,0,993.752,105.55Z" transform="translate(-993.749 -105.55)" fill="#fff"/>
    <path id="Path_1384" data-name="Path 1384" d="M997.37,106.282v0Z" transform="translate(-996.783 -106.136)" fill="#fff"/>
  </g>
  <rect id="Rectangle_351" data-name="Rectangle 351" width="1.205" height="0.42" transform="translate(159.684 11.357)" fill="#ffcc80"/>
  <g id="Group_318" data-name="Group 318" transform="translate(160.324 0.248)" opacity="0.2">
    <path id="Path_1385" data-name="Path 1385" d="M999.541,20.53h-.191a5.467,5.467,0,0,1,0,10.895h.191a5.454,5.454,0,0,0,0-10.895Z" transform="translate(-999.35 -20.53)"/>
  </g>
  <g id="Group_319" data-name="Group 319" transform="translate(155.172 0.269)" opacity="0.2">
    <path id="Path_1386" data-name="Path 1386" d="M967.81,26.108a5.658,5.658,0,0,1,5.305-5.448H973a5.645,5.645,0,0,0-5.42,5.45,5.645,5.645,0,0,0,5.42,5.45h.115A5.664,5.664,0,0,1,967.81,26.108Z" transform="translate(-967.58 -20.66)" fill="#fff"/>
  </g>
  <rect id="Rectangle_352" data-name="Rectangle 352" width="3.461" height="1.129" transform="translate(158.613 10.402)" fill="#ffcc80"/>
  <path id="Path_1387" data-name="Path 1387" d="M979.365,21.341a7.982,7.982,0,0,0,0,10.1h1.358s-3.748-4.472-.173-10.445l-.67.152Z" transform="translate(-820.751 -20.676)" fill="#fff" opacity="0.2"/>
  <path id="Path_1388" data-name="Path 1388" d="M1003.828,21.092a8.094,8.094,0,0,1,0,10.176h-1.358s3.748-4.5.172-10.478l.67.135Z" transform="translate(-841.64 -20.5)" fill="#fff" opacity="0.2"/>
  <path id="Path_1389" data-name="Path 1389" d="M1112.208,29.848a6.072,6.072,0,0,1-5.781,6.068,6.292,6.292,0,0,1-6.037-6.068,6.292,6.292,0,0,1,6.037-6.068A6.072,6.072,0,0,1,1112.208,29.848Z" transform="translate(-923.677 -23.005)" fill="url(#linear-gradient)"/>
  <path id="Path_1390" data-name="Path 1390" d="M1113.338,31.314a5.787,5.787,0,0,1-5.515,5.784,6,6,0,0,1-5.753-5.784,6.006,6.006,0,0,1,5.753-5.784A5.8,5.8,0,0,1,1113.338,31.314Z" transform="translate(-925.085 -24.471)" fill="#f36"/>
  <rect id="Rectangle_353" data-name="Rectangle 353" width="3.612" height="3.121" transform="translate(180.746 15.717)" fill="url(#linear-gradient-21)"/>
  <rect id="Rectangle_354" data-name="Rectangle 354" width="3.424" height="2.958" transform="translate(180.853 15.717)" fill="#f36"/>
  <line id="Line_27" data-name="Line 27" y1="2.704" x2="0.143" transform="translate(184.234 13.013)" fill="none" stroke="#ad7676" stroke-miterlimit="10" stroke-width="2"/>
  <line id="Line_28" data-name="Line 28" x1="0.193" y1="2.704" transform="translate(180.745 13.013)" fill="none" stroke="#ad7676" stroke-miterlimit="10" stroke-width="2"/>
  <g id="Group_320" data-name="Group 320" transform="translate(181.576 15.674)" opacity="0.2">
    <path id="Path_1391" data-name="Path 1391" d="M1130.886,117.47a.207.207,0,0,0,0,.065.1.1,0,0,0,0,.023.133.133,0,0,0,0-.088Z" transform="translate(-1130.802 -117.173)" fill="#fff"/>
    <path id="Path_1392" data-name="Path 1392" d="M1130.381,115.64a.393.393,0,0,0,0,.107A.393.393,0,0,0,1130.381,115.64Z" transform="translate(-1130.377 -115.64)" fill="#fff"/>
    <path id="Path_1393" data-name="Path 1393" d="M1134.22,116.424v0Z" transform="translate(-1133.597 -116.268)" fill="#fff"/>
  </g>
  <rect id="Rectangle_355" data-name="Rectangle 355" width="1.278" height="0.446" transform="translate(181.861 12.83)" fill="#f36"/>
  <g id="Group_321" data-name="Group 321" transform="translate(182.54 1.038)" opacity="0.2">
    <path id="Path_1394" data-name="Path 1394" d="M1136.523,25.4h-.2a5.8,5.8,0,0,1,0,11.564h.2a5.789,5.789,0,0,0,0-11.564Z" transform="translate(-1136.32 -25.4)"/>
  </g>
  <g id="Group_322" data-name="Group 322" transform="translate(177.071 1.061)" opacity="0.2">
    <path id="Path_1395" data-name="Path 1395" d="M1102.843,31.322a6.006,6.006,0,0,1,5.631-5.782h-.122a6,6,0,0,0-5.753,5.784,6.006,6.006,0,0,0,5.753,5.784h.122A6.011,6.011,0,0,1,1102.843,31.322Z" transform="translate(-1102.6 -25.54)" fill="#fff"/>
  </g>
  <rect id="Rectangle_356" data-name="Rectangle 356" width="3.674" height="1.197" transform="translate(180.724 11.816)" fill="#f36"/>
  <path id="Path_1396" data-name="Path 1396" d="M1115.1,26.26a8.47,8.47,0,0,0,0,10.726h1.44s-3.977-4.744-.182-11.086l-.71.162Z" transform="translate(-934.38 -24.781)" fill="#fff" opacity="0.2"/>
  <path id="Path_1397" data-name="Path 1397" d="M1141.08,26.01a8.592,8.592,0,0,1,0,10.8h-1.44s3.979-4.781.183-11.122l.71.143Z" transform="translate(-956.561 -24.605)" fill="#fff" opacity="0.2"/>
  <path id="Path_1398" data-name="Path 1398" d="M1048.391,224.4a5.476,5.476,0,0,1-5.286,5.4,5.405,5.405,0,1,1,0-10.809A5.479,5.479,0,0,1,1048.391,224.4Z" transform="translate(-871.063 -186.561)" fill="url(#linear-gradient-26)"/>
  <path id="Path_1399" data-name="Path 1399" d="M1049.411,225.711a5.214,5.214,0,0,1-5.039,5.151,5.152,5.152,0,1,1,0-10.3A5.22,5.22,0,0,1,1049.411,225.711Z" transform="translate(-872.337 -187.868)" fill="#f55f44"/>
  <rect id="Rectangle_357" data-name="Rectangle 357" width="3.304" height="2.78" transform="translate(170.209 45.747)" fill="url(#linear-gradient-15)"/>
  <rect id="Rectangle_358" data-name="Rectangle 358" width="3.13" height="2.636" transform="translate(170.306 45.747)" fill="#e6e6e6"/>
  <line id="Line_29" data-name="Line 29" y1="2.409" x2="0.13" transform="translate(173.399 43.338)" fill="none" stroke="#ad7676" stroke-miterlimit="10" stroke-width="2"/>
  <line id="Line_30" data-name="Line 30" x1="0.177" y1="2.409" transform="translate(170.207 43.338)" fill="none" stroke="#ad7676" stroke-miterlimit="10" stroke-width="2"/>
  <g id="Group_323" data-name="Group 323" transform="translate(170.969 45.71)" opacity="0.2">
    <path id="Path_1400" data-name="Path 1400" d="M1065.447,302.45a.174.174,0,0,0,0,.058.076.076,0,0,0,0,.021A.117.117,0,0,0,1065.447,302.45Z" transform="translate(-1065.369 -302.186)" fill="#fff"/>
    <path id="Path_1401" data-name="Path 1401" d="M1064.983,300.82a.339.339,0,0,0,0,.1A.349.349,0,0,0,1064.983,300.82Z" transform="translate(-1064.979 -300.82)" fill="#fff"/>
    <path id="Path_1402" data-name="Path 1402" d="M1068.49,301.521v0Z" transform="translate(-1067.921 -301.381)" fill="#fff"/>
  </g>
  <rect id="Rectangle_359" data-name="Rectangle 359" width="1.169" height="0.397" transform="translate(171.229 43.176)" fill="#f55f44"/>
  <g id="Group_324" data-name="Group 324" transform="translate(171.848 32.674)" opacity="0.2">
    <path id="Path_1403" data-name="Path 1403" d="M1070.587,220.45h-.187a5.157,5.157,0,0,1,0,10.3h.187a5.149,5.149,0,0,0,0-10.3Z" transform="translate(-1070.4 -220.45)"/>
  </g>
  <g id="Group_325" data-name="Group 325" transform="translate(166.846 32.694)" opacity="0.2">
    <path id="Path_1404" data-name="Path 1404" d="M1039.784,225.72a5.424,5.424,0,0,1,5.15-5.15h-.112a5.152,5.152,0,1,0,0,10.3h.112A5.423,5.423,0,0,1,1039.784,225.72Z" transform="translate(-1039.56 -220.57)" fill="#fff"/>
  </g>
  <rect id="Rectangle_360" data-name="Rectangle 360" width="3.359" height="1.067" transform="translate(170.189 42.273)" fill="#f55f44"/>
  <path id="Path_1405" data-name="Path 1405" d="M1051.01,221.236a7.4,7.4,0,0,0,0,9.553h1.317s-3.638-4.217-.162-9.87l-.649.144Z" transform="translate(-880.821 -188.17)" fill="#fff" opacity="0.2"/>
  <path id="Path_1406" data-name="Path 1406" d="M1074.757,220.984a7.5,7.5,0,0,1,0,9.621h-1.317s3.638-4.259.162-9.905l.649.127Z" transform="translate(-901.099 -187.985)" fill="#fff" opacity="0.2"/>
  <path id="Path_1407" data-name="Path 1407" d="M1116.044,424.969a5.974,5.974,0,0,1-5.686,5.969,5.969,5.969,0,0,1,0-11.937A5.98,5.98,0,0,1,1116.044,424.969Z" transform="translate(-927.054 -354.122)" fill="url(#linear-gradient-28)"/>
  <path id="Path_1408" data-name="Path 1408" d="M1117.171,426.41a5.694,5.694,0,0,1-5.421,5.69,5.69,5.69,0,0,1,0-11.38A5.693,5.693,0,0,1,1117.171,426.41Z" transform="translate(-928.453 -355.563)" fill="#47e6b1"/>
  <rect id="Rectangle_361" data-name="Rectangle 361" width="3.554" height="3.07" transform="translate(181.333 79.576)" fill="url(#linear-gradient-21)"/>
  <rect id="Rectangle_362" data-name="Rectangle 362" width="3.367" height="2.91" transform="translate(181.439 79.576)" fill="#e6e6e6"/>
  <line id="Line_31" data-name="Line 31" y1="2.66" x2="0.139" transform="translate(184.766 76.916)" fill="none" stroke="#ad7676" stroke-miterlimit="10" stroke-width="2"/>
  <line id="Line_32" data-name="Line 32" x1="0.19" y1="2.66" transform="translate(181.332 76.916)" fill="none" stroke="#ad7676" stroke-miterlimit="10" stroke-width="2"/>
  <g id="Group_326" data-name="Group 326" transform="translate(182.151 79.535)" opacity="0.2">
    <path id="Path_1409" data-name="Path 1409" d="M1134.417,511.17a.2.2,0,0,0,0,.063.088.088,0,0,0,0,.023A.133.133,0,0,0,1134.417,511.17Z" transform="translate(-1134.334 -510.878)" fill="#fff"/>
    <path id="Path_1410" data-name="Path 1410" d="M1133.921,509.37a.381.381,0,0,0,0,.105.4.4,0,0,0,0-.105Z" transform="translate(-1133.918 -509.37)" fill="#fff"/>
    <path id="Path_1411" data-name="Path 1411" d="M1137.7,510.134v0Z" transform="translate(-1137.087 -509.982)" fill="#fff"/>
  </g>
  <rect id="Rectangle_363" data-name="Rectangle 363" width="1.257" height="0.44" transform="translate(182.43 76.737)" fill="#47e6b1"/>
  <g id="Group_327" data-name="Group 327" transform="translate(183.1 65.137)" opacity="0.2">
    <path id="Path_1412" data-name="Path 1412" d="M1139.97,420.6h-.2a5.705,5.705,0,0,1,0,11.37h.2a5.691,5.691,0,0,0,0-11.37Z" transform="translate(-1139.77 -420.6)"/>
  </g>
  <g id="Group_328" data-name="Group 328" transform="translate(177.717 65.158)" opacity="0.2">
    <path id="Path_1413" data-name="Path 1413" d="M1106.82,426.418a5.907,5.907,0,0,1,5.541-5.688h-.12a5.69,5.69,0,0,0,0,11.38h.12A5.911,5.911,0,0,1,1106.82,426.418Z" transform="translate(-1106.58 -420.73)" fill="#fff"/>
  </g>
  <rect id="Rectangle_364" data-name="Rectangle 364" width="3.614" height="1.178" transform="translate(181.311 75.738)" fill="#47e6b1"/>
  <path id="Path_1414" data-name="Path 1414" d="M1118.887,421.47a8.332,8.332,0,0,0,0,10.551h1.418s-3.914-4.663-.18-10.9l-.7.162Z" transform="translate(-937.577 -355.898)" fill="#fff" opacity="0.2"/>
  <path id="Path_1415" data-name="Path 1415" d="M1144.438,421.2a8.453,8.453,0,0,1,0,10.627h-1.418s3.914-4.7.18-10.94l.7.139Z" transform="translate(-959.393 -355.706)" fill="#fff" opacity="0.2"/>
</svg>
