<svg xmlns="http://www.w3.org/2000/svg" width="187.412" height="179.532" viewBox="0 0 187.412 179.532">
  <g id="Fleet_Distance" data-name="Fleet Distance" transform="translate(800 1075)">
    <g id="undraw_laravel_and_vue_59tp" transform="translate(-800 -1075)">
      <path id="Path_110" data-name="Path 110" d="M354.693,103.83c-9.754-38.356-43.458-66.043-83.019-67.154-20.915-.587-42.923,6.349-58.946,30.623-28.644,43.391,1.76,73.376,22.957,87.624a132.633,132.633,0,0,1,27.415,24.64c14.318,16.99,41.862,38.1,74.666,5.023C361.542,160.609,361.19,129.379,354.693,103.83Z" transform="translate(-193.974 -36.643)" fill="#f2f2f2"/>
      <path id="Path_111" data-name="Path 111" d="M355.695,712.676c0,9.415-41.085,26.928-92.837,26.928S168.5,723.177,168.5,713.762s42.605-8.252,94.357-8.252S355.695,703.261,355.695,712.676Z" transform="translate(-168.5 -560.073)" fill="#3f3d56"/>
      <path id="Path_112" data-name="Path 112" d="M355.695,712.676c0,9.415-41.085,26.928-92.837,26.928S168.5,723.177,168.5,713.762s42.605-8.252,94.357-8.252S355.695,703.261,355.695,712.676Z" transform="translate(-168.5 -560.073)" opacity="0.1"/>
      <ellipse id="Ellipse_30" data-name="Ellipse 30" cx="93.706" cy="17.047" rx="93.706" ry="17.047" transform="translate(0 136.534)" fill="#3f3d56"/>
      <path id="Path_113" data-name="Path 113" d="M594.859,440.238V485.83l7.626,12.428.581.945h30.091l.608-58.966Z" transform="translate(-465.678 -344.635)" fill="#2f2e41"/>
      <path id="Path_114" data-name="Path 114" d="M594.859,440.238V485.83l7.626,12.428.468-58.021Z" transform="translate(-465.678 -344.635)" opacity="0.1"/>
      <path id="Path_115" data-name="Path 115" d="M120.1,434.639v45.592l-7.626,12.428-.58.945H81.8l-.608-58.966Z" transform="translate(-63.562 -340.251)" fill="#2f2e41"/>
      <path id="Path_116" data-name="Path 116" d="M231.169,434.639v45.592l-7.626,12.428-.468-58.021Z" transform="translate(-174.631 -340.251)" opacity="0.1"/>
      <path id="Path_117" data-name="Path 117" d="M226.524,397.57v2.736H63v-3.951l15.2-7.9H213.15Z" transform="translate(-49.319 -304.094)" fill="#2f2e41"/>
      <path id="Path_118" data-name="Path 118" d="M226.524,426.058v2.736H63v-3.951Z" transform="translate(-49.319 -332.582)" opacity="0.1"/>
      <path id="Path_119" data-name="Path 119" d="M133.518,485.754h-7.295l-3.039-2.128h13.678Z" transform="translate(-96.433 -378.6)" opacity="0.1"/>
      <path id="Path_120" data-name="Path 120" d="M133.518,526.343h-7.295l-3.039-2.128h13.678Z" transform="translate(-96.433 -410.375)" opacity="0.1"/>
      <path id="Path_121" data-name="Path 121" d="M133.518,583.728h-7.295l-3.039-2.128h13.678Z" transform="translate(-96.433 -455.298)" opacity="0.1"/>
      <path id="Path_122" data-name="Path 122" d="M133.518,641.113h-7.295l-3.039-2.128h13.678Z" transform="translate(-96.433 -500.221)" opacity="0.1"/>
      <path id="Path_123" data-name="Path 123" d="M672.382,491.353h7.295l3.039-2.128H669.039Z" transform="translate(-523.748 -382.983)" opacity="0.1"/>
      <path id="Path_124" data-name="Path 124" d="M672.382,531.942h7.295l3.039-2.128H669.039Z" transform="translate(-523.748 -414.758)" opacity="0.1"/>
      <path id="Path_125" data-name="Path 125" d="M672.382,589.326h7.295l3.039-2.128H669.039Z" transform="translate(-523.748 -459.681)" opacity="0.1"/>
      <path id="Path_126" data-name="Path 126" d="M672.382,646.711h7.295l3.039-2.128H669.039Z" transform="translate(-523.748 -504.603)" opacity="0.1"/>
      <path id="Path_127" data-name="Path 127" d="M687.511,388.664l-1.014,6.473s-4.991,2.652-1.482,2.73,20.043,0,20.043,0,3.2,0-1.872-2.808l-1.014-6.785Z" transform="translate(-571.868 -311.912)" fill="#3f3d56"/>
      <path id="Path_128" data-name="Path 128" d="M684.314,397.8a13.806,13.806,0,0,1,2.188-1.448l1.014-6.473,14.662.014,1.014,6.381a13.315,13.315,0,0,1,2.343,1.542c.651-.149,1.363-.7-2.343-2.753l-1.014-6.785-14.662.39-1.014,6.473S682.307,397.365,684.314,397.8Z" transform="translate(-571.872 -311.913)" opacity="0.1"/>
      <rect id="Rectangle_89" data-name="Rectangle 89" width="66.057" height="46.014" rx="10.695" transform="translate(89.867 31.635)" fill="#3f3d56"/>
      <rect id="Rectangle_90" data-name="Rectangle 90" width="61.611" height="34.471" transform="translate(92.09 34.091)" fill="#f2f2f2"/>
      <circle id="Ellipse_31" data-name="Ellipse 31" cx="0.39" cy="0.39" r="0.39" transform="translate(122.506 32.609)" fill="#f2f2f2"/>
      <path id="Path_129" data-name="Path 129" d="M648.381,364.931v4.034a2.322,2.322,0,0,1-2.323,2.323H584.647a2.322,2.322,0,0,1-2.323-2.323v-4.033Z" transform="translate(-492.457 -293.639)" fill="#3f3d56"/>
      <circle id="Ellipse_32" data-name="Ellipse 32" cx="1.482" cy="1.482" r="1.482" transform="translate(121.414 73.008)" fill="#f2f2f2"/>
      <path id="Path_130" data-name="Path 130" d="M404.029,405.075v.78H362.071v-.624l.058-.156,1.034-2.807h40.008Z" transform="translate(-283.443 -314.91)" fill="#3f3d56"/>
      <path id="Path_131" data-name="Path 131" d="M755.672,438.643c-.076.327-.365.672-1.017,1-2.34,1.17-7.1-.312-7.1-.312s-3.665-.624-3.665-2.262a2.923,2.923,0,0,1,.321-.191c.984-.52,4.245-1.8,10.028.054a2.412,2.412,0,0,1,1.1.72A1.15,1.15,0,0,1,755.672,438.643Z" transform="translate(-618.938 -349.241)" fill="#3f3d56"/>
      <path id="Path_132" data-name="Path 132" d="M756.83,438.643c-2.864,1.1-5.416,1.179-8.036-.64a5.753,5.753,0,0,0-3.422-1.127c.984-.52,4.245-1.8,10.028.054a2.412,2.412,0,0,1,1.1.72A1.15,1.15,0,0,1,756.83,438.643Z" transform="translate(-620.097 -349.241)" opacity="0.1"/>
      <ellipse id="Ellipse_33" data-name="Ellipse 33" cx="1.014" cy="0.312" rx="1.014" ry="0.312" transform="translate(132.129 88.138)" fill="#f2f2f2"/>
      <path id="Path_133" data-name="Path 133" d="M404.029,415.2v.78H362.071v-.624l.058-.156Z" transform="translate(-283.443 -325.031)" opacity="0.1"/>
      <path id="Path_134" data-name="Path 134" d="M667.535,215.063c-.331-.331-4.579-5.683-5.3-6.566-.772-.883-1.1-.717-1.6-.662s-5.848.993-6.455,1.048c-.607.11-.993.331-.607.883.331.5,3.862,5.462,4.635,6.621l-14.069,3.366L633,201.049c-.441-.662-.552-.883-1.545-.828s-8.773.717-9.324.717c-.552.055-1.159.276-.607,1.6s9.379,20.3,9.6,20.856a1.9,1.9,0,0,0,2.372,1.1c1.545-.386,6.841-1.766,9.766-2.538,1.545,2.759,4.635,8.386,5.241,9.214.772,1.1,1.324.883,2.483.552.938-.276,14.456-5.131,15.062-5.407s.993-.441.552-1.048c-.331-.441-3.862-5.242-5.738-7.724,1.269-.331,5.848-1.545,6.345-1.71.552-.166.662-.441.331-.772ZM641.989,220.3c-.165.055-8.055,1.931-8.441,2.041-.441.11-.441.055-.441-.11-.11-.166-9.38-19.366-9.545-19.587-.11-.221-.11-.441,0-.441s7.448-.662,7.669-.662c.276,0,.221.055.331.221,0,0,10.317,17.821,10.483,18.1.221.276.11.386-.055.441Zm22.18,4.138c.11.221.276.331-.166.441-.386.166-13.3,4.524-13.573,4.635s-.441.166-.773-.331-4.524-7.724-4.524-7.724l13.738-3.586c.331-.11.441-.166.662.166C659.755,218.429,664.059,224.277,664.169,224.443Zm.883-9.711c-.331.055-5.352,1.324-5.352,1.324l-4.138-5.628c-.11-.166-.221-.331.055-.386s4.966-.883,5.186-.938.386-.11.662.276c.276.331,3.807,4.855,3.972,5.021S665.383,214.677,665.052,214.732Z" transform="translate(-522.971 -164.692)" fill="#fb503b"/>
      <circle id="Ellipse_34" data-name="Ellipse 34" cx="8.306" cy="8.306" r="8.306" transform="translate(77.395 25.549)" fill="#ffb9b9"/>
      <path id="Path_135" data-name="Path 135" d="M534.957,207.721v13.114h13.552s-1.749-10.929-.874-14.207Z" transform="translate(-455.376 -169.714)" fill="#ffb9b9"/>
      <path id="Path_136" data-name="Path 136" d="M500.384,254.038s-12.9-6.339-12.9-6.776-1.311-3.279-2.186-3.279-8.306-2.4-12.459,1.093l-.437,2.841-15.956,10.492,4.371,15.956s2.841,3.06,1.967,5.246.656,13.333.656,13.333l34.316-1.093V276.988a34.672,34.672,0,0,1,1.749-4.59c.656-1.093,0-4.371,0-4.371l5.246-6.557S504.1,255.349,500.384,254.038Z" transform="translate(-393.919 -198.326)" fill="#d0cde1"/>
      <path id="Path_137" data-name="Path 137" d="M444.2,318.671l.984-5.355s-5.683,24.7-5.027,27.54,5.464,7.213,6.12,7.431,6.776-18.8,6.776-18.8Z" transform="translate(-381.122 -253.233)" opacity="0.1"/>
      <path id="Path_138" data-name="Path 138" d="M441.855,310.3l-3.716.656s-5.683,24.7-5.027,27.54,5.464,7.213,6.12,7.432,6.776-18.8,6.776-18.8Z" transform="translate(-375.607 -250.869)" fill="#d0cde1"/>
      <path id="Path_139" data-name="Path 139" d="M642.623,331.013l1.858-3.606s2.623,24.7.874,27.1-8.665,3.3-8.665,3.3l-.077-17.948Z" transform="translate(-534.956 -264.264)" opacity="0.1"/>
      <path id="Path_140" data-name="Path 140" d="M647.679,314.323l2.841,2.841s2.623,24.7.874,27.1-8.665,3.3-8.665,3.3l-.077-17.948Z" transform="translate(-539.683 -254.021)" fill="#d0cde1"/>
      <path id="Path_141" data-name="Path 141" d="M443.028,485.17s-6.339-2.4-7.431,2.186,2.623,25.136,2.623,25.136,2.4,15.519,3.934,15.956,8.306.656,9.4-1.311-3.279-22.076-3.279-22.076l25.354-.437s-1.53,17.486-2.4,19.016-.874,6.776,0,6.776,10.492-.437,11.147-1.749,4.371-30.819,4.371-30.819,3.06-10.273-.437-9.617S443.028,485.17,443.028,485.17Z" transform="translate(-377.435 -387.274)" fill="#3f3d56"/>
      <path id="Path_142" data-name="Path 142" d="M611.923,681.254s2.186-1.53,3.279,0,1.53,3.279-3.279,5.9-8.524,1.967-8.524,1.53v-6.339Z" transform="translate(-508.955 -540.736)" fill="#2f2e41"/>
      <path id="Path_143" data-name="Path 143" d="M454.146,678.235s-2.186-1.53-3.279,0-1.53,3.279,3.279,5.9,8.524,1.967,8.524,1.53v-6.339Z" transform="translate(-388.99 -538.372)" fill="#2f2e41"/>
      <path id="Path_144" data-name="Path 144" d="M529.342,144.3a7.024,7.024,0,0,0-2.44.348,9.428,9.428,0,0,0-1.738.919l-3.667,2.28a1.717,1.717,0,0,0-1.035,1.6L520,152.876a4.466,4.466,0,0,0,.165,2.575,7.1,7.1,0,0,0,1.448,1.624,5.963,5.963,0,0,1,1.571,3.053c.262,1.433.094,3.158,1.228,4.072a3.853,3.853,0,0,0,2.238.635,33.4,33.4,0,0,0,6.45-.248,2.567,2.567,0,0,0,.975-.273,2.676,2.676,0,0,0,.855-1.017,9.113,9.113,0,0,0,1.654-4.494,4.8,4.8,0,0,1,.175-2.361,9.235,9.235,0,0,1,.66-.857,4.733,4.733,0,0,0,.646-2.343c.247-2.608-.011-4.592-1.933-6.429A9.956,9.956,0,0,0,529.342,144.3Z" transform="translate(-443.587 -120.915)" fill="#2f2e41"/>
      <path id="Path_145" data-name="Path 145" d="M274.641,569.7l-7.295,37.082h3.647l6.991-36.474Z" transform="translate(-209.288 -445.984)" fill="#2f2e41"/>
      <path id="Path_146" data-name="Path 146" d="M408.708,579.317l4.559,42.553h3.039L413.571,578.1Z" transform="translate(-319.952 -452.559)" fill="#2f2e41"/>
      <path id="Path_147" data-name="Path 147" d="M466.093,575.91l6.383,28.267h3.039L469.436,575.3Z" transform="translate(-364.875 -450.368)" fill="#2f2e41"/>
      <path id="Path_148" data-name="Path 148" d="M350.836,578.1l-.912,22.492h2.432l1.824-22.492Z" transform="translate(-273.933 -452.559)" fill="#2f2e41"/>
      <path id="Path_149" data-name="Path 149" d="M442.615,466.165s-4.863-32.522,8.814-33.434,33.13,0,33.13,0,11.246-.912,7.9,33.434c0,0,3.039,10.03-24.316,9.118S442.615,466.165,442.615,466.165Z" transform="translate(-382.43 -346.398)" fill="#f36"/>
      <path id="Path_150" data-name="Path 150" d="M965.208,602.856c0,5.671-3.372,7.651-7.53,7.651s-7.53-1.98-7.53-7.651,7.53-12.886,7.53-12.886S965.208,597.185,965.208,602.856Z" transform="translate(-780.402 -469.808)" fill="#f36"/>
      <path id="Path_151" data-name="Path 151" d="M804.227,568.251l3.209-5.872-3.2,5.127.035-2.134,2.212-4.248-2.2,3.684.062-3.838,2.369-3.382-2.359,2.779.039-7.038-.234,8.918-2.4-3.672L804.13,563l-.224,4.287-.007-.114-2.776-3.879,2.768,4.281-.028.536-.005.008,0,.044-.57,5.72h.761l.091-.462,2.761-4.271L804.15,573Z" transform="translate(-627.148 -433.165)" fill="#3f3d56"/>
      <path id="Path_152" data-name="Path 152" d="M797.743,657.277h-8.978l-2.32-13.114h13.114Z" transform="translate(-615.658 -504.275)" fill="#2f2e41"/>
      <rect id="Rectangle_91" data-name="Rectangle 91" width="18.676" height="21.896" transform="translate(31.489 64.345)" fill="#3f3d56"/>
      <rect id="Rectangle_92" data-name="Rectangle 92" width="12.88" height="15.101" transform="translate(34.387 67.743)" fill="#f2f2f2"/>
    </g>
    <g id="Group_197" data-name="Group 197" transform="translate(-763.936 -1003.088)">
      <rect id="Rectangle_93" data-name="Rectangle 93" width="1.421" height="1.421" transform="translate(0)" fill="#f36"/>
      <rect id="Rectangle_94" data-name="Rectangle 94" width="1.421" height="1.421" transform="translate(1.421 1.421)" fill="#f36"/>
      <rect id="Rectangle_95" data-name="Rectangle 95" width="1.421" height="1.421" transform="translate(2.842 2.842)" fill="#f36"/>
      <rect id="Rectangle_96" data-name="Rectangle 96" width="1.421" height="1.421" transform="translate(1.421 4.263)" fill="#f36"/>
      <rect id="Rectangle_98" data-name="Rectangle 98" width="5.53" height="1.421" transform="translate(4.647 5.783)" fill="#f36"/>
      <rect id="Rectangle_97" data-name="Rectangle 97" width="1.421" height="1.421" transform="translate(0 5.684)" fill="#f36"/>
    </g>
  </g>
</svg>
