<svg xmlns="http://www.w3.org/2000/svg" width="215.853" height="133.369" viewBox="0 0 215.853 133.369">
  <g id="Total_number_of_groups" data-name="Total number of groups" transform="translate(-107.568)">
    <path id="Path_1444" data-name="Path 1444" d="M527.468,153.532c-1.065,9.123-3.277,16.448-6.315,22.29-4.041,7.784-10.954,10.92-17.129,14.2a39.056,39.056,0,0,1-5.549,2.413c-11.236,3.9-23.813,2.865-33.692.806a132.819,132.819,0,0,0-21.033-2.659q-3.025-.136-6.056-.135c-3.116,0-59.219,1.069-72.879-26.586-3.372-6.822-5.684-15.155-6.515-25.313-2.35-28.717,10.566-47.578,27.226-59.906C417.045,55.322,460.244,56.3,491.3,80.235,511.979,96.178,531.345,120.306,527.468,153.532Z" transform="translate(-204.546 -61.705)" fill="#3f3d56"/>
    <path id="Path_1445" data-name="Path 1445" d="M688.7,287.753c-8.743-6.536-22.437-12.718-37.57-16.959-13.779-3.862-27.218-5.727-37.846-5.251l-.055-1.236c10.754-.482,24.333,1.4,38.235,5.3,15.274,4.281,29.117,10.536,37.977,17.16Z" transform="translate(-406.237 -221.767)" fill="#f2f2f2"/>
    <path id="Path_1446" data-name="Path 1446" d="M657.36,244.677a41.168,41.168,0,0,1-3.563,16.808q-.295.664-.615,1.316a41.325,41.325,0,0,1-78.46-18.125q0-1.434.1-2.847.046-.718.12-1.428a41.321,41.321,0,0,1,82.42,4.274Z" transform="translate(-375.806 -173.656)" fill="#f36"/>
    <path id="Path_1447" data-name="Path 1447" d="M654.165,401.111q-.3.664-.615,1.316-1.811.2-3.813.286c-1.1.049-2.242.074-3.4.074-10.147,0-22.358-1.873-34.833-5.369-13.9-3.9-26.48-9.347-35.417-15.349q-.456-.306-.9-.614.046-.718.12-1.428.711.507,1.466,1.014c8.832,5.929,21.283,11.322,35.062,15.184,12.366,3.466,24.462,5.323,34.492,5.323q1.72,0,3.354-.073Q652.061,401.369,654.165,401.111Z" transform="translate(-376.174 -313.282)" opacity="0.1"/>
    <path id="Path_1448" data-name="Path 1448" d="M603.384,310.561c-10.146,0-22.358-1.873-34.832-5.369-13.9-3.9-26.48-9.347-35.417-15.348-9.123-6.126-13.4-12.163-12.046-17s8.147-7.768,19.126-8.26l.055,1.236a38.106,38.106,0,0,0-12.418,2.265c-3.106,1.27-4.98,2.984-5.572,5.094s.12,4.548,2.113,7.247a38.106,38.106,0,0,0,9.432,8.389c8.831,5.93,21.282,11.322,35.061,15.184,12.366,3.466,24.461,5.323,34.492,5.324q1.719,0,3.353-.073a38.11,38.11,0,0,0,12.418-2.265c3.106-1.27,4.98-2.984,5.572-5.094,1.062-3.789-2.147-8.711-9.036-13.861l.741-.991a32.334,32.334,0,0,1,7.8,7.764c1.748,2.682,2.315,5.179,1.687,7.422-1.355,4.835-8.147,7.768-19.126,8.26C605.682,310.537,604.545,310.561,603.384,310.561Z" transform="translate(-333.223 -222.046)" fill="#f2f2f2"/>
    <circle id="Ellipse_244" data-name="Ellipse 244" cx="0.473" cy="0.473" r="0.473" transform="translate(240.855 21.303)" fill="#f2f2f2"/>
    <circle id="Ellipse_245" data-name="Ellipse 245" cx="0.473" cy="0.473" r="0.473" transform="translate(178.041 41.508)" fill="#f2f2f2"/>
    <circle id="Ellipse_246" data-name="Ellipse 246" cx="0.473" cy="0.473" r="0.473" transform="translate(176.305 73.388)" fill="#f2f2f2"/>
    <circle id="Ellipse_247" data-name="Ellipse 247" cx="0.316" cy="0.316" r="0.316" transform="translate(273.051 24.302)" fill="#f2f2f2"/>
    <circle id="Ellipse_248" data-name="Ellipse 248" cx="0.316" cy="0.316" r="0.316" transform="translate(311.087 68.811)" fill="#f2f2f2"/>
    <circle id="Ellipse_249" data-name="Ellipse 249" cx="0.316" cy="0.316" r="0.316" transform="translate(293.726 54.291)" fill="#f2f2f2"/>
    <circle id="Ellipse_250" data-name="Ellipse 250" cx="0.316" cy="0.316" r="0.316" transform="translate(206.765 31.404)" fill="#f2f2f2"/>
    <circle id="Ellipse_251" data-name="Ellipse 251" cx="0.316" cy="0.316" r="0.316" transform="translate(292.621 64.55)" fill="#f2f2f2"/>
    <circle id="Ellipse_252" data-name="Ellipse 252" cx="0.316" cy="0.316" r="0.316" transform="translate(180.251 96.273)" fill="#f2f2f2"/>
    <circle id="Ellipse_253" data-name="Ellipse 253" cx="0.316" cy="0.316" r="0.316" transform="translate(199.032 109.214)" fill="#f2f2f2"/>
    <path id="Path_1449" data-name="Path 1449" d="M671.326,39.185h-.436v-.436h-.234v.436h-.436v.234h.436v.436h.234v-.436h.436Z" transform="translate(-444.675 -30.624)" fill="#f2f2f2"/>
    <path id="Path_1450" data-name="Path 1450" d="M895.626,551.009h-.436v-.435h-.234v.435h-.436v.234h.436v.435h.234v-.435h.436Z" transform="translate(-621.943 -435.128)" fill="#f2f2f2"/>
    <path id="Path_1451" data-name="Path 1451" d="M1034.875,520.149h-.436v-.436h-.235v.436h-.434v.234h.434v.435h.235v-.435h.436Z" transform="translate(-731.994 -410.739)" fill="#f2f2f2"/>
    <circle id="Ellipse_254" data-name="Ellipse 254" cx="3.472" cy="3.472" r="3.472" transform="translate(237.383 35.195)" fill="#3f3d56"/>
    <circle id="Ellipse_255" data-name="Ellipse 255" cx="3.472" cy="3.472" r="3.472" transform="translate(210.711 60.604)" fill="#3f3d56"/>
    <circle id="Ellipse_256" data-name="Ellipse 256" cx="3.472" cy="3.472" r="3.472" transform="translate(249.062 95.483)" fill="#3f3d56"/>
    <circle id="Ellipse_257" data-name="Ellipse 257" cx="3.472" cy="3.472" r="3.472" transform="translate(237.383 65.97)" fill="#3f3d56"/>
    <circle id="Ellipse_258" data-name="Ellipse 258" cx="3.472" cy="3.472" r="3.472" transform="translate(212.447 85.067)" fill="#3f3d56"/>
    <circle id="Ellipse_259" data-name="Ellipse 259" cx="3.472" cy="3.472" r="3.472" transform="translate(256.006 47.347)" fill="#3f3d56"/>
    <circle id="Ellipse_260" data-name="Ellipse 260" cx="3.472" cy="3.472" r="3.472" transform="translate(267.527 70.863)" fill="#3f3d56"/>
    <circle id="Ellipse_261" data-name="Ellipse 261" cx="4.577" cy="4.577" r="4.577" transform="translate(236.278 49.715)" fill="#fff"/>
    <path id="Path_1452" data-name="Path 1452" d="M750.343,289.015a6.471,6.471,0,0,0-6.471,6.471c0,3.574,6.471,15.309,6.471,15.309s6.471-11.735,6.471-15.309A6.471,6.471,0,0,0,750.343,289.015Zm0,9.627a3,3,0,1,1,3-3,3,3,0,0,1-3,3Z" transform="translate(-509.488 -241.352)" fill="#ff6584"/>
    <circle id="Ellipse_262" data-name="Ellipse 262" cx="4.577" cy="4.577" r="4.577" transform="translate(211.342 69.285)" fill="#fff"/>
    <path id="Path_1453" data-name="Path 1453" d="M631.419,382.348a6.471,6.471,0,0,0-6.471,6.471c0,3.574,6.471,15.309,6.471,15.309s6.471-11.735,6.471-15.309a6.471,6.471,0,0,0-6.471-6.471Zm0,9.627a3,3,0,1,1,3-3,3,3,0,0,1-3,3Z" transform="translate(-415.5 -315.115)" fill="#ff6584"/>
    <circle id="Ellipse_263" data-name="Ellipse 263" cx="4.577" cy="4.577" r="4.577" transform="translate(266.423 55.081)" fill="#fff"/>
    <path id="Path_1454" data-name="Path 1454" d="M894.1,314.606a6.471,6.471,0,0,0-6.471,6.471c0,3.574,6.471,15.309,6.471,15.309s6.471-11.735,6.471-15.309a6.471,6.471,0,0,0-6.471-6.471Zm0,9.627a3,3,0,1,1,3-3,3,3,0,0,1-3,3Z" transform="translate(-623.105 -261.577)" fill="#ff6584"/>
    <circle id="Ellipse_264" data-name="Ellipse 264" cx="4.577" cy="4.577" r="4.577" transform="translate(236.278 18.939)" fill="#fff"/>
    <path id="Path_1455" data-name="Path 1455" d="M750.343,142.242a6.471,6.471,0,0,0-6.471,6.471c0,3.574,6.471,15.309,6.471,15.309s6.471-11.735,6.471-15.309A6.471,6.471,0,0,0,750.343,142.242Zm0,9.627a3,3,0,1,1,3-3,3,3,0,0,1-3,3Z" transform="translate(-509.488 -125.355)" fill="#ff6584"/>
    <circle id="Ellipse_265" data-name="Ellipse 265" cx="4.577" cy="4.577" r="4.577" transform="translate(247.957 79.701)" fill="#fff"/>
    <path id="Path_1456" data-name="Path 1456" d="M806.041,432.025a6.471,6.471,0,0,0-6.471,6.471c0,3.574,6.471,15.309,6.471,15.309s6.471-11.735,6.471-15.309A6.471,6.471,0,0,0,806.041,432.025Zm0,9.627a3,3,0,1,1,3-3,3,3,0,0,1-3,3Z" transform="translate(-553.507 -354.376)" fill="#ff6584"/>
    <circle id="Ellipse_266" data-name="Ellipse 266" cx="4.577" cy="4.577" r="4.577" transform="translate(209.606 44.506)" fill="#fff"/>
    <path id="Path_1457" data-name="Path 1457" d="M623.139,264.177a6.471,6.471,0,0,0-6.471,6.471c0,3.574,6.471,15.309,6.471,15.309s6.471-11.735,6.471-15.309A6.471,6.471,0,0,0,623.139,264.177Zm0,9.627a3,3,0,1,1,3-3,3,3,0,0,1-3,3Z" transform="translate(-408.956 -221.722)" fill="#ff6584"/>
    <circle id="Ellipse_267" data-name="Ellipse 267" cx="4.577" cy="4.577" r="4.577" transform="translate(254.901 31.723)" fill="#fff"/>
    <path id="Path_1458" data-name="Path 1458" d="M839.159,203.209a6.471,6.471,0,0,0-6.471,6.471c0,3.574,6.471,15.309,6.471,15.309s6.471-11.735,6.471-15.309A6.471,6.471,0,0,0,839.159,203.209Zm0,9.627a3,3,0,1,1,3-3,3,3,0,0,1-3,3Z" transform="translate(-579.68 -173.538)" fill="#ff6584"/>
    <path id="Path_1473" data-name="Path 1473" d="M139.068,325.243c.226.286.5.633.795,1.017l-.715-1.478S139.118,324.949,139.068,325.243Z" transform="translate(-31.5 -269.62)" opacity="0.1"/>
  </g>
</svg>
