<svg id="Halt_Time" data-name="Halt Time" xmlns="http://www.w3.org/2000/svg" width="203.083" height="138.7" viewBox="0 0 203.083 138.7">
  <path id="Path_1200" data-name="Path 1200" d="M412.184,239.615h-25.19v-5.448a1.3,1.3,0,0,0-1.3-1.3h-7.4v-5.8a.82.82,0,0,0-.82-.82h-9.529a.82.82,0,0,0-.82.82v5.806h-8.7a1.3,1.3,0,0,0-1.3,1.3v5.448H333.1a.265.265,0,0,0-.263.265v72.325a.265.265,0,0,0,.263.265h15.964a.265.265,0,0,0,.265-.265v-9.731a.267.267,0,0,1,.265-.265h6.744a.267.267,0,0,1,.265.265v9.731a.265.265,0,0,0,.263.265h31.546a.267.267,0,0,0,.265-.265v-9.731a.265.265,0,0,1,.263-.265h6.744a.265.265,0,0,1,.265.265v9.731a.267.267,0,0,0,.265.265H412.18a.267.267,0,0,0,.265-.265V239.88A.267.267,0,0,0,412.184,239.615Zm-65.709,59.217a.263.263,0,0,1-.263.263h-9.86a.263.263,0,0,1-.265-.263v-3.358a.265.265,0,0,1,.265-.265h9.866a.265.265,0,0,1,.263.265Zm0-8.7a.263.263,0,0,1-.263.265h-9.86a.263.263,0,0,1-.265-.265v-3.366a.263.263,0,0,1,.265-.265h9.866a.263.263,0,0,1,.263.265Zm0-8.7a.265.265,0,0,1-.263.265h-9.86a.265.265,0,0,1-.265-.265v-3.368a.265.265,0,0,1,.265-.265h9.866a.265.265,0,0,1,.263.265Zm0-8.7a.263.263,0,0,1-.263.265h-9.86a.263.263,0,0,1-.265-.265v-3.356a.263.263,0,0,1,.265-.265h9.866a.263.263,0,0,1,.263.265Zm0-8.7a.265.265,0,0,1-.263.265h-9.86a.265.265,0,0,1-.265-.265v-3.368a.263.263,0,0,1,.265-.263h9.866a.263.263,0,0,1,.263.263Zm0-8.7a.263.263,0,0,1-.263.263h-9.86a.263.263,0,0,1-.265-.263v-3.368a.265.265,0,0,1,.265-.265h9.866a.265.265,0,0,1,.263.265Zm0-8.7a.263.263,0,0,1-.263.265h-9.86a.263.263,0,0,1-.265-.265v-3.356a.263.263,0,0,1,.265-.265h9.866a.263.263,0,0,1,.263.265Zm23.377,52.206a.263.263,0,0,1-.265.263h-9.86a.265.265,0,0,1-.265-.263v-3.356a.267.267,0,0,1,.265-.265h9.86a.265.265,0,0,1,.265.265Zm0-8.7a.263.263,0,0,1-.265.265h-9.86a.265.265,0,0,1-.265-.265v-3.364a.265.265,0,0,1,.265-.265h9.86a.263.263,0,0,1,.265.265Zm0-8.7a.265.265,0,0,1-.265.265h-9.86a.267.267,0,0,1-.265-.265v-3.366a.267.267,0,0,1,.265-.265h9.86a.265.265,0,0,1,.265.265Zm0-8.7a.263.263,0,0,1-.265.265h-9.86a.265.265,0,0,1-.265-.265v-3.354a.265.265,0,0,1,.265-.265h9.86a.263.263,0,0,1,.265.265Zm0-8.7a.265.265,0,0,1-.265.265h-9.86a.267.267,0,0,1-.265-.265v-3.366a.265.265,0,0,1,.265-.263h9.86a.263.263,0,0,1,.265.263Zm0-8.7a.263.263,0,0,1-.265.263h-9.86a.265.265,0,0,1-.265-.263v-3.366a.267.267,0,0,1,.265-.265h9.86a.265.265,0,0,1,.265.265Zm0-8.7a.263.263,0,0,1-.265.265h-9.86a.265.265,0,0,1-.265-.265v-3.354a.265.265,0,0,1,.265-.265h9.86a.263.263,0,0,1,.265.265Zm15.974,52.206a.263.263,0,0,1-.265.263H375.7a.265.265,0,0,1-.265-.263v-3.354a.267.267,0,0,1,.265-.265h9.86a.265.265,0,0,1,.265.265Zm0-8.7a.263.263,0,0,1-.265.265H375.7a.265.265,0,0,1-.265-.265v-3.362a.265.265,0,0,1,.265-.265h9.86a.263.263,0,0,1,.265.265Zm0-8.7a.265.265,0,0,1-.265.265H375.7a.267.267,0,0,1-.265-.265v-3.364a.267.267,0,0,1,.265-.265h9.86a.265.265,0,0,1,.265.265Zm0-8.7a.263.263,0,0,1-.265.265H375.7a.265.265,0,0,1-.265-.265v-3.352a.265.265,0,0,1,.265-.265h9.86a.263.263,0,0,1,.265.265Zm0-8.7a.265.265,0,0,1-.265.265H375.7a.267.267,0,0,1-.265-.265v-3.364a.265.265,0,0,1,.265-.263h9.86a.263.263,0,0,1,.265.263Zm0-8.7a.263.263,0,0,1-.265.263H375.7a.265.265,0,0,1-.265-.263v-3.364a.267.267,0,0,1,.265-.265h9.86a.265.265,0,0,1,.265.265Zm0-8.7a.263.263,0,0,1-.265.265H375.7a.265.265,0,0,1-.265-.265v-3.352A.265.265,0,0,1,375.7,243h9.86a.263.263,0,0,1,.265.265ZM409.2,298.826a.265.265,0,0,1-.265.263h-9.86a.263.263,0,0,1-.265-.263v-3.352a.265.265,0,0,1,.265-.265h9.86a.267.267,0,0,1,.265.265Zm0-8.7a.265.265,0,0,1-.265.265h-9.86a.263.263,0,0,1-.265-.265v-3.36a.263.263,0,0,1,.265-.265h9.86a.265.265,0,0,1,.265.265Zm0-8.7a.267.267,0,0,1-.265.265h-9.86a.265.265,0,0,1-.265-.265v-3.362a.265.265,0,0,1,.265-.265h9.86a.267.267,0,0,1,.265.265Zm0-8.7a.265.265,0,0,1-.265.265h-9.86a.263.263,0,0,1-.261-.259v-3.356a.263.263,0,0,1,.265-.265h9.86a.265.265,0,0,1,.265.265Zm0-8.7a.267.267,0,0,1-.265.265h-9.86a.265.265,0,0,1-.265-.265v-3.362a.263.263,0,0,1,.265-.263h9.86a.265.265,0,0,1,.265.263Zm0-8.7a.265.265,0,0,1-.265.263h-9.86a.263.263,0,0,1-.265-.263v-3.362a.265.265,0,0,1,.265-.265h9.86a.267.267,0,0,1,.265.265Zm0-8.7a.265.265,0,0,1-.265.265h-9.86a.263.263,0,0,1-.261-.259v-3.356a.263.263,0,0,1,.265-.265h9.86a.265.265,0,0,1,.265.265Z" transform="translate(-283.733 -200.806)" fill="#f2f2f2"/>
  <path id="Path_1201" data-name="Path 1201" d="M256.587,113.459l-3.046,1.931,1.849-3.364a3.013,3.013,0,0,0-1.841-.657H253.5a3.552,3.552,0,0,1-.632-.047l-1.032.654.442-.8a3.662,3.662,0,0,1-1.806-1.374l-1.847,1.178,1.166-2.122a5.4,5.4,0,0,0-4.139-2.092,5.674,5.674,0,0,0-4.738,2.922,3.533,3.533,0,0,1-3.14,1.688h-.1c-2.122,0-3.841,2.406-3.841,5.372s1.727,5.374,3.849,5.374a2.889,2.889,0,0,0,1.337-.336,5.537,5.537,0,0,1,4.65-.09,4.84,4.84,0,0,0,3.953,0,5.541,5.541,0,0,1,4.606.09,2.889,2.889,0,0,0,1.325.336c2.122,0,3.841-2.406,3.841-5.374a6.81,6.81,0,0,0-.8-3.284Z" transform="translate(-204.155 -104.776)" fill="#f2f2f2"/>
  <path id="Path_1202" data-name="Path 1202" d="M250.878,149.988a5.67,5.67,0,0,0-3.291.357,4.846,4.846,0,0,1-3.951,0,5.55,5.55,0,0,0-4.65.09,2.868,2.868,0,0,1-1.339.336c-1.884,0-3.452-1.9-3.778-4.4a3.617,3.617,0,0,0,.942-1.017,5.292,5.292,0,0,1,9.448-.031,3.627,3.627,0,0,0,3.13,1.719h.049C248.947,147.03,250.246,148.234,250.878,149.988Z" transform="translate(-204.187 -133.445)" opacity="0.03"/>
  <path id="Path_1203" data-name="Path 1203" d="M850.32,99.992l-1.523.964.922-1.678a1.505,1.505,0,0,0-.918-.328h-.024a1.688,1.688,0,0,1-.316-.024l-.514.328.22-.393a1.845,1.845,0,0,1-.9-.683l-.92.589.589-1.058a2.691,2.691,0,0,0-2.063-1.06,2.811,2.811,0,0,0-2.355,1.458,1.766,1.766,0,0,1-1.57.842H840.9c-1.058,0-1.916,1.2-1.916,2.679s.858,2.679,1.916,2.679a1.436,1.436,0,0,0,.667-.167,2.764,2.764,0,0,1,2.318-.045,2.42,2.42,0,0,0,1.972,0,2.769,2.769,0,0,1,2.3.045,1.431,1.431,0,0,0,.659.163c1.058,0,1.916-1.2,1.916-2.679a3.41,3.41,0,0,0-.406-1.633Z" transform="translate(-690.536 -96.65)" fill="#f2f2f2"/>
  <path id="Path_1204" data-name="Path 1204" d="M847.457,118.194a2.85,2.85,0,0,0-1.643.179,2.41,2.41,0,0,1-.981.208,2.436,2.436,0,0,1-.981-.212,2.767,2.767,0,0,0-2.32.045,1.431,1.431,0,0,1-.667.167c-.94,0-1.721-.946-1.884-2.2a1.817,1.817,0,0,0,.471-.506,2.637,2.637,0,0,1,4.71-.016,1.81,1.81,0,0,0,1.57.858h.025A1.969,1.969,0,0,1,847.457,118.194Z" transform="translate(-690.536 -110.932)" opacity="0.03"/>
  <path id="Path_1205" data-name="Path 1205" d="M647.812,187.559l-1.786,1.132,1.083-1.963a1.766,1.766,0,0,0-1.079-.393H646a2.12,2.12,0,0,1-.371-.027l-.6.393.259-.473a2.159,2.159,0,0,1-1.06-.8l-1.083.687.685-1.244a3.169,3.169,0,0,0-2.428-1.229,3.329,3.329,0,0,0-2.779,1.715,2.073,2.073,0,0,1-1.837.981h-.061c-1.244,0-2.251,1.411-2.251,3.14s1.007,3.15,2.251,3.15a1.68,1.68,0,0,0,.785-.2,3.25,3.25,0,0,1,2.726-.053,2.85,2.85,0,0,0,2.318,0,3.254,3.254,0,0,1,2.7.053,1.7,1.7,0,0,0,.785.2c1.244,0,2.253-1.409,2.253-3.15A4,4,0,0,0,647.812,187.559Z" transform="translate(-526.164 -166.567)" fill="#f2f2f2"/>
  <path id="Path_1206" data-name="Path 1206" d="M644.446,208.984a3.337,3.337,0,0,0-1.931.21,2.85,2.85,0,0,1-2.318,0,3.25,3.25,0,0,0-2.726.053,1.686,1.686,0,0,1-.785.2c-1.105,0-2.025-1.113-2.216-2.581a2.11,2.11,0,0,0,.552-.589,3.109,3.109,0,0,1,5.546-.02,2.124,2.124,0,0,0,1.835,1.009h.022A2.283,2.283,0,0,1,644.446,208.984Z" transform="translate(-526.164 -183.381)" opacity="0.03"/>
  <path id="Path_1207" data-name="Path 1207" d="M922.983,592.308c0,.338,0,.675-.022,1.009a23.849,23.849,0,0,1-.467,3.864c-1.289,6.3-5.013,11.2-9.69,12.647a9.673,9.673,0,0,1-2.873.438c-7.209,0-13.052-8.047-13.052-17.958s5.843-17.958,13.052-17.958c6.761,0,12.323,7.077,12.985,16.143C922.962,591.089,922.983,591.7,922.983,592.308Z" transform="translate(-737.072 -480.595)" fill="#36334a"/>
  <path id="Path_1208" data-name="Path 1208" d="M962.345,611.009a23.851,23.851,0,0,1-.467,3.864c-1.289,6.3-5.013,11.2-9.69,12.647-3.621-1.666-6.308-7.911-6.308-15.362,0-8.726,3.69-15.8,8.243-15.8,3.821,0,7.036,4.989,7.968,11.758C962.221,609.047,962.305,610.016,962.345,611.009Z" transform="translate(-776.455 -498.285)" opacity="0.1"/>
  <path id="Path_1209" data-name="Path 1209" d="M695.88,449.389s35.328-7.262,53.973-.589c0,0,2.748,1.374,0,3.729,0,0,2.6,2.748-1.939,3.729l-18.027,1.109L695.88,453.9Z" transform="translate(-575.521 -377.418)" fill="#3f3d56"/>
  <path id="Path_1210" data-name="Path 1210" d="M727.38,456.046s30.246-6.218,46.21-.5c0,0,2.355,1.178,0,3.193,0,0,2.224,2.355-1.66,3.193l-15.434.948-29.116-2.962Z" transform="translate(-600.839 -383.163)" opacity="0.1"/>
  <path id="Path_1211" data-name="Path 1211" d="M700.339,463.874l-2.355-4.71s1.032-4.765-7.36-6.167a5.408,5.408,0,0,0-10.17-.153c-1.205.1-2.489.245-3.863.432l-1.919,10.292-.239-.479s1.219-5.629-9.766-6.451a4.085,4.085,0,0,0,.934-2.577c0-2.495-2.33-4.514-5.2-4.514s-5.2,2.02-5.2,4.514a4.122,4.122,0,0,0,1.091,2.763q-1.541.147-3.25.377l-2.159,11.58,10.01,1.374,15.9-2.355-1.407-2.816,9.062,1.244Z" transform="translate(-539.353 -380.128)" fill="#f36"/>
  <path id="Path_1212" data-name="Path 1212" d="M700.339,463.874l-2.355-4.71s1.032-4.765-7.36-6.167a5.408,5.408,0,0,0-10.17-.153c-1.205.1-2.489.245-3.863.432l-1.919,10.292-.239-.479s1.219-5.629-9.766-6.451a4.085,4.085,0,0,0,.934-2.577c0-2.495-2.33-4.514-5.2-4.514s-5.2,2.02-5.2,4.514a4.122,4.122,0,0,0,1.091,2.763q-1.541.147-3.25.377l-2.159,11.58,10.01,1.374,15.9-2.355-1.407-2.816,9.062,1.244Z" transform="translate(-539.353 -380.128)" opacity="0.2"/>
  <path id="Path_1213" data-name="Path 1213" d="M720.411,433.346s-1.57-8.808,5.692-9S731.01,437.1,731.01,437.1s5.5,1.178,5.888,3.336-19.038,2.748-19.038,2.748Z" transform="translate(-593.187 -360.025)" fill="#f36"/>
  <path id="Path_1214" data-name="Path 1214" d="M524.423,623.36c0,10.4-7.733,18.841-17.271,18.841s-17.271-8.439-17.271-18.841,7.829-20.51,17.369-20.51S524.423,612.954,524.423,623.36Z" transform="translate(-409.951 -503.501)" fill="#36334a"/>
  <ellipse id="Ellipse_148" data-name="Ellipse 148" cx="13.738" cy="15.895" rx="13.738" ry="15.895" transform="translate(83.461 104.748)" opacity="0.1"/>
  <ellipse id="Ellipse_149" data-name="Ellipse 149" cx="17.271" cy="18.841" rx="17.271" ry="18.841" transform="translate(3.974 99.249)" fill="#36334a"/>
  <path id="Path_1215" data-name="Path 1215" d="M309.477,469.35s-8.047.393-7.654,4.71,6.869,1.178,6.869,1.178Z" transform="translate(-258.792 -396.202)" fill="#36334a"/>
  <path id="Path_1216" data-name="Path 1216" d="M382.914,401.533l3.313-22.109s.785-2.748-9.813-2.748c0,0-33.954-2.159-42.589,1.374,0,0-10.009,3.729-23.944,22.963C309.88,401.012,381.54,402.71,382.914,401.533Z" transform="translate(-265.279 -321.192)" fill="#3f3d56"/>
  <path id="Path_1217" data-name="Path 1217" d="M396.475,388.35l-6.084,24.141-3.815-.092-18.056-.44-40.271-.981c-.112-1.908,18.959-21.646,18.959-21.646Z" transform="translate(-280.042 -331.1)" fill="#36334a"/>
  <path id="Path_1218" data-name="Path 1218" d="M533.47,445.707l1.645-6.359s-1.57-8.81,5.692-9.007,4.907,12.757,4.907,12.757,5,1.074,5.8,3.048Z" transform="translate(-444.986 -364.848)" fill="#f36" opacity="0.2"/>
  <path id="Path_1219" data-name="Path 1219" d="M268.639,524.224c-1.178-11.383-8.537-13.837-8.537-13.837-7.066-.393-11.776,26.5-11.776,26.5l-54.365,4.907s1.864-22.865-11.285-26.594-16.584,23.061-17.173,26.79-79.291-.393-81.45-1.963-1.374-16.682-.785-17.86,2.159-6.477,2.159-6.477a10.874,10.874,0,0,1,1.107-3.97c.353-.785.659-1.329.659-1.329,1.706-9.672,10.561-12.013,11.156-12.168h.031c2.355-2.355,24.141-3.925,24.141-3.925l8.243-1.57,67.018,1.317,2.852.057,34.071-1.639,23.041-1.109c5.3,0,8.047,13.346,8.047,13.346C270.7,516.472,268.639,524.224,268.639,524.224Z" transform="translate(-82.63 -413.885)" fill="#3f3d56"/>
  <ellipse id="Ellipse_150" data-name="Ellipse 150" cx="10.104" cy="6.326" rx="10.104" ry="6.326" transform="translate(61.426 90.817) rotate(-21.92)" opacity="0.1"/>
  <ellipse id="Ellipse_151" data-name="Ellipse 151" cx="10.104" cy="6.326" rx="10.104" ry="6.326" transform="translate(61.034 90.031) rotate(-21.92)" fill="#f2f2f2"/>
  <path id="Path_1220" data-name="Path 1220" d="M116.335,528.39a15.712,15.712,0,0,1-2.809,7.507c-2.8,4.223-6.642,6.71-9.007,5.982.353-.785.659-1.329.659-1.329C106.885,530.879,115.74,528.537,116.335,528.39Z" transform="translate(-100.224 -443.655)" opacity="0.1"/>
  <path id="Path_1221" data-name="Path 1221" d="M113.335,526.39a15.712,15.712,0,0,1-2.809,7.507c-2.8,4.224-6.642,6.71-9.007,5.982.353-.785.659-1.329.659-1.329C103.885,528.879,112.74,526.537,113.335,526.39Z" transform="translate(-97.813 -442.047)" fill="#f2f2f2"/>
  <path id="Path_1222" data-name="Path 1222" d="M152.54,450.849h-15.5l-.785-2.159h18.841Z" transform="translate(-109.509 -360.628)" fill="#36334a"/>
  <rect id="Rectangle_287" data-name="Rectangle 287" width="25.514" height="7.458" transform="translate(13.984 106.118)" fill="#36334a"/>
  <circle id="Ellipse_152" data-name="Ellipse 152" cx="3.533" cy="3.533" r="3.533" transform="translate(63.442 113.772)" opacity="0.1"/>
  <circle id="Ellipse_153" data-name="Ellipse 153" cx="3.533" cy="3.533" r="3.533" transform="translate(63.05 113.184)" fill="#f2f2f2"/>
  <ellipse id="Ellipse_154" data-name="Ellipse 154" cx="1.766" cy="3.729" rx="1.766" ry="3.729" transform="translate(1.03 110.828)" opacity="0.1"/>
  <ellipse id="Ellipse_155" data-name="Ellipse 155" cx="1.766" cy="3.729" rx="1.766" ry="3.729" transform="translate(0.442 110.632)" fill="#f2f2f2"/>
  <path id="Path_1223" data-name="Path 1223" d="M712.043,517.088c-2.159,6.673-2.355,17.075-2.355,17.075l-.785,2.748-38.272,4.318s.2-19.234.785-28.262a36.648,36.648,0,0,0-2.067-14.384l2.852.057L706.273,497C711.965,500.99,713.98,511.1,712.043,517.088Z" transform="translate(-554.198 -418.426)" fill="#36334a"/>
  <path id="Path_1224" data-name="Path 1224" d="M838.736,535.88a.964.964,0,0,0-.887,1.117.69.69,0,0,0,.393.512c.634.316,4.854-.393,6.453-.675a1.085,1.085,0,0,0,.907-.968c.02-.279-.082-.516-.491-.516Z" transform="translate(-689.616 -449.249)" fill="#f2f2f2"/>
  <path id="Path_1225" data-name="Path 1225" d="M668.88,481.257s.981,4.318,5.692,2.944l1.57-6.084L673,476.35Z" transform="translate(-553.82 -401.828)" fill="#36334a"/>
  <path id="Path_1226" data-name="Path 1226" d="M690.3,451.115c2.159-1.28,5.584-2.4,8.971.289a4,4,0,0,1,1.156,4.816c-1.109,2.4-3.741,5-9.886,1.886a3.964,3.964,0,0,1-1.5-1.323l-.031-.047a3.984,3.984,0,0,1,1.285-5.621Z" transform="translate(-569.471 -380.454)" fill="#36334a"/>
  <circle id="Ellipse_156" data-name="Ellipse 156" cx="3.925" cy="3.925" r="3.925" transform="translate(93.373 115.833)" fill="#f2f2f2"/>
  <ellipse id="Ellipse_157" data-name="Ellipse 157" cx="2.159" cy="3.925" rx="2.159" ry="3.925" transform="translate(176.196 108.768)" fill="#f2f2f2"/>
  <rect id="Rectangle_288" data-name="Rectangle 288" width="5.103" height="6.869" rx="2.551" transform="translate(94.648 107.688)" fill="#36334a"/>
  <path id="Path_1227" data-name="Path 1227" d="M899.105,510.19h0a1.374,1.374,0,0,1,1.374,1.374v3.14a2.355,2.355,0,0,1-2.355,2.355h0a1.374,1.374,0,0,1-1.374-1.374v-3.14a2.355,2.355,0,0,1,2.355-2.355Z" transform="translate(-720.75 -410.058)" fill="#36334a"/>
  <path id="Path_1228" data-name="Path 1228" d="M981.735,706.719h0a2.355,2.355,0,0,1-2.355-2.355v-2.159a2.355,2.355,0,0,1,2.355-2.355h0c1.3,0,1.177,1.06,1.177,2.355v2.159C982.911,705.659,983.035,706.719,981.735,706.719Z" transform="translate(-803.38 -581.463)" fill="#36334a"/>
  <path id="Path_1229" data-name="Path 1229" d="M872.32,556.19h0a2.355,2.355,0,0,1,2.355,2.355v2.944a1.57,1.57,0,0,1-1.57,1.57h0a2.355,2.355,0,0,1-2.355-2.355V557.76A1.57,1.57,0,0,1,872.32,556.19Z" transform="translate(-699.853 -447.03)" fill="#36334a"/>
  <path id="Path_1230" data-name="Path 1230" d="M1016.626,657.813c0,.338,0,.675-.021,1.009a23.852,23.852,0,0,1-.467,3.864,2.394,2.394,0,0,1-.392.033,2.355,2.355,0,0,1-2.355-2.355v-2.159a2.355,2.355,0,0,1,2.355-2.355,2.3,2.3,0,0,1,.608.08c.071.02.141.041.208.067C1016.6,656.594,1016.626,657.2,1016.626,657.813Z" transform="translate(-830.715 -546.099)" fill="#36334a"/>
  <rect id="Rectangle_289" data-name="Rectangle 289" width="5.103" height="6.869" rx="2.551" transform="translate(104.56 116.029)" fill="#36334a"/>
  <rect id="Rectangle_290" data-name="Rectangle 290" width="5.103" height="6.869" rx="2.551" transform="translate(85.326 116.029)" fill="#36334a"/>
  <rect id="Rectangle_291" data-name="Rectangle 291" width="5.103" height="6.869" rx="2.551" transform="translate(94.747 126.235)" fill="#36334a"/>
  <path id="Path_1231" data-name="Path 1231" d="M900.932,289.342a3.222,3.222,0,0,1-.2,1.1,3.258,3.258,0,0,1-6.1.086,3.206,3.206,0,0,1-.224-1.178,3.258,3.258,0,1,1,6.516,0Z" transform="translate(-735.087 -248.91)" fill="#ff6584"/>
  <path id="Path_1232" data-name="Path 1232" d="M893.98,287.044a3.258,3.258,0,0,1,1.268-4.43,3.224,3.224,0,0,1,1.178-.392,3.258,3.258,0,1,0,.275,6.49A3.256,3.256,0,0,1,893.98,287.044Z" transform="translate(-733.995 -245.799)" fill="#ff6584"/>
  <rect id="Rectangle_292" data-name="Rectangle 292" width="8.728" height="13.615" transform="translate(158.515 44.97)" fill="#ff6584"/>
  <rect id="Rectangle_293" data-name="Rectangle 293" width="8.728" height="13.615" transform="translate(158.711 44.578)" opacity="0.1"/>
  <path id="Path_1233" data-name="Path 1233" d="M792.866,577.46s-.93,2.551-3.14,2.909a15.378,15.378,0,0,0-3.486.926l5.236,3.374,2.793-.349s.347-3.607,1.511-4.422S792.866,577.46,792.866,577.46Z" transform="translate(-648.147 -483.094)" fill="#fbbebe"/>
  <path id="Path_1234" data-name="Path 1234" d="M999.944,577.46s.93,2.551,3.14,2.909a15.239,15.239,0,0,1,3.49.932l-5.236,3.374-2.793-.349s-.347-3.607-1.511-4.422S999.944,577.46,999.944,577.46Z" transform="translate(-817.401 -483.094)" fill="#fbbebe"/>
  <path id="Path_1235" data-name="Path 1235" d="M822.359,462.44a4.065,4.065,0,0,0-1.863,2.094,8.124,8.124,0,0,0-3.957,3.026,10.852,10.852,0,0,0-1.978,2.793c-.234.932-2.909,6.524-2.909,6.524s-2.675,8.726-4.073,9.658c0,0,4.422-.932,5.236,3.49,0,0,1.048,0,2.212-4.073a52.567,52.567,0,0,1,3.955-9.075s.932-3.492,1.747-4.073,2.094-3.258,3.258-2.561,8.844-.116,8.844-.116,4.538,2.094,4.653,3.492.932,1.511,1.048,2.675,4.422,10.357,4.422,10.357.814,2.551,1.046,3.14c0,0,2.561-6.167,5.935-2.677a7.983,7.983,0,0,0-1.164-3.729c-1.048-1.4-5.586-12.335-5.586-12.335a7.158,7.158,0,0,0-.93-2.094c-.465-.465-4.072-4.188-5.35-4.188,0,0-.7-1.747-1.513-1.978Z" transform="translate(-665.298 -390.648)" fill="#696880"/>
  <path id="Path_1236" data-name="Path 1236" d="M783.59,597.214a5.67,5.67,0,0,1-5.541-.746,11.042,11.042,0,0,0-2.471-1.431c-1.233-.5-2.71-.869-3.16-.033-.815,1.511,9.892,5.236,9.892,5.236A3.222,3.222,0,0,0,783.59,597.214Z" transform="translate(-637.003 -496.797)" fill="#696880"/>
  <path id="Path_1237" data-name="Path 1237" d="M1003.2,597.214a5.67,5.67,0,0,0,5.541-.746,11.039,11.039,0,0,1,2.471-1.431c1.233-.5,2.71-.869,3.16-.033.814,1.511-9.892,5.236-9.892,5.236A3.222,3.222,0,0,1,1003.2,597.214Z" transform="translate(-822.521 -496.797)" fill="#696880"/>
  <path id="Path_1238" data-name="Path 1238" d="M888.888,359.759a1.381,1.381,0,0,1-.522,1.058,2.877,2.877,0,0,1-.966.23,2.245,2.245,0,0,0-1.537,1.327,3.439,3.439,0,0,0-.145,2.071,7.623,7.623,0,0,0,.3,1,9.424,9.424,0,0,0,1.391,2.726,11.581,11.581,0,0,0,1.825,1.719,3.15,3.15,0,0,0,2.414.981,2.347,2.347,0,0,0,1.293-.184c.589-.34.765-1.091,1.083-1.692.273-.512.677-.944.93-1.466a5.841,5.841,0,0,0,.393-1.278l.544-2.416a3.415,3.415,0,0,0-.118-2.616.412.412,0,0,0-.145-.151.54.54,0,0,0-.3-.031,3.2,3.2,0,0,1-1.8-.41.71.71,0,0,1-.226-.177.889.889,0,0,1-.139-.414,4.373,4.373,0,0,0-.251-.875.588.588,0,0,0-.171-.261.611.611,0,0,0-.275-.092,22.488,22.488,0,0,0-2.538-.267c-.281-.012-.7-.124-.891.122S888.919,359.465,888.888,359.759Z" transform="translate(-728.023 -307.107)" fill="#fbbebe"/>
  <path id="Path_1239" data-name="Path 1239" d="M888.888,359.759a1.381,1.381,0,0,1-.522,1.058,2.877,2.877,0,0,1-.966.23,2.245,2.245,0,0,0-1.537,1.327,3.439,3.439,0,0,0-.145,2.071,7.623,7.623,0,0,0,.3,1,9.424,9.424,0,0,0,1.391,2.726,11.581,11.581,0,0,0,1.825,1.719,3.15,3.15,0,0,0,2.414.981,2.347,2.347,0,0,0,1.293-.184c.589-.34.765-1.091,1.083-1.692.273-.512.677-.944.93-1.466a5.841,5.841,0,0,0,.393-1.278l.544-2.416a3.415,3.415,0,0,0-.118-2.616.412.412,0,0,0-.145-.151.54.54,0,0,0-.3-.031,3.2,3.2,0,0,1-1.8-.41.71.71,0,0,1-.226-.177.889.889,0,0,1-.139-.414,4.373,4.373,0,0,0-.251-.875.588.588,0,0,0-.171-.261.611.611,0,0,0-.275-.092,22.488,22.488,0,0,0-2.538-.267c-.281-.012-.7-.124-.891.122S888.919,359.465,888.888,359.759Z" transform="translate(-728.023 -307.107)" opacity="0.1"/>
  <path id="Path_1240" data-name="Path 1240" d="M874.255,369.893a5.384,5.384,0,0,0-1.4-.222,3.506,3.506,0,0,0-2.971,1.278,3.017,3.017,0,0,0-.449,2.247,4.654,4.654,0,0,0,1.021,2.094,6.3,6.3,0,0,1,.785,1.028,5.448,5.448,0,0,1,.393,1.963c.2,1.592.875,3.091,1.146,4.673s.035,3.419-1.215,4.428c-.21.169-.463.345-.481.614-.029.43.53.614.96.654a10.939,10.939,0,0,0,3.853-.088c.518-.137,1.015-.351,1.541-.449,1.337-.249,2.679.261,4.014.508a18.027,18.027,0,0,0,2.926.237,1.57,1.57,0,0,0,.675-.088.54.54,0,0,0,.342-.538.911.911,0,0,0-.232-.393,6.4,6.4,0,0,1-1.066-3l-.608-3.562c-.332-1.9-.64-3.963.259-5.67.648-1.227,1.837-2.09,2.52-3.3a1.6,1.6,0,0,0-.9-2.534,4.555,4.555,0,0,0-3.413-.124,13.784,13.784,0,0,1-.338,2.551l-.237,1.374a17.48,17.48,0,0,1-.53,2.394,2.593,2.593,0,0,1-.426.868,2.243,2.243,0,0,1-.752.548,4.467,4.467,0,0,1-1.992.453,2.614,2.614,0,0,1-.879-.133,3.757,3.757,0,0,1-1.211-.854,1.984,1.984,0,0,1-.32-.345,2.082,2.082,0,0,1-.218-.524,10.665,10.665,0,0,1-.373-1.468c-.061-.381-.078-.767-.106-1.152A27.984,27.984,0,0,0,874.255,369.893Z" transform="translate(-714.966 -315.852)" fill="#f2f2f2"/>
  <path id="Path_1241" data-name="Path 1241" d="M888.1,486.75s-.465,6.167,2.443,7.215.349-5.121.349-5.121l-.93-1.862Z" transform="translate(-729.992 -410.187)" fill="#fbbebe"/>
  <path id="Path_1242" data-name="Path 1242" d="M922.911,486.75s.465,6.167-2.444,7.215-.349-5.121-.349-5.121l.93-1.862Z" transform="translate(-754.913 -410.187)" fill="#fbbebe"/>
  <path id="Path_1243" data-name="Path 1243" d="M871.36,380.356l-.93,1.513s.815,5.236.93,6.167a12.14,12.14,0,0,0,.465,1.974s.116,2.793.116,3.839a11.721,11.721,0,0,0,.589,2.793,12.661,12.661,0,0,0,.589,2.909c.465,1.282.932,2.793.932,2.793s.589-1.629,2.909.814a1.411,1.411,0,0,0,0-1.978,30.784,30.784,0,0,1-.7-4.769c0-1.629-1.28-9.421-1.28-9.421S874.153,378.144,871.36,380.356Z" transform="translate(-715.813 -324.389)" opacity="0.1"/>
  <path id="Path_1244" data-name="Path 1244" d="M870.19,379.777l-.93,1.511s.815,5.236.93,6.169a12.22,12.22,0,0,0,.467,1.976s.122,2.793.122,3.843a11.671,11.671,0,0,0,.589,2.793,12.723,12.723,0,0,0,.589,2.909c.465,1.28.93,2.793.93,2.793s.589-1.629,2.909.814a1.409,1.409,0,0,0,0-1.978,30.781,30.781,0,0,1-.7-4.771c0-1.631-1.28-9.421-1.28-9.421S872.979,377.575,870.19,379.777Z" transform="translate(-714.873 -323.926)" fill="#f2f2f2"/>
  <path id="Path_1245" data-name="Path 1245" d="M927.174,374.377l.589.693a21.38,21.38,0,0,1-.826,8.965l-.465,4.54s-.814,3.839-.932,4.771-.116,1.046-.347,1.4a.448.448,0,0,0,0,.589l-.7,2.561s-1.048-1.28-3.14.349a1.847,1.847,0,0,1-.116-1.747c.473-.815.465-1.164.349-1.4s.465-1.4.465-1.629.814-5.586.814-5.586.349-5.236.7-6.981a32.671,32.671,0,0,0,.173-5.152,1.972,1.972,0,0,1,3.336-1.47A.9.9,0,0,1,927.174,374.377Z" transform="translate(-756.501 -319.342)" opacity="0.1"/>
  <path id="Path_1246" data-name="Path 1246" d="M928.934,372.123l.589.693a21.419,21.419,0,0,1-.826,8.965l-.465,4.538s-.814,3.841-.932,4.771-.116,1.048-.349,1.4a.453.453,0,0,0,0,.589l-.7,2.551s-1.048-1.28-3.14.349A1.842,1.842,0,0,1,923,394.23c.473-.815.465-1.164.347-1.4s.467-1.4.467-1.629.814-5.586.814-5.586.349-5.236.7-6.981a49.365,49.365,0,0,0,.118-6.981A2.692,2.692,0,0,1,928.934,372.123Z" transform="translate(-757.915 -317.32)" fill="#f2f2f2"/>
  <circle id="Ellipse_158" data-name="Ellipse 158" cx="4.655" cy="4.655" r="4.655" transform="translate(158.572 43.863)" fill="#fbbebe"/>
  <path id="Path_1247" data-name="Path 1247" d="M901.682,307.186a3.258,3.258,0,0,1-6.1.086,5.775,5.775,0,0,1,3.674-.078A3.293,3.293,0,0,1,901.682,307.186Z" transform="translate(-736.027 -265.656)" opacity="0.1"/>
  <path id="Path_1248" data-name="Path 1248" d="M885.224,308.385s-8.96-3.14-6.75,12.1c0,0,1.978,1.28,3.492.465,0,0-1.048-10.6,3.024-10.123s3.376,9.89,3.376,9.89,2.328.7,3.024-.589S891.159,306.289,885.224,308.385Z" transform="translate(-721.996 -266.614)" fill="#ff6584"/>
  <path id="Path_1249" data-name="Path 1249" d="M900.241,318.309c-2.795-.32-3.177,4.565-3.14,7.664.035-3.079.554-7.262,3.14-6.965,2.909.332,3.384,5.23,3.419,8.006C903.691,324.468,903.412,318.672,900.241,318.309Z" transform="translate(-737.247 -274.793)" opacity="0.1"/>
  <path id="Path_1250" data-name="Path 1250" d="M878.485,351.039a31.621,31.621,0,0,1-.347-4.039,29.877,29.877,0,0,0,.347,4.73s1.978,1.28,3.492.465c0,0-.026-.251-.053-.673C880.418,352.3,878.485,351.039,878.485,351.039Z" transform="translate(-722.008 -297.865)" opacity="0.1"/>
  <path id="Path_1251" data-name="Path 1251" d="M933.335,360.415c-.65,1.191-2.712.669-2.993.589-.014.432-.031.689-.031.689s2.328.7,3.024-.589a5.309,5.309,0,0,0,.2-2A3.631,3.631,0,0,1,933.335,360.415Z" transform="translate(-763.941 -307.591)" opacity="0.1"/>
  <path id="Path_1252" data-name="Path 1252" d="M1057.821,659.771c.538-1-.073-2.216-.773-3.1s-1.557-1.811-1.539-2.944c.028-1.625,1.753-2.585,3.14-3.446a15.292,15.292,0,0,0,2.813-2.261,4.164,4.164,0,0,0,.863-1.156,4.719,4.719,0,0,0,.259-2.057q-.088-3.48-.344-6.954" transform="translate(-864.567 -531.632)" fill="none" stroke="#3f3d56" stroke-miterlimit="10" stroke-width="4"/>
  <path id="Path_1253" data-name="Path 1253" d="M1082.352,627.305a2.532,2.532,0,0,0-1.266-2.078l-.567,1.123.018-1.36a2.567,2.567,0,0,0-.836-.1,2.536,2.536,0,1,0,2.651,2.416Z" transform="translate(-882.068 -521.213)" fill="#f36"/>
  <path id="Path_1254" data-name="Path 1254" d="M1060.453,709.529a2.536,2.536,0,0,1-4.787-1.04,2.5,2.5,0,0,1,.165-1.03,2.538,2.538,0,0,1,4.746.028l-1.584,1.289,1.741-.4A2.508,2.508,0,0,1,1060.453,709.529Z" transform="translate(-864.691 -586.273)" fill="#f36"/>
  <path id="Path_1255" data-name="Path 1255" d="M1062.819,678.806a2.536,2.536,0,0,1-2.651-2.416,2.5,2.5,0,0,1,.22-1.154,2.551,2.551,0,0,1,1.627-1.405l-.012,1.046.573-1.138h0a2.536,2.536,0,0,1,2.65,2.416,2.488,2.488,0,0,1-.108.866A2.536,2.536,0,0,1,1062.819,678.806Z" transform="translate(-868.31 -560.475)" fill="#f36"/>
  <path id="Path_1256" data-name="Path 1256" d="M1094.188,657.936a2.536,2.536,0,0,1-2.651-2.416,2.49,2.49,0,0,1,.239-1.2,2.534,2.534,0,0,1,3.533-1.129l-.448,1.227.921-.885a2.534,2.534,0,0,1,.82,1.751,2.491,2.491,0,0,1-.065.7A2.536,2.536,0,0,1,1094.188,657.936Z" transform="translate(-893.522 -543.701)" fill="#f36"/>
  <path id="Path_1257" data-name="Path 1257" d="M1082.014,633.666c-.589.065-1.156.245-1.743.283a1.888,1.888,0,0,1-1.6-.561,7.941,7.941,0,0,1-.469-.824,1.819,1.819,0,0,0-.638-.6,2.505,2.505,0,0,0-.273,1.266,2.536,2.536,0,0,0,5.013.418C1082.2,633.648,1082.108,633.656,1082.014,633.666Z" transform="translate(-882.069 -526.898)" opacity="0.1"/>
  <path id="Path_1258" data-name="Path 1258" d="M1094.188,663.887a2.535,2.535,0,0,1-2.651-2.416,2.49,2.49,0,0,1,.239-1.2,1.885,1.885,0,0,1,.51.51,7.775,7.775,0,0,0,.5.838,2.076,2.076,0,0,0,1.682.589c.612-.027,1.2-.2,1.811-.257.084,0,.171-.014.255-.016A2.536,2.536,0,0,1,1094.188,663.887Z" transform="translate(-893.522 -549.652)" opacity="0.1"/>
  <path id="Path_1259" data-name="Path 1259" d="M1062.819,684.95a2.536,2.536,0,0,1-2.651-2.416,2.5,2.5,0,0,1,.22-1.154,2.093,2.093,0,0,1,.53.514,9.966,9.966,0,0,0,.55.856,2.353,2.353,0,0,0,1.8.63c.648-.014,1.233-.169,1.857-.216A2.536,2.536,0,0,1,1062.819,684.95Z" transform="translate(-868.31 -566.618)" opacity="0.1"/>
  <path id="Path_1260" data-name="Path 1260" d="M1060.453,716.181a2.536,2.536,0,0,1-4.787-1.04,2.5,2.5,0,0,1,.165-1.03,2.551,2.551,0,0,1,.555.5,8.63,8.63,0,0,0,.679.9,3.173,3.173,0,0,0,2.1.74A11.174,11.174,0,0,0,1060.453,716.181Z" transform="translate(-864.691 -592.925)" opacity="0.1"/>
  <path id="Path_1261" data-name="Path 1261" d="M1047.81,739.274a7.33,7.33,0,0,0,2.6-.491c.6-.43,3.078-.942,3.229-.253s3.007,3.427.748,3.444-5.25-.351-5.853-.718S1047.81,739.274,1047.81,739.274Z" transform="translate(-858.38 -612.281)" fill="#656380"/>
  <path id="Path_1262" data-name="Path 1262" d="M1054.43,746.153a19.226,19.226,0,0,1-5.853-.718c-.457-.281-.64-1.282-.7-1.745h-.067s.126,1.615.728,1.982,3.594.736,5.853.718c.652,0,.877-.237.866-.589C1055.166,746.02,1054.913,746.149,1054.43,746.153Z" transform="translate(-858.38 -616.699)" opacity="0.2"/>
</svg>
