<svg xmlns="http://www.w3.org/2000/svg" width="171.123" height="140.292" viewBox="0 0 171.123 140.292">
  <g id="Halt_to_run_ratio" data-name="Halt to run ratio" transform="translate(-1111 -2782)">
    <g id="undraw_projections_7g6a" transform="translate(1111 2782)">
      <path id="Path_1264" data-name="Path 1264" d="M706.3,340.345l1.355-.259.388-.082a11.155,11.155,0,0,1,6.735-20.7l-1.7,4.271,4.15-3.763h.03a11.157,11.157,0,0,1,7.082,14.1c-.067.2-.147.4-.224.591a13.336,13.336,0,0,0,3.224-2.249c1.852-1.843,2.84-4.357,3.936-7.454,2.175-6.133,4.262-12.352,6.26-18.584a11.152,11.152,0,0,1-5.466-13.4,9.643,9.643,0,0,1,.373-.945q.047-.116.1-.229c.136-.294.279-.583.44-.861.024-.045.054-.088.08-.132.14-.235.285-.462.44-.682.058-.084.114-.166.173-.248.175-.237.356-.47.548-.69.065-.075.132-.143.2-.216.149-.162.3-.319.457-.471.082-.08.162-.16.248-.237.02-.02.041-.043.063-.061h0a11.152,11.152,0,0,1,14.256-.589l-2.214,5.559,4.1-3.727a11.094,11.094,0,0,1,.66,13.129H752c-.043.067-.093.13-.14.2-.086.125-.173.246-.263.373-.116.155-.237.306-.36.453-.093.112-.186.224-.281.332-.14.157-.289.306-.438.455-.088.086-.171.177-.261.261q-.354.328-.732.624c-.089.069-.186.129-.274.2-.177.13-.356.259-.54.373-.116.075-.233.142-.35.212-.17.1-.339.2-.514.289-.123.065-.248.129-.373.186-.186.086-.362.166-.544.242-.123.05-.246.1-.373.149-.207.076-.416.145-.628.209-.106.034-.211.071-.319.1-.315.088-.635.162-.96.22-.061.011-.125.017-.186.028-.27.043-.54.08-.812.1-.117.011-.237.015-.354.021-.22.013-.442.022-.663.021-.13,0-.261,0-.391-.009-.216,0-.432-.022-.65-.043-.129-.013-.257-.026-.386-.043-.233-.03-.466-.073-.7-.119h-.045q-1.265,3.945-2.581,7.872a11.146,11.146,0,0,1,16.187,1.029l-3.789,4.353,5.181-2.182a11.109,11.109,0,0,1,.606,8.483,10.91,10.91,0,0,1-1.364,2.767,11.152,11.152,0,0,1-20.239-4.514c-.093.265-.186.531-.276.8-.969,2.73-2.173,6.128-4.674,8.615a19.78,19.78,0,0,1-5.82,3.7q-1.974.9-4,1.677a11.181,11.181,0,0,1-4.963,1.677q-3.207.956-6.495,1.6l-1.366.263c-1.226.233-2.484.473-3.727.745.186.05.373.1.544.158a11.155,11.155,0,0,1,7.646,10.725l-8.537,2.8,7.792,1.088a11.161,11.161,0,0,1-18.531,3.651l.252.786c.168.52.334,1.038.494,1.551,2.177,6.988,1.4,12.531-2.186,15.609l-2.018-2.356c3.49-3,2.277-9.01,1.245-12.329q-.238-.757-.486-1.524c-1.414-4.4-3.019-9.385-1.15-14.031C691.014,343.256,699.486,341.642,706.3,340.345Z" transform="translate(-585.509 -245.734)" fill="#f2f2f2"/>
      <path id="Path_1265" data-name="Path 1265" d="M186.7,165.405l-1.17-.729-.334-.214a11.155,11.155,0,0,0,1.127-21.735l.058,4.6-2.527-5h-.03a11.155,11.155,0,0,0-11.664,10.622c-.009.212,0,.423,0,.632a13.245,13.245,0,0,1-2.2-3.254c-1.07-2.385-1.09-5.086-1-8.367.168-6.506.447-13.06.814-19.594a11.15,11.15,0,0,0,9.9-10.555c.017-.341.011-.678,0-1.012a1.589,1.589,0,0,0-.013-.25c-.02-.324-.052-.647-.1-.962a1.123,1.123,0,0,0-.028-.155c-.047-.266-.1-.531-.166-.794-.024-.1-.047-.2-.075-.293-.078-.283-.164-.559-.263-.84-.034-.093-.073-.186-.108-.272-.08-.2-.166-.4-.257-.6-.047-.1-.1-.209-.145-.311-.013-.028-.024-.054-.037-.08h0a11.144,11.144,0,0,0-13.114-5.654l.076,5.982-2.5-4.942a11.088,11.088,0,0,0-5.319,12.02h-.013c.017.078.043.155.061.233.035.149.073.294.114.44q.078.28.173.559c.047.138.091.276.144.412.075.2.16.389.246.581.052.112.1.227.151.337q.212.434.46.844c.058.1.123.186.186.281.119.186.24.373.373.546.082.11.168.214.252.322.121.155.246.307.373.455.093.1.186.207.283.309.136.144.278.283.421.421.1.091.186.186.293.272.166.145.337.283.511.421.088.067.171.14.261.207.265.186.537.373.818.55.054.034.11.06.164.091.235.138.475.268.721.389.1.052.214.1.322.145.2.091.4.186.611.257.121.047.244.089.373.132.207.069.414.132.624.186q.186.052.373.1c.229.054.462.1.7.14h.047q-.231,4.137-.412,8.274a11.146,11.146,0,0,0-15.481-4.845l1.972,5.4-4.055-3.895a11.12,11.12,0,0,0-3.606,7.7,10.957,10.957,0,0,0,.283,3.073,11.15,11.15,0,0,0,20.511,3.038c0,.281-.019.559-.026.842-.075,2.9-.168,6.5,1.277,9.719a19.7,19.7,0,0,0,4.1,5.539q1.521,1.551,3.138,3a11.155,11.155,0,0,0,4.027,3.354c1.769,1.362,3.6,2.643,5.49,3.824l1.182.734c1.06.658,2.149,1.332,3.217,2.037-.186-.019-.373-.039-.559-.048a11.159,11.159,0,0,0-10.982,7.268l6.968,5.671-7.667-1.778a11.161,11.161,0,0,0,16,10.037l-.518.645c-.343.427-.684.85-1.018,1.271-4.536,5.744-5.8,11.2-3.552,15.356l2.732-1.476c-2.186-4.048,1.1-9.227,3.258-11.957.326-.414.662-.829,1-1.247,2.9-3.6,6.182-7.682,6.1-12.687C199.918,173.594,192.592,169.052,186.7,165.405Z" transform="translate(-144.284 -95.178)" fill="#f2f2f2"/>
      <ellipse id="Ellipse_159" data-name="Ellipse 159" cx="81.439" cy="9.318" rx="81.439" ry="9.318" transform="translate(0 121.657)" fill="#f2f2f2"/>
      <rect id="Rectangle_296" data-name="Rectangle 296" width="106.986" height="128.837" rx="4" transform="translate(28.317)" fill="#3f3d56"/>
      <rect id="Rectangle_297" data-name="Rectangle 297" width="96.754" height="102.844" transform="translate(33.08 12.997)" fill="#302f45"/>
      <circle id="Ellipse_160" data-name="Ellipse 160" cx="3.766" cy="3.766" r="3.766" transform="translate(78.045 118.856)" fill="#fff"/>
      <path id="Path_1266" data-name="Path 1266" d="M572.041,107.992a1.791,1.791,0,1,1,1.791-1.791A1.791,1.791,0,0,1,572.041,107.992Z" transform="translate(-490.23 -98.666)" fill="#fff"/>
      <path id="Path_1267" data-name="Path 1267" d="M571.659,104.09a1.7,1.7,0,1,1-1.7,1.7,1.7,1.7,0,0,1,1.7-1.7m0-.186a1.359,1.359,0,1,0,.006,0Z" transform="translate(-489.847 -98.251)" fill="#fff"/>
      <rect id="Rectangle_298" data-name="Rectangle 298" width="5.777" height="0.932" transform="translate(38.533 41.931)" fill="#3f3d56"/>
      <rect id="Rectangle_299" data-name="Rectangle 299" width="5.777" height="0.932" transform="translate(38.533 48.64)" fill="#3f3d56"/>
      <rect id="Rectangle_300" data-name="Rectangle 300" width="5.777" height="0.932" transform="translate(38.533 55.348)" fill="#3f3d56"/>
      <rect id="Rectangle_301" data-name="Rectangle 301" width="5.777" height="0.932" transform="translate(38.533 62.057)" fill="#3f3d56"/>
      <rect id="Rectangle_302" data-name="Rectangle 302" width="5.777" height="0.932" transform="translate(38.533 68.766)" fill="#3f3d56"/>
      <rect id="Rectangle_303" data-name="Rectangle 303" width="4.286" height="20.457" transform="translate(69.376 62.855)" fill="#f36" opacity="0.3"/>
      <rect id="Rectangle_304" data-name="Rectangle 304" width="5.777" height="0.932" transform="translate(38.533 75.475)" fill="#3f3d56"/>
      <rect id="Rectangle_305" data-name="Rectangle 305" width="5.777" height="0.932" transform="translate(38.533 82.184)" fill="#3f3d56"/>
      <line id="Line_1" data-name="Line 1" y1="40.067" transform="translate(46.174 42.49)" fill="none" stroke="#3f3d56" stroke-miterlimit="10" stroke-width="1"/>
      <line id="Line_2" data-name="Line 2" x2="78.177" transform="translate(46.081 42.397)" fill="none" stroke="#3f3d56" stroke-miterlimit="10" stroke-width="1"/>
      <line id="Line_3" data-name="Line 3" x2="77.991" transform="translate(46.267 49.105)" fill="none" stroke="#3f3d56" stroke-miterlimit="10" stroke-width="1"/>
      <line id="Line_4" data-name="Line 4" x2="77.991" transform="translate(46.267 55.814)" fill="none" stroke="#3f3d56" stroke-miterlimit="10" stroke-width="1"/>
      <line id="Line_5" data-name="Line 5" x2="77.991" transform="translate(46.267 62.523)" fill="none" stroke="#3f3d56" stroke-miterlimit="10" stroke-width="1"/>
      <line id="Line_6" data-name="Line 6" x2="77.991" transform="translate(46.267 69.232)" fill="none" stroke="#3f3d56" stroke-miterlimit="10" stroke-width="1"/>
      <line id="Line_7" data-name="Line 7" x2="77.991" transform="translate(46.267 75.941)" fill="none" stroke="#3f3d56" stroke-miterlimit="10" stroke-width="1"/>
      <line id="Line_8" data-name="Line 8" x2="78.177" transform="translate(46.081 82.65)" fill="none" stroke="#3f3d56" stroke-miterlimit="10" stroke-width="1"/>
      <rect id="Rectangle_306" data-name="Rectangle 306" width="4.286" height="6.523" transform="translate(51.485 76.034)" fill="#f36"/>
      <rect id="Rectangle_307" data-name="Rectangle 307" width="4.286" height="13.902" transform="translate(61.269 68.654)" fill="#f36"/>
      <rect id="Rectangle_308" data-name="Rectangle 308" width="4.286" height="26.811" transform="translate(80.837 55.745)" fill="#f36"/>
      <rect id="Rectangle_309" data-name="Rectangle 309" width="4.286" height="33.358" transform="translate(90.62 49.199)" fill="#f36"/>
      <rect id="Rectangle_310" data-name="Rectangle 310" width="4.286" height="26.811" transform="translate(100.404 55.745)" fill="#f36"/>
      <rect id="Rectangle_311" data-name="Rectangle 311" width="4.286" height="40.102" transform="translate(110.188 42.454)" fill="#f36"/>
      <path id="Path_1268" data-name="Path 1268" d="M539.014,400.725a15.128,15.128,0,0,0-6.031-.721,1.153,1.153,0,0,0-.669.27.81.81,0,0,0-.019,1,1.767,1.767,0,0,0,.88.594,9.1,9.1,0,0,0,2.971.389,11.183,11.183,0,0,0,2.911-.2,1.213,1.213,0,0,0,.591-.281C540.185,401.231,539.471,400.844,539.014,400.725Z" transform="translate(-459.218 -339.098)" fill="#a0616a"/>
      <path id="Path_1269" data-name="Path 1269" d="M581.721,408.3a9.577,9.577,0,0,1-1.974-.125,13.426,13.426,0,0,1-1.714-.473L576,407.043a26.566,26.566,0,0,1-3.224-1.2c-1.791-.848-3.423-2.11-5.365-2.5-.35-.071-.794-.073-.975.235a.933.933,0,0,0-.089.475l-.011,1.431a.421.421,0,0,0,.252.464c1.843,1.183,3.928,2,5.6,3.412.507.427.971.906,1.5,1.3a6.139,6.139,0,0,0,2.346,1.064c1.187.259,2.475.171,3.55.734a5.651,5.651,0,0,0,1.478.745,2.97,2.97,0,0,0,1.392-.207,4.225,4.225,0,0,0,2.016-1.081,4.275,4.275,0,0,0,.7-2.808c0-.28.186-1.429.013-1.644-.248-.294-.634.142-.878.278A5.477,5.477,0,0,1,581.721,408.3Z" transform="translate(-487.046 -341.857)" fill="#e6e6f0"/>
      <path id="Path_1270" data-name="Path 1270" d="M662.877,390.86s1.243,5.3,2.154,6.131-6.461,2.654-6.461,2.654,1.571-5.8.826-6.8S662.877,390.86,662.877,390.86Z" transform="translate(-562.09 -331.734)" fill="#a0616a"/>
      <path id="Path_1271" data-name="Path 1271" d="M662.877,390.86s1.243,5.3,2.154,6.131-6.461,2.654-6.461,2.654,1.571-5.8.826-6.8S662.877,390.86,662.877,390.86Z" transform="translate(-562.09 -331.734)" opacity="0.1"/>
      <path id="Path_1272" data-name="Path 1272" d="M604.808,755.28c-.4.061-.818,0-1.222.049a2.407,2.407,0,0,0-1.491.757.637.637,0,0,0-.214.471.6.6,0,0,0,.173.326,2.7,2.7,0,0,0,1.457.745,11.582,11.582,0,0,0,2.451.186q3.064.017,6.129.028a4.919,4.919,0,0,0-.063-2.216,1.262,1.262,0,0,0-.255-.546,1.444,1.444,0,0,0-.466-.3l-1.26-.6c-1-.479-1.793-.835-2.8-.244A7.646,7.646,0,0,1,604.808,755.28Z" transform="translate(-515.965 -626.894)" fill="#3c354c"/>
      <path id="Path_1273" data-name="Path 1273" d="M604.808,755.28c-.4.061-.818,0-1.222.049a2.407,2.407,0,0,0-1.491.757.637.637,0,0,0-.214.471.6.6,0,0,0,.173.326,2.7,2.7,0,0,0,1.457.745,11.582,11.582,0,0,0,2.451.186q3.064.017,6.129.028a4.919,4.919,0,0,0-.063-2.216,1.262,1.262,0,0,0-.255-.546,1.444,1.444,0,0,0-.466-.3l-1.26-.6c-1-.479-1.793-.835-2.8-.244A7.646,7.646,0,0,1,604.808,755.28Z" transform="translate(-515.965 -626.894)" opacity="0.1"/>
      <path id="Path_1274" data-name="Path 1274" d="M629.316,773.8a1.64,1.64,0,0,1-.058.667,1.553,1.553,0,0,1-1.118.77,25.234,25.234,0,0,1-6.336.665,12.583,12.583,0,0,1-4.733-.511,2.12,2.12,0,0,1-.822-.492.932.932,0,0,1-.259-.885c.117-.4.533-.608.908-.777l2.041-.919,3.932-1.77a3.6,3.6,0,0,1,1.537-.429,4.53,4.53,0,0,1,1.811.682,8.661,8.661,0,0,0,1.3.529,6.192,6.192,0,0,1,1.3.35C629.464,772.063,629.283,773.168,629.316,773.8Z" transform="translate(-527.425 -640.313)" fill="#3c354c"/>
      <path id="Path_1275" data-name="Path 1275" d="M606.953,572.274a52.534,52.534,0,0,0-2.57,8.889c-.186,1.09-.291,2.19-.49,3.276a8.724,8.724,0,0,0-.268,3.094,12.105,12.105,0,0,0,.66,1.925c.308.848.483,1.739.773,2.592.451,1.323,1.172,2.538,1.631,3.858a28.909,28.909,0,0,0,1.264,3.858,13.415,13.415,0,0,1,1.118,2.128,3.3,3.3,0,0,1-.826,3.265c.11.5.69.745,1.167.932l1.742.643a2.8,2.8,0,0,0,2.05.2c.943-.412,1.118-1.657,1.09-2.684A36.846,36.846,0,0,0,613,596.871c-.559-2.236-1.1-4.473-1.761-6.685-.274-.913-.559-1.823-.781-2.752a17.657,17.657,0,0,1,.768-10.41c.745-1.864.082-4.16.166-6.174l-2.5-.46c-.492-.09-1.09-.143-1.4.248A6.182,6.182,0,0,0,606.953,572.274Z" transform="translate(-517.333 -477.755)" fill="#575a89"/>
      <path id="Path_1276" data-name="Path 1276" d="M606.953,572.274a52.534,52.534,0,0,0-2.57,8.889c-.186,1.09-.291,2.19-.49,3.276a8.724,8.724,0,0,0-.268,3.094,12.105,12.105,0,0,0,.66,1.925c.308.848.483,1.739.773,2.592.451,1.323,1.172,2.538,1.631,3.858a28.909,28.909,0,0,0,1.264,3.858,13.415,13.415,0,0,1,1.118,2.128,3.3,3.3,0,0,1-.826,3.265c.11.5.69.745,1.167.932l1.742.643a2.8,2.8,0,0,0,2.05.2c.943-.412,1.118-1.657,1.09-2.684A36.846,36.846,0,0,0,613,596.871c-.559-2.236-1.1-4.473-1.761-6.685-.274-.913-.559-1.823-.781-2.752a17.657,17.657,0,0,1,.768-10.41c.745-1.864.082-4.16.166-6.174l-2.5-.46c-.492-.09-1.09-.143-1.4.248A6.182,6.182,0,0,0,606.953,572.274Z" transform="translate(-517.333 -477.755)" opacity="0.1"/>
      <path id="Path_1277" data-name="Path 1277" d="M632.139,565.385a6.725,6.725,0,0,1-.544,2.609c-.248.488-.608.909-.889,1.379a8.69,8.69,0,0,0-.911,4.273c-.03,1.524.024,3.049.08,4.571a7.036,7.036,0,0,0,.143,1.4c.093.386.25.755.339,1.141.214.932.017,1.918.145,2.868a13.139,13.139,0,0,0,.591,2.1,10.741,10.741,0,0,1,.449,3.308c-.067,3.03.889,5.917.911,8.945,0,1.044-.037,2.089.05,3.131.093,1.133.341,2.247.464,3.379a.82.82,0,0,1-.17.732.8.8,0,0,1-.509.13,6.09,6.09,0,0,1-1.92-.186c-.559-.17-1.055-.468-1.6-.663-1.012-.373-2.266-.451-2.846-1.357a.533.533,0,0,1-.1-.261c0-.257.274-.416.4-.639a1,1,0,0,0,.108-.471,10.428,10.428,0,0,0-.841-3.457,23.488,23.488,0,0,1-.7-3.39,22.544,22.544,0,0,1-.356-7.143,2.215,2.215,0,0,0-.14-1.707,3.888,3.888,0,0,0-.537-.483,2.082,2.082,0,0,1-.688-1.526c0-1.864-.85-3.727-.932-5.591-.048-1.077.017-2.156-.034-3.233a33.622,33.622,0,0,0-1.908-8.3,4.07,4.07,0,0,1-.244-1.213,1.409,1.409,0,0,1,.466-1.118,4.65,4.65,0,0,1,5.1-.6c.313.186.6.4.932.559C628.168,565.469,630.4,564.526,632.139,565.385Z" transform="translate(-530.676 -472.202)" fill="#575a89"/>
      <circle id="Ellipse_161" data-name="Ellipse 161" cx="4.059" cy="4.059" r="4.059" transform="translate(94.491 55.812)" fill="#a0616a"/>
      <path id="Path_1278" data-name="Path 1278" d="M620.011,452.991a1.678,1.678,0,0,0,.6.39l1.237.559a2.271,2.271,0,0,0,.622.231,2.528,2.528,0,0,0,.826-.06,21.991,21.991,0,0,1,8.61.162,6.742,6.742,0,0,0,.745-4.752,6.121,6.121,0,0,1-.108-2.589c.1-.36.283-.691.386-1.051.28-.98-.058-2.037.1-3.045.186-1.236,1.086-2.236,1.58-3.381a10.933,10.933,0,0,0,.6-2.2q.274-1.374.559-2.741a13.353,13.353,0,0,0,.373-3.054,13.79,13.79,0,0,0-1.183-4.527,2.945,2.945,0,0,0-1.09-1.606,2.745,2.745,0,0,0-2.337.143,16.368,16.368,0,0,1-2.967,1.062c-.447.086-1.06-.069-1.465.05-.347.1-.583.57-.788.855a15.151,15.151,0,0,0-2.447,5.263c-.471,1.916-.578,3.953-1.45,5.721a11.735,11.735,0,0,1-.663,1.137,14.165,14.165,0,0,0-1.388,2.393,10.693,10.693,0,0,0-.488,4.219c0,.237.013.47.017.7q.056,2.436-.108,4.864A1.685,1.685,0,0,0,620.011,452.991Z" transform="translate(-530.517 -359.611)" fill="#e6e6f0"/>
      <path id="Path_1279" data-name="Path 1279" d="M532.877,510.2a15.111,15.111,0,0,1-6.044-.609,1.155,1.155,0,0,1-.594-.41.814.814,0,0,1,.2-.975,1.771,1.771,0,0,1,.988-.388,9.127,9.127,0,0,1,2.982.268,11.064,11.064,0,0,1,2.8.824,1.228,1.228,0,0,1,.514.4C534.135,509.965,533.349,510.183,532.877,510.2Z" transform="translate(-454.348 -426.862)" fill="#a0616a"/>
      <path id="Path_1280" data-name="Path 1280" d="M620.275,472.12c.451,0,.9-.022,1.347-.048a6.385,6.385,0,0,0,1.562-.235,6.554,6.554,0,0,0,2.041-1.247,43.526,43.526,0,0,0,5.425-5.229,6.988,6.988,0,0,0,1.379-2.069,7.1,7.1,0,0,0,.246-3.019,4.855,4.855,0,0,0-.429-1.942,1.864,1.864,0,0,0-1.3-1l.7.026a3.742,3.742,0,0,0-2.324-.291,3.882,3.882,0,0,0-1.586.373,3.565,3.565,0,0,0-1.3,1.521c-1.064,1.94-1.744,4.113-3.127,5.84a3.543,3.543,0,0,1-.63.641c-.037.028-.076.054-.116.08a14.166,14.166,0,0,0-1.388,2.393A10.525,10.525,0,0,0,620.275,472.12Z" transform="translate(-530.922 -385.559)" opacity="0.1"/>
      <path id="Path_1281" data-name="Path 1281" d="M582.914,453.257a1.769,1.769,0,0,1,1.6,1.018,5.009,5.009,0,0,1,.429,1.942,7.1,7.1,0,0,1-.246,3.019,6.987,6.987,0,0,1-1.379,2.069,43.663,43.663,0,0,1-5.417,5.229,6.484,6.484,0,0,1-2.041,1.247,6.384,6.384,0,0,1-1.562.235,14.841,14.841,0,0,1-5.926-.615c-1.491-.535-2.864-1.455-4.435-1.552a2.68,2.68,0,0,1-1.137-.186,1.91,1.91,0,0,1-.69-1.9.511.511,0,0,1,.522-.608c3.142-.389,6.422.408,9.45-.518a17.533,17.533,0,0,0,2.014-.807,4.472,4.472,0,0,0,.846-.458,3.471,3.471,0,0,0,.628-.641c1.383-1.728,2.065-3.9,3.129-5.84a3.624,3.624,0,0,1,1.3-1.521,4.208,4.208,0,0,1,1.586-.373,3.745,3.745,0,0,1,2.324.291" transform="translate(-483.593 -382.247)" fill="#e6e6f0"/>
      <path id="Path_1282" data-name="Path 1282" d="M651.1,363.669c-.186.229-.3.509-.509.717a.655.655,0,0,1-.794.168c-.363-.252-.173-.868-.455-1.208-.158-.186-.429-.248-.622-.4-.458-.373-.335-1.148-.745-1.582a1.445,1.445,0,0,0-1.582-.145,3.112,3.112,0,0,1-1.623.36c-.781-.16-1.187-1.014-1.411-1.78a3.067,3.067,0,0,1,0-2.3,2.541,2.541,0,0,1,1.549-1.118,17.26,17.26,0,0,1,1.931-.335c.855-.155,1.677-.449,2.551-.535a2.96,2.96,0,0,1,2.423.693c.9.911.745,2.4,1.193,3.6.257.68.717,1.267.991,1.94a2.934,2.934,0,0,1-.82,3.474.855.855,0,0,1-.583.186c-.442-.063-.6-.622-.58-1.068C652.075,363.518,651.885,362.681,651.1,363.669Z" transform="translate(-549.529 -302.952)" fill="#3f3d56"/>
      <rect id="Rectangle_312" data-name="Rectangle 312" width="4.286" height="20.457" transform="translate(71.053 62.11)" fill="#f36"/>
      <path id="Path_1283" data-name="Path 1283" d="M204.33,668.109c-.559-1.027.075-2.285.8-3.2s1.6-1.864,1.586-3.034c-.026-1.677-1.806-2.669-3.23-3.558a15.656,15.656,0,0,1-2.9-2.331,4.248,4.248,0,0,1-.893-1.193,4.867,4.867,0,0,1-.266-2.121q.091-3.589.354-7.171" transform="translate(-188.506 -538.92)" fill="none" stroke="#3f3d56" stroke-miterlimit="10" stroke-width="4"/>
      <path id="Path_1284" data-name="Path 1284" d="M186.86,633.9a2.609,2.609,0,0,1,1.3-2.143l.585,1.157-.017-1.4a2.609,2.609,0,1,1-1.864,2.387Z" transform="translate(-178.288 -527.455)" fill="#57b894"/>
      <path id="Path_1285" data-name="Path 1285" d="M210.621,723.175a2.609,2.609,0,1,0-.127-2.106l1.633,1.329-1.8-.416A2.586,2.586,0,0,0,210.621,723.175Z" transform="translate(-197.384 -599.023)" fill="#57b894"/>
      <path id="Path_1286" data-name="Path 1286" d="M207.98,689.713a2.609,2.609,0,0,0,2.736-2.492,2.576,2.576,0,0,0-.225-1.191,2.62,2.62,0,0,0-1.677-1.45l.013,1.079-.593-1.172h0a2.612,2.612,0,0,0-.244,5.218Z" transform="translate(-193.453 -570.639)" fill="#57b894"/>
      <path id="Path_1287" data-name="Path 1287" d="M173.856,667.036a2.617,2.617,0,1,0-1.155-4.9l.462,1.267-.95-.913a2.609,2.609,0,0,0-.846,1.806,2.551,2.551,0,0,0,.067.719A2.609,2.609,0,0,0,173.856,667.036Z" transform="translate(-165.679 -552.187)" fill="#57b894"/>
      <path id="Path_1288" data-name="Path 1288" d="M187.446,640.859c.6.065,1.191.253,1.8.291a1.959,1.959,0,0,0,1.655-.578,8.287,8.287,0,0,0,.485-.852,1.864,1.864,0,0,1,.658-.62,2.609,2.609,0,1,1-4.89,1.737Q187.308,640.842,187.446,640.859Z" transform="translate(-178.524 -533.713)" opacity="0.1"/>
      <path id="Path_1289" data-name="Path 1289" d="M174.187,673.581a2.616,2.616,0,0,0,2.488-3.731,1.961,1.961,0,0,0-.526.526,8.42,8.42,0,0,1-.518.865,2.133,2.133,0,0,1-1.735.606c-.632-.03-1.239-.207-1.864-.265-.086,0-.175-.013-.263-.017A2.609,2.609,0,0,0,174.187,673.581Z" transform="translate(-166.01 -558.732)" opacity="0.1"/>
      <path id="Path_1290" data-name="Path 1290" d="M208.436,696.462a2.609,2.609,0,0,0,2.736-2.492,2.576,2.576,0,0,0-.225-1.191,2.149,2.149,0,0,0-.559.531c-.2.287-.33.617-.559.881a2.416,2.416,0,0,1-1.852.648c-.669-.017-1.271-.173-1.916-.222A2.609,2.609,0,0,0,208.436,696.462Z" transform="translate(-193.909 -577.389)" opacity="0.1"/>
      <path id="Path_1291" data-name="Path 1291" d="M211.89,730.474a2.611,2.611,0,0,0,4.767-2.134,2.654,2.654,0,0,0-.574.511,10.317,10.317,0,0,1-.7.932,3.256,3.256,0,0,1-2.165.762A11.555,11.555,0,0,1,211.89,730.474Z" transform="translate(-198.653 -606.322)" opacity="0.1"/>
      <path id="Path_1292" data-name="Path 1292" d="M213.389,755.607a7.555,7.555,0,0,1-2.685-.507c-.622-.444-3.168-.973-3.33-.261s-3.1,3.541-.772,3.552,5.416-.363,6.036-.745S213.389,755.607,213.389,755.607Z" transform="translate(-193.622 -627.6)" fill="#656380"/>
      <path id="Path_1293" data-name="Path 1293" d="M206.594,762.976c2.329.019,5.416-.373,6.036-.745.471-.289.662-1.323.723-1.8h.069s-.13,1.664-.745,2.05-3.7.76-6.036.745c-.673,0-.906-.244-.893-.6C205.835,762.838,206.093,762.972,206.594,762.976Z" transform="translate(-193.655 -632.432)" opacity="0.2"/>
    </g>
  </g>
</svg>
