<svg xmlns="http://www.w3.org/2000/svg" xmlns:xlink="http://www.w3.org/1999/xlink" width="187.283" height="142.492" viewBox="0 0 187.283 142.492">
  <defs>
    <linearGradient id="linear-gradient" x1="0.5" y1="1" x2="0.5" gradientUnits="objectBoundingBox">
      <stop offset="0" stop-color="gray" stop-opacity="0.251"/>
      <stop offset="0.54" stop-color="gray" stop-opacity="0.122"/>
      <stop offset="1" stop-color="gray" stop-opacity="0.102"/>
    </linearGradient>
    <linearGradient id="linear-gradient-2" x1="0.63" y1="0.974" x2="0.63" y2="-0.017" xlink:href="#linear-gradient"/>
  </defs>
  <g id="Idling_Time" data-name="Idling Time" transform="translate(0.002 0.022)">
    <path id="Path_411" data-name="Path 411" d="M951.388,279.4s-2.643-8.976.5-15.582a14.177,14.177,0,0,0,1.147-8.894,23.842,23.842,0,0,0-1.26-4.175" transform="translate(-793.808 -216.418)" fill="none" stroke="#535461" stroke-miterlimit="10" stroke-width="2"/>
    <path id="Path_412" data-name="Path 412" d="M950.969,218.092c0,1.1-2,4.289-2,4.289s-2-3.189-2-4.289a2,2,0,1,1,3.982,0Z" transform="translate(-791.043 -187.933)" fill="#f36"/>
    <path id="Path_413" data-name="Path 413" d="M969.01,247.972c-.6.924-4.01,2.519-4.01,2.519s.062-3.759.659-4.683A2,2,0,0,1,969,247.974Z" transform="translate(-805.8 -211.721)" fill="#f36"/>
    <path id="Path_414" data-name="Path 414" d="M965.019,301.958c-.982.5-4.719.152-4.719.152s1.951-3.215,2.933-3.71a2,2,0,0,1,1.793,3.556Z" transform="translate(-801.953 -255.293)" fill="#f36"/>
    <path id="Path_415" data-name="Path 415" d="M955.034,346.244c-.884.653-4.634.949-4.634.949s1.38-3.5,2.265-4.153a2,2,0,0,1,2.36,3.2Z" transform="translate(-793.85 -291.718)" fill="#f36"/>
    <path id="Path_416" data-name="Path 416" d="M938.792,260.477c.79.766,4.465,1.561,4.465,1.561s-.908-3.65-1.69-4.418a2,2,0,1,0-2.775,2.857Z" transform="translate(-783.768 -221.494)" fill="#f36"/>
    <path id="Path_417" data-name="Path 417" d="M926.107,310.4c.982.5,4.719.152,4.719.152s-1.951-3.215-2.933-3.71A2,2,0,0,0,926.1,310.4Z" transform="translate(-773.168 -262.201)" fill="#f36"/>
    <path id="Path_418" data-name="Path 418" d="M921.823,361.294c.884.653,4.634.949,4.634.949s-1.38-3.5-2.265-4.153a2,2,0,1,0-2.36,3.2Z" transform="translate(-769.682 -303.863)" fill="#f36"/>
    <path id="Path_419" data-name="Path 419" d="M950.969,218.092c0,1.1-2,4.289-2,4.289s-2-3.189-2-4.289a2,2,0,1,1,3.982,0Z" transform="translate(-791.043 -187.933)" fill="#f36" opacity="0.1"/>
    <path id="Path_420" data-name="Path 420" d="M969.01,247.972c-.6.924-4.01,2.519-4.01,2.519s.062-3.759.659-4.683A2,2,0,0,1,969,247.974Z" transform="translate(-805.8 -211.721)" fill="#f36" opacity="0.1"/>
    <path id="Path_421" data-name="Path 421" d="M965.019,301.958c-.982.5-4.719.152-4.719.152s1.951-3.215,2.933-3.71a2,2,0,0,1,1.793,3.556Z" transform="translate(-801.953 -255.293)" fill="#f36" opacity="0.1"/>
    <path id="Path_422" data-name="Path 422" d="M955.034,346.244c-.884.653-4.634.949-4.634.949s1.38-3.5,2.265-4.153a2,2,0,0,1,2.36,3.2Z" transform="translate(-793.85 -291.718)" fill="#f36" opacity="0.1"/>
    <path id="Path_423" data-name="Path 423" d="M938.792,260.477c.79.766,4.465,1.561,4.465,1.561s-.908-3.65-1.69-4.418a2,2,0,1,0-2.775,2.857Z" transform="translate(-783.768 -221.494)" fill="#f36" opacity="0.1"/>
    <path id="Path_424" data-name="Path 424" d="M926.107,310.4c.982.5,4.719.152,4.719.152s-1.951-3.215-2.933-3.71A2,2,0,0,0,926.1,310.4Z" transform="translate(-773.168 -262.201)" fill="#f36" opacity="0.1"/>
    <path id="Path_425" data-name="Path 425" d="M921.823,361.294c.884.653,4.634.949,4.634.949s-1.38-3.5-2.265-4.153a2,2,0,1,0-2.36,3.2Z" transform="translate(-769.682 -303.863)" fill="#f36" opacity="0.1"/>
    <path id="Path_426" data-name="Path 426" d="M1012.388,358.4s-2.643-8.976.5-15.582a14.176,14.176,0,0,0,1.147-8.894,23.842,23.842,0,0,0-1.26-4.175" transform="translate(-843.735 -281.078)" fill="none" stroke="#535461" stroke-miterlimit="10" stroke-width="2"/>
    <path id="Path_427" data-name="Path 427" d="M1011.969,297.092c0,1.1-2,4.289-2,4.289s-2-3.189-2-4.289a2,2,0,1,1,3.982,0Z" transform="translate(-840.97 -252.592)" fill="#f36"/>
    <path id="Path_428" data-name="Path 428" d="M1030.042,325.9c-.6.924-4,2.518-4,2.518s.062-3.759.659-4.683a2,2,0,1,1,3.344,2.166Z" transform="translate(-855.76 -275.314)" fill="#f36"/>
    <path id="Path_429" data-name="Path 429" d="M1026.02,380.363c-.982.5-4.719.152-4.719.152s1.951-3.215,2.933-3.71a2,2,0,1,1,1.793,3.556Z" transform="translate(-851.881 -319.359)" fill="#f36"/>
    <path id="Path_430" data-name="Path 430" d="M1016.034,425.244c-.884.653-4.634.949-4.634.949s1.38-3.5,2.265-4.153a2,2,0,0,1,2.36,3.2Z" transform="translate(-843.778 -356.378)" fill="#f36"/>
    <path id="Path_431" data-name="Path 431" d="M1000.715,340.373c.79.766,4.465,1.561,4.465,1.561s-.908-3.65-1.69-4.418a2,2,0,0,0-2.775,2.857Z" transform="translate(-834.618 -287.05)" fill="#f36"/>
    <path id="Path_432" data-name="Path 432" d="M987.107,389.4c.982.5,4.719.152,4.719.152s-1.951-3.215-2.933-3.71A2,2,0,0,0,987.1,389.4Z" transform="translate(-823.095 -326.861)" fill="#f36"/>
    <path id="Path_433" data-name="Path 433" d="M982.823,440.294c.884.653,4.634.949,4.634.949s-1.38-3.5-2.265-4.153a2,2,0,1,0-2.36,3.2Z" transform="translate(-819.61 -368.524)" fill="#f36"/>
    <path id="Path_434" data-name="Path 434" d="M1011.969,297.092c0,1.1-2,4.289-2,4.289s-2-3.189-2-4.289a2,2,0,1,1,3.982,0Z" transform="translate(-840.97 -252.592)" fill="#f36" opacity="0.1"/>
    <path id="Path_435" data-name="Path 435" d="M1030.042,325.9c-.6.924-4,2.518-4,2.518s.062-3.759.659-4.683a2,2,0,1,1,3.344,2.166Z" transform="translate(-855.76 -275.314)" fill="#f36" opacity="0.1"/>
    <path id="Path_436" data-name="Path 436" d="M1026.02,380.363c-.982.5-4.719.152-4.719.152s1.951-3.215,2.933-3.71a2,2,0,1,1,1.793,3.556Z" transform="translate(-851.881 -319.359)" fill="#f36" opacity="0.1"/>
    <path id="Path_437" data-name="Path 437" d="M1016.034,425.244c-.884.653-4.634.949-4.634.949s1.38-3.5,2.265-4.153a2,2,0,0,1,2.36,3.2Z" transform="translate(-843.778 -356.378)" fill="#f36" opacity="0.1"/>
    <path id="Path_438" data-name="Path 438" d="M1000.715,340.373c.79.766,4.465,1.561,4.465,1.561s-.908-3.65-1.69-4.418a2,2,0,0,0-2.775,2.857Z" transform="translate(-834.618 -287.05)" fill="#f36" opacity="0.1"/>
    <path id="Path_439" data-name="Path 439" d="M987.107,389.4c.982.5,4.719.152,4.719.152s-1.951-3.215-2.933-3.71A2,2,0,0,0,987.1,389.4Z" transform="translate(-823.095 -326.861)" fill="#f36" opacity="0.1"/>
    <path id="Path_440" data-name="Path 440" d="M982.823,440.294c.884.653,4.634.949,4.634.949s-1.38-3.5-2.265-4.153a2,2,0,1,0-2.36,3.2Z" transform="translate(-819.61 -368.524)" fill="#f36" opacity="0.1"/>
    <path id="Path_457" data-name="Path 457" d="M1008.739,427.517a43.289,43.289,0,0,1-1.942,7.43q.014-.363.018-.717v-.908a24.673,24.673,0,0,0-8.945-18.7A19.312,19.312,0,0,0,995,412.6h9.339s3.674,7.5,4.44,11.176A11.2,11.2,0,0,1,1008.739,427.517Z" transform="translate(-830.355 -348.889)" fill="#ff4d52"/>
    <path id="Path_458" data-name="Path 458" d="M1008.739,427.517a43.289,43.289,0,0,1-1.942,7.43q.014-.363.018-.717v-.908a24.673,24.673,0,0,0-8.945-18.7A19.312,19.312,0,0,0,995,412.6h9.339s3.674,7.5,4.44,11.176A11.2,11.2,0,0,1,1008.739,427.517Z" transform="translate(-830.355 -348.889)" opacity="0.05"/>
    <ellipse id="Ellipse_89" data-name="Ellipse 89" cx="11.438" cy="12.518" rx="11.438" ry="12.518" transform="translate(151.024 66.429)" fill="#4b5c7a"/>
    <ellipse id="Ellipse_90" data-name="Ellipse 90" cx="11.438" cy="12.518" rx="11.438" ry="12.518" transform="translate(151.024 66.429)" opacity="0.05"/>
    <ellipse id="Ellipse_91" data-name="Ellipse 91" cx="11.438" cy="12.518" rx="11.438" ry="12.518" transform="translate(153.565 66.429)" fill="#4b5c7a"/>
    <circle id="Ellipse_92" data-name="Ellipse 92" cx="5.083" cy="5.083" r="5.083" transform="translate(159.666 73.927)" opacity="0.05"/>
    <circle id="Ellipse_93" data-name="Ellipse 93" cx="1.525" cy="1.525" r="1.525" transform="translate(163.224 77.485)" fill="none" stroke="#6f7d95" stroke-miterlimit="10" stroke-width="2"/>
    <circle id="Ellipse_94" data-name="Ellipse 94" cx="0.381" cy="0.381" r="0.381" transform="translate(164.368 75.96)" fill="#6f7d95"/>
    <circle id="Ellipse_95" data-name="Ellipse 95" cx="0.381" cy="0.381" r="0.381" transform="matrix(0.766, -0.643, 0.643, 0.766, 166.297, 77.029)" fill="#6f7d95"/>
    <circle id="Ellipse_96" data-name="Ellipse 96" cx="0.381" cy="0.381" r="0.381" transform="translate(167.172 79.458) rotate(-80)" fill="#6f7d95"/>
    <circle id="Ellipse_97" data-name="Ellipse 97" cx="0.381" cy="0.381" r="0.381" transform="translate(166.005 80.937) rotate(-30)" fill="#6f7d95"/>
    <circle id="Ellipse_98" data-name="Ellipse 98" cx="0.381" cy="0.381" r="0.381" transform="matrix(0.342, -0.94, 0.94, 0.342, 163.862, 81.71)" fill="#6f7d95"/>
    <circle id="Ellipse_99" data-name="Ellipse 99" cx="0.381" cy="0.381" r="0.381" transform="matrix(0.94, -0.342, 0.342, 0.94, 162.152, 79.848)" fill="#6f7d95"/>
    <circle id="Ellipse_100" data-name="Ellipse 100" cx="0.381" cy="0.381" r="0.381" transform="translate(162.101 78.002) rotate(-60)" fill="#6f7d95"/>
    <path id="Path_467" data-name="Path 467" d="M1008.739,427.517a25.012,25.012,0,0,1-1.922,6.716q-.181.4-.4.782c.024-.089.2-.71.4-1.686.973-4.756,2.637-17.916-8.515-18.667-.145-.009-.289-.018-.432-.024A19.312,19.312,0,0,0,995,412.6h9.339s3.674,7.5,4.44,11.176A11.2,11.2,0,0,1,1008.739,427.517Z" transform="translate(-830.355 -348.889)" opacity="0.05"/>
    <path id="Path_485" data-name="Path 485" d="M1049.7,375.172c-1.512-.993-3.91-3.053-3.583-5.346.163-1.149-.65-2.224-1.766-3.126,2.037.523,3.9,1.478,3.375,3.2-1.071,3.521,1.837,3.981,1.837,3.981S1049.621,374.355,1049.7,375.172Z" transform="translate(-870.747 -311.32)" opacity="0.05"/>
    <path id="Path_515" data-name="Path 515" d="M876,456.318a1.268,1.268,0,1,0,.882-2.178A3.674,3.674,0,0,0,876,456.318Z" transform="translate(-732.955 -382.888)" fill="#f36"/>
    <path id="Path_516" data-name="Path 516" d="M876,456.318a1.268,1.268,0,1,0,.882-2.178A3.674,3.674,0,0,0,876,456.318Z" transform="translate(-732.955 -382.888)" opacity="0.1"/>
    <path id="Path_517" data-name="Path 517" d="M886.047,476.83s3.177,6.235.588,9.646.236,12.706.236,12.706" transform="translate(-740.766 -401.46)" fill="none" stroke="#f36" stroke-miterlimit="10" stroke-width="1"/>
    <path id="Path_518" data-name="Path 518" d="M885.544,456.318a1.268,1.268,0,1,1-.882-2.178A3.674,3.674,0,0,1,885.544,456.318Z" transform="translate(-739.323 -382.888)" fill="#f36"/>
    <path id="Path_519" data-name="Path 519" d="M881.106,483.838a1.267,1.267,0,1,1,.873-2.178A3.668,3.668,0,0,1,881.106,483.838Z" transform="translate(-735.378 -405.413)" fill="#f36"/>
    <path id="Path_520" data-name="Path 520" d="M881.555,507.53a1.265,1.265,0,1,1,.866-2.18A3.668,3.668,0,0,1,881.555,507.53Z" transform="translate(-735.746 -424.803)" fill="#f36"/>
    <path id="Path_524" data-name="Path 524" d="M890.159,476.83s-3.177,6.235-.588,9.646-.236,12.706-.236,12.706" transform="translate(-743.232 -401.46)" fill="none" stroke="#f36" stroke-miterlimit="10" stroke-width="1"/>
    <path id="Path_525" data-name="Path 525" d="M892.21,456.318a1.268,1.268,0,1,0,.882-2.178A3.674,3.674,0,0,0,892.21,456.318Z" transform="translate(-746.223 -382.888)" fill="#f36"/>
    <path id="Path_526" data-name="Path 526" d="M892.21,456.318a1.268,1.268,0,1,0,.882-2.178A3.674,3.674,0,0,0,892.21,456.318Z" transform="translate(-746.223 -382.888)" opacity="0.1"/>
    <path id="Path_527" data-name="Path 527" d="M889.518,489.971a3.717,3.717,0,0,0-.908,2.178,3.663,3.663,0,0,0,2.156-.931,3.717,3.717,0,0,0,.908-2.178A3.659,3.659,0,0,0,889.518,489.971Z" transform="translate(-743.276 -411.453)" fill="#f36"/>
    <path id="Path_528" data-name="Path 528" d="M889.518,489.971a3.717,3.717,0,0,0-.908,2.178,3.663,3.663,0,0,0,2.156-.931,3.717,3.717,0,0,0,.908-2.178A3.659,3.659,0,0,0,889.518,489.971Z" transform="translate(-743.276 -411.453)" opacity="0.1"/>
    <path id="Path_529" data-name="Path 529" d="M898.628,522.8a3.717,3.717,0,0,0-.908,2.178,3.663,3.663,0,0,0,2.156-.931,3.717,3.717,0,0,0,.908-2.178A3.636,3.636,0,0,0,898.628,522.8Z" transform="translate(-750.733 -438.324)" fill="#f36"/>
    <path id="Path_530" data-name="Path 530" d="M889.31,505.856s1.911-3.013,4.6-3.086" transform="translate(-743.849 -422.691)" fill="none" stroke="#f36" stroke-miterlimit="10" stroke-width="1"/>
    <path id="Path_532" data-name="Path 532" d="M879.74,519.526s1.911-3.013,4.6-3.086" transform="translate(-736.017 -433.88)" fill="none" stroke="#f36" stroke-miterlimit="10" stroke-width="1"/>
    <circle id="Ellipse_102" data-name="Ellipse 102" cx="0.496" cy="0.496" r="0.496" transform="translate(149.472 79.567)" fill="#f36"/>
    <circle id="Ellipse_105" data-name="Ellipse 105" cx="0.496" cy="0.496" r="0.496" transform="translate(147.86 82.09)" fill="#f36"/>
    <g id="Group_204" data-name="Group 204" transform="translate(-0.002 -0.022)">
      <path id="Path_410" data-name="Path 410" d="M119.678,82.444a11.812,11.812,0,0,0-1.806,4.5c-3.449,12.859-11.948,23.2-21.626,30.59-4.1,3.129-9.089,7.326-8.192,12.937.483,3.013,2.6,5.231,4.175,7.686a23.843,23.843,0,0,1,2.8,18.275c-1.79,7-6.792,13.53-5.244,20.608.955,4.356,4.2,7.457,7.313,10.122q7.293,6.232,15.052,11.675c3.467,2.432,7.155,4.8,11.2,5.108,3.558.272,7.043-1.08,10.421-2.414,2.952-1.167,5.977-2.382,8.361-4.72,1.556-1.527,2.8-3.5,4.523-4.745,4.059-2.933,9.272-1.075,13.926.182a48.488,48.488,0,0,0,33.185-3.039c16.03-7.533,28.248-23.352,43.928-31.84,6.742-3.65,14.075-5.916,20.317-10.617a37.954,37.954,0,0,0,8.931-9.664,41.8,41.8,0,0,0,6.535-25.65c-.737-9.087-4.867-17.843-11.352-22.973-6.943-5.491-15.712-6.517-23.612-9.813-8.154-3.409-15.411-9.265-23.487-12.915a48.043,48.043,0,0,0-41.443.928c-8.795,4.447-17.705,14.823-27.5,15.611C139.1,82.818,125.127,75.834,119.678,82.444Z" transform="translate(-87.948 -61.488)" fill="#f36" opacity="0.1"/>
      <ellipse id="Ellipse_75" data-name="Ellipse 75" cx="89.696" cy="14.438" rx="89.696" ry="14.438" transform="matrix(0.995, -0.097, 0.097, 0.995, 5.935, 87.323)" fill="#f36" opacity="0.1"/>
      <path id="Path_441" data-name="Path 441" d="M280.57,345.413c3.356-6.88,2.663-18.077,2.305-21.879-.078-.831-.14-1.309-.14-1.309s-2.959-.466-1.868-4.048c.534-1.753-1.361-2.723-3.431-3.255a24.164,24.164,0,0,0-4.509-.637l-28.66-1.77h0c-3.93-6.237-11.663-5.235-11.663-5.235s-6.9-.717-11.788-.791a13.16,13.16,0,0,0-2.425-1.694,7.987,7.987,0,0,0-1.645-.75,4.66,4.66,0,0,0-4.117.771,2.189,2.189,0,0,0-.67.779,2.133,2.133,0,0,0-.136.438,7.819,7.819,0,0,0-.182.779,1.342,1.342,0,0,1-.182.354c-.2.278-.534.486-.577.822a.543.543,0,0,0,0,.058.61.61,0,0,0-.071.207.746.746,0,0,0,.093.43.7.7,0,0,0,.036.062,5.123,5.123,0,0,0-.586,1.125,1.882,1.882,0,0,0-.194.122l-.054.04v.111l-.031.024-.067,1.788.038.029a5.293,5.293,0,0,0,2.461,4.131c.024.114.045.23.067.352a9.59,9.59,0,0,1,.134,1.775h-.031c-.853-.363-2.313.171-3.567.793h-16.25a50.924,50.924,0,0,1,7.047-7.239v-3.583c-2.77-.138-27.1,11.552-32.439,14.133l-.236.114-27.418.85a42.251,42.251,0,0,0-13.069,1.888,37.191,37.191,0,0,0-16.366,10.456,30.572,30.572,0,0,0-4.658,6.491l.031.247-.031.064.044.038.739,5.83.508,4.012c-3.532,2.284,1.044,3.2,1.044,3.2,4.356,3.736,11.365,3.581,11.365,3.581,1.712,2.336,6.694,2.024,6.694,2.024h26.155a63.372,63.372,0,0,1,1.634-7.116c1.116,8.039,7.46,14.2,15.117,14.2a14.147,14.147,0,0,0,1.7-.1,14.146,14.146,0,0,0,1.7.1c7.745,0,14.146-6.3,15.153-14.478h1.28a28.528,28.528,0,0,1-1.24,5.371c23.509-6.851,67.257-10.12,67.257-10.12q.272-2.587.6-4.99a11.645,11.645,0,0,0,10.644,7.6,10.493,10.493,0,0,1,2.585,0c5.647,0,10.347-4.405,11.407-10.247a26.709,26.709,0,0,1,.24,3.109c-.2.991-.378,1.625-.4,1.714q.212-.389.4-.8v.323c-.044.181-.074.283-.083.318l.08-.149v.238A7.076,7.076,0,0,1,280.57,345.413Z" transform="translate(-102.458 -259.868)" fill="url(#linear-gradient)"/>
      <rect id="Rectangle_105" data-name="Rectangle 105" width="53.893" height="21.741" transform="translate(121.477 60.826)" fill="#6f7d95"/>
      <path id="Path_442" data-name="Path 442" d="M593.73,276.214l7.655,17.148,15.159-.919.612-7.043.459-8.268L596.18,275.6Z" transform="translate(-485.956 -225.569)" fill="#4b5c7a"/>
      <path id="Path_443" data-name="Path 443" d="M681.68,324.524a14.342,14.342,0,0,1,6.431-3.369c3.527-.614,15.311.612,15.311.612l1.685,2.9-.316,1.383Z" transform="translate(-573.906 -273.879)" fill="#ff4d52"/>
      <rect id="Rectangle_106" data-name="Rectangle 106" width="54.352" height="15.923" transform="translate(82.281 59.448)" fill="#4b5c7a"/>
      <path id="Path_444" data-name="Path 444" d="M640.561,332.537a8.564,8.564,0,0,0-1.427-7.956l-4.745-3.311a.226.226,0,0,1-.015.033,6.172,6.172,0,0,1-1.291-2.5c-.014-.058-.027-.118-.042-.181a5.107,5.107,0,0,0,1.125-1.153,2.781,2.781,0,0,0,1.249-2,9.962,9.962,0,0,0,1.178-2.383,4.252,4.252,0,0,0,.12-.416,2.179,2.179,0,0,0,.12-.815,2.228,2.228,0,0,0-.3-.871,9.154,9.154,0,0,0-3.694-3.287,7.859,7.859,0,0,0-1.617-.737,4.583,4.583,0,0,0-4.048.759,2.153,2.153,0,0,0-.659.766,2.107,2.107,0,0,0-.134.43,7.683,7.683,0,0,0-.172.766,1.323,1.323,0,0,1-.171.347c-.194.272-.525.477-.568.81a.542.542,0,0,0,0,.058.6.6,0,0,0-.069.2.726.726,0,0,0,.091.423.687.687,0,0,0,.036.062,5.038,5.038,0,0,0-.577,1.107,1.858,1.858,0,0,0-.192.12l-.053.038v.109l-.031.024-.067,1.759.036.029a5.2,5.2,0,0,0,2.42,4.064c.024.113.045.227.065.347a9.315,9.315,0,0,1,.131,1.919.653.653,0,0,1,0-.167c-1.312-.594-4.175,1.047-5.328,1.773h0a2.188,2.188,0,0,0-.485.314l-.02.015h0c-.793.643-2.36,2.429-3.6,7.019-1.724,6.406-1.545,7.858-2.8,9.343s-2.5,11.946-2.5,11.946l2.529.681.323-1.038c3.006,2.741,11.423,4.061,11.423,4.061l.258-.8A6.783,6.783,0,0,0,630.5,354c3.155-1.115,4.336-3.943,6.625-7.673S640.561,332.537,640.561,332.537Zm-12.725,19.3,5.827-18.074c.528,2.806-1.8,7.226-2.009,10.116C631.525,345.739,629.362,349.433,627.837,351.838Z" transform="translate(-517.3 -262.256)" fill="url(#linear-gradient-2)"/>
      <path id="Path_445" data-name="Path 445" d="M720.533,343.769s1.015,3.865-2,4.538-1.027-1.737-1.027-1.737l2.9-2.83Z" transform="translate(-602.706 -292.506)" fill="#472727"/>
      <path id="Path_446" data-name="Path 446" d="M627.324,394.64s-2.24.908-3.886,7.021-1.483,7.493-2.668,8.914-2.4,11.394-2.4,11.394l2.371.639,2.064-6.665,5.676-17.607Z" transform="translate(-522.088 -334.166)" fill="#dde0e4"/>
      <path id="Path_447" data-name="Path 447" d="M627.324,394.64s-2.24.908-3.886,7.021-1.483,7.493-2.668,8.914-2.4,11.394-2.4,11.394l2.371.639,2.064-6.665,5.676-17.607Z" transform="translate(-522.088 -334.166)" opacity="0.05"/>
      <path id="Path_448" data-name="Path 448" d="M699.507,357.693s-9.377,4.767-8.005,1.657a7.737,7.737,0,0,0,.456-4.356,9.311,9.311,0,0,0-.59-2.109s6.375-5.043,6-.926a7.878,7.878,0,0,0,.182,2.647A5.309,5.309,0,0,0,699.507,357.693Z" transform="translate(-581.833 -297.909)" fill="#db8b8b"/>
      <path id="Path_449" data-name="Path 449" d="M697.53,354.62a4.9,4.9,0,0,1-4.356.908A4.957,4.957,0,0,1,691.93,355a9.3,9.3,0,0,0-.59-2.109s6.375-5.043,6-.926A7.877,7.877,0,0,0,697.53,354.62Z" transform="translate(-581.813 -297.917)" opacity="0.1"/>
      <circle id="Ellipse_76" data-name="Ellipse 76" cx="4.908" cy="4.908" r="4.908" transform="translate(106.696 56.091) rotate(-74.93)" fill="#db8b8b"/>
      <path id="Path_450" data-name="Path 450" d="M687.544,316.992a1.171,1.171,0,0,1-1.634-.43.7.7,0,0,1-.084-.4c.042-.316.354-.512.545-.773.3-.423.24-1,.454-1.472a2.068,2.068,0,0,1,.621-.726,4.268,4.268,0,0,1,3.8-.741,7.252,7.252,0,0,1,1.514.7,8.445,8.445,0,0,1,3.449,3.117,2.128,2.128,0,0,1,.28.83,2.36,2.36,0,0,1-.163.926,9.651,9.651,0,0,1-1.131,2.3,1.772,1.772,0,0,0-.588-.474.606.606,0,0,0-.7.129c-.158.2-.254.586-.494.5-.156-.058-.154-.274-.147-.441a2.521,2.521,0,0,0-.895-1.9,7.494,7.494,0,0,0-1.841-1.131,7.75,7.75,0,0,0-1.6-.846C688.3,316.028,688,316.711,687.544,316.992Z" transform="translate(-577.298 -266.758)" opacity="0.1"/>
      <path id="Path_451" data-name="Path 451" d="M687.914,315.622a1.171,1.171,0,0,1-1.634-.43.7.7,0,0,1-.083-.4c.042-.316.354-.512.545-.773.3-.423.24-1,.454-1.472a2.069,2.069,0,0,1,.621-.726,4.267,4.267,0,0,1,3.8-.741,7.25,7.25,0,0,1,1.514.7,8.444,8.444,0,0,1,3.449,3.117,2.127,2.127,0,0,1,.28.83,2.36,2.36,0,0,1-.163.926,9.649,9.649,0,0,1-1.131,2.3,1.772,1.772,0,0,0-.588-.474.606.606,0,0,0-.7.129c-.158.2-.254.586-.494.5-.156-.058-.154-.274-.147-.441a2.521,2.521,0,0,0-.895-1.9,7.493,7.493,0,0,0-1.841-1.131,7.744,7.744,0,0,0-1.6-.846C688.669,314.656,688.369,315.341,687.914,315.622Z" transform="translate(-577.6 -265.637)" fill="#472727"/>
      <path id="Path_452" data-name="Path 452" d="M643.058,386.4s3.883-.761,4.052-1.383l4.44,3.135a8.207,8.207,0,0,1,1.305,7.575s-1.113,9.6-3.276,13.164-3.407,8.179-6.371,9.257c0,0-2.85-1.837-3.79-1.815,0,0,4.827-6.994,5.034-9.748s2.412-6.976,1.93-9.648l-6.535,20.312s-10.528-1.634-11.6-5.128a4.683,4.683,0,0,0,.739-2.745c-.169-1.381,3.972-11.773,3.972-11.773l1.982-10.837s3.921-2.739,5.482-2.028C640.417,384.727,640.134,386.079,643.058,386.4Z" transform="translate(-530.175 -325.965)" fill="#dde0e4"/>
      <g id="Group_203" data-name="Group 203" transform="translate(107.77 50.84)" opacity="0.1">
        <path id="Path_453" data-name="Path 453" d="M688.187,342.736h0c-.958-1.307-2.786-.234-3.086-.047l-.47-.047c-.41-.447-1.668-1.634-2.85-.761l-.051.038-.071,1.675.051.04a3.5,3.5,0,0,0,1.142.585,1.723,1.723,0,0,0,.806.04,1.39,1.39,0,0,0,.927-.726l.245.016.182-.034a1.381,1.381,0,0,0,.653.933,2.83,2.83,0,0,0,2.046-.009l.062-.024.436-1.621Zm-.615,1.474a2.427,2.427,0,0,1-1.764,0,1.173,1.173,0,0,1-.545-.882l-.022-.132-.4.082-.4-.014-.038.076a1.178,1.178,0,0,1-.8.668,2.452,2.452,0,0,1-1.683-.534l.06-1.416c1.027-.692,2.16.43,2.487.8l.035.038.663.065.04-.027c.018-.011,1.665-1.116,2.6-.227a1.212,1.212,0,0,1,.129.14Z" transform="translate(-681.66 -341.569)"/>
        <path id="Path_454" data-name="Path 454" d="M718.874,348.7l-3.086-.256-.254-.049.114-.428a1.215,1.215,0,0,0-.129-.14l.374.036,2.525.247Z" transform="translate(-709.374 -346.693)"/>
      </g>
      <path id="Path_455" data-name="Path 455" d="M688.367,342.1h0c-.958-1.307-2.786-.234-3.086-.047l-.47-.047c-.41-.447-1.668-1.634-2.85-.761l-.051.038-.071,1.675.051.04a3.5,3.5,0,0,0,1.142.584,1.722,1.722,0,0,0,.806.04,1.39,1.39,0,0,0,.928-.726l.245.016.182-.034a1.381,1.381,0,0,0,.653.933,2.83,2.83,0,0,0,2.046-.009l.062-.024.436-1.621Zm-.615,1.474a2.428,2.428,0,0,1-1.764,0,1.172,1.172,0,0,1-.544-.882l-.022-.133-.4.082-.394-.025-.038.076a1.178,1.178,0,0,1-.793.675,2.452,2.452,0,0,1-1.683-.534l.06-1.416c1.027-.692,2.16.43,2.487.8l.034.038.663.065.04-.027c.018-.011,1.665-1.116,2.6-.227a1.22,1.22,0,0,1,.129.14Z" transform="translate(-574.037 -290.205)" fill="#472727"/>
      <path id="Path_456" data-name="Path 456" d="M719.083,348.063l-3.075-.256-.254-.049.114-.428a1.214,1.214,0,0,0-.129-.14l.374.036,2.525.247Z" transform="translate(-601.784 -295.33)" fill="#472727"/>
      <rect id="Rectangle_107" data-name="Rectangle 107" width="53.893" height="21.741" transform="translate(42.32 71.849)" fill="#6f7d95"/>
      <ellipse id="Ellipse_77" data-name="Ellipse 77" cx="15.039" cy="16.458" rx="15.039" ry="16.458" transform="translate(51.946 74.912)" fill="#4b5c7a"/>
      <ellipse id="Ellipse_78" data-name="Ellipse 78" cx="15.039" cy="16.458" rx="15.039" ry="16.458" transform="translate(51.946 74.912)" opacity="0.05"/>
      <ellipse id="Ellipse_79" data-name="Ellipse 79" cx="15.039" cy="16.458" rx="15.039" ry="16.458" transform="translate(55.287 74.912)" fill="#4b5c7a"/>
      <circle id="Ellipse_80" data-name="Ellipse 80" cx="6.684" cy="6.684" r="6.684" transform="translate(63.309 84.77)" opacity="0.05"/>
      <circle id="Ellipse_81" data-name="Ellipse 81" cx="2.006" cy="2.006" r="2.006" transform="translate(67.987 89.448)" fill="none" stroke="#6f7d95" stroke-miterlimit="10" stroke-width="2"/>
      <circle id="Ellipse_82" data-name="Ellipse 82" cx="0.501" cy="0.501" r="0.501" transform="translate(69.491 87.444)" fill="#6f7d95"/>
      <circle id="Ellipse_83" data-name="Ellipse 83" cx="0.501" cy="0.501" r="0.501" transform="matrix(0.766, -0.643, 0.643, 0.766, 72.028, 88.85)" fill="#6f7d95"/>
      <circle id="Ellipse_84" data-name="Ellipse 84" cx="0.501" cy="0.501" r="0.501" transform="translate(73.179 92.041) rotate(-80)" fill="#6f7d95"/>
      <circle id="Ellipse_85" data-name="Ellipse 85" cx="0.501" cy="0.501" r="0.501" transform="translate(71.642 93.987) rotate(-30)" fill="#6f7d95"/>
      <circle id="Ellipse_86" data-name="Ellipse 86" cx="0.501" cy="0.501" r="0.501" transform="matrix(0.342, -0.94, 0.94, 0.342, 68.826, 95.003)" fill="#6f7d95"/>
      <circle id="Ellipse_87" data-name="Ellipse 87" cx="0.501" cy="0.501" r="0.501" transform="matrix(0.94, -0.342, 0.342, 0.94, 66.579, 92.557)" fill="#6f7d95"/>
      <circle id="Ellipse_88" data-name="Ellipse 88" cx="0.501" cy="0.501" r="0.501" transform="translate(66.508 90.13) rotate(-60)" fill="#6f7d95"/>
      <path id="Path_459" data-name="Path 459" d="M115.383,525.111,114,514.24h16.382l8.421,7.5-4.133,9.646S117.993,528.633,115.383,525.111Z" transform="translate(-109.271 -432.057)" fill="#ff4d52"/>
      <path id="Path_460" data-name="Path 460" d="M138.849,521.75l-4.133,9.646s-16.682-2.755-19.292-6.277l-.06-.474-1.271-10.053-.013-.1-.031-.243h16.382Z" transform="translate(-109.312 -432.065)" opacity="0.05"/>
      <path id="Path_461" data-name="Path 461" d="M475.915,330.364v3.521s-8.466,6.9-10.481,13.405a8.2,8.2,0,0,0-.39,3.284c.766,7.2-22.044-5.819-22.044-5.819l1.015-.494C449.259,341.733,473.19,330.227,475.915,330.364Z" transform="translate(-378.551 -281.557)" fill="#7597ce"/>
      <path id="Path_462" data-name="Path 462" d="M729.914,352.076s7.929-3.9,9.2-6.778c.171-.387.332-.777.521-1.156.786-1.581,2.438-5.289,1.606-7.07-1.071-2.3,2.6.307,2.6.307L741.7,348.246l-5.206,2.9-6.736.926" transform="translate(-613.259 -286.273)" fill="#ff4d52"/>
      <path id="Path_463" data-name="Path 463" d="M729.914,352.076s7.929-3.9,9.2-6.778c.171-.387.332-.777.521-1.156.786-1.581,2.438-5.289,1.606-7.07-1.071-2.3,2.6.307,2.6.307L741.7,348.246l-5.206,2.9-6.736.926" transform="translate(-613.259 -286.273)" opacity="0.05"/>
      <path id="Path_464" data-name="Path 464" d="M138.825,521.759l-4.133,9.646s-16.682-2.755-19.292-6.277l-.06-.474c.067-.045.138-.093.212-.138,0,0,5.052,3.981,16.536,4.9,0,0,6.9-5.513-4.287-11.635,0,0-9.729.3-13.737-3.178l-.044-.036.031-.063q.04-.078.129-.243H130.4Z" transform="translate(-109.287 -432.073)" opacity="0.05"/>
      <path id="Path_465" data-name="Path 465" d="M465.044,413.241c.766,7.2-22.044-5.818-22.044-5.818l1.015-.494c.672.715,3.353,3.128,8.713,2.866,3.449-.169,8.686-.015,12.715.162A8.2,8.2,0,0,0,465.044,413.241Z" transform="translate(-378.551 -344.226)" opacity="0.05"/>
      <path id="Path_466" data-name="Path 466" d="M374.993,457.31v21.741H364.98c.661-5.057.28-12.429-6.143-16.654a15.534,15.534,0,0,0-16.21-.483c-4.209,2.4-8.916,7.29-11.908,17.137H321.1V457.31Z" transform="translate(-278.778 -385.461)" opacity="0.05"/>
      <path id="Path_468" data-name="Path 468" d="M285.456,383.434c.145-.525,5.319-19.446-8.119-20.352-13.627-.918-15.311,9.339-16.841,23.273,0,0-43.02,3.215-66.142,9.953,0,0,5.551-15.211-4.9-22.091a15.534,15.534,0,0,0-16.21-.483c-5.155,2.944-11.06,9.621-13.643,24.563H133.875s-4.9.307-6.584-2c0,0-6.9.152-11.176-3.521,0,0-4.592-.918-.918-3.215,0,0,5.206,3.981,16.689,4.9,0,0,6.9-5.513-4.287-11.635,0,0-9.8.307-13.779-3.215a30.034,30.034,0,0,1,4.582-6.382,36.576,36.576,0,0,1,16.088-10.287,41.666,41.666,0,0,1,12.861-1.855l27.023-.842s2.61,3.369,8.88,3.062,18.526.459,18.526.459h.122l25.217-1.142a16.048,16.048,0,0,0,2.144-.454c3.656-.993,10.59-4,9.339-12.414l39.655,2.451a23.763,23.763,0,0,1,4.435.626c2.037.523,3.9,1.478,3.374,3.2-1.071,3.521,1.837,3.981,1.837,3.981s.062.47.138,1.287C288.4,365.158,289.114,376.739,285.456,383.434Z" transform="translate(-109.084 -297.433)" fill="#ff4d52"/>
      <path id="Path_471" data-name="Path 471" d="M156.206,423.25v4.115l-13.93,6.431-2.156-.26A36.576,36.576,0,0,1,156.206,423.25Z" transform="translate(-130.65 -357.583)" opacity="0.05"/>
      <path id="Path_472" data-name="Path 472" d="M155.348,422.41v4.115l-13.932,6.429-2.156-.26a36.576,36.576,0,0,1,16.088-10.285Z" transform="translate(-129.946 -356.896)" fill="#ffec9f"/>
      <path id="Path_473" data-name="Path 473" d="M299.418,525.21a19.537,19.537,0,0,0-8.268,14.7h4.287s1.684-11.024,6.584-14.7Z" transform="translate(-254.265 -441.035)" fill="none"/>
      <path id="Path_475" data-name="Path 475" d="M640,424.033l-38.891,4.592s-2.572-16.373-2.1-22.743l25.217-1.142a16.038,16.038,0,0,0,2.142-.448v1.519l18.985-4.592S648.576,405.965,640,424.033Z" transform="translate(-506.199 -339.552)" fill="none"/>
      <path id="Path_476" data-name="Path 476" d="M640,424.033l-38.891,4.592s-2.572-16.373-2.1-22.743l25.217-1.142a16.038,16.038,0,0,0,2.142-.448v1.519l18.985-4.592S648.576,405.965,640,424.033Z" transform="translate(-506.199 -339.552)" opacity="0.05"/>
      <path id="Path_477" data-name="Path 477" d="M801.46,325.037s8.268-1.071,11.942,5.972l-11.824-.456Z" transform="translate(-671.944 -277.15)" fill="#ff4d52"/>
      <path id="Path_478" data-name="Path 478" d="M863.545,362.718c-.325,1.018-.08,2.138,1.8,2.913a2.945,2.945,0,0,0,3.939-1.708c.312-.937.1-2-1.59-2.859A2.858,2.858,0,0,0,863.545,362.718Z" transform="translate(-722.661 -306.391)" fill="none"/>
      <path id="Path_479" data-name="Path 479" d="M863.545,362.718c-.325,1.018-.08,2.138,1.8,2.913a2.945,2.945,0,0,0,3.939-1.708c.312-.937.1-2-1.59-2.859A2.858,2.858,0,0,0,863.545,362.718Z" transform="translate(-722.661 -306.391)" opacity="0.05"/>
      <path id="Path_480" data-name="Path 480" d="M115.63,526.88s9.813,5.083,16.856,3.158" transform="translate(-110.605 -442.402)" fill="none" stroke="#ff4d52" stroke-miterlimit="10" stroke-width="1"/>
      <path id="Path_481" data-name="Path 481" d="M117.54,542s6.34,4.89,19.156,3.754" transform="translate(-112.168 -454.778)" fill="none" stroke="#ff4d52" stroke-miterlimit="10" stroke-width="1"/>
      <path id="Path_482" data-name="Path 482" d="M119.15,554.69s6.29,5.458,19.214,3.728" transform="translate(-113.486 -465.164)" fill="none" stroke="#ff4d52" stroke-miterlimit="10" stroke-width="1"/>
      <path id="Path_483" data-name="Path 483" d="M820.524,353.67a46.223,46.223,0,0,1-9.784,6.413S817.83,361.345,820.524,353.67Z" transform="translate(-679.539 -300.633)" opacity="0.05"/>
      <path id="Path_484" data-name="Path 484" d="M566.1,421.507s24.273,2.293,33.458.149c0,0,.49.325-2.434-.986Z" transform="translate(-479.306 -355.472)" opacity="0.1"/>
      <path id="Path_512" data-name="Path 512" d="M869.847,476.83s3.177,6.235.588,9.646.236,12.706.236,12.706" transform="translate(-727.504 -401.437)" fill="none" stroke="#f36" stroke-miterlimit="10" stroke-width="1"/>
      <path id="Path_513" data-name="Path 513" d="M869.344,456.318a1.268,1.268,0,1,1-.882-2.178A3.674,3.674,0,0,1,869.344,456.318Z" transform="translate(-726.062 -382.866)" fill="#f36"/>
      <path id="Path_514" data-name="Path 514" d="M873.959,476.83s-3.177,6.235-.588,9.646-.236,12.706-.236,12.706" transform="translate(-729.97 -401.437)" fill="none" stroke="#f36" stroke-miterlimit="10" stroke-width="1"/>
      <path id="Path_521" data-name="Path 521" d="M856.9,525.586a1.267,1.267,0,1,1-2.093-1.065A3.665,3.665,0,0,1,856.9,525.586Z" transform="translate(-715.609 -440.471)" fill="#f36"/>
      <path id="Path_522" data-name="Path 522" d="M859.992,477.649a1.268,1.268,0,1,1-2.3-.461A3.667,3.667,0,0,1,859.992,477.649Z" transform="translate(-717.967 -401.706)" fill="#f36"/>
      <path id="Path_523" data-name="Path 523" d="M859.992,477.649a1.268,1.268,0,1,1-2.3-.461A3.667,3.667,0,0,1,859.992,477.649Z" transform="translate(-717.967 -401.706)" opacity="0.1"/>
      <path id="Path_531" data-name="Path 531" d="M860.386,495.826s-1.911-3.013-4.6-3.086" transform="translate(-716.412 -414.459)" fill="none" stroke="#f36" stroke-miterlimit="10" stroke-width="1"/>
      <circle id="Ellipse_103" data-name="Ellipse 103" cx="0.496" cy="0.496" r="0.496" transform="translate(138.928 77.81)" fill="#f36"/>
      <path id="Path_533" data-name="Path 533" d="M866.766,525s-1.911-3.013-4.6-3.086" transform="translate(-721.634 -438.334)" fill="none" stroke="#f36" stroke-miterlimit="10" stroke-width="1"/>
      <circle id="Ellipse_104" data-name="Ellipse 104" cx="0.496" cy="0.496" r="0.496" transform="translate(140.086 83.105)" fill="#f36"/>
      <path id="Path_534" data-name="Path 534" d="M864.139,559.6s-4.607-.922-5.836-2.151-6.758-3.373-7.371-1.842-8.294,6.763-3.077,7.684,12.287,1.229,13.823.614S864.139,559.6,864.139,559.6Z" transform="translate(-708.439 -465.481)" fill="#a8a8a8"/>
      <path id="Path_535" data-name="Path 535" d="M847.849,583c5.222.922,12.287,1.229,13.823.614,1.169-.468,1.982-2.723,2.3-3.761l.154.033s-.922,3.687-2.458,4.3-8.6.307-13.823-.614c-1.507-.267-1.939-.891-1.775-1.681C846.206,582.4,846.731,582.8,847.849,583Z" transform="translate(-708.433 -485.757)" opacity="0.2"/>
      <path id="Path_536" data-name="Path 536" d="M182.4,664.66s1.521,2-.7,4.992-4.057,5.538-3.315,7.413c0,0,3.354-5.578,6.085-5.656S185.4,668.014,182.4,664.66Z" transform="translate(-161.831 -555.173)" fill="#f36"/>
      <path id="Path_537" data-name="Path 537" d="M182.789,664.66a2.463,2.463,0,0,1,.31.624c2.665,3.129,4.082,6.05,1.523,6.124-2.385.069-5.246,4.333-5.932,5.411a2.313,2.313,0,0,0,.082.245s3.354-5.578,6.085-5.656S185.791,668.014,182.789,664.66Z" transform="translate(-162.219 -555.173)" opacity="0.1"/>
      <path id="Path_538" data-name="Path 538" d="M215.213,676.613c0,.7-.078,1.271-.182,1.271s-.182-.568-.182-1.271.1-.363.194-.363S215.213,675.914,215.213,676.613Z" transform="translate(-191.815 -564.592)" fill="#ffd037"/>
      <path id="Path_539" data-name="Path 539" d="M216.782,681.069c-.615.336-1.151.545-1.2.452s.414-.427,1.029-.761.372-.091.419,0S217.4,680.733,216.782,681.069Z" transform="translate(-192.415 -568.21)" fill="#ffd037"/>
      <path id="Path_540" data-name="Path 540" d="M141.608,664.66s-1.521,2,.7,4.992,4.057,5.538,3.315,7.411c0,0-3.354-5.578-6.085-5.656S138.606,668.014,141.608,664.66Z" transform="translate(-129.074 -555.173)" fill="#f36"/>
      <path id="Path_541" data-name="Path 541" d="M141.608,664.66a2.463,2.463,0,0,0-.31.624c-2.665,3.129-4.082,6.05-1.523,6.124,2.385.069,5.246,4.333,5.932,5.411a2.317,2.317,0,0,1-.082.245s-3.354-5.578-6.085-5.656S138.606,668.014,141.608,664.66Z" transform="translate(-129.074 -555.173)" opacity="0.1"/>
      <path id="Path_542" data-name="Path 542" d="M141.42,676.613c0,.7.078,1.271.182,1.271s.182-.568.182-1.271-.1-.363-.194-.363S141.42,675.914,141.42,676.613Z" transform="translate(-131.714 -564.592)" fill="#ffd037"/>
      <path id="Path_543" data-name="Path 543" d="M134.388,681.069c.615.336,1.151.545,1.2.452s-.414-.427-1.029-.761-.372-.091-.419,0S133.773,680.733,134.388,681.069Z" transform="translate(-125.651 -568.21)" fill="#ffd037"/>
      <path id="Path_544" data-name="Path 544" d="M144.09,721.192s4.253-.131,5.535-1.044,6.535-2,6.86-.545,6.391,7.281,1.59,7.319-11.156-.748-12.436-1.527S144.09,721.192,144.09,721.192Z" transform="translate(-133.899 -599.563)" fill="#a8a8a8"/>
      <path id="Path_545" data-name="Path 545" d="M158.17,736.761c-4.8.038-11.156-.748-12.436-1.527-.975-.594-1.363-2.723-1.492-3.7H144.1s.269,3.431,1.548,4.209,7.635,1.566,12.436,1.527c1.387-.011,1.864-.5,1.839-1.234C159.729,736.478,159.2,736.752,158.17,736.761Z" transform="translate(-133.907 -609.904)" opacity="0.2"/>
    </g>
  </g>
</svg>
