<svg id="Most_no_GPS_Vehicle" data-name="Most no GPS Vehicle" xmlns="http://www.w3.org/2000/svg" width="187.768" height="135.686" viewBox="0 0 187.768 135.686">
  <circle id="Ellipse_167" data-name="Ellipse 167" cx="6.554" cy="6.554" r="6.554" transform="translate(30.243 9.544)" fill="#2f2e41"/>
  <path id="Path_1416" data-name="Path 1416" d="M235.615,528.465l4.027-13.965,1.371.428s-1.628,10.453-4.2,13.109Z" transform="translate(-218.78 -433.458)" fill="#2f2e41"/>
  <path id="Path_1417" data-name="Path 1417" d="M304.143,222.832s.514,5.483-.685,7.026.771,4.541.771,4.541l3.6,4.284,5.312-2.4.771-4.455-.514-3.084a5.467,5.467,0,0,1-1.028-5.055C313.139,220.433,304.143,222.832,304.143,222.832Z" transform="translate(-271.972 -202.793)" fill="#ffb9b9"/>
  <path id="Path_1418" data-name="Path 1418" d="M304.143,222.832s.514,5.483-.685,7.026.771,4.541.771,4.541l3.6,4.284,5.312-2.4.771-4.455-.514-3.084a5.467,5.467,0,0,1-1.028-5.055C313.139,220.433,304.143,222.832,304.143,222.832Z" transform="translate(-271.972 -202.793)" opacity="0.1"/>
  <path id="Path_1419" data-name="Path 1419" d="M166.73,574.666v3.513l4.712.942-.428-5.826Z" transform="translate(-131.475 -452.071)" fill="#ffb9b9"/>
  <path id="Path_1420" data-name="Path 1420" d="M229.751,571.377l-1.028,4.883,2.056,1.456,3.6-2.656-.428-4.2Z" transform="translate(-180.359 -450.154)" fill="#ffb9b9"/>
  <path id="Path_1421" data-name="Path 1421" d="M316.339,723.483a3.633,3.633,0,0,0-5.141-1.135s-.6,3.363-1.2,3.62-3.941,5.141,0,5.569,5.912-.857,5.912-.857-.771.663.428.321.685-2.228.685-2.228Z" transform="translate(-275.943 -596.862)" fill="#2f2e41"/>
  <path id="Path_1422" data-name="Path 1422" d="M381.772,717.92s-2.656,1.885-3.084,1.028a1.17,1.17,0,0,0-1.114-.771s-2.4,9.043-.857,9.472a5.2,5.2,0,0,0,3-.155s2.056-1.44,2.056-.326,5.74,1.034,8.139.948,1.114-1.885,1.114-1.885l-3.17-3.084-3.6-5.226S382.629,716.464,381.772,717.92Z" transform="translate(-329.638 -593.355)" fill="#2f2e41"/>
  <path id="Path_1423" data-name="Path 1423" d="M283.022,445.205l3.6,34.528s1.971,21.076,2.313,21.419,2.57,1.456,7.454,0l-1.114-27.588,2.056-17.135,4.712,11.823s1.114,31.786,1.885,31.786,5.483,1.542,6.6-.343.942-22.19.942-22.19-.514-32.043-4.284-33.071S283.022,445.205,283.022,445.205Z" transform="translate(-256.163 -377.958)" fill="#2f2e41"/>
  <circle id="Ellipse_168" data-name="Ellipse 168" cx="5.912" cy="5.912" r="5.912" transform="translate(30.886 11.386)" fill="#ffb9b9"/>
  <path id="Path_1424" data-name="Path 1424" d="M272.837,259.4s-.6-3.684-.6-4.369-2.656-1.114-2.656-1.114-2.056-2.313-2.485-1.971-6.94,4.712-7.968,5.312a7,7,0,0,0-2.056,3.341c.086.171,5.4,11.309,5.4,11.309s2.313,6.854.685,10.453-3.684,10.71-.685,12.166,17.564,4.627,20.22,1.885,4.541-3.513,5.226-3.513-2.827-11.909-2.056-13.023-.343-8.054-.343-8.054l3.941-11.052s-.343-6.169-8.139-7.54l-4.664-2.261Z" transform="translate(-235.697 -225.651)" fill="#575a89"/>
  <path id="Path_1425" data-name="Path 1425" d="M251.712,455.918s-.428,4.112-.428,5.312-2.056,8.225.942,9.082,2.742-9.339,2.742-9.339v-5.226Z" transform="translate(-230.593 -387.129)" fill="#ffb9b9"/>
  <path id="Path_1426" data-name="Path 1426" d="M409.884,438.324s.514,3.941.257,4.8,2.485,8.311-1.2,8.739-2.742-8.91-2.742-8.91v-4.627Z" transform="translate(-353.21 -373.39)" fill="#ffb9b9"/>
  <path id="Path_1427" data-name="Path 1427" d="M252.227,524.858l2.485-13.194h.771a5.19,5.19,0,0,1,.771,4.969,62.578,62.578,0,0,0-1.885,8.225Z" transform="translate(-231.88 -431.222)" fill="#2f2e41"/>
  <path id="Path_1428" data-name="Path 1428" d="M251.563,291.647l-1.285,1.028s-1.714,27.245-1.285,29.3-1.542,4.969.171,5.226,3.77,1.371,4.712.685,1.114-3.17,1.456-3.77.942-7.711.942-7.711,1.8-7.111.685-12.423-2.142-10.71-2.142-10.71Z" transform="translate(-228.902 -257.728)" fill="#575a89"/>
  <path id="Path_1429" data-name="Path 1429" d="M385.86,281.517l3.941,3.341,3,17.478s1.885,13.623.428,13.794-3.684-.257-4.627,0a2.006,2.006,0,0,1-1.714-.428s-1.028-5.483-1.028-5.569-.685-6.34-.685-6.34l-.857-7.026,1.285-7.711Z" transform="translate(-336.04 -249.74)" fill="#575a89"/>
  <path id="Path_1430" data-name="Path 1430" d="M203.028,589.248s-.557,1.6-1.325,3.777c-.356,1.013-.758,2.151-1.172,3.312-.266.75-.537,1.51-.8,2.252-.425,1.187-.838,2.326-1.2,3.3-.476,1.291-.863,2.3-1.07,2.775-.942,2.142-18.164-1.285-19.534-2.142s-1.714-3.77-1.885-7.882c0-.021,0-.043,0-.064a14.989,14.989,0,0,1,.543-3.517c.177-.725.389-1.5.625-2.311.317-1.084.677-2.22,1.053-3.351,1.616-4.858,3.52-9.606,3.52-9.606a27.989,27.989,0,0,0,4.541-3.855c1.2-1.542,7.8-2.742,7.8-2.742,1.885.086,6.169,7.368,7.882,9.6S203.028,589.248,203.028,589.248Z" transform="translate(-171.8 -476.592)" fill="#3f3d56"/>
  <circle id="Ellipse_169" data-name="Ellipse 169" cx="0.771" cy="0.771" r="0.771" transform="translate(20.861 98.091)" fill="#2f2e41"/>
  <circle id="Ellipse_170" data-name="Ellipse 170" cx="0.428" cy="0.428" r="0.428" transform="translate(22.404 99.29)" fill="#2f2e41"/>
  <path id="Path_1431" data-name="Path 1431" d="M206.068,653.451c-.356,1.013-.758,2.151-1.172,3.312l-23.325-7.584c.317-1.084.677-2.22,1.053-3.351Z" transform="translate(-176.164 -537.018)" fill="#f2f2f2"/>
  <path id="Path_1432" data-name="Path 1432" d="M199.728,680.129c-.425,1.187-.838,2.326-1.2,3.3l-22.491-7.313a14.987,14.987,0,0,1,.543-3.517Z" transform="translate(-171.8 -558.131)" fill="#f2f2f2"/>
  <path id="Path_1433" data-name="Path 1433" d="M258.3,599.588s1.714,7.54.685,14.222,2.57,12.937,2.57,12.937" transform="translate(-236.673 -500.555)" fill="none" stroke="#2f2e41" stroke-miterlimit="10" stroke-width="3"/>
  <path id="Path_1434" data-name="Path 1434" d="M239.376,602.425s-3.341,12.166-3.427,13.88-1.456,13.965-3.17,15.25" transform="translate(-216.544 -502.792)" fill="none" stroke="#2f2e41" stroke-miterlimit="10" stroke-width="3"/>
  <path id="Path_1435" data-name="Path 1435" d="M306.882,175.65s-1.338-3.479.6-4.617l.535,1.539s4.884-2.944,6.156-2.275l-1.2,1.606s5.687,0,6.089,2.208l-2.007.067a5.115,5.115,0,0,1,2.208,3.68l-4.282.268,2.074,1.2s-7.761,1.071-9.635-2.007Z" transform="translate(-274.623 -161.96)" fill="#2f2e41"/>
  <path id="Path_1436" data-name="Path 1436" d="M303.078,189.282s1.542,3.084,3.6,2.313,0-3.6,0-3.6l-1.371-.685Z" transform="translate(-271.978 -175.455)" fill="#2f2e41"/>
  <path id="Path_1437" data-name="Path 1437" d="M542.942,193.724l-27.964-34.945a9.389,9.389,0,0,1-4.522,2.284,9.912,9.912,0,0,1-11.484-8.03,10.143,10.143,0,0,1,3.5-9.88l-9.535-11.915-54.322,46.427,50,62.487Z" transform="translate(-378.856 -131.237)" fill="#f2f2f2"/>
  <circle id="Ellipse_171" data-name="Ellipse 171" cx="7.884" cy="7.884" r="7.884" transform="translate(121.455 12.398)" fill="#f2f2f2"/>
  <rect id="Rectangle_365" data-name="Rectangle 365" width="3.689" height="10.74" transform="translate(77.598 58.201) rotate(-49.171)" fill="#f36"/>
  <rect id="Rectangle_366" data-name="Rectangle 366" width="3.689" height="9.52" transform="translate(129.839 108.124) rotate(-49.171)" fill="#f36"/>
  <path id="Path_1438" data-name="Path 1438" d="M573.331,396.21v.217q-.007.815-.047,1.623a36.156,36.156,0,0,1-72.192.472q-.074-1.147-.074-2.312a35.977,35.977,0,0,1,6.648-20.9q.52-.738,1.082-1.449c.258-.33.524-.652.792-.972a36.163,36.163,0,0,1,50.387-4.781c.435.352.863.716,1.281,1.087q.5.446.986.913a36.058,36.058,0,0,1,11.009,23.061Q573.331,394.675,573.331,396.21Z" transform="translate(-428.064 -311.669)" fill="#3f3d56"/>
  <path id="Path_1439" data-name="Path 1439" d="M520.206,468.52a40.707,40.707,0,0,1-29.845-68.388l.9.837A39.477,39.477,0,0,0,548.546,455.3l.883.856a40.384,40.384,0,0,1-29.223,12.368Z" transform="translate(-411.096 -343.274)" fill="#f36"/>
  <rect id="Rectangle_367" data-name="Rectangle 367" width="10.33" height="10.33" transform="translate(104.683 124.386)" fill="#f36"/>
  <path id="Path_1440" data-name="Path 1440" d="M508.75,421.736a.2.2,0,0,1,.049.03c.194.16-.049.467-.02.721.034.325.467.4.794.428s.74.3.585.588a3.626,3.626,0,0,1-2.492-.317,35.977,35.977,0,0,0-6.648,20.9q0,1.166.074,2.312a.933.933,0,0,0,.224.121,4.778,4.778,0,0,1,.758.209c.18.106.3.293.48.391.514.28,1.227-.258,1.707.076a4.389,4.389,0,0,1,.352.359c.443.384,1.171.125,1.682.413a2,2,0,0,1,.676.888,2.857,2.857,0,0,0,2.1,1.724,5.646,5.646,0,0,1,.89.03c.29.066.576.32.529.612-.081.5.167,1.055.1,1.559-.121.922-1.427,1.326-1.537,2.248a5.536,5.536,0,0,1-.034.608c-.059.241-.241.438-.305.679a1.29,1.29,0,0,0,.561,1.215,3.317,3.317,0,0,1,.984,1,5.157,5.157,0,0,1,.172,1.478,3.538,3.538,0,0,0,2.039,2.4,2.129,2.129,0,0,1,.8.58,3.212,3.212,0,0,1,.3,1.252c.2,1.04,1.077,1.9,1.1,2.959a6.294,6.294,0,0,1-.652,2.15,4.962,4.962,0,0,0-.224,2.322,36.325,36.325,0,0,0,4.459,3.234,1.3,1.3,0,0,0,.184-.413.817.817,0,0,0-.381-.846,2.022,2.022,0,0,0,.706-.453.693.693,0,0,0,.128-.782,1.367,1.367,0,0,0,1.232-.251,1.1,1.1,0,0,0,.123-1,4.128,4.128,0,0,1-.246-1.018,18.32,18.32,0,0,0,3.006-.1,1.951,1.951,0,0,0-.915-1.146,1.584,1.584,0,0,0,1.006-1.053,2.682,2.682,0,0,0,.02-1.36.722.722,0,0,1-.015-.354.7.7,0,0,1,.359-.347l2.243-1.289a1.354,1.354,0,0,0,.359-.263,1.071,1.071,0,0,0,.079-1.035,5.213,5.213,0,0,1-.359-1.023c-.138-1.075,1.013-1.847,1.4-2.861a4.294,4.294,0,0,0,.211-1.252,1.487,1.487,0,0,0-.315-1.279c-.337-.283-.861-.219-1.213-.482-.322-.241-.433-.706-.785-.9-.32-.177-.718-.064-1.075-.148-.625-.145-1.018-.866-1.658-.932-.359-.039-.767.138-1.062-.071-.261-.187-.271-.558-.32-.873A2.439,2.439,0,0,0,519,451.394a2.747,2.747,0,0,1-1.092-.241c-.32-.207-.465-.593-.718-.881a3.006,3.006,0,0,0-1.641-.765q-1.217-.284-2.433-.571c-.43-.1-.986-.157-1.22.221a1.666,1.666,0,0,0-.143.455,1.411,1.411,0,0,1-1.323.994,1.564,1.564,0,0,0-.92-.713,5.807,5.807,0,0,1-.748-.177,1.048,1.048,0,0,1-.453-1.454,1.305,1.305,0,0,0-.224-1.567,2.117,2.117,0,0,0-1.567-.426c-.145-.317.1-.674.359-.905s.58-.455.637-.8c.091-.541-.6-.952-1.124-.792a1.957,1.957,0,0,0-1.08,1.173,3.538,3.538,0,0,1-.435.834.855.855,0,0,1-.826.339c-.433-.111-.6-.625-.694-1.058a6.9,6.9,0,0,1-.231-1.773,2.315,2.315,0,0,1,.669-1.614,3.49,3.49,0,0,1,2.784-.489.709.709,0,0,1,.074-.935,1.063,1.063,0,0,1,.964-.236,1.323,1.323,0,0,1,.745.445,6.9,6.9,0,0,1,.561,1.168c.209.381.676.706,1.058.5a.893.893,0,0,0,.3-1,3.717,3.717,0,0,1-.229-1.095c.057-.711.8-1.141,1.449-1.434s1.4-.689,1.5-1.4a1.307,1.307,0,0,1,.079-.4.789.789,0,0,1,.293-.275,24.638,24.638,0,0,1,6.011-3.217c.113-.037.125,0,.241-.025.162-.093.054-.352-.1-.455s-.362-.184-.4-.366c-.027-.133.052-.266.071-.4a.5.5,0,0,0-.657-.507c-.175-.231.17-.5.45-.578a12.3,12.3,0,0,1,2.57-.418.458.458,0,0,1,.293.049.348.348,0,0,1,.022.477,2.692,2.692,0,0,1-.391.357,1.074,1.074,0,0,0-.28,1.08,2.451,2.451,0,0,0,1.451.389c.5-.081.947-.647.711-1.1-.219-.421-.881-.516-.994-.976-.133-.539.63-1.018.457-1.545-.074-.231-.3-.369-.482-.534a1.455,1.455,0,0,1-.317-1.609,1.833,1.833,0,0,1-1.6-.5c-.384-.386-.689-1-1.235-.979-.5.015-.93.6-1.4.421-.116-.044-.236-.133-.347-.081a.287.287,0,0,0-.13.214c-.118.568.086,1.215-.224,1.707-.337.534-1.117.607-1.525,1.09-.221.261-.307.612-.512.888s-.635.453-.88.212a1.212,1.212,0,0,0-.33-1.476,3.169,3.169,0,0,0-.728-.354,4.321,4.321,0,0,1-.814-.453.806.806,0,0,1-.3-.32.734.734,0,0,1,.02-.507,2.071,2.071,0,0,1,1.645-1.363c.325-.044.7-.029.92-.278.113-.13.172-.33.339-.381a.5.5,0,0,1,.312.037l1.215.428a.832.832,0,0,0,.433.071.291.291,0,0,0,.253-.307c-.039-.2-.349-.3-.32-.5a.319.319,0,0,1,.1-.172,4.346,4.346,0,0,1,3.446-1.36c.153.253-.089.551-.293.765s-.364.6-.118.765a.648.648,0,0,0,.322.074,2.811,2.811,0,0,1,.861.261c.421.182.834.384,1.237.6a1.56,1.56,0,0,1,.029-.8.541.541,0,0,1,.64-.347c.241.093.364.413.622.443.342.039.477-.467.335-.782s-.428-.576-.45-.922c-.017-.231.071-.519-.113-.659a.49.49,0,0,0-.219-.079l-4.636-.851c-.276-.052-.671-.012-.684.266-.007.157.133.312.071.455s-.283.14-.44.194a.6.6,0,0,0-.344.632,1.723,1.723,0,0,0,.29.711c-.3-.125-.758-.148-1.06-.275a4.086,4.086,0,0,0-.266-1.021.36.36,0,0,0-.47-.29l-1.2.182a.463.463,0,0,0-.273.106c-.155.165,0,.428-.007.654a.613.613,0,0,1-.475.529,1.789,1.789,0,0,1-.758-.01l-1.673-.258a2.74,2.74,0,0,0,1.264-.846c.221-.261.339-.748.02-.871a.763.763,0,0,0-.29-.022c-.758,0-1.355-.627-2.064-.9a2.028,2.028,0,0,0-.7-.128Z" transform="translate(-428.065 -359.544)" fill="#f36"/>
  <path id="Path_1441" data-name="Path 1441" d="M667.741,427.242a.888.888,0,0,1-.753.357c-.77-.066-1.095-1.176-1.857-1.3a.3.3,0,0,0-.2.02c-.113.061-.133.214-.14.342a4.24,4.24,0,0,0,.189,1.879c.362.856,1.3,1.574,1.1,2.482a3.864,3.864,0,0,1-1.857-2.816,19.815,19.815,0,0,0-.738-3.411c-.342.435-1.055.076-1.365-.381-.3-.433-.477-.935-.763-1.375a1.692,1.692,0,0,0-1.245-.856,2.231,2.231,0,0,0-1.444.708,3.341,3.341,0,0,0-.9,1,4.537,4.537,0,0,0-.231,1.941,2.962,2.962,0,0,1-.649,1.98,1.435,1.435,0,0,1-1.911.231,2.156,2.156,0,0,1-.534-.962,46.81,46.81,0,0,1-1.446-5.16c-.089.4-.44.913-.775.679a.691.691,0,0,1-.177-.231,5.166,5.166,0,0,0-2.947-2.071c-1.166-.379-2.393-.556-3.547-.974a9.071,9.071,0,0,1-1.842-.917,1.451,1.451,0,0,0-.089,1.481,1.186,1.186,0,0,0,1.333.558c.256-.084.472-.261.726-.349a.567.567,0,0,1,.706.2c.108.234-.054.517.027.762.121.371.684.4.881.74a.685.685,0,0,1-.185.792,3.313,3.313,0,0,1-.743.457,14.779,14.779,0,0,0-2.137,1.855,2.581,2.581,0,0,1-2.6.667c.2-1.04-1.033-1.8-1.262-2.838-.076-.342-.037-.7-.143-1.035a3.368,3.368,0,0,0-.932-1.176,4.621,4.621,0,0,1-1.267-3.357,4.661,4.661,0,0,0,0-1.281.961.961,0,0,0-.871-.8c-.977.044-2.209.118-2.72-.716a.768.768,0,0,1,0-.962.929.929,0,0,1,.706-.12l2.2.216a2.45,2.45,0,0,0,1.513-.177c.443-.268.635-.984.224-1.3-.3-.231-.834-.219-.922-.585-.071-.307.268-.654.084-.913-.13-.182-.426-.133-.605,0a3.952,3.952,0,0,1-.509.445,1.553,1.553,0,0,1-1.149-.111c-.379-.118-.885-.128-1.067.224-.207.391.18.908-.022,1.3-.271.519-1.181.224-1.559.671-.433.512.3,1.279.15,1.933a1.205,1.205,0,0,1-1.188-.066,1.15,1.15,0,0,1-.5-1.072c.034-.3.189-.6.086-.876a1.022,1.022,0,0,0-.519-.475q-1.07-.594-2.14-1.183a.965.965,0,0,0,.366,1.1,3.807,3.807,0,0,1,.913.849,1.115,1.115,0,0,1-.418,1.471.259.259,0,0,1-.214.037.3.3,0,0,1-.138-.185,4.549,4.549,0,0,0-1.85-2.423,2.2,2.2,0,0,0-2.8.448c-.14.2-.236.433-.359.647a3.733,3.733,0,0,1-3.362,1.636.647.647,0,0,1-.366-.086c-.211-.145-.2-.455-.17-.711.047-.362.091-.721.138-1.082a.867.867,0,0,1,.239-.593c.243-.192.593-.071.9-.076a1.137,1.137,0,0,0,1.036-.8,1.285,1.285,0,0,0-.359-1.279c-.14-.133-.33-.3-.256-.48a.4.4,0,0,1,.278-.187c.553-.16,1.141-.2,1.685-.394a1.752,1.752,0,0,0,1.205-1.141c.039-.172.057-.381.212-.467a.685.685,0,0,1,.246-.049,1.2,1.2,0,0,0,1.026-1.247.782.782,0,0,1,.88.148,2.448,2.448,0,0,0,.782.534c.573.157,1.126-.352,1.722-.354a2.152,2.152,0,0,0,.743,0c.239-.086.381-.322.563-.5s.5-.283.674-.093c-.049-.357-.1-.711-.145-1.065a2.094,2.094,0,0,0,1.7-.31l-1.857-.627a.4.4,0,0,1-.175-.093c-.135-.145,0-.371.108-.536.263-.4.307-1.048-.125-1.245a1.057,1.057,0,0,0-.915.184l-1.358.755c-.042.258.273.406.467.578a.784.784,0,0,1-.512,1.37.982.982,0,0,1,.175.829l-.913.066a.392.392,0,0,1-.3-.059c-.1-.086-.084-.239-.108-.366a.792.792,0,0,0-.669-.583,2.31,2.31,0,0,0-.932.086.568.568,0,0,1-.4-.01.4.4,0,0,1-.157-.2,1.028,1.028,0,0,1,.207-.989,5.663,5.663,0,0,1,.777-.716,4.531,4.531,0,0,0,1.35-2.091c.5-.212,1.021-.5,1.525-.708a6.09,6.09,0,0,1,1.267-.426,5.984,5.984,0,0,1,1.242-.059c.566.01,1.134.02,1.7.032a4.091,4.091,0,0,1,1.488.214,1.388,1.388,0,0,1,.908,1.109.341.341,0,0,1-.111.312.4.4,0,0,1-.214.049c-.47.015-.669.133-1.139.15a1.921,1.921,0,0,0,1.065.708c.762.1,1.311-.691,1.663-1.377a.671.671,0,0,0,.7.622,1.413,1.413,0,0,0,.529-.207,10.4,10.4,0,0,1,4.932-1.274.531.531,0,0,1,.406-.585c.352-.069.667.234.836.548a2.95,2.95,0,0,0,.544.915c.268.236.787.224.893-.116s-.239-.608-.521-.8-.583-.548-.391-.834a25.285,25.285,0,0,1,4.388-.706,1.868,1.868,0,0,0,.738-.128.574.574,0,0,0,.344-.608,1.677,1.677,0,0,1-1.746-.659,15.015,15.015,0,0,1,4.58.106l1.281,1.087c-.243.253-.568.492-.391.745a.545.545,0,0,0,.45.155c.31,0,.62.012.927.012a36.058,36.058,0,0,1,11.009,23.061,1.088,1.088,0,0,0-.925,1.205,4.783,4.783,0,0,0,.9,1.764,2.671,2.671,0,0,1,.152.288Z" transform="translate(-522.522 -340.862)" fill="#f36"/>
  <line id="Line_33" data-name="Line 33" x2="187.768" transform="translate(0 134.686)" fill="none" stroke="#3f3d56" stroke-miterlimit="10" stroke-width="2"/>
  <circle id="Ellipse_172" data-name="Ellipse 172" cx="3.12" cy="3.12" r="3.12" transform="translate(74.345 10.681)" fill="none" stroke="#3f3d56" stroke-miterlimit="10" stroke-width="2"/>
  <circle id="Ellipse_173" data-name="Ellipse 173" cx="3.12" cy="3.12" r="3.12" transform="translate(166.538 70.099)" fill="none" stroke="#3f3d56" stroke-miterlimit="10" stroke-width="2"/>
  <circle id="Ellipse_174" data-name="Ellipse 174" cx="3.12" cy="3.12" r="3.12" transform="translate(145.238 39.016)" fill="none" stroke="#3f3d56" stroke-miterlimit="10" stroke-width="2"/>
  <circle id="Ellipse_175" data-name="Ellipse 175" cx="3.501" cy="3.501" r="3.501" transform="translate(124.386 64.992)" fill="#3f3d56"/>
  <circle id="Ellipse_176" data-name="Ellipse 176" cx="4.616" cy="4.616" r="4.616" transform="translate(134.519 52.624)" fill="#fff"/>
  <path id="Path_1442" data-name="Path 1442" d="M778.879,372.39a6.525,6.525,0,0,0-9.228.114c-2.517,2.58-6.109,15.607-6.109,15.607s12.935-3.914,15.451-6.494A6.525,6.525,0,0,0,778.879,372.39ZM772.1,379.34a3.024,3.024,0,1,1,4.276-.053,3.024,3.024,0,0,1-4.276.053Z" transform="translate(-635.077 -319.936)" fill="#57b894"/>
</svg>
