<svg xmlns="http://www.w3.org/2000/svg" xmlns:xlink="http://www.w3.org/1999/xlink" width="188.091" height="142.216" viewBox="0 0 188.091 142.216">
  <defs>
    <linearGradient id="linear-gradient" x1="0.5" y1="1" x2="0.5" gradientUnits="objectBoundingBox">
      <stop offset="0" stop-color="gray" stop-opacity="0.251"/>
      <stop offset="0.54" stop-color="gray" stop-opacity="0.122"/>
      <stop offset="1" stop-color="gray" stop-opacity="0.102"/>
    </linearGradient>
  </defs>
  <g id="Running_Time" data-name="Running Time" transform="translate(0 -0.07)">
    <path id="Path_156" data-name="Path 156" d="M99.6,363.79A29.38,29.38,0,0,0,118.143,381.8c19.949,6.866,64.939,3.325,98.515-.74,17.369-2.1,32.633-7.9,43.723-16.072Z" transform="translate(-90.875 -307.318)" fill="#f36" opacity="0.1"/>
    <path id="Path_157" data-name="Path 157" d="M298.24,104.37H279.826c-.875,0-1.593-.46-1.593-1.023s.718-1.023,1.593-1.023h3.185c-.876,0-1.592-.46-1.592-1.023s.716-1.023,1.592-1.023h-2.275c-.876,0-1.593-.46-1.593-1.023s.716-1.023,1.593-1.023h9.613a36.669,36.669,0,0,0-7.5-1.33c-26.224-2.169-35.586-.731-38.889.737a48.935,48.935,0,0,1-13.47,3.8c-16.184,2.145-46.437,4.728-73.858-.834-13.629-2.76-23.758,1.9-29.83,9.7H301.441a13.108,13.108,0,0,0-2.164-6.191,2.157,2.157,0,0,1-1.037.256Z" transform="translate(-113.437 -85.018)" fill="#f36" opacity="0.1"/>
    <path id="Path_158" data-name="Path 158" d="M88.505,267.25a33.851,33.851,0,0,0,.714,13.758l161.754,3.8a53.581,53.581,0,0,0,11.238-11.02Zm63.976,9.814H149.3c.875,0,1.591.462,1.591,1.023s-.716,1.023-1.591,1.023H130.888c-.876,0-1.593-.46-1.593-1.023s.716-1.023,1.593-1.023h3.183c-.875,0-1.593-.46-1.593-1.023s.718-1.023,1.593-1.023h-2.288c-.875,0-1.593-.462-1.593-1.023s.718-1.023,1.593-1.023h18.423c.876,0,1.593.46,1.593,1.023s-.716,1.023-1.593,1.023h2.275c.876,0,1.593.46,1.593,1.023S153.357,277.064,152.481,277.064Z" transform="translate(-81.344 -227.239)" fill="#f36" opacity="0.1"/>
    <path id="Path_159" data-name="Path 159" d="M271.395,181.35,94.8,184.112A32.468,32.468,0,0,0,90.57,195.84H268.3a34.373,34.373,0,0,0,2.558-7.475A22.78,22.78,0,0,0,271.395,181.35ZM126.426,190.4h-3.185c.876,0,1.593.462,1.593,1.023s-.716,1.023-1.593,1.023H104.826c-.876,0-1.593-.46-1.593-1.023s.716-1.023,1.593-1.023h3.185c-.876,0-1.593-.46-1.593-1.023s.716-1.023,1.593-1.023h-2.283c-.876,0-1.593-.462-1.593-1.023s.716-1.023,1.593-1.023h18.415c.875,0,1.591.46,1.591,1.023s-.716,1.023-1.591,1.023h2.275c.875,0,1.591.46,1.591,1.023S127.3,190.4,126.426,190.4Z" transform="translate(-83.385 -155.985)" fill="#f36" opacity="0.1"/>
    <rect id="Rectangle_100" data-name="Rectangle 100" width="0.95" height="52.354" transform="translate(99.018 45.015)" fill="#535f89"/>
    <path id="Path_160" data-name="Path 160" d="M624.734,613.417a2.477,2.477,0,0,1-3.04,0c-.425-2.8.653-8.307.907-9.548l.053-.249h1.228a.854.854,0,0,1,.189.285C624.9,605.7,624.734,613.417,624.734,613.417Z" transform="translate(-523.867 -506.256)" fill="#535f89"/>
    <path id="Path_161" data-name="Path 161" d="M631,596.9v1.13h-.511V596.9a1.479,1.479,0,0,1,.249-.02A1.666,1.666,0,0,1,631,596.9Z" transform="translate(-531.245 -500.665)" opacity="0.1"/>
    <path id="Path_162" data-name="Path 162" d="M628.968,603.96a1.45,1.45,0,0,1-.7.17,1.39,1.39,0,0,1-.755-.2l.053-.249h1.224A.852.852,0,0,1,628.968,603.96Z" transform="translate(-528.773 -506.306)" opacity="0.1"/>
    <ellipse id="Ellipse_35" data-name="Ellipse 35" cx="1.025" cy="0.609" rx="1.025" ry="0.609" transform="translate(98.467 96.409)" fill="#dce2ed"/>
    <path id="Path_163" data-name="Path 163" d="M557.1,196.816l3.608-1.727,5.32,1.272-4.128-3.12Z" transform="translate(-462.111 -160.233)" fill="#f36"/>
    <path id="Path_164" data-name="Path 164" d="M558.155,206.36l-1.055-.552,3.608-1.727,5.32,1.272-.936.455-4.384-.984Z" transform="translate(-462.111 -169.225)" fill="#f36"/>
    <path id="Path_165" data-name="Path 165" d="M558.155,206.36l-1.055-.552,3.608-1.727,5.32,1.272-.936.455-4.384-.984Z" transform="translate(-462.111 -169.225)" opacity="0.1"/>
    <path id="Path_166" data-name="Path 166" d="M562.45,207.7l2.9,8.137h1.439l2.689-8.641-4.336-1.008Z" transform="translate(-466.549 -170.975)" fill="#f36" opacity="0.2"/>
    <path id="Path_167" data-name="Path 167" d="M577.808,246.588l-.573,1.845-.14.445h-1.439l-.107-.3-.679-1.9,1.09-.655Z" transform="translate(-476.851 -204.014)" fill="#f36"/>
    <path id="Path_168" data-name="Path 168" d="M565.842,208.44l.687,9.265h-.479l-2.76-7.729Z" transform="translate(-467.246 -172.842)" fill="#f36" opacity="0.2"/>
    <path id="Path_169" data-name="Path 169" d="M561.9,193.24l-1.192,1.848-3.608,1.727Z" transform="translate(-462.111 -160.233)" opacity="0.1"/>
    <path id="Path_170" data-name="Path 170" d="M628.966,292.124l-.138.445h-1.441l-.107-.3a1.205,1.205,0,0,1,.924-.341A1.383,1.383,0,0,1,628.966,292.124Z" transform="translate(-528.583 -247.706)" opacity="0.1"/>
    <path id="Path_171" data-name="Path 171" d="M630.993,296.6v.793h-.135a1.579,1.579,0,0,1-.379-.044V296.6Z" transform="translate(-531.237 -251.585)" opacity="0.1"/>
    <ellipse id="Ellipse_36" data-name="Ellipse 36" cx="1.025" cy="0.609" rx="1.025" ry="0.609" transform="translate(98.595 44.407)" fill="#dce2ed"/>
    <rect id="Rectangle_101" data-name="Rectangle 101" width="0.627" height="34.613" transform="translate(136.248 70.479)" fill="#535f89"/>
    <path id="Path_172" data-name="Path 172" d="M844.6,655.389a1.637,1.637,0,0,1-2.009,0,24.36,24.36,0,0,1,.6-6.309c.022-.107.036-.17.036-.17h.8a.569.569,0,0,1,.126.188C844.713,650.289,844.6,655.389,844.6,655.389Z" transform="translate(-707.13 -543.824)" fill="#535f89"/>
    <path id="Path_173" data-name="Path 173" d="M848.711,644.483v.748h-.341v-.748a.848.848,0,0,1,.17-.014A1.138,1.138,0,0,1,848.711,644.483Z" transform="translate(-711.976 -540.14)" opacity="0.1"/>
    <path id="Path_174" data-name="Path 174" d="M847.385,649.063a.973.973,0,0,1-.465.109.938.938,0,0,1-.5-.131c.022-.107.036-.17.036-.17h.8A.569.569,0,0,1,847.385,649.063Z" transform="translate(-710.358 -543.791)" opacity="0.1"/>
    <ellipse id="Ellipse_37" data-name="Ellipse 37" cx="0.677" cy="0.402" rx="0.677" ry="0.402" transform="translate(135.885 104.457)" fill="#dce2ed"/>
    <path id="Path_175" data-name="Path 175" d="M783.46,368.813l2.385-1.142,3.518.842-2.73-2.063Z" transform="translate(-649.875 -303.91)" fill="#f36"/>
    <path id="Path_176" data-name="Path 176" d="M784.157,375.117l-.7-.365,2.385-1.142,3.518.842-.619.3-2.9-.65Z" transform="translate(-649.875 -309.849)" fill="#f36"/>
    <path id="Path_177" data-name="Path 177" d="M784.157,375.117l-.7-.365,2.385-1.142,3.518.842-.619.3-2.9-.65Z" transform="translate(-649.875 -309.849)" opacity="0.1"/>
    <path id="Path_178" data-name="Path 178" d="M786.99,376.009l1.92,5.379h.953l1.777-5.712-2.866-.667Z" transform="translate(-652.804 -311.011)" fill="#f36" opacity="0.2"/>
    <path id="Path_179" data-name="Path 179" d="M797.152,401.723l-.379,1.221-.092.295h-.953l-.07-.2-.448-1.257.719-.433Z" transform="translate(-659.622 -332.859)" fill="#f36"/>
    <path id="Path_180" data-name="Path 180" d="M789.238,376.5l.455,6.125h-.319l-1.824-5.11Z" transform="translate(-653.268 -312.246)" fill="#f36" opacity="0.2"/>
    <path id="Path_181" data-name="Path 181" d="M786.633,366.45l-.788,1.221-2.385,1.142Z" transform="translate(-649.875 -303.91)" opacity="0.1"/>
    <path id="Path_182" data-name="Path 182" d="M847.385,442.967l-.092.293h-.951l-.072-.2a.8.8,0,0,1,.61-.228.914.914,0,0,1,.5.135Z" transform="translate(-710.234 -372.882)" opacity="0.1"/>
    <path id="Path_183" data-name="Path 183" d="M848.728,445.907v.522h-.089a1.049,1.049,0,0,1-.249-.029v-.5Z" transform="translate(-711.992 -375.428)" opacity="0.1"/>
    <ellipse id="Ellipse_38" data-name="Ellipse 38" cx="0.677" cy="0.402" rx="0.677" ry="0.402" transform="translate(135.97 70.076)" fill="#dce2ed"/>
    <ellipse id="Ellipse_39" data-name="Ellipse 39" cx="75.875" cy="7.502" rx="75.875" ry="7.502" transform="translate(0 127.281)" fill="#f36" opacity="0.1"/>
    <path id="Path_184" data-name="Path 184" d="M181.68,150.255s-15.209-.639-16.81-30.418,14.249-34.822,14.249-34.822,5.021-2.8,7.248-2.921,9.669.585,9.669.585l-8.2-1.582s11.545-4.394,15-4.745l-12.481,2.636s-.171-6.914,2.813-9.2c0,0-2.558-.191-3.906,4.79a9.514,9.514,0,0,1-5.7,6.394c-4.629,1.806-11.03,4.657-12.488,7.1,0,0-2.7,2.813-2.285-4.512s2.343-13.6,3.047-13.772c0,0,5.507-5.859,13.243-6.21,0,0-4.512-1.818-12.13,3.867,0,0-.645-2.871,2.227-6.271s7.332-10.547,12.188-11.308c0,0-6.8-.411-12.188,8.379,0,0-1.993,1.289-2.169-1.992a40.468,40.468,0,0,0-1.347-7.385s-1.642,7.56,1.816,10.958c0,0-6.622,8.614-6.329,18.283,0,0-2.046,4.394-2.812-.762,0,0-.442-7.1-1.323-13.129a17.838,17.838,0,0,1,3.741-13.762c1.465-1.823,2.484-3.593,1.918-4.522L161,55.075s-6.454-14.938-11.141-18.154S144.586,33,144.586,33l7.559,8.848L142.653,38.5l9.492,4.394s4.4,3.581,6.916,13.361a83.463,83.463,0,0,1,2.754,15.879S148.278,61.406,145.7,61.758l8.759,6.626a20.865,20.865,0,0,1,8.234,15.231h0s-16.935-4.336-21.037-5.156l-7.734-7.911,5.86,7.5-12.072-.171L120.8,72.956s5.456,4.571,4.921,4.865-8.5.645-8.5.645,20.275-.118,22.507,1.347,7.207,1.993,7.207,1.993l-14.357,2.167,17.112-1.229s12.95,2.343,13.652,6.387c0,0-2.638,6.882-4.394,9.61a44.584,44.584,0,0,0-4.98,16.057c-.585,6.447-1.407,16.348.82,22.384s3.047,9.494,1.934,11.31-2.169,4.16,1.465,4.629,19.572-.234,19.572-.234S182.619,153.841,181.68,150.255Z" transform="translate(-105.491 -32.93)" fill="#dea3a2"/>
    <path id="Path_185" data-name="Path 185" d="M381.389,697.876a7.655,7.655,0,0,0-5.168-.646,31.156,31.156,0,0,1-7.971.232" transform="translate(-313.719 -583.748)" opacity="0.1"/>
    <path id="Path_186" data-name="Path 186" d="M388.329,496.14s-.726,11.455.564,13.714Z" transform="translate(-330.205 -417.102)" opacity="0.1"/>
    <path id="Path_187" data-name="Path 187" d="M373.6,576.57s.931,10.728,1.575,12.825S373.6,576.57,373.6,576.57Z" transform="translate(-318.157 -483.818)" opacity="0.1"/>
    <path id="Path_188" data-name="Path 188" d="M353.725,421.86c-.66.242-3.483,5.968-2.917,7.664S353.725,421.86,353.725,421.86Z" transform="translate(-299.189 -355.487)" opacity="0.1"/>
    <path id="Path_189" data-name="Path 189" d="M403.465,387c-.305.138-1.62,3.437-1.364,4.413S403.465,387,403.465,387Z" transform="translate(-341.77 -326.571)" opacity="0.1"/>
    <path id="Path_190" data-name="Path 190" d="M338.56,499.81a42.929,42.929,0,0,1,.3,8.167,31.493,31.493,0,0,0,.089,6.212" transform="translate(-289.091 -420.146)" opacity="0.1"/>
    <path id="Path_191" data-name="Path 191" d="M538.592,272.66a2.655,2.655,0,0,0-.549,1.686c-.019.6.058,1.207.019,1.809-.043.633-.341,1.376-.972,1.46" transform="translate(-453.771 -231.727)" opacity="0.1"/>
    <path id="Path_192" data-name="Path 192" d="M454.519,156.35a15.234,15.234,0,0,0-2.121,2.633,6.275,6.275,0,0,1-.6.853,10.415,10.415,0,0,1-1.163.953,5.473,5.473,0,0,0-1.853,2.9" transform="translate(-380.518 -135.248)" opacity="0.1"/>
    <path id="Path_193" data-name="Path 193" d="M302.78,55.93a3.787,3.787,0,0,0,.752,1.006c.266.252.57.467.81.743a5.892,5.892,0,0,1,.512.764,20.244,20.244,0,0,0,2.167,2.728" transform="translate(-259.412 -51.95)" opacity="0.1"/>
    <path id="Path_194" data-name="Path 194" d="M379.786,155.35a1.757,1.757,0,0,0-.626,1.586,4.545,4.545,0,0,1-.107,1.768c-.1.252-.264.474-.37.723a3.345,3.345,0,0,0-.171,1.378c.009.539.026,1.079.049,1.618a2.8,2.8,0,0,0,.53,1.83" transform="translate(-322.229 -134.419)" opacity="0.1"/>
    <path id="Path_195" data-name="Path 195" d="M361.09,254a6.98,6.98,0,0,1,1.315.905,2.36,2.36,0,0,1,.764,1.364c.029.227.014.459.065.682a2.152,2.152,0,0,0,.448.824,11.328,11.328,0,0,0,1.11,1.229" transform="translate(-307.78 -216.248)" fill="none"/>
    <path id="Path_196" data-name="Path 196" d="M356.331,333.5a8.008,8.008,0,0,0-1.061-.737,4.406,4.406,0,0,0-1.09-.479,11.654,11.654,0,0,0-1.8-.194,2.5,2.5,0,0,1-1.64-.682" transform="translate(-299.194 -280.459)" opacity="0.1"/>
    <path id="Path_197" data-name="Path 197" d="M243.79,300.26a4.826,4.826,0,0,1,2.087.372c.324.171.605.406.922.583a2.79,2.79,0,0,0,1.345.35" transform="translate(-210.48 -254.621)" opacity="0.1"/>
    <path id="Path_198" data-name="Path 198" d="M292.488,317.254a.4.4,0,0,0-.512.119c-.126.147-.2.341-.327.477a1.476,1.476,0,0,1-1.069.327" transform="translate(-249.292 -268.671)" opacity="0.1"/>
    <path id="Path_199" data-name="Path 199" d="M325.68,228.69l.682.36a12.119,12.119,0,0,1,2.024,1.228" transform="translate(-278.407 -195.254)" opacity="0.1"/>
    <path id="Path_200" data-name="Path 200" d="M371.6,267.926c.45-.107.839.373.919.829a13.242,13.242,0,0,0,.114,1.381,2.576,2.576,0,0,0,.682,1.011" transform="translate(-316.498 -227.787)" opacity="0.1"/>
    <path id="Path_201" data-name="Path 201" d="M412.932,272.89c.411,1.224-.459,2.558-.2,3.824.077.385.256.743.341,1.127a3.428,3.428,0,0,1-.829,2.876" transform="translate(-350.208 -231.917)" opacity="0.1"/>
    <rect id="Rectangle_102" data-name="Rectangle 102" width="1.185" height="65.351" transform="translate(37.041 31.041)" fill="#535f89"/>
    <path id="Path_202" data-name="Path 202" d="M260.171,610.144a3.09,3.09,0,0,1-3.794,0c-.529-3.5.815-10.37,1.132-11.912l.066-.312h1.517a1.122,1.122,0,0,1,.237.355C260.381,600.512,260.171,610.144,260.171,610.144Z" transform="translate(-220.82 -501.528)" fill="#535f89"/>
    <path id="Path_203" data-name="Path 203" d="M267.959,589.515v1.412h-.639v-1.413a1.848,1.848,0,0,1,.312-.024,2.042,2.042,0,0,1,.327.026Z" transform="translate(-229.998 -494.535)" opacity="0.1"/>
    <path id="Path_204" data-name="Path 204" d="M265.431,598.275a1.815,1.815,0,0,1-.876.206,1.749,1.749,0,0,1-.945-.249l.066-.312h1.518A1.123,1.123,0,0,1,265.431,598.275Z" transform="translate(-226.921 -501.528)" opacity="0.1"/>
    <ellipse id="Ellipse_40" data-name="Ellipse 40" cx="1.279" cy="0.759" rx="1.279" ry="0.759" transform="translate(36.355 95.195)" fill="#dce2ed"/>
    <path id="Path_205" data-name="Path 205" d="M187.74,98.254l4.5-2.157,6.641,1.587-5.154-3.894Z" transform="translate(-155.729 -77.74)" fill="#f36"/>
    <path id="Path_206" data-name="Path 206" d="M189.058,110.166l-1.318-.689,4.5-2.157,6.641,1.587-1.17.569-5.472-1.228Z" transform="translate(-155.729 -88.963)" fill="#f36"/>
    <path id="Path_207" data-name="Path 207" d="M189.058,110.166l-1.318-.689,4.5-2.157,6.641,1.587-1.17.569-5.472-1.228Z" transform="translate(-155.729 -88.963)" opacity="0.1"/>
    <path id="Path_208" data-name="Path 208" d="M194.42,111.848,198.045,122h1.8l3.356-10.784-5.412-1.258Z" transform="translate(-161.27 -91.153)" fill="#f36" opacity="0.2"/>
    <path id="Path_209" data-name="Path 209" d="M213.6,160.388l-.718,2.3-.172.556h-1.8l-.135-.377-.846-2.372,1.359-.818Z" transform="translate(-174.136 -132.396)" fill="#f36"/>
    <path id="Path_210" data-name="Path 210" d="M198.657,112.77l.858,11.564h-.6l-3.446-9.647Z" transform="translate(-162.141 -93.484)" fill="#f36" opacity="0.2"/>
    <path id="Path_211" data-name="Path 211" d="M193.732,93.79,192.245,96.1l-4.5,2.157Z" transform="translate(-155.729 -77.74)" opacity="0.1"/>
    <path id="Path_212" data-name="Path 212" d="M265.434,209.031l-.171.556h-1.8l-.133-.377a1.5,1.5,0,0,1,1.153-.433A1.737,1.737,0,0,1,265.434,209.031Z" transform="translate(-226.688 -178.736)" opacity="0.1"/>
    <path id="Path_213" data-name="Path 213" d="M267.943,214.64v.989c-.055,0-.111.009-.171.009a1.98,1.98,0,0,1-.472-.056v-.941Z" transform="translate(-229.981 -183.599)" opacity="0.1"/>
    <ellipse id="Ellipse_41" data-name="Ellipse 41" cx="1.279" cy="0.759" rx="1.279" ry="0.759" transform="translate(36.514 30.282)" fill="#dce2ed"/>
    <ellipse id="Ellipse_42" data-name="Ellipse 42" cx="2.868" cy="0.484" rx="2.868" ry="0.484" transform="translate(152.978 116.834)" fill="#f36" opacity="0.1"/>
    <path id="Path_214" data-name="Path 214" d="M951.16,703.139a5.994,5.994,0,0,0,2.128-.4c.493-.351,2.517-.769,2.638-.206s2.459,2.8.612,2.815a15.6,15.6,0,0,1-4.783-.588C951.264,704.457,951.16,703.139,951.16,703.139Z" transform="translate(-797.239 -588.073)" fill="#a8a8a8"/>
    <path id="Path_215" data-name="Path 215" d="M956.612,709.442a15.5,15.5,0,0,1-4.774-.588c-.373-.228-.523-1.047-.573-1.424h-.055s.1,1.318.6,1.618a15.666,15.666,0,0,0,4.783.588c.534,0,.716-.194.708-.476C957.212,709.333,957.009,709.439,956.612,709.442Z" transform="translate(-797.281 -592.366)" opacity="0.2"/>
    <ellipse id="Ellipse_43" data-name="Ellipse 43" cx="2.206" cy="0.373" rx="2.206" ry="0.373" transform="translate(170.271 111.298)" fill="#f36" opacity="0.1"/>
    <path id="Path_216" data-name="Path 216" d="M1051.3,674.051a4.635,4.635,0,0,0,1.639-.309c.38-.269,1.935-.593,2.029-.16s1.893,2.155.471,2.165a12.023,12.023,0,0,1-3.679-.452C1051.38,675.064,1051.3,674.051,1051.3,674.051Z" transform="translate(-880.305 -564.114)" fill="#a8a8a8"/>
    <path id="Path_217" data-name="Path 217" d="M1055.464,678.9a12.033,12.033,0,0,1-3.68-.452c-.288-.171-.4-.807-.442-1.1h-.043s.08,1.015.459,1.245a12.029,12.029,0,0,0,3.679.452c.411,0,.552-.148.544-.365C1055.926,678.815,1055.769,678.9,1055.464,678.9Z" transform="translate(-880.305 -567.414)" opacity="0.2"/>
    <ellipse id="Ellipse_44" data-name="Ellipse 44" cx="5.267" cy="0.89" rx="5.267" ry="0.89" transform="translate(157.198 134.362)" fill="#f36" opacity="0.1"/>
    <path id="Path_218" data-name="Path 218" d="M980.53,793.657s3-.094,3.91-.738,4.622-1.415,4.847-.38,4.515,5.142,1.122,5.17-7.881-.527-8.776-1.078S980.53,793.657,980.53,793.657Z" transform="translate(-821.602 -662.543)" fill="#a8a8a8"/>
    <path id="Path_219" data-name="Path 219" d="M990.47,805.227c-3.393.027-7.882-.529-8.786-1.078-.682-.419-.962-1.925-1.054-2.619h-.1s.191,2.428,1.1,2.979,5.393,1.107,8.784,1.078c.98,0,1.318-.355,1.3-.871C991.572,805.02,991.2,805.221,990.47,805.227Z" transform="translate(-821.601 -670.421)" opacity="0.2"/>
    <path id="Path_220" data-name="Path 220" d="M623.41,252.547s8.735-.368,9.654-17.47-8.184-20-8.184-20-2.883-1.611-4.162-1.678-5.553.341-5.553.341l4.711-.909s-6.629-2.523-8.616-2.728l7.161,1.514s.1-3.971-1.616-5.286c0,0,1.463-.109,2.244,2.75a5.456,5.456,0,0,0,3.272,3.673c2.66,1.038,6.336,2.675,7.173,4.077,0,0,1.548,1.616,1.311-2.592s-1.345-7.809-1.749-7.91a12.372,12.372,0,0,0-7.606-3.567s2.592-1.042,6.967,2.217a4.475,4.475,0,0,0-1.279-3.6c-1.649-1.952-4.206-6.058-7-6.495,0,0,3.9-.237,7,4.812,0,0,1.144.74,1.245-1.144a23.186,23.186,0,0,1,.774-4.24s.943,4.341-1.043,6.293c0,0,3.8,4.945,3.635,10.5,0,0,1.178,2.523,1.616-.438,0,0,.252-4.078.759-7.538a10.253,10.253,0,0,0-2.148-7.9c-.841-1.045-1.427-2.063-1.1-2.6l4.409,5.25s3.7-8.582,6.394-10.433a22.753,22.753,0,0,0,3.03-2.254l-4.334,5.083,5.456-1.918-5.456,2.525s-2.523,2.046-3.971,7.673a48.09,48.09,0,0,0-1.582,9.12s7.77-6.147,9.257-5.952l-5.032,3.8a11.988,11.988,0,0,0-4.73,8.749h0s9.719-2.491,12.084-2.962l4.433-4.544-3.357,4.307,6.933-.1,3.973-2.827s-3.13,2.626-2.832,2.795,4.882.37,4.882.37-11.646-.067-12.924.774a12.348,12.348,0,0,1-4.14,1.144l8.249,1.255-9.828-.708s-7.437,1.347-7.843,3.669a43.826,43.826,0,0,0,2.525,5.519,25.622,25.622,0,0,1,2.859,9.221c.336,3.7.808,9.39-.471,12.856s-1.749,5.456-1.11,6.5,1.245,2.387-.842,2.658-11.241-.135-11.241-.135S622.87,254.606,623.41,252.547Z" transform="translate(-515.294 -159.171)" fill="#dea3a2"/>
    <path id="Path_221" data-name="Path 221" d="M711.21,567.131a4.393,4.393,0,0,1,2.965-.37,18.123,18.123,0,0,0,4.578.133" transform="translate(-598.202 -475.592)" opacity="0.1"/>
    <path id="Path_222" data-name="Path 222" d="M741.794,451.26s.416,6.58-.324,7.876Z" transform="translate(-623.303 -379.874)" opacity="0.1"/>
    <path id="Path_223" data-name="Path 223" d="M747.666,497.45s-.534,6.162-.9,7.368S747.666,497.45,747.666,497.45Z" transform="translate(-627.636 -418.189)" opacity="0.1"/>
    <path id="Path_224" data-name="Path 224" d="M755.45,408.6c.378.14,2,3.429,1.676,4.4S755.45,408.6,755.45,408.6Z" transform="translate(-634.899 -344.488)" opacity="0.1"/>
    <path id="Path_225" data-name="Path 225" d="M731.34,388.58a5.243,5.243,0,0,1,.779,2.534C731.968,391.673,731.34,388.58,731.34,388.58Z" transform="translate(-614.9 -327.881)" opacity="0.1"/>
    <path id="Path_226" data-name="Path 226" d="M771.441,453.37a25.031,25.031,0,0,0-.17,4.691,17.983,17.983,0,0,1-.051,3.567" transform="translate(-647.979 -381.624)" opacity="0.1"/>
    <path id="Path_227" data-name="Path 227" d="M653.43,322.91a1.535,1.535,0,0,1,.317.968c.012.341-.034.692-.012,1.038s.2.789.559.839" transform="translate(-550.274 -273.409)" opacity="0.1"/>
    <path id="Path_228" data-name="Path 228" d="M689.89,256.1a8.73,8.73,0,0,1,1.212,1.517,3.552,3.552,0,0,0,.341.493,5.622,5.622,0,0,0,.668.547,3.148,3.148,0,0,1,1.064,1.669" transform="translate(-580.517 -217.99)" opacity="0.1"/>
    <path id="Path_229" data-name="Path 229" d="M781.208,198.43a2.208,2.208,0,0,1-.431.578c-.153.145-.327.268-.465.426a3.361,3.361,0,0,0-.3.438,11.853,11.853,0,0,1-1.243,1.572" transform="translate(-654.243 -170.153)" opacity="0.1"/>
    <path id="Path_230" data-name="Path 230" d="M745.28,255.53a1.012,1.012,0,0,1,.36.91,2.609,2.609,0,0,0,.063,1.023c.058.145.152.273.211.416a1.949,1.949,0,0,1,.1.789c0,.31-.015.621-.029.929a1.613,1.613,0,0,1-.3,1.052" transform="translate(-626.463 -217.517)" opacity="0.1"/>
    <path id="Path_231" data-name="Path 231" d="M749.236,312.16a4.043,4.043,0,0,0-.755.512,1.354,1.354,0,0,0-.438.788c-.017.13-.009.263-.038.39a1.244,1.244,0,0,1-.257.472,6.419,6.419,0,0,1-.638.706" transform="translate(-627.981 -264.492)" fill="none"/>
    <path id="Path_232" data-name="Path 232" d="M746.69,357.918a4.8,4.8,0,0,1,.609-.423,2.573,2.573,0,0,1,.627-.276,6.742,6.742,0,0,1,1.033-.1,1.465,1.465,0,0,0,.943-.387" transform="translate(-627.633 -301.462)" opacity="0.1"/>
    <path id="Path_233" data-name="Path 233" d="M814.856,338.76a2.733,2.733,0,0,0-1.194.213c-.186.1-.341.234-.53.341a1.59,1.59,0,0,1-.772.2" transform="translate(-682.105 -286.556)" opacity="0.1"/>
    <path id="Path_234" data-name="Path 234" d="M793.65,348.538a.23.23,0,0,1,.295.068c.073.084.113.193.189.274a.838.838,0,0,0,.612.188" transform="translate(-666.586 -294.644)" opacity="0.1"/>
    <path id="Path_235" data-name="Path 235" d="M772.363,297.66l-.394.2a6.978,6.978,0,0,0-1.159.708" transform="translate(-647.64 -252.464)" opacity="0.1"/>
    <path id="Path_236" data-name="Path 236" d="M748.772,320.178c-.259-.061-.483.215-.529.477s0,.537-.066.793a1.484,1.484,0,0,1-.387.581" transform="translate(-628.545 -271.135)" opacity="0.1"/>
    <path id="Path_237" data-name="Path 237" d="M727.282,323c-.235.7.264,1.47.118,2.2-.044.222-.147.428-.2.648a1.971,1.971,0,0,0,.476,1.652" transform="translate(-611.433 -273.483)" opacity="0.1"/>
    <path id="Path_238" data-name="Path 238" d="M377.818,405.72c-2.8,3.775-5.1,14.88-5.751,18.227l-4.876-.193c.307-2.88,6.2-14.508,7.843-17.7C375.911,405.938,376.851,405.819,377.818,405.72Z" transform="translate(-312.84 -342.099)" fill="#f36"/>
    <rect id="Rectangle_103" data-name="Rectangle 103" width="2.162" height="3.045" transform="translate(123.741 62.281)" fill="#dce0ed"/>
    <path id="Path_239" data-name="Path 239" d="M776.33,397.86v.991a1.665,1.665,0,0,1-.469.063l-1.691-.014v-1.04Z" transform="translate(-650.427 -335.579)" opacity="0.1"/>
    <path id="Path_240" data-name="Path 240" d="M768.81,352.36h2.046a2.45,2.45,0,0,1,2.27,1.535,6.92,6.92,0,0,1-.227,6.138,1.685,1.685,0,0,1-1.478.853l-2.605-.022Z" transform="translate(-645.981 -297.837)" fill="#dce0ed"/>
    <ellipse id="Ellipse_45" data-name="Ellipse 45" cx="2.186" cy="4.251" rx="2.186" ry="4.251" transform="translate(120.643 54.524)" fill="#f0f0f4"/>
    <rect id="Rectangle_104" data-name="Rectangle 104" width="2.162" height="2.665" transform="translate(104.542 62.317)" fill="#dce0ed"/>
    <path id="Path_241" data-name="Path 241" d="M663.722,398.07v.853a1.67,1.67,0,0,1-.471.063l-1.691-.015v-.9Z" transform="translate(-557.018 -335.753)" opacity="0.1"/>
    <path id="Path_242" data-name="Path 242" d="M656.21,352.58h2.046a2.445,2.445,0,0,1,2.268,1.535,6.913,6.913,0,0,1-.225,6.138,1.688,1.688,0,0,1-1.48.853l-2.6-.024Z" transform="translate(-552.58 -298.02)" fill="#dce0ed"/>
    <ellipse id="Ellipse_46" data-name="Ellipse 46" cx="2.186" cy="4.251" rx="2.186" ry="4.251" transform="translate(101.444 54.56)" fill="#f0f0f4"/>
    <path id="Path_243" data-name="Path 243" d="M656.939,361.69s-.807.13-.387,1.194a7.273,7.273,0,0,1,.483,1.611s.806.419.774-.967A2.073,2.073,0,0,0,656.939,361.69Z" transform="translate(-552.763 -305.576)" fill="#dce0ed"/>
    <ellipse id="Ellipse_47" data-name="Ellipse 47" cx="12.752" cy="13.976" rx="12.752" ry="13.976" transform="translate(9.516 102.878)" fill="#636780"/>
    <path id="Path_244" data-name="Path 244" d="M148.878,641.07c-6.672.448-11.958,6.522-11.958,13.949a13.989,13.989,0,0,0,8.261,13.083c6.674-.448,11.959-6.522,11.959-13.949A13.99,13.99,0,0,0,148.878,641.07Z" transform="translate(-121.832 -537.32)" opacity="0.1"/>
    <ellipse id="Ellipse_48" data-name="Ellipse 48" cx="10.35" cy="13.496" rx="10.35" ry="13.496" transform="translate(111.722 72.811)" fill="#636780"/>
    <path id="Path_245" data-name="Path 245" d="M711.277,462.93c-4.293,1.645-7.427,6.82-7.427,12.95,0,6.551,3.581,12.01,8.328,13.238,4.292-1.645,7.427-6.82,7.427-12.95C719.6,469.617,716.024,464.158,711.277,462.93Z" transform="translate(-592.097 -389.554)" opacity="0.1"/>
    <path id="Path_246" data-name="Path 246" d="M507.787,485.306l.193-4.9s-.962-2.114-1.922-2.305-3.17-.312-3.17-.312-1.729,7.035-.576,9.149S507.787,485.306,507.787,485.306Z" transform="translate(-424.594 -401.881)" fill="#f36"/>
    <path id="Path_247" data-name="Path 247" d="M507.787,485.306l.193-4.9s-.962-2.114-1.922-2.305-3.17-.312-3.17-.312-1.729,7.035-.576,9.149S507.787,485.306,507.787,485.306Z" transform="translate(-424.594 -401.881)" opacity="0.1"/>
    <path id="Path_248" data-name="Path 248" d="M432.241,483.34s-.6-6.793,3.137-6.916c.481-.015.962-.027,1.441-.073,2.587-.251,9.644-.795,8.8.817,0,0-1.681,5.908-.529,7.4Z" transform="translate(-366.77 -400.443)" fill="#f36"/>
    <path id="Path_249" data-name="Path 249" d="M738.31,516.766l5.006.145s.865-9.223,1.153-9.942.433-4.179-.5-4.682a24.207,24.207,0,0,0-4.068-1.117l-2.309,5.257-.179,4.755Z" transform="translate(-619.935 -421.274)" fill="#f36"/>
    <path id="Path_250" data-name="Path 250" d="M738.31,516.766l5.006.145s.865-9.223,1.153-9.942.433-4.179-.5-4.682a24.207,24.207,0,0,0-4.068-1.117l-2.309,5.257-.179,4.755Z" transform="translate(-619.935 -421.274)" opacity="0.1"/>
    <path id="Path_251" data-name="Path 251" d="M628.417,494.944l-.022-1.023a.592.592,0,0,1,.617-.6c2.483.1,11.513.537,13.093,1.344,0,0-1.729,12.86.181,15.922l-.648,10.3-22.118-1.657Z" transform="translate(-522.146 -414.76)" fill="#f36"/>
    <path id="Path_252" data-name="Path 252" d="M661.56,406.681c.614-.061,1.345-.126,2.162-.191v1.229H661.56Z" transform="translate(-557.018 -342.738)" opacity="0.1"/>
    <path id="Path_253" data-name="Path 253" d="M776.33,411.009v.155h-2.16v-.934A9.23,9.23,0,0,1,776.33,411.009Z" transform="translate(-650.427 -345.84)" opacity="0.1"/>
    <path id="Path_254" data-name="Path 254" d="M324.993,481.281a.2.2,0,0,1,.082-.128.288.288,0,0,1,.148-.014h0v.087h0a3.343,3.343,0,0,0-.309.315C324.946,481.455,324.968,481.368,324.993,481.281Zm7.824-2.3a.26.26,0,0,0,0-.036,7.551,7.551,0,0,1,.373-.8A7.758,7.758,0,0,0,332.818,478.986Zm1.166-2.206c-.184.275-.408.629-.627,1.04A4.83,4.83,0,0,1,333.984,476.78ZM303.52,500.641c.868.034,1.591.019,1.591.019A6.383,6.383,0,0,1,303.52,500.641Zm1.593.017a1.816,1.816,0,0,1,1.1-.133A3.037,3.037,0,0,0,305.113,500.658Zm29.124-13.115.317-5.456s-.118,2.786-.078,3.992a3.922,3.922,0,0,1-.239,1.466Z" transform="translate(-260.026 -401.043)" fill="url(#linear-gradient)"/>
    <path id="Path_255" data-name="Path 255" d="M349.13,593.5s-.09.28-.21.634a8.283,8.283,0,0,1-.563,1.437,8.108,8.108,0,0,1-1.611.17,4.982,4.982,0,0,1-3.4-1.079s.414-.3.853-.645a4.818,4.818,0,0,0,.992-.931,4.615,4.615,0,0,1,1.333-.975c.2-.116.341-.191.341-.191Z" transform="translate(-293.064 -496.551)" fill="#f899a5"/>
    <path id="Path_256" data-name="Path 256" d="M327.645,599.5s-7.973-.367-8.449-.472a.85.85,0,0,1-.573-.665c-.159-.372.682-.292.682-.292h0c.085.014,1.023.171,1.906.283h0a5.807,5.807,0,0,0,1.535.085h0a3.012,3.012,0,0,1,1.067-.085,2.528,2.528,0,0,0-2.152-1.731l.032-.032a2.68,2.68,0,0,1,.455-.341c1.625.067,2.484,2.307,2.484,2.307h.014c.184.058,2.143.665,2.532.721h0C327.585,599.341,327.645,599.5,327.645,599.5Z" transform="translate(-272.537 -500.142)" fill="#f3b4b4"/>
    <path id="Path_257" data-name="Path 257" d="M300.78,595.051c-.031.1-.171.171-.4.189a2.6,2.6,0,0,1-.372,0h0a8.443,8.443,0,0,1-2.217-.5c-.123-.043-.239-.08-.351-.113h-.014a4.838,4.838,0,0,0-.829-.171,1.693,1.693,0,0,0-1.062.133h0s-.7.015-1.535-.019h0a12.469,12.469,0,0,1-1.915-.2h0c-.09-.019-.171-.041-.254-.063a1.773,1.773,0,0,1-.428-.171c-.88-.529,2.084-.885,2.084-.885a1.545,1.545,0,0,0,.9-.433l.031-.034.075-.075h0a4.077,4.077,0,0,1,.36-.28l.109-.073c.59-.4,1.385-.825,1.385-.825a3.367,3.367,0,0,0,1.468-.839,1.74,1.74,0,0,0,.2-.242h0l1.639-.423,1.129,2.711s.009.147.017.367A12.891,12.891,0,0,1,300.78,595.051Z" transform="translate(-249.842 -494.983)" fill="#f899a5"/>
    <path id="Path_258" data-name="Path 258" d="M303.257,606.563a2.605,2.605,0,0,1-.372,0h0a8.443,8.443,0,0,1-2.217-.5c-.123-.043-.239-.08-.351-.113H300.3a4.825,4.825,0,0,0-.829-.17,1.694,1.694,0,0,0-1.062.133h0s-.7.015-1.535-.019h0a12.463,12.463,0,0,1-1.915-.2h0c-.09-.019-.171-.041-.254-.063a2.03,2.03,0,0,1,.329-.014h0c.084.01,1.032.126,1.915.2h0a5.777,5.777,0,0,0,1.535.019h0a2.862,2.862,0,0,1,1.062-.133,2.534,2.534,0,0,0-2.225-1.635c.01-.012.022-.022.031-.034h0a2.816,2.816,0,0,1,.435-.355h.034c1.6.026,2.549,2.194,2.549,2.194h.014c.186.049,2.171.573,2.558.612h0A.974.974,0,0,1,303.257,606.563Z" transform="translate(-252.718 -506.306)" opacity="0.1"/>
    <path id="Path_259" data-name="Path 259" d="M301.191,607.156s-7.981-.02-8.461-.1-.6-.641-.6-.641c-.171-.363.663-.319.663-.319h0c.083.01,1.023.126,1.915.2h0a5.94,5.94,0,0,0,1.535.019h0a2.849,2.849,0,0,1,1.062-.133,2.535,2.535,0,0,0-2.225-1.635l.031-.034a2.917,2.917,0,0,1,.44-.36c1.627,0,2.583,2.2,2.583,2.2h.014c.186.048,2.171.571,2.558.61h0C301.124,607,301.191,607.156,301.191,607.156Z" transform="translate(-250.557 -506.695)" fill="#f3b4b4"/>
    <path id="Path_260" data-name="Path 260" d="M364.567,593.524s-.09.28-.21.634a15.146,15.146,0,0,1-2.217-1.763,1.3,1.3,0,0,1-.181-.254c.2-.116.341-.191.341-.191Z" transform="translate(-308.501 -496.576)" opacity="0.1"/>
    <path id="Path_261" data-name="Path 261" d="M369.667,565.961l-.283.916-2.711,1.477a4.156,4.156,0,0,0-.853.766.764.764,0,0,1-.433.341,6.018,6.018,0,0,0-.375.522,15.158,15.158,0,0,1-2.217-1.763c-.188-.215-.278-.4-.193-.5a28.476,28.476,0,0,1,2.483-1.957s1.3-1.705,1.356-1.674a8.623,8.623,0,0,0,1.093-.955l.263-.246Z" transform="translate(-309.008 -472.471)" fill="#bdd3e8"/>
    <path id="Path_262" data-name="Path 262" d="M437.356,452.294l-2.639,4.668-.968,1.847-5.158-.752.116-.247.436-.916.2-.419.031-.056.571-1.035.032-.043.414-.587.834-1.178a.754.754,0,0,0,.273-.072.645.645,0,0,0,.312-.355,3.923,3.923,0,0,0-.246-2.133s1.957-4.774,2.636-2.147a5,5,0,0,0,2.728,3.24A3.751,3.751,0,0,0,437.356,452.294Z" transform="translate(-363.77 -377.237)" fill="#f899a5"/>
    <path id="Path_263" data-name="Path 263" d="M428,566.92v.452s1.705,1.632,1.48,2.962a8.053,8.053,0,0,0,.251,2.987l1.715-.123-.259-6.077Z" transform="translate(-363.281 -475.813)" fill="#bdd3e8"/>
    <path id="Path_264" data-name="Path 264" d="M431.446,573.2l-1.715.123a8.047,8.047,0,0,1-.251-2.987c.225-1.332-1.48-2.962-1.48-2.962v-.452l3.187.2.017.4Z" transform="translate(-363.281 -475.813)" opacity="0.05"/>
    <path id="Path_265" data-name="Path 265" d="M367.692,564.579a14.323,14.323,0,0,0-1.5,1.632c-.6.8-1.632,1.957-1.632,1.957l-1.229.728-.512.5c-.188-.215-.278-.4-.193-.5a28.474,28.474,0,0,1,2.483-1.957s1.3-1.705,1.356-1.674a8.631,8.631,0,0,0,1.093-.955Z" transform="translate(-309.025 -473.649)" opacity="0.05"/>
    <path id="Path_266" data-name="Path 266" d="M332.723,593.124a1.674,1.674,0,0,0-.142.136s-.026.8-.653-1.081a1.8,1.8,0,0,0-2.184-1.431.029.029,0,0,1-.012-.034c0-.051.09-.14.2-.242h0l1.639-.423,1.129,2.711S332.714,592.9,332.723,593.124Z" transform="translate(-281.767 -495)" opacity="0.1"/>
    <path id="Path_267" data-name="Path 267" d="M339.232,545.28l-.955.026-.653.929s-1.079,1.154-1.4,1.442a22.161,22.161,0,0,0-3.037,3.3s-.552.276-.552.552-1.054,1.079-1.054,1.079-1.1.752-.955.853a1.8,1.8,0,0,1,2.184,1.431c.627,1.882.653,1.079.653,1.079a1.466,1.466,0,0,1,.377-.3c.15-.055.864-1.083,1.084-1.108a1.084,1.084,0,0,0,.447-.2l1.279-1.255,1.231-.728s1.023-1.154,1.63-1.957a14.439,14.439,0,0,1,1.506-1.632Z" transform="translate(-282.495 -457.863)" fill="#bdd3e8"/>
    <path id="Path_268" data-name="Path 268" d="M353.22,580.91s1.705.827,1.632,1S353.22,580.91,353.22,580.91Z" transform="translate(-301.251 -487.418)" opacity="0.1"/>
    <path id="Path_269" data-name="Path 269" d="M361.12,579.73s.133.745.812.711S361.12,579.73,361.12,579.73Z" transform="translate(-307.805 -486.439)" opacity="0.1"/>
    <path id="Path_270" data-name="Path 270" d="M347.18,592a.77.77,0,0,0,.728.5C348.536,592.576,347.18,592,347.18,592Z" transform="translate(-296.241 -496.617)" opacity="0.1"/>
    <path id="Path_271" data-name="Path 271" d="M384.65,580.91s.827.341.9.815S384.65,580.91,384.65,580.91Z" transform="translate(-327.323 -487.418)" opacity="0.1"/>
    <path id="Path_272" data-name="Path 272" d="M372.72,591.21a4.6,4.6,0,0,1,1.224,1.286A11.533,11.533,0,0,1,372.72,591.21Z" transform="translate(-317.427 -495.962)" opacity="0.1"/>
    <path id="Path_273" data-name="Path 273" d="M381.33,586.744a.554.554,0,0,1,.566.119C382.126,587.1,381.33,586.744,381.33,586.744Z" transform="translate(-324.569 -492.231)" opacity="0.1"/>
    <path id="Path_274" data-name="Path 274" d="M402.559,536.569s-3.2-1.037-2.955,0,2.955,1.618,2.955,1.618Z" transform="translate(-339.716 -450.255)" fill="#f899a5"/>
    <path id="Path_275" data-name="Path 275" d="M437.356,471.936l-2.639,4.668-.968,1.847-5.158-.752.116-.247a2.975,2.975,0,0,1,.411-.46,1.7,1.7,0,0,1,.026-.455.885.885,0,0,1,.23-.476l.02-.019a3.182,3.182,0,0,0,.583-1.059c.044-.118.068-.2.068-.2l.341-.39,1.107-1.25.312-.355.293-.331-1.05,1.494s-.5.9-.527,1.023-.852,1.229-.852,1.229-1.405,1.231,1.1,1.255,4.041-2.421,4.041-2.421l2.118-3.281A3.751,3.751,0,0,0,437.356,471.936Z" transform="translate(-363.77 -396.879)" opacity="0.1"/>
    <path id="Path_276" data-name="Path 276" d="M382.766,534.6l-.984-.068-2.222-.186V534l3.188.2Z" transform="translate(-314.843 -442.892)" opacity="0.1"/>
    <path id="Path_277" data-name="Path 277" d="M434.033,470.21a1.672,1.672,0,0,0,.9.527,6.032,6.032,0,0,0-1.13,1.732s-1.408,2.37-.4,3.187a5.134,5.134,0,0,0,1.593.979l-.305,5.456a28.669,28.669,0,0,0,1.023,4.031,1.3,1.3,0,0,1,.2.9s-.182.627.009.853a4.339,4.339,0,0,1,.242,1.381,7.89,7.89,0,0,0-1.364-.578c-.235,0-.853-1.18-.853-1.18l-6.138-.426-2.7-.225.426-7.5a2.89,2.89,0,0,1,.452-3.569,1.279,1.279,0,0,1,.276-.95,3.9,3.9,0,0,0,.653-1.255l2.058-2.326h0l-1.054,1.5s-.5.9-.527,1.023-.853,1.231-.853,1.231-1.4,1.229,1.1,1.255,4.041-2.435,4.041-2.435Z" transform="translate(-360.881 -395.593)" fill="#e6ebef"/>
    <path id="Path_278" data-name="Path 278" d="M465.68,528.21a3.718,3.718,0,0,0,1.807.665C468.422,528.9,465.68,528.21,465.68,528.21Z" transform="translate(-394.536 -443.704)" opacity="0.1"/>
    <path id="Path_279" data-name="Path 279" d="M472.3,515.494s.691-.341,1.079-.056S472.3,515.494,472.3,515.494Z" transform="translate(-400.028 -433.015)" opacity="0.1"/>
    <path id="Path_280" data-name="Path 280" d="M470.39,523s.044.4,1.067.452S470.39,523,470.39,523Z" transform="translate(-398.443 -439.382)" opacity="0.1"/>
    <path id="Path_281" data-name="Path 281" d="M461.009,473.3l.215.114a4.79,4.79,0,0,0,1.354.288,2.167,2.167,0,0,1,1.77,1.693c.038.2.068.462.094.745a15.3,15.3,0,0,1-.048,3.069,9.754,9.754,0,0,0-.121,1.654c.075.225-.414,3.727-.414,3.727s-.113,2.861-.829,3.125a32.654,32.654,0,0,1-4.706.263l-1.693-2.936,3.952.188a3.867,3.867,0,0,0,.489-2.032c-.038-1.206.075-3.992.075-3.992s-2.387-.512-1.9-2.375A11.421,11.421,0,0,1,461.009,473.3Z" transform="translate(-387.03 -398.156)" fill="#f899a5"/>
    <path id="Path_282" data-name="Path 282" d="M386.24,545.71a4.7,4.7,0,0,1-2.217.251,15.3,15.3,0,0,1-1.976-1.33s-.87-.853-1.7-1.806l-.106-.123h0a5.358,5.358,0,0,1-1.364-2.136,1.816,1.816,0,0,0-.066-.53,2.216,2.216,0,0,0-.341-.694,2.071,2.071,0,0,0-.293-.331l-2.61-3.364s.754-.8.754-1.023a1.49,1.49,0,0,1,2.058-.8,24.955,24.955,0,0,1,2.83,2.377c1.628,1.494,3.294,3.119,3.294,3.119s.118.126.29.322a6.144,6.144,0,0,1,1.3,1.963C386.191,542.271,386.24,545.71,386.24,545.71Z" transform="translate(-319.791 -448.203)" fill="#bdd3e8"/>
    <path id="Path_283" data-name="Path 283" d="M398.859,552.046c-1.236,1.231-3.1,2.882-4.447,3.194l-.036.008-.07-.131h0l-1.425-2.667-.361-.682.019-.019,2.738-3.149c1.628,1.494,3.294,3.119,3.294,3.119Z" transform="translate(-333.851 -460.617)" opacity="0.05"/>
    <path id="Path_284" data-name="Path 284" d="M408.114,524.549v.571s.791,2.793-.639,3.581a9.1,9.1,0,0,1-3.61.493,3.823,3.823,0,0,1-3.773-3.146,2.285,2.285,0,0,1-.015-.81s-.639-4.575-.791-4.6c0,0-3.6,4.118-5.8,4.592l-1.859-3.475,2.969-3.41s2.2-3.5,2.842-3.821a4.622,4.622,0,0,0,1.28-1.217s2.58-2.152,4.292,1.482,2.824,6.568,3.24,7.657c0,0,.6,1.234.979,1.231h.012a.88.88,0,0,1,.871.876Z" transform="translate(-333.112 -430.813)" fill="#bdd3e8"/>
    <path id="Path_285" data-name="Path 285" d="M436.09,550.729a3.722,3.722,0,0,0,.771-1.318c.285-.829-.085.841-.7,1.506Z" transform="translate(-369.992 -461.103)" opacity="0.1"/>
    <path id="Path_286" data-name="Path 286" d="M416.418,424.923a1.254,1.254,0,0,0,.389.651,12.452,12.452,0,0,0,1.258,1.185,1.306,1.306,0,0,1,.46.53.834.834,0,0,1-.031.46,7.893,7.893,0,0,1-.668,1.661,1.023,1.023,0,0,0-.186.566c.046.447.682.7,1.146.992a1.865,1.865,0,0,1,.938,1.582c-.038.926-.916,1.725-1.122,2.639a4.433,4.433,0,0,0,1.659-.341,1.249,1.249,0,0,0,.832-1.057.3.3,0,0,1,.026-.2.421.421,0,0,1,.239-.123c.455-.111,1.011-.075,1.345-.329s.257-.7.114-1.057c-.389-.975-.951-1.913-1.291-2.9a2.08,2.08,0,0,1-.147-1.037,3.475,3.475,0,0,1,.45-.991,6.309,6.309,0,0,0,.747-2.275,2.118,2.118,0,0,0-.184-1.335,2.25,2.25,0,0,0-1.488-.986c-1.28-.281-1.963.341-2.963.755C417.2,423.639,416.342,424.207,416.418,424.923Z" transform="translate(-353.67 -356.014)" fill="#4b3648"/>
    <path id="Path_287" data-name="Path 287" d="M418.6,434.709c.1,0,.208-.012.312-.02.213-.905,1.078-1.705,1.115-2.617a1.867,1.867,0,0,0-.938-1.584c-.457-.295-1.1-.546-1.146-.991a1.032,1.032,0,0,1,.186-.568,7.888,7.888,0,0,0,.668-1.661.834.834,0,0,0,.031-.46,1.292,1.292,0,0,0-.46-.529,12.661,12.661,0,0,1-1.258-1.194,1.243,1.243,0,0,1-.389-.65c-.078-.716.769-1.286,1.523-1.6a6.442,6.442,0,0,1,2.206-.822,5.247,5.247,0,0,0-2.512.822c-.754.315-1.6.885-1.523,1.6a1.243,1.243,0,0,0,.389.65,12.664,12.664,0,0,0,1.258,1.194,1.292,1.292,0,0,1,.46.529.834.834,0,0,1-.031.46,7.892,7.892,0,0,1-.668,1.661,1.032,1.032,0,0,0-.186.568c.046.445.682.7,1.146.991a1.868,1.868,0,0,1,.938,1.584C419.684,433,418.806,433.8,418.6,434.709Z" transform="translate(-353.667 -355.609)" opacity="0.1"/>
    <circle id="Ellipse_49" data-name="Ellipse 49" cx="4.01" cy="4.01" r="4.01" transform="translate(63.795 66.879)" opacity="0.1"/>
    <circle id="Ellipse_50" data-name="Ellipse 50" cx="4.01" cy="4.01" r="4.01" transform="translate(63.87 66.729)" fill="#f899a5"/>
    <path id="Path_288" data-name="Path 288" d="M427.091,415.176a1.589,1.589,0,0,1-.853-.486.8.8,0,0,1,.02-1.008,1.763,1.763,0,0,1,.483-.21c.673-.3.788-1.344,1.245-2a1.5,1.5,0,0,1,1.381-.665,6.647,6.647,0,0,1,.834.246c.667.181,1.379.038,2.056.16a4.334,4.334,0,0,1,2.9,2.9c.254.646.431,1.33.633,2a26.531,26.531,0,0,0,1.091,2.967,2.085,2.085,0,0,0,.373.629c.426.435,1.18.4,1.442.987a2.073,2.073,0,0,1,.029,1.088,8.655,8.655,0,0,0,.314,3.688c.288.914.839,1.838,1.679,1.969a.934.934,0,0,1-1.352.085,4.421,4.421,0,0,1-.905-1.313,8.35,8.35,0,0,0-.772-1.134,1.594,1.594,0,0,0-.585-.5c-.573-.232-1.182.242-1.693.655a2.914,2.914,0,0,1-1.379.725,1.108,1.108,0,0,1-1.219-.749c-.193-.653.2-1.535-.228-2.009a3.032,3.032,0,0,0-.563-.365,2.224,2.224,0,0,1-.535-2.014,4.5,4.5,0,0,0-.063-2.2,2.654,2.654,0,0,0-.682-.853,15,15,0,0,0-4.119-2.7" transform="translate(-361.68 -346.317)" fill="#4b3648"/>
    <g id="Group_200" data-name="Group 200" transform="translate(64.364 64.514)" opacity="0.1">
      <path id="Path_289" data-name="Path 289" d="M434.337,425.971a1.108,1.108,0,0,1-1.221-.749c-.193-.651.2-1.535-.228-2.009a2.982,2.982,0,0,0-.561-.363,2.215,2.215,0,0,1-.535-2.014,4.466,4.466,0,0,0-.065-2.206,2.674,2.674,0,0,0-.682-.853,15,15,0,0,0-4.119-2.72l.474.113a1.593,1.593,0,0,1-.853-.486.8.8,0,0,1,.022-1.009,1.749,1.749,0,0,1,.481-.208c.682-.3.788-1.344,1.245-2a1.647,1.647,0,0,1,.575-.512,1.567,1.567,0,0,0-1.032.66c-.457.653-.569,1.705-1.245,2a1.765,1.765,0,0,0-.483.21.791.791,0,0,0-.02,1.008,1.645,1.645,0,0,0,.853.486l-.472-.111a15,15,0,0,1,4.118,2.714,2.655,2.655,0,0,1,.682.853,4.46,4.46,0,0,1,.063,2.2,2.239,2.239,0,0,0,.535,2.014,2.867,2.867,0,0,1,.563.365c.425.476.036,1.356.228,2.009a1.108,1.108,0,0,0,1.219.749,1.769,1.769,0,0,0,.549-.171A.849.849,0,0,1,434.337,425.971Z" transform="translate(-425.919 -410.96)"/>
      <path id="Path_290" data-name="Path 290" d="M491.2,493.539a4.4,4.4,0,0,1-.9-1.311,8.1,8.1,0,0,0-.774-1.134,1.565,1.565,0,0,0-.585-.5,1.057,1.057,0,0,0-.9.1.868.868,0,0,1,.44.053,1.581,1.581,0,0,1,.585.5,8.357,8.357,0,0,1,.772,1.134,4.518,4.518,0,0,0,.905,1.313,1,1,0,0,0,1.175.094A1.107,1.107,0,0,1,491.2,493.539Z" transform="translate(-477.448 -476.966)"/>
    </g>
    <path id="Path_291" data-name="Path 291" d="M747.793,466.991l-3.267.048-6.749-12.264-1.127-2.048.864-5.187.665,1.255Z" transform="translate(-611.047 -371.174)" fill="#dce0ed"/>
    <path id="Path_292" data-name="Path 292" d="M593.714,437.187,592.37,439.2l-4.021-5.436-1.84-2.489,1.1-1.489.846,1.026Z" transform="translate(-486.507 -356.45)" fill="#dce0ed"/>
    <path id="Path_293" data-name="Path 293" d="M636.891,463.745c0,.1.012.211.019.319l-.13,2.634-1.84-2.489,1.1-1.489Z" transform="translate(-534.937 -389.38)" opacity="0.1"/>
    <path id="Path_294" data-name="Path 294" d="M738.179,448.795l-.4,5.98-1.127-2.048.864-5.187Z" transform="translate(-611.047 -371.174)" opacity="0.1"/>
    <path id="Path_295" data-name="Path 295" d="M623.014,420.036s-1.613-12.046,4.263-13.849a1.5,1.5,0,0,1,.23-.048c1.352-.162,13.947-1.615,20.486.111,0,0,4.467.673,4.419,3.069l-1.981,29.351h-3.217l1.055-19.4s1.535-8.454-1.008-9.037-14.121-1.535-18.2-.384c0,0-2.979-.674-2.5,6.675l-.193,3.939Z" transform="translate(-524.876 -341.845)" fill="#dce0ed"/>
    <path id="Path_296" data-name="Path 296" d="M642.343,493.578a1.855,1.855,0,0,0-.757-1.657c-.9-.682-3.674-2.16-3.674-2.16l-.9.072-2.7,6.7.179,14.229,4.863,6.015Z" transform="translate(-534.414 -411.81)" fill="#f36"/>
    <path id="Path_297" data-name="Path 297" d="M642.343,493.578a1.855,1.855,0,0,0-.757-1.657c-.9-.682-3.674-2.16-3.674-2.16l-.9.072-2.7,6.7.179,14.229,4.863,6.015Z" transform="translate(-534.414 -411.81)" opacity="0.1"/>
    <path id="Path_298" data-name="Path 298" d="M567.62,500.545l.1-14.6s-.431-5.668,2.955-5.763c0,0,7.985.058,11.455,1.185a.774.774,0,0,1,.436,1.119c-.682,1.2-1.855,4.385-2.418,12.549v8.754Z" transform="translate(-479.095 -403.863)" fill="#f36"/>
    <path id="Path_299" data-name="Path 299" d="M512.495,572.511l-14.531-.339h-.014l-7.141-.165.827-9.547,3.963.145,12.609,2.81,3.853,6.051Z" transform="translate(-407.124 -466.499)" fill="#f36"/>
    <path id="Path_300" data-name="Path 300" d="M512.495,572.511l-14.531-.339h-.014l-7.141-.165.827-9.547,3.963.145,12.609,2.81,3.853,6.051Z" transform="translate(-407.124 -466.499)" opacity="0.1"/>
    <path id="Path_301" data-name="Path 301" d="M546.139,586.886l-14.531-.339-.239-6.4,10.483-.36,3.853,6.051Z" transform="translate(-440.768 -480.874)" fill="#f36"/>
    <path id="Path_302" data-name="Path 302" d="M546.381,605.069l-7.141-.17.829-9.548s2.234,3.567,6.087,3.315Z" transform="translate(-455.554 -499.396)" fill="#fff" opacity="0.1"/>
    <path id="Path_303" data-name="Path 303" d="M851.556,686.306c-.288,2.738-2.234,2.305-2.234,2.305l-.363-.032-3.6-.327L845.5,684a15.663,15.663,0,0,1,3.65.22C850.506,684.5,851.684,685.09,851.556,686.306Z" transform="translate(-709.479 -572.911)" fill="#dce0ed"/>
    <path id="Path_304" data-name="Path 304" d="M535.63,454.27s-6.628,3.023-7.108,3.889-3.751,4.6-3.751,4.6l1.417,2.387,6.556-5.212Z" transform="translate(-443.551 -382.371)" fill="#4c4981"/>
    <path id="Path_305" data-name="Path 305" d="M436.891,542.689l-3.069-.459-2.258,2.663s-3.146,1.56-3.512,2.242-1.511,2.68-2.015,2.7-.977.752-.98,1.043-1.922,3.64-2.4,3.833a3.332,3.332,0,0,0-1.281,1.5,19.952,19.952,0,0,1-1.79,2.356s-3.069,4.8-3.526,4.957-2.225,3.255-2.674,3.623-1.705.7-1.552,1,3.24,4.517,3.052,5.712c0,0,2.3-1.818,2.387-2.377s2.933-3.509,2.933-3.509L435.1,552.5l2.87-9.744Z" transform="translate(-349.863 -455.333)" fill="#ceddf9"/>
    <path id="Path_306" data-name="Path 306" d="M445.935,538.382s.612,7.028-1.417,8.092-3.41.941-3.8,1.41-2.769.883-3.021,1.31-6.917,4.152-6.917,4.152-4.559,2.687-5.274,3.272-4.6,2.3-5.267,3.1a42.729,42.729,0,0,1-4.827,3.443s-1.219-3.751-2.621-4.08c0,0,3.369-.663,3.569-1.194s1.205-1.1,1.205-1.1,4.8-2.783,4.945-3.41,1.33-1.521,1.33-1.521,1.9-2.6,2.605-2.854,4.856-4.517,4.856-4.517a18.422,18.422,0,0,0,3.139-1.985c.314-.491,5.668-3.274,5.668-3.274l-6.1-7.582,1.93-.593,5.717,1.535,1.023,1.853Z" transform="translate(-350.664 -446.06)" opacity="0.1"/>
    <path id="Path_307" data-name="Path 307" d="M447.955,538.915s.614,7.028-1.415,8.092-3.41.943-3.8,1.41-2.769.885-3.021,1.309-6.916,4.154-6.916,4.154-4.559,2.685-5.275,3.265-4.6,2.3-5.267,3.1a42.666,42.666,0,0,1-4.827,3.441s-1.224-3.741-2.621-4.082c0,0,3.371-.661,3.569-1.194s1.205-1.1,1.205-1.1,4.8-2.783,4.945-3.41,1.332-1.523,1.332-1.523,1.9-2.6,2.605-2.853,4.854-4.518,4.854-4.518a18.422,18.422,0,0,0,3.139-1.985c.314-.491-2.421-6.991-2.421-6.991l1.992-3.87,1.93-.592,5.717,1.535,1.023,1.853Z" transform="translate(-352.34 -446.491)" fill="#ceddf9"/>
    <path id="Path_308" data-name="Path 308" d="M607.193,434.27l-4.663,3.24s-5.635-2.09-3.41-2.929c1.46-.551,1.985-3.393,2.172-5.286.1-.986.1-1.705.1-1.705s6.358-.01,5.188,2.019a3.194,3.194,0,0,0-.389,1.835A6.357,6.357,0,0,0,607.193,434.27Z" transform="translate(-504.793 -360.24)" fill="#fec2be"/>
    <path id="Path_309" data-name="Path 309" d="M619.234,431.478a4.471,4.471,0,0,1-4.9-2.143c.1-.986.1-1.705.1-1.705s6.358-.01,5.189,2.019A3.193,3.193,0,0,0,619.234,431.478Z" transform="translate(-517.841 -360.273)" opacity="0.1"/>
    <path id="Path_310" data-name="Path 310" d="M619.721,403.519a4.481,4.481,0,1,1,.1-.411C619.794,403.245,619.762,403.383,619.721,403.519Z" transform="translate(-515.03 -335.502)" fill="#fec2be"/>
    <path id="Path_311" data-name="Path 311" d="M556.865,456.11s-.783,0-.832,1.113-.841,1.032-.841,1.032l-3.676,3.818s-1.65,3.952-1.637,4.113-.372.829-.285,1.166-.034,1.364-.341,1.274a.726.726,0,0,0-.812.728c.007.5-2.583,2.046-2.477,2.421s7.374,4.237,7.374,4.237l3.025,2.344,2.824-5.26,2.353-7.248,1.308-4.208,1.083-1.211-.5-2.841s-.447-1.229-.812-1.057-1.705,1.62-2.963,1.746-1.993.28-2.286,0S555.3,457.8,556.865,456.11Z" transform="translate(-461.129 -383.897)" opacity="0.1"/>
    <path id="Path_312" data-name="Path 312" d="M557.615,453.94a1.069,1.069,0,0,0-.982,1.139c-.051,1.112-.841,1.032-.841,1.032l-3.676,3.818s-1.651,3.951-1.635,4.113-.373.827-.286,1.166-.032,1.364-.341,1.274a.726.726,0,0,0-.813.728c.007.5-2.583,2.046-2.476,2.421s7.373,4.237,7.373,4.237l3.026,2.344,2.824-5.262,2.353-7.248,1.32-4.206,1.081-1.211-.5-2.841s-.447-1.229-.812-1.057-1.705,1.62-2.962,1.744-1.993.281-2.286,0S557.865,455.533,557.615,453.94Z" transform="translate(-461.627 -382.097)" opacity="0.1"/>
    <path id="Path_313" data-name="Path 313" d="M557.423,454.61a1.067,1.067,0,0,0-.982,1.139c-.049,1.112-.841,1.033-.841,1.033l-3.676,3.816s-1.651,3.952-1.635,4.113-.373.829-.286,1.166-.032,1.364-.341,1.274a.725.725,0,0,0-.812.728c.007.5-2.583,2.046-2.476,2.421s7.373,4.239,7.373,4.239l3.025,2.343,2.824-5.26,2.355-7.248,1.318-4.208,1.083-1.211-.5-2.841s-.447-1.229-.812-1.055-1.705,1.618-2.962,1.744-1.995.281-2.288,0S557.674,456.211,557.423,454.61Z" transform="translate(-461.469 -382.653)" fill="#fff"/>
    <path id="Path_314" data-name="Path 314" d="M535.232,452.93a6.909,6.909,0,0,1-1.287-.252,8.982,8.982,0,0,0-2.116-.038s-1.913.118-2.266.67-1.875,3.541-2.4,3.729-3.606,5.153-4.237,5.589-3.349,5.761-3.349,5.761,2.009-.948,2.928.44c.024.036.048.072.07.111.883,1.548,1.705.355,1.705.355a39.623,39.623,0,0,0,3.158-3.127c.234-.464,1.962-3.952,2.408-4.916s4.213-5.722,4.339-5.934S535.232,452.93,535.232,452.93Z" transform="translate(-439.246 -380.978)" opacity="0.1"/>
    <path id="Path_315" data-name="Path 315" d="M534.113,452.6a10.781,10.781,0,0,1-1.516-.321,9,9,0,0,0-2.118-.038s-1.913.118-2.266.668-1.875,3.543-2.4,3.729-3.606,5.153-4.237,5.591-3.349,5.761-3.349,5.761,2.009-.948,2.929.44c.022.034.046.072.068.111.883,1.546,1.705.355,1.705.355a39.618,39.618,0,0,0,3.158-3.127c.232-.462,1.962-3.952,2.408-4.916s4.213-5.722,4.339-5.935S534.113,452.6,534.113,452.6Z" transform="translate(-438.126 -380.646)" fill="#4c4981"/>
    <path id="Path_316" data-name="Path 316" d="M605.227,455.62a20,20,0,0,1,2.728,2.286c.31.532,3.477,2.2,3.477,2.2s1.194,2.2,1.014,3a4.432,4.432,0,0,0-.213,1.971c.155.423.251.419.02.977s-.15.612.17,1.113-4.774,2.046-4.774,2.046-.682.106-.755.431-3.98,8.921-4.544,10.287-2.348,6.82-3.845,6.9-.341.02-.341.02.23-4.433-.691-5.968.9-7.456.9-7.456S604.422,456.005,605.227,455.62Z" transform="translate(-503.643 -383.491)" opacity="0.1"/>
    <path id="Path_317" data-name="Path 317" d="M606.338,455.62a21.267,21.267,0,0,1,2.958,2.355c.31.53,3.485,2.2,3.485,2.2s1.194,2.2,1.014,3a4.435,4.435,0,0,0-.213,1.971c.155.421.251.419.02.977s-.152.612.171,1.115S609,469.276,609,469.276s-.682.107-.755.431-3.988,8.924-4.556,10.288-2.348,6.812-3.845,6.892-.341.02-.341.02.23-4.433-.691-5.968.912-7.46.912-7.46S605.533,456.005,606.338,455.62Z" transform="translate(-504.754 -383.491)" fill="#4c4981"/>
    <path id="Path_318" data-name="Path 318" d="M620.97,558.55s-5.364,1.194-5.531,1.535-4.6,2.986-2.276,4.263,5.985-1.8,5.985-1.8l2.9-1.85Z" transform="translate(-516.313 -468.871)" fill="#fec2be"/>
    <path id="Path_319" data-name="Path 319" d="M658.265,516.61c.087.026,1.956,1.211,1.956,1.211s.88,2.922,1.072,3.639a21.184,21.184,0,0,1,.65,2.229c-.032.239.532,1.567-.368,2.174s-1.845.512-2.278.917a23.6,23.6,0,0,1-3.8,1.807c-.377.1,1.862-4.452-.9-5.153,0,0,1.98.186,2.082-.16s.217-1.25-.153-1.579-1.968-1.9-1.968-1.9Z" transform="translate(-551.211 -434.082)" fill="#4c4981"/>
    <path id="Path_320" data-name="Path 320" d="M619.927,403.149a1.231,1.231,0,0,1-.534-.559c-.182-.355-.365-.788-.754-.878-.218-.053-.483.012-.645-.143a.682.682,0,0,1-.124-.5,2.026,2.026,0,0,0-.326-1.13,1.183,1.183,0,0,0-1.011-.527c-.554.038-1.037.542-1.582.442-.24-.044-.471-.206-.706-.143a.7.7,0,0,0-.249.14,3.627,3.627,0,0,0-1.137,1.535c-.225.573-.3,1.194-.569,1.755-.107.218-.314.452-.546.384-.361-.107-.171-.563-.372-.762a.55.55,0,0,0-.285-.114,4.469,4.469,0,1,1,8.839.5Z" transform="translate(-515.139 -335.543)" opacity="0.1"/>
    <path id="Path_321" data-name="Path 321" d="M604.87,390.61c.232.068.438-.171.546-.382.269-.554.341-1.182.57-1.755a3.62,3.62,0,0,1,1.139-1.535.692.692,0,0,1,.247-.142c.235-.061.467.1.706.143.546.1,1.023-.4,1.582-.442a1.183,1.183,0,0,1,1.011.529,2,2,0,0,1,.326,1.129.681.681,0,0,0,.126.5c.16.157.425.092.645.143.389.092.57.523.754.878s.554.726.924.573a3.562,3.562,0,0,1,.315-.171c.21-.07.46.044.648-.072.239-.147.17-.512.015-.755s-.341-.512-.244-.772a1.047,1.047,0,0,1,.257-.331,1.639,1.639,0,0,0-.1-2.249c-.152-.136-.329-.242-.477-.382a5.022,5.022,0,0,1-.682-1.023,3.116,3.116,0,0,0-1.086-1.023,1.55,1.55,0,0,0-.631-.22,5.325,5.325,0,0,0-.921.123c-1.033.1-1.922-.713-2.933-.945a.832.832,0,0,0-.694.082c-.2.157-.244.438-.341.682a2.049,2.049,0,0,1-1.216,1.088c-.6.23-1.364.355-1.615.946-.218.512.065,1.1-.049,1.637a3.3,3.3,0,0,1-.648,1.1,1.191,1.191,0,0,0-.211,1.207,1.074,1.074,0,0,0,.552.431c.283.116.914.055,1.1.242S604.508,390.506,604.87,390.61Z" transform="translate(-508.227 -322.746)" fill="#9a5e7f"/>
    <path id="Path_322" data-name="Path 322" d="M674.47,546.66c.1.01,1.966.341,2.4.968S674.47,546.66,674.47,546.66Z" transform="translate(-567.727 -459.008)" opacity="0.1"/>
    <path id="Path_323" data-name="Path 323" d="M669,535a15.023,15.023,0,0,1,2.268.656A15.012,15.012,0,0,1,669,535Z" transform="translate(-563.189 -449.336)" opacity="0.1"/>
    <path id="Path_324" data-name="Path 324" d="M672.92,505.57s1.5.655,1.666,1.061S672.92,505.57,672.92,505.57Z" transform="translate(-566.441 -424.924)" opacity="0.1"/>
    <path id="Path_325" data-name="Path 325" d="M560.84,605c.155.109,3.828,2.834,3.528,2.933S560.84,605,560.84,605Z" transform="translate(-473.471 -507.401)" opacity="0.1"/>
    <path id="Path_326" data-name="Path 326" d="M560.68,615s2.152,1.04,1.792,1.475S560.68,615,560.68,615Z" transform="translate(-473.338 -515.696)" opacity="0.1"/>
    <g id="Group_201" data-name="Group 201" transform="translate(94.52 62.473)" opacity="0.1">
      <path id="Path_327" data-name="Path 327" d="M608.292,400.405c.1-.462-.1-.962-.017-1.415V399c-.215.5.056,1.079-.044,1.611A1.433,1.433,0,0,0,608.292,400.405Z" transform="translate(-607.267 -398.99)"/>
      <path id="Path_328" data-name="Path 328" d="M670.114,412.816a.436.436,0,0,0-.024.14,1.889,1.889,0,0,1,.213-.24,1.487,1.487,0,0,0,.36-.706,1.443,1.443,0,0,1-.292.476A1.047,1.047,0,0,0,670.114,412.816Z" transform="translate(-658.613 -409.79)"/>
      <path id="Path_329" data-name="Path 329" d="M629.765,408.636c-.187.116-.44,0-.65.072-.114.039-.2.128-.315.171-.37.153-.742-.217-.924-.571s-.365-.788-.754-.88c-.218-.051-.484.014-.645-.143a.684.684,0,0,1-.126-.5,2.02,2.02,0,0,0-.324-1.13,1.193,1.193,0,0,0-1.013-.529c-.552.037-1.035.544-1.581.443-.24-.046-.472-.206-.708-.145a.719.719,0,0,0-.247.142,3.621,3.621,0,0,0-1.139,1.535,5.183,5.183,0,0,0-.17.5c.029-.09.06-.181.1-.269A3.62,3.62,0,0,1,622.4,405.8a.691.691,0,0,1,.247-.142c.235-.061.467.1.706.143.546.1,1.023-.4,1.582-.442a1.183,1.183,0,0,1,1.011.529,2,2,0,0,1,.326,1.129.681.681,0,0,0,.126.5c.16.157.424.092.644.143.389.092.57.523.754.878s.554.726.924.573a3.569,3.569,0,0,1,.315-.171c.21-.07.46.044.648-.072a.341.341,0,0,0,.153-.307A.3.3,0,0,1,629.765,408.636Z" transform="translate(-618.034 -404.082)"/>
      <path id="Path_330" data-name="Path 330" d="M605.517,419.07c-.106.218-.314.45-.546.382-.361-.106-.17-.561-.37-.76s-.822-.126-1.1-.242a1.081,1.081,0,0,1-.552-.431.817.817,0,0,1-.072-.578.933.933,0,0,0,0,.808,1.074,1.074,0,0,0,.552.431c.283.116.914.055,1.1.242s.009.655.37.76c.232.068.438-.171.546-.382a4.462,4.462,0,0,0,.264-.737A3.66,3.66,0,0,1,605.517,419.07Z" transform="translate(-602.78 -414.294)"/>
    </g>
    <path id="Path_331" data-name="Path 331" d="M567.852,477.3s-1.468,2.191-1.292,2.65S567.852,477.3,567.852,477.3Z" transform="translate(-478.203 -401.474)" opacity="0.1"/>
    <path id="Path_332" data-name="Path 332" d="M575.47,519.17a4.117,4.117,0,0,1,1.064.631C576.819,520.106,575.47,519.17,575.47,519.17Z" transform="translate(-485.607 -436.205)" opacity="0.1"/>
    <path id="Path_333" data-name="Path 333" d="M585.51,532.27s1.664.4,1.806.663S585.51,532.27,585.51,532.27Z" transform="translate(-493.935 -447.072)" opacity="0.1"/>
    <path id="Path_334" data-name="Path 334" d="M587.21,545.63s1.506.2,1.676.781S587.21,545.63,587.21,545.63Z" transform="translate(-495.345 -458.154)" opacity="0.1"/>
    <path id="Path_335" data-name="Path 335" d="M866.275,687.5c-.288,2.738-2.234,2.305-2.234,2.305l-.363-.032a3.679,3.679,0,0,1-.573-2.056,3.453,3.453,0,0,1,.769-2.3C865.225,685.69,866.4,686.28,866.275,687.5Z" transform="translate(-724.198 -574.1)" opacity="0.1"/>
    <path id="Path_336" data-name="Path 336" d="M526.254,487.22c-3.289,0-5.954,3.6-5.954,8.046s2.665,8.044,5.954,8.044,5.956-3.6,5.956-8.044S529.545,487.22,526.254,487.22Zm-.841,14.409c-2.506,0-4.537-2.612-4.537-5.836s2.031-5.835,4.537-5.835,4.539,2.612,4.539,5.835S527.922,501.629,525.413,501.629Z" transform="translate(-439.843 -409.703)" fill="#636780"/>
    <path id="Path_337" data-name="Path 337" d="M507.31,505.937l2.786,2.737,1.008-2.45-4.034-2.353Z" transform="translate(-420.612 -417.899)" fill="#636780"/>
    <path id="Path_338" data-name="Path 338" d="M452.109,357.07l2.425.295.9,1.069-1.364,6.138-2.9,9.889-1.9,6.79-1.337,4.123-.853,5.456-.853,3.751-2.558,2.558-5.2-6.138-.853-2.046-2.046-4.177,5.286-2.472,5.8-.512,2.728-6.991,2.217-8.1Z" transform="translate(-361.303 -296.129)" fill="#f36"/>
    <path id="Path_339" data-name="Path 339" d="M229.4,512.543l-3.17,26.609,39.912-1.681-4.61-13.064-7.685-5,17.579.288.1-7.3-7.108-1.538L250.1,509.709l-10.759-.479-10.278,3.361" transform="translate(-187.656 -422.345)" fill="#f36"/>
    <path id="Path_340" data-name="Path 340" d="M229.4,512.543l-3.17,26.609,39.912-1.681-4.61-13.064-7.685-5,17.579.288.1-7.3-7.108-1.538L250.1,509.709l-10.759-.479-10.278,3.361" transform="translate(-187.656 -422.345)" opacity="0.1"/>
    <path id="Path_341" data-name="Path 341" d="M532.375,661c0,6.612-2.2,12.631-8.293,11.973-7.688-.171-8.292-5.361-8.292-11.973s3.712-11.533,8.292-11.533S532.375,654.391,532.375,661Z" transform="translate(-436.102 -544.288)" fill="#636780"/>
    <path id="Path_342" data-name="Path 342" d="M552.7,664.557c0-5.115-2.225-9.224-5.356-10.817-4.021.764-7.11,5.388-7.11,11.424,0,5.419.406,9.889,4.784,11.412C550.646,676.775,552.7,670.942,552.7,664.557Z" transform="translate(-456.375 -547.83)" opacity="0.1"/>
    <path id="Path_343" data-name="Path 343" d="M599.164,567.951l-2.344,2.685,4.22-.725,3.154-2.9,2.813-5.627,3.964-2.43,9.719,1.321,8.994.341,3.32-2.948-3.7-.5-3.751-.085-9.42-.213-11.211-.3-2.3,6.138-1.748,4.22Z" transform="translate(-495.059 -461.613)" fill="#f36"/>
    <path id="Path_344" data-name="Path 344" d="M235.764,447.756c-.193.288-6.479,1.25-6.479,1.25l-17.392,3.17-29.869.431-3.506-2.979-1.841.327-.075.014L152,454.335l-.4-.056-6.7-.957-35.017-4.991.392-5.083.232-3,.479-6.229.341-1.633,3.119-.286,1.456-.133,22.727-2.085,2.972-.273,1.666-.152L159.5,427.24l23.678.576.1-7.3,9.366-28.815c2.065.341,2.017,1.729,2.017,1.729l-7.975,27.138-.1,16.667c16.582,1.674,17.117-1.939,19.739-.721l3.171-10.133,27.856.145C238.462,427.871,235.764,447.756,235.764,447.756Z" transform="translate(-99.402 -330.47)" fill="#f36"/>
    <path id="Path_345" data-name="Path 345" d="M394.4,598.8l8.837,18.972,2.977.96.721-3.074-3.315-10.519-3.41-6.1Z" transform="translate(-327.152 -496.643)" fill="#f36"/>
    <path id="Path_346" data-name="Path 346" d="M394.4,598.8l8.837,18.972,2.977.96.721-3.074-3.315-10.519-3.41-6.1Z" transform="translate(-327.152 -496.643)" opacity="0.15"/>
    <ellipse id="Ellipse_51" data-name="Ellipse 51" cx="16.005" cy="18.155" rx="16.005" ry="18.155" transform="translate(45.489 104.894)" fill="#636780"/>
    <path id="Path_347" data-name="Path 347" d="M369.585,654.43c-8.375.583-15,8.471-15,18.118,0,7.777,4.31,14.411,10.368,17,8.375-.583,15-8.471,15-18.118C379.953,663.649,375.643,657.015,369.585,654.43Z" transform="translate(-302.38 -548.402)" opacity="0.1"/>
    <path id="Path_348" data-name="Path 348" d="M90.551,568.07l-.793,3.739-2.425,11.443L76.91,582.242s-.624-1.92,1.009-2.641c0,0,.535-6.5,2.462-8.549a1.942,1.942,0,0,1,.755-.527Z" transform="translate(-71.957 -476.767)" fill="#f36"/>
    <path id="Path_349" data-name="Path 349" d="M89.758,586.317,87.333,597.76,76.91,596.75s-.624-1.92,1.009-2.641c0,0,.535-6.5,2.462-8.549Z" transform="translate(-71.957 -491.275)" fill="#fff" opacity="0.1"/>
    <path id="Path_350" data-name="Path 350" d="M161.341,532.393c1.344,2.254-1.915,23.051-1.915,23.051l-25.607-4.227.912-18.2c.529-3.265,2.45-3.649,2.45-3.649,9.037-4.563,29.777-5.524,29.777-5.524a151.782,151.782,0,0,1,36.166,6.292C181.609,526.819,161.341,532.393,161.341,532.393Z" transform="translate(-119.261 -440.079)" fill="#f36"/>
    <path id="Path_351" data-name="Path 351" d="M159.427,580.754l-25.607-4.227.912-18.2c.529-3.265,2.45-3.649,2.45-3.649s18.682-1.778,24.159,3.028C162.685,559.958,159.427,580.754,159.427,580.754Z" transform="translate(-119.261 -465.39)" opacity="0.1"/>
    <path id="Path_352" data-name="Path 352" d="M163.955,592.565l-21.405-3.606.759-15.531c.442-2.786,2.046-3.113,2.046-3.113s15.622-1.518,20.2,2.581C166.685,574.82,163.955,592.565,163.955,592.565Z" transform="translate(-126.502 -478.401)" fill="#f36"/>
    <ellipse id="Ellipse_52" data-name="Ellipse 52" cx="2.929" cy="5.332" rx="2.929" ry="5.332" transform="translate(32.763 96.056)" opacity="0.1"/>
    <ellipse id="Ellipse_53" data-name="Ellipse 53" cx="2.929" cy="5.332" rx="2.929" ry="5.332" transform="translate(32.763 95.913)" fill="#dce0ed"/>
    <path id="Path_353" data-name="Path 353" d="M256.334,603.28s-1.194.191-.576,1.777a11.473,11.473,0,0,1,.72,2.4s1.194.626,1.153-1.441A3.062,3.062,0,0,0,256.334,603.28Z" transform="translate(-220.26 -505.974)" fill="#f0f0f4"/>
    <ellipse id="Ellipse_54" data-name="Ellipse 54" cx="2.738" cy="4.982" rx="2.738" ry="4.982" transform="translate(17.248 94.293)" opacity="0.1"/>
    <ellipse id="Ellipse_55" data-name="Ellipse 55" cx="2.738" cy="4.982" rx="2.738" ry="4.982" transform="translate(17.248 94.148)" fill="#dce0ed"/>
    <path id="Path_354" data-name="Path 354" d="M164.234,590.88s-1.194.193-.576,1.778a11.571,11.571,0,0,1,.721,2.4s1.194.624,1.153-1.441A3.069,3.069,0,0,0,164.234,590.88Z" transform="translate(-143.864 -495.688)" fill="#f0f0f4"/>
    <path id="Path_355" data-name="Path 355" d="M190.337,590.163c-.191,1.969-1.153,16.57-1.153,16.57l-1.63-.273-.905-.148-1.207-.2-.147-.024-4.755-.793.939-15.487a1.937,1.937,0,0,1,1.968-1.814,1.383,1.383,0,0,1,.145,0c.329.029.682.063,1.052.1.155.017.314.034.472.055.457.055.929.121,1.391.2.235.041.467.084.7.128.387.077.762.162,1.108.259.234.065.457.135.662.211C189.834,589.254,190.4,589.655,190.337,590.163Z" transform="translate(-158.014 -493.29)" opacity="0.1"/>
    <path id="Path_356" data-name="Path 356" d="M190.49,587.992l-.931,17.392-.529-.048.922-17.291A1.926,1.926,0,0,1,190.49,587.992Z" transform="translate(-165.057 -493.291)" fill="#f36"/>
    <path id="Path_357" data-name="Path 357" d="M199.168,588.646l-.871,17.576h-.817L198.7,588.59C198.851,588.609,199.009,588.626,199.168,588.646Z" transform="translate(-172.066 -493.789)" fill="#f36"/>
    <path id="Path_358" data-name="Path 358" d="M210.365,590.239l-1.374,17.637h-.53v-.024l1.205-17.733C209.9,590.152,210.134,590.2,210.365,590.239Z" transform="translate(-181.174 -495.058)" fill="#f36"/>
    <path id="Path_359" data-name="Path 359" d="M218.686,592.551l-1.414,17.518v.034l-.912-.1v-.085l1.657-17.581C218.259,592.4,218.483,592.475,218.686,592.551Z" transform="translate(-187.727 -496.899)" fill="#f36"/>
    <path id="Path_360" data-name="Path 360" d="M113.571,625.993s-1.765-9.114,2.269-9.582,17.291.511,16.894,4.251-.824,9.438-.824,9.438l-2.737-.612s2.046-8.573-1.153-8.9-11.059-1.226-11.059-1.226-2.126-.36-.9,7.161Z" transform="translate(-102.145 -516.776)" opacity="0.1"/>
    <path id="Path_361" data-name="Path 361" d="M113.571,628.26s-1.765-9.69,2.269-10.159,17.291.512,16.894,4.251-.824,9.438-.824,9.438l-2.737-.612s2.046-8.573-1.153-8.9-11.064-1.217-11.064-1.217-2.126.216-.9,7.746Z" transform="translate(-102.145 -518.177)" fill="#dce0ed"/>
    <path id="Path_362" data-name="Path 362" d="M319.6,623.314l-3.553-.048a68.722,68.722,0,0,0-6.87-18.539c-1.446-.769-17.2-.665-17.2-.665-1.633.288-2.065,5.477-2.065,5.477s1.393,1.194.048,1.969c-.6.341-2.578.407-4.856.29a38.422,38.422,0,0,1-7.823-1.107c-3.069-.962-.626-2.738-.626-2.738s.433-.576.721-3.751a12.83,12.83,0,0,1,1.753-5.233c.133-.22.217-.341.217-.341a1.646,1.646,0,0,1,.561-.351c4.072-1.705,24.029-.082,24.029-.082l7.4,2.355c.2.082.52.6.909,1.437C314.579,607,319.6,623.314,319.6,623.314Z" transform="translate(-236.977 -501.177)" fill="#f36"/>
    <path id="Path_363" data-name="Path 363" d="M319.6,623.314l-3.553-.048a68.722,68.722,0,0,0-6.87-18.539c-1.446-.769-17.2-.665-17.2-.665-1.633.288-2.065,5.477-2.065,5.477s1.393,1.194.048,1.969c-.6.341-2.578.407-4.856.29a38.422,38.422,0,0,1-7.823-1.107c-3.069-.962-.626-2.738-.626-2.738s.433-.576.721-3.751a12.83,12.83,0,0,1,1.753-5.233c.133-.22.217-.341.217-.341a1.646,1.646,0,0,1,.561-.351c4.072-1.705,24.029-.082,24.029-.082l7.4,2.355c.2.082.52.6.909,1.437C314.579,607,319.6,623.314,319.6,623.314Z" transform="translate(-236.977 -501.177)" opacity="0.1"/>
    <path id="Path_364" data-name="Path 364" d="M328.762,601.969c-6.82-2.653-25.644-1.245-25.644-1.245-2-1.705-5.758-1.821-7.468-1.775.133-.22.217-.341.217-.341a1.646,1.646,0,0,1,.561-.351c4.072-1.705,24.029-.082,24.029-.082l7.4,2.355C328.058,600.614,328.374,601.135,328.762,601.969Z" transform="translate(-253.498 -501.161)" fill="#f36"/>
    <path id="Path_365" data-name="Path 365" d="M287.719,605.22c-.431,1.488-2.2,7.446-2.2,7.446a25.193,25.193,0,0,0-.39,2.883,38.426,38.426,0,0,1-7.823-1.107c-3.069-.962-.626-2.738-.626-2.738s.433-.576.721-3.751a12.765,12.765,0,0,1,1.969-5.572,1.645,1.645,0,0,1,.561-.351C282.594,602.664,288.046,604.093,287.719,605.22Z" transform="translate(-236.994 -504.937)" fill="#f36"/>
    <path id="Path_366" data-name="Path 366" d="M287.719,605.22c-.431,1.488-2.2,7.446-2.2,7.446a25.193,25.193,0,0,0-.39,2.883,38.426,38.426,0,0,1-7.823-1.107c-3.069-.962-.626-2.738-.626-2.738s.433-.576.721-3.751a12.765,12.765,0,0,1,1.969-5.572,1.645,1.645,0,0,1,.561-.351C282.594,602.664,288.046,604.093,287.719,605.22Z" transform="translate(-236.994 -504.937)" fill="#fff" opacity="0.1"/>
    <path id="Path_367" data-name="Path 367" d="M333.155,385.852c-1.91.288-2.738,4.251-2.738,4.251L325.23,407.43l36.669,6.015,9.366-28.815C362.656,380.737,333.155,385.852,333.155,385.852Zm29.5,18.515s-.217,1.657-1.622,1.8l-23.774-.929-4.876-.193-1.635-.063h-.116s-1.8.324-1.514-1.194c0,0,1.981-14.408,5.477-15.489,0,0,.363-.077,1-.2,1-.189,2.667-.486,4.631-.757.88-.121,1.819-.237,2.786-.341a41.863,41.863,0,0,1,7.83-.188s17.506-1.622,16.246,2.269c0,.005-3.671,14.089-4.428,15.277Z" transform="translate(-278.034 -323.393)" fill="#f36"/>
    <path id="Path_368" data-name="Path 368" d="M349.518,429.008H349.4s-1.8.324-1.514-1.194c0,0,1.981-14.408,5.477-15.489,0,0,.363-.077,1-.2C353.1,414.606,349.024,423.082,349.518,429.008Z" transform="translate(-296.803 -347.416)" fill="#f36"/>
    <path id="Path_369" data-name="Path 369" d="M349.518,429.008H349.4s-1.8.324-1.514-1.194c0,0,1.981-14.408,5.477-15.489,0,0,.363-.077,1-.2C353.1,414.606,349.024,423.082,349.518,429.008Z" transform="translate(-296.803 -347.416)" opacity="0.1"/>
    <path id="Path_370" data-name="Path 370" d="M157.253,683.757a2.319,2.319,0,0,1-2.171,1.217l-.735-.032-6.924-.3-2.5-.107-2.305-.191L112.18,679.4l.232-3,3.5.5,1.449.208,21.492,3.069,2.829.416,1.373.2,5.813-.043,6.292-.046a2.367,2.367,0,0,1,.928.171,2.256,2.256,0,0,1,1.219,1.158A1.894,1.894,0,0,1,157.253,683.757Z" transform="translate(-101.31 -566.627)" opacity="0.1"/>
    <path id="Path_371" data-name="Path 371" d="M118.342,667.747a2.319,2.319,0,0,1-2.171,1.217l-10.155-.438-2.305-.193-32.464-5.267-2.558-.414L67.3,662.42c-2.737-.576-1.92-3.315-1.92-3.315.191-1.25,4.9-2.4,6.435-2.353,1.033.032,1.176,1.623,1.159,2.665a6.869,6.869,0,0,1-.055.888l1.519.218,29.7,4.249,12.106-.089a2.326,2.326,0,0,1,2.147,1.337,1.894,1.894,0,0,1-.055,1.725Z" transform="translate(-62.399 -550.328)" fill="#dce0ed"/>
    <path id="Path_372" data-name="Path 372" d="M90.72,666.94a5.577,5.577,0,0,0,3.315,1.824A3.63,3.63,0,0,0,90.72,666.94Z" transform="translate(-83.509 -558.779)" opacity="0.1"/>
    <path id="Path_373" data-name="Path 373" d="M67.955,693.137s-4.275-.1-4.275,2.217,2.691,2.691,2.691,2.691l38.183,7.345,10.854.191s3.794-3.025-.145-4.37l-10.948.283-36.408-6.675S68.867,693.521,67.955,693.137Z" transform="translate(-61.08 -580.509)" opacity="0.1"/>
    <path id="Path_374" data-name="Path 374" d="M115.408,707.241l-10.854-.191L70.6,700.517l-2.484-.479-1.748-.341s-2.691-.385-2.691-2.691c0-1.654,2.2-2.072,3.446-2.176.489-.039.829-.032.829-.032.912.384-.048,1.679-.048,1.679l1.325.244,35.083,6.438,10.95-.288C119.2,704.21,115.408,707.241,115.408,707.241Z" transform="translate(-61.08 -581.887)" fill="#dce0ed"/>
    <path id="Path_375" data-name="Path 375" d="M95.708,677.007,97.966,676l1.153-.048-.1,9.7-3.553-.72-1.49-.96-.72-4.034a10.977,10.977,0,0,1,.431-1.824C93.835,677.971,95.708,677.007,95.708,677.007Z" transform="translate(-85.616 -566.253)" fill="#dce0ed"/>
    <path id="Path_376" data-name="Path 376" d="M95.708,677.007,97.966,676l1.153-.048-.1,9.7-3.553-.72-1.49-.96-.72-4.034a10.977,10.977,0,0,1,.431-1.824C93.835,677.971,95.708,677.007,95.708,677.007Z" transform="translate(-85.616 -566.253)" opacity="0.1"/>
    <path id="Path_377" data-name="Path 377" d="M86.253,700.525l.041.049-2.5-.481-.029-.048a6.1,6.1,0,0,1-.992-5.206c.489-.039.829-.032.829-.032.912.384-.048,1.68-.048,1.68l1.325.244A6.084,6.084,0,0,0,86.253,700.525Z" transform="translate(-76.73 -581.895)" opacity="0.1"/>
    <path id="Path_378" data-name="Path 378" d="M92.246,672.516q-.634.242-1.171.511a7.641,7.641,0,0,0-3.2,2.535l-2.558-.414a7.79,7.79,0,0,1,3.751-3.349l.535.121Z" transform="translate(-79.03 -562.811)" opacity="0.1"/>
    <path id="Path_379" data-name="Path 379" d="M88.43,671.73s-7.011,2.786-2.977,9.221l2.5.481s-4.945-5.668,3.649-8.982Z" transform="translate(-78.102 -562.753)" fill="#dce0ed"/>
    <path id="Path_380" data-name="Path 380" d="M133.388,656.646l2.593-.1-.433,10.421-4.179-.767-1.777-.865-.817-2.067-.576-2.065,1.393-1.874,1.586-1.055Z" transform="translate(-106.341 -544.546)" fill="#dce0ed"/>
    <path id="Path_381" data-name="Path 381" d="M133.388,656.646l2.593-.1-.433,10.421-4.179-.767-1.777-.865-.817-2.067-.576-2.065,1.393-1.874,1.586-1.055Z" transform="translate(-106.341 -544.546)" opacity="0.1"/>
    <ellipse id="Ellipse_56" data-name="Ellipse 56" cx="1.248" cy="2.113" rx="1.248" ry="2.113" transform="translate(25.511 115.366)" fill="#dce0ed"/>
    <path id="Path_382" data-name="Path 382" d="M117.324,744.834a2.78,2.78,0,0,0-1.765-2.234,2.079,2.079,0,0,0-2.774,2.206s.036,1.838,1.262,2.414l.072,2.046s.107,1.91-.974,1.729-.936-1.875-.936-1.875-.576-1.8-1.981-.865a1.415,1.415,0,0,0,.4,1.514,1.382,1.382,0,0,1,.375,1.344,1.954,1.954,0,0,0,.45,1.565,1.816,1.816,0,0,0,1.732.621,2.687,2.687,0,0,0,1.5-.863,3.935,3.935,0,0,0,1.04-2.624l.053-2.636A2.055,2.055,0,0,0,117.324,744.834Zm-2.217,1.855a2.107,2.107,0,1,0,0-.007Z" transform="translate(-99.63 -621.461)" fill="#dce0ed"/>
    <path id="Path_383" data-name="Path 383" d="M133.481,729.534a.682.682,0,0,0-.341.946,4.748,4.748,0,0,1,.59,1.4c-.055.305.631.055.72-.019s1.333,0,1.4-.853a1.458,1.458,0,0,0-.665-1.3l.288-1.855-1.705-.143.019,1.693Z" transform="translate(-118.632 -609.188)" fill="#636780"/>
    <path id="Path_384" data-name="Path 384" d="M133.481,729.534a.682.682,0,0,0-.341.946,4.748,4.748,0,0,1,.59,1.4c-.055.305.631.055.72-.019s1.333,0,1.4-.853a1.458,1.458,0,0,0-.665-1.3l.288-1.855-1.705-.143.019,1.693Z" transform="translate(-118.632 -609.188)" opacity="0.1"/>
    <path id="Path_385" data-name="Path 385" d="M138.26,738.21s.576,1.981.324,2.046S138.26,738.21,138.26,738.21Z" transform="translate(-122.943 -617.898)" opacity="0.1"/>
    <path id="Path_386" data-name="Path 386" d="M142.06,735.46s.576,1.981.324,2.046S142.06,735.46,142.06,735.46Z" transform="translate(-126.096 -615.616)" opacity="0.1"/>
    <path id="Path_387" data-name="Path 387" d="M120.186,692.281l-.962,5.956s-1.194-.162-1.845-.3a1.33,1.33,0,0,1-.413-.128c-.034-.034-.1-.031-.2-.012h0c-.321.065-.89.329-1,.106a.16.16,0,0,0-.032-.046h0c-.113-.123-.331-.034-.542,0a.461.461,0,0,1-.341-.044c-.171-.119-.537.072-.83.135-.186.041-.341.032-.419-.135a.387.387,0,0,0-.286-.2h0c-.276-.07-.663-.022-.887-.07a.2.2,0,0,1-.171-.111c-.044-.13-.292-.191-.556-.242-.322-.061-.668-.107-.694-.237,0-.044-.039-.063-.087-.065a2.978,2.978,0,0,0-.525.13h0c-.143.038-.264.038-.3-.065s-.2-.1-.392-.056c-.152.038-.321.1-.45.128s-.2.031-.215-.026c-.048-.191-.672.242-.815-.143a5.127,5.127,0,0,1,.44-6.247s.682.048,1.214.143a1.9,1.9,0,0,1,.512.143h0a2.938,2.938,0,0,0,.926.107,1.2,1.2,0,0,1,.512.123.341.341,0,0,1,.145.153c.08.182.264.22.465.21.273-.017.576-.119.682-.065h.01c.2.087.955,0,1.083.128l.01.012c.055.08.341,0,.651-.044h0a.729.729,0,0,1,.6.094.652.652,0,0,0,.467.138,2.75,2.75,0,0,1,.612.024.262.262,0,0,1,.121.077c.121.152.414.131.682.145a.7.7,0,0,1,.382.1.357.357,0,0,0,.138.058,4.108,4.108,0,0,0,1.158-.058Z" transform="translate(-97.316 -578.405)" fill="#636780"/>
    <path id="Path_388" data-name="Path 388" d="M114.468,697.582c-.152.038-.321.1-.45.128a4.743,4.743,0,0,1,.616-6.269,1.9,1.9,0,0,1,.512.143C113.182,693.844,114.093,696.668,114.468,697.582Z" transform="translate(-102.077 -579.102)" opacity="0.1"/>
    <path id="Path_389" data-name="Path 389" d="M122.267,698.8a2.978,2.978,0,0,0-.525.13h0a4.744,4.744,0,0,1,.916-6.01,1.194,1.194,0,0,1,.512.123A5.636,5.636,0,0,0,122.267,698.8Z" transform="translate(-108.659 -580.33)" opacity="0.1"/>
    <path id="Path_390" data-name="Path 390" d="M130.332,701.427a.2.2,0,0,1-.171-.111c-.044-.13-.292-.191-.556-.242a4.675,4.675,0,0,1,.733-5.7c.273-.017.576-.119.682-.065h.01C128.971,697.633,129.969,700.566,130.332,701.427Z" transform="translate(-115.218 -582.301)" opacity="0.1"/>
    <path id="Path_391" data-name="Path 391" d="M139.476,702.395c-.186.041-.341.032-.419-.135a.387.387,0,0,0-.286-.2h0a4.751,4.751,0,0,1,.9-6.053l.01.012c.055.08.341,0,.651-.044C137.906,698.42,139.154,701.673,139.476,702.395Z" transform="translate(-122.769 -582.86)" opacity="0.1"/>
    <path id="Path_392" data-name="Path 392" d="M149.931,703.407c-.113-.123-.331-.034-.542,0a4.732,4.732,0,0,1,.755-6.1,2.75,2.75,0,0,1,.612.024C148.677,699.564,149.535,702.413,149.931,703.407Z" transform="translate(-131.514 -583.961)" opacity="0.1"/>
    <path id="Path_393" data-name="Path 393" d="M159.478,704.724a1.33,1.33,0,0,1-.413-.128c-.034-.034-.1-.031-.2-.012h0a4.667,4.667,0,0,1,.587-5.8.7.7,0,0,1,.382.1.358.358,0,0,0,.138.058C158.248,701.164,159.12,703.844,159.478,704.724Z" transform="translate(-139.414 -585.196)" opacity="0.1"/>
    <ellipse id="Ellipse_57" data-name="Ellipse 57" cx="7.828" cy="11.526" rx="7.828" ry="11.526" transform="translate(58.796 112.389)" fill="#636780"/>
    <ellipse id="Ellipse_58" data-name="Ellipse 58" cx="5.691" cy="9.342" rx="5.691" ry="9.342" transform="translate(60.668 114.74)" opacity="0.1"/>
    <ellipse id="Ellipse_59" data-name="Ellipse 59" cx="5.691" cy="9.342" rx="5.691" ry="9.342" transform="translate(60.668 114.452)" fill="#f0f0f4"/>
    <ellipse id="Ellipse_60" data-name="Ellipse 60" cx="0.672" cy="1.153" rx="0.672" ry="1.153" transform="translate(66.719 116.374)" fill="#636780"/>
    <ellipse id="Ellipse_61" data-name="Ellipse 61" cx="0.672" cy="1.153" rx="0.672" ry="1.153" transform="translate(69.41 126.461)" fill="#636780"/>
    <ellipse id="Ellipse_62" data-name="Ellipse 62" cx="0.672" cy="1.153" rx="0.672" ry="1.153" transform="translate(62.156 121.658)" fill="#636780"/>
    <ellipse id="Ellipse_63" data-name="Ellipse 63" cx="0.672" cy="1.153" rx="0.672" ry="1.153" transform="translate(64.126 128.381)" fill="#636780"/>
    <path id="Path_394" data-name="Path 394" d="M775.22,634.26s5.627,14.986,5.332,15.922c0,0,2.377,1.441,2.953,1.081s.073-6.991.073-6.991l-1.081-5.835-1.226-3.458Z" transform="translate(-651.298 -531.672)" fill="#f36"/>
    <path id="Path_395" data-name="Path 395" d="M775.22,634.26s5.627,14.986,5.332,15.922c0,0,2.377,1.441,2.953,1.081s.073-6.991.073-6.991l-1.081-5.835-1.226-3.458Z" transform="translate(-651.298 -531.672)" opacity="0.15"/>
    <ellipse id="Ellipse_64" data-name="Ellipse 64" cx="0.672" cy="1.153" rx="0.672" ry="1.153" transform="translate(70.369 120.217)" fill="#636780"/>
    <ellipse id="Ellipse_65" data-name="Ellipse 65" cx="1.969" cy="2.738" rx="1.969" ry="2.738" transform="translate(65.421 121.416)" fill="#636780"/>
    <path id="Path_396" data-name="Path 396" d="M706.157,678.129c0,8.674-2.882,16.57-10.878,15.705-10.085-.217-10.878-7.032-10.878-15.705S689.266,663,695.275,663,706.157,669.454,706.157,678.129Z" transform="translate(-575.963 -555.511)" fill="#636780"/>
    <path id="Path_397" data-name="Path 397" d="M732.793,682.779c0-6.715-2.919-12.106-7.027-14.19-5.274,1-9.327,7.069-9.327,14.982,0,7.108.534,12.958,6.276,14.97C730.1,698.809,732.793,691.167,732.793,682.779Z" transform="translate(-602.54 -560.148)" opacity="0.1"/>
    <path id="Path_398" data-name="Path 398" d="M573.72,634.027s-1.441,1.224-2.234.36c0,0-1.945-15.562-4.394-15.634l-8.43-.072s-1.008.431-1.441,2.305L551.765,636.5l-29.864.43-2.281-4.774,24.711.072v-.01c.133-.479,4.263-15.223,7.037-17.051h0a1.194,1.194,0,0,1,.305-.148s10.3-1.364,13.688-.433c0,0,3.529.793,4.394,1.876h0c.116.121,1.453,1.627,1.867,5.968Z" transform="translate(-439.279 -515.084)" opacity="0.1"/>
    <path id="Path_399" data-name="Path 399" d="M573.72,635.717s-1.441,1.224-2.234.36c0,0-1.945-15.562-4.394-15.634l-8.43-.072s-1.008.431-1.441,2.305l-5.456,15.516-29.864.43-2.281-4.774,24.711.072v-.01c.133-.479,4.263-15.223,7.037-17.051h0a1.192,1.192,0,0,1,.305-.148s10.3-1.364,13.688-.433c0,0,3.529.793,4.394,1.875v.009c.116.121,1.453,1.627,1.867,5.968Z" transform="translate(-439.279 -516.486)" fill="#f36"/>
    <path id="Path_400" data-name="Path 400" d="M573.72,635.717s-1.441,1.224-2.234.36c0,0-1.945-15.562-4.394-15.634l-8.43-.072s-1.008.431-1.441,2.305l-5.456,15.516-29.864.43-2.281-4.774,24.711.072v-.01c.133-.479,4.263-15.223,7.037-17.051h0a1.192,1.192,0,0,1,.305-.148s10.3-1.364,13.688-.433c0,0,3.529.793,4.394,1.875v.009c.116.121,1.453,1.627,1.867,5.968Z" transform="translate(-439.279 -516.486)" opacity="0.1"/>
    <path id="Path_401" data-name="Path 401" d="M675.615,623.1c-.721,1.364-6.916,18.227-6.916,18.227L664.52,638.3v-.01c.133-.479,4.263-15.238,7.04-17.051C673.368,621.54,676.1,622.171,675.615,623.1Z" transform="translate(-559.473 -520.872)" fill="#f36"/>
    <path id="Path_402" data-name="Path 402" d="M579.927,586.94l-3.386,11.093-17.651-.511.143,1.657s13.833,2.017,19.739-.721l3.171-10.133,27.856.143-5.306-1.248Z" transform="translate(-471.854 -492.42)" fill="#f36"/>
    <path id="Path_403" data-name="Path 403" d="M579.927,586.94l-3.386,11.093-17.651-.511.143,1.657s13.833,2.017,19.739-.721l3.171-10.133,27.856.143-5.306-1.248Z" transform="translate(-471.854 -492.42)" fill="#fff" opacity="0.1"/>
    <path id="Path_404" data-name="Path 404" d="M172.415,689.47s-9.461,4.755-2.45,9.223l1.876.431s-6.868-4.945,4.6-9.654Z" transform="translate(-147.096 -577.468)" opacity="0.1"/>
    <path id="Path_405" data-name="Path 405" d="M174.1,689.47s-9.461,4.755-2.45,9.223l1.876.431s-6.868-4.945,4.6-9.654Z" transform="translate(-148.498 -577.468)" fill="#dce0ed"/>
    <ellipse id="Ellipse_66" data-name="Ellipse 66" cx="5.258" cy="9.006" rx="5.258" ry="9.006" transform="translate(118.23 114.836)" fill="#636780"/>
    <ellipse id="Ellipse_67" data-name="Ellipse 67" cx="3.823" cy="7.298" rx="3.823" ry="7.298" transform="translate(119.489 116.739)" opacity="0.1"/>
    <ellipse id="Ellipse_68" data-name="Ellipse 68" cx="3.823" cy="7.298" rx="3.823" ry="7.298" transform="translate(119.489 116.45)" fill="#f0f0f4"/>
    <ellipse id="Ellipse_69" data-name="Ellipse 69" cx="0.452" cy="0.9" rx="0.452" ry="0.9" transform="translate(123.554 117.951)" fill="#636780"/>
    <ellipse id="Ellipse_70" data-name="Ellipse 70" cx="0.452" cy="0.9" rx="0.452" ry="0.9" transform="translate(125.361 125.832)" fill="#636780"/>
    <ellipse id="Ellipse_71" data-name="Ellipse 71" cx="0.452" cy="0.9" rx="0.452" ry="0.9" transform="translate(120.488 122.079)" fill="#636780"/>
    <ellipse id="Ellipse_72" data-name="Ellipse 72" cx="0.452" cy="0.9" rx="0.452" ry="0.9" transform="translate(121.811 127.332)" fill="#636780"/>
    <ellipse id="Ellipse_73" data-name="Ellipse 73" cx="0.452" cy="0.9" rx="0.452" ry="0.9" transform="translate(126.006 120.954)" fill="#636780"/>
    <ellipse id="Ellipse_74" data-name="Ellipse 74" cx="1.323" cy="2.138" rx="1.323" ry="2.138" transform="translate(122.682 121.891)" fill="#636780"/>
    <path id="Path_406" data-name="Path 406" d="M324.8,524a178.346,178.346,0,0,1,36.742,6.268Z" transform="translate(-277.677 -440.212)" opacity="0.1"/>
    <path id="Path_407" data-name="Path 407" d="M769.692,359.77s-.868.14-.416,1.286a8.2,8.2,0,0,1,.527,1.737s.87.452.834-1.043A2.225,2.225,0,0,0,769.692,359.77Z" transform="translate(-646.259 -303.984)" fill="#dce0ed"/>
    <path id="Path_408" data-name="Path 408" d="M520.718,493.85l-.01.014a1.627,1.627,0,0,0-.341.786c-.14.911-.273,2.776,1.052,2.467a4.092,4.092,0,0,0,1.974-1.073,1.618,1.618,0,0,0,.438-1.194h0a1.245,1.245,0,0,0-.547-1.04l-.493-.283a.853.853,0,0,0-.46-.119l-.853.031A1.064,1.064,0,0,0,520.718,493.85Z" transform="translate(-439.829 -414.836)" fill="#fec2be"/>
    <path id="Path_409" data-name="Path 409" d="M557.848,404.5,555.3,417.148l-1.8,3.806,1.194,2.217,2.643-6.223s2.9-9.122,2.9-9.378A32.076,32.076,0,0,0,557.848,404.5Z" transform="translate(-467.383 -341.087)" fill="#f36"/>
  </g>
</svg>
